<?xml version="1.0" encoding="UTF-8"?>
<svg xmlns="http://www.w3.org/2000/svg" shape-rendering="geometricPrecision" viewBox="-6 -6 232 232" role="img" aria-labelledby="title desc">
  <title id="title">黑士棋子</title>
  <desc id="desc">透明背景、紧贴圆形边界的黑士实体木质象棋棋子，字形已转路径并按真实包围盒居中。</desc>
  <defs>
    <radialGradient id="black-shi-body" cx="34%" cy="22%" r="80%">
      <stop offset="0" stop-color="#f2d9ad" />
      <stop offset="0.34" stop-color="#c9965c" />
      <stop offset="0.74" stop-color="#8d5a32" />
      <stop offset="1" stop-color="#4e2c18" />
    </radialGradient>
    <radialGradient id="black-shi-face" cx="37%" cy="28%" r="76%">
      <stop offset="0" stop-color="#ffe8bd" stop-opacity="0.86" />
      <stop offset="0.36" stop-color="#d6a061" />
      <stop offset="0.84" stop-color="#9a6538" />
      <stop offset="1" stop-color="#59331d" />
    </radialGradient>
    <linearGradient id="black-shi-glyph-floor" x1="0" y1="0" x2="0" y2="1">
      <stop offset="0" stop-color="#050302" />
      <stop offset="0.24" stop-color="#120c07" />
      <stop offset="0.72" stop-color="#24160d" />
      <stop offset="1" stop-color="#3a2415" />
    </linearGradient>
    <pattern id="black-shi-grain" width="118" height="34" patternUnits="userSpaceOnUse" patternTransform="rotate(-13)">
      <path d="M -28 16 C 10 4, 50 31, 91 13 C 113 4, 137 8, 156 21" fill="none" stroke="#f3c88e" stroke-width="1.9" stroke-opacity="0.12" />
      <path d="M -14 29 C 28 15, 68 43, 124 24" fill="none" stroke="#6e3e20" stroke-width="1.5" stroke-opacity="0.16" />
    </pattern>
  </defs>
  <circle cx="110" cy="110" r="106" fill="url(#black-shi-body)" />
  <circle cx="110" cy="110" r="103" fill="none" stroke="#efc98f" stroke-width="2.4" stroke-opacity="0.34" />
  <circle cx="110" cy="110" r="96" fill="none" stroke="#4f2b16" stroke-width="4.4" stroke-opacity="0.58" />
  <circle cx="110" cy="110" r="89" fill="url(#black-shi-face)" />
  <circle cx="110" cy="110" r="89" fill="url(#black-shi-grain)" opacity="0.8" />
  <circle cx="110" cy="110" r="76" fill="none" stroke="#5f341b" stroke-width="6.2" stroke-opacity="0.95" />
  <circle cx="110" cy="110" r="64" fill="none" stroke="#704021" stroke-width="1.9" stroke-opacity="0.52" />
  <path d="M 42 106 C 46 67, 72 41, 111 36 C 80 49, 61 75, 59 106 C 57 130, 66 151, 84 164 C 56 152, 39 130, 42 106 Z" fill="#ffe2ae" opacity="0.18" />
  <path d="M 162 37 C 185 57, 199 88, 196 120 C 193 152, 171 181, 141 191 C 166 172, 180 147, 178 117 C 177 86, 171 59, 162 37 Z" fill="#4c2a16" opacity="0.18" />
  <g fill="none" stroke="#0b0603" stroke-width="10" stroke-linejoin="round" stroke-linecap="round" opacity="0.96">
    <path d="M 558 -333 Q 684 -350 758 -365 Q 832 -380 859 -380 Q 886 -380 922 -359 Q 958 -338 958 -323 Q 958 -303 900 -303 L 823 -306 Q 720 -306 557 -288 L 550 -33 Q 630 -42 658 -51 Q 686 -60 706 -60 Q 751 -60 786 -39.5 Q 821 -19 821 -3 Q 821 17 775 17 Q 763 17 730 13 Q 697 9 647 9 Q 535 9 386 40 Q 329 53 310.5 53 Q 292 53 269 37 Q 246 21 246 15 Q 246 5 290 3 Q 334 1 498 -26 L 499 -281 Q 380 -267 288.5 -248 Q 197 -229 180 -229 Q 167 -229 142 -248 Q 117 -267 117 -276 Q 117 -285 137 -285 L 162 -283 Q 218 -283 499 -324 Q 500 -505 493 -567 Q 486 -629 461 -660 Q 450 -674 450 -683 Q 450 -696 470 -696 Q 490 -696 537 -680.5 Q 584 -665 584 -641 Q 584 -631 576.5 -607.5 Q 569 -584 565.5 -527.5 Q 562 -471 558 -333 Z" transform="translate(57.20 144.00) scale(0.11350)" />
  </g>
  <g fill="none" stroke="#2b1a0f" stroke-width="5.2" stroke-linejoin="round" stroke-linecap="round" opacity="0.98">
    <path d="M 558 -333 Q 684 -350 758 -365 Q 832 -380 859 -380 Q 886 -380 922 -359 Q 958 -338 958 -323 Q 958 -303 900 -303 L 823 -306 Q 720 -306 557 -288 L 550 -33 Q 630 -42 658 -51 Q 686 -60 706 -60 Q 751 -60 786 -39.5 Q 821 -19 821 -3 Q 821 17 775 17 Q 763 17 730 13 Q 697 9 647 9 Q 535 9 386 40 Q 329 53 310.5 53 Q 292 53 269 37 Q 246 21 246 15 Q 246 5 290 3 Q 334 1 498 -26 L 499 -281 Q 380 -267 288.5 -248 Q 197 -229 180 -229 Q 167 -229 142 -248 Q 117 -267 117 -276 Q 117 -285 137 -285 L 162 -283 Q 218 -283 499 -324 Q 500 -505 493 -567 Q 486 -629 461 -660 Q 450 -674 450 -683 Q 450 -696 470 -696 Q 490 -696 537 -680.5 Q 584 -665 584 -641 Q 584 -631 576.5 -607.5 Q 569 -584 565.5 -527.5 Q 562 -471 558 -333 Z" transform="translate(57.20 144.00) scale(0.11350)" />
  </g>
  <g fill="url(#black-shi-glyph-floor)" opacity="0.98">
    <path d="M 558 -333 Q 684 -350 758 -365 Q 832 -380 859 -380 Q 886 -380 922 -359 Q 958 -338 958 -323 Q 958 -303 900 -303 L 823 -306 Q 720 -306 557 -288 L 550 -33 Q 630 -42 658 -51 Q 686 -60 706 -60 Q 751 -60 786 -39.5 Q 821 -19 821 -3 Q 821 17 775 17 Q 763 17 730 13 Q 697 9 647 9 Q 535 9 386 40 Q 329 53 310.5 53 Q 292 53 269 37 Q 246 21 246 15 Q 246 5 290 3 Q 334 1 498 -26 L 499 -281 Q 380 -267 288.5 -248 Q 197 -229 180 -229 Q 167 -229 142 -248 Q 117 -267 117 -276 Q 117 -285 137 -285 L 162 -283 Q 218 -283 499 -324 Q 500 -505 493 -567 Q 486 -629 461 -660 Q 450 -674 450 -683 Q 450 -696 470 -696 Q 490 -696 537 -680.5 Q 584 -665 584 -641 Q 584 -631 576.5 -607.5 Q 569 -584 565.5 -527.5 Q 562 -471 558 -333 Z" transform="translate(57.20 144.00) scale(0.11350)" />
  </g>
  <circle cx="110" cy="110" r="106.8" fill="none" stroke="#f0d2a4" stroke-width="1.2" stroke-opacity="0.18" />
  <circle cx="110" cy="110" r="105.4" fill="none" stroke="#5f3b22" stroke-width="1.1" stroke-opacity="0.28" />
</svg>
