<?xml version="1.0" encoding="UTF-8"?>
<svg xmlns="http://www.w3.org/2000/svg" shape-rendering="geometricPrecision" text-rendering="geometricPrecision" viewBox="-18 -18 256 256" role="img" aria-labelledby="title desc">
  <title id="title">黑方將棋子</title>
  <desc id="desc">浅木立体象棋棋子，繁体字，带柔和投影。</desc>
  <defs>
    <filter id="black-jiang-shadow" x="-20%" y="-20%" width="145%" height="145%" color-interpolation-filters="sRGB">
      <feDropShadow dx="7" dy="9" stdDeviation="5" flood-color="#2a1608" flood-opacity="0.42" />
    </filter>
    <radialGradient id="black-jiang-body" cx="34%" cy="24%" r="78%">
      <stop offset="0" stop-color="#ffe8b9" />
      <stop offset="0.42" stop-color="#d99b55" />
      <stop offset="0.76" stop-color="#a7632c" />
      <stop offset="1" stop-color="#6b3819" />
    </radialGradient>
    <radialGradient id="black-jiang-face" cx="37%" cy="26%" r="72%">
      <stop offset="0" stop-color="#fff0ca" />
      <stop offset="0.5" stop-color="#e0ad68" />
      <stop offset="1" stop-color="#9a5824" />
    </radialGradient>
    <linearGradient id="black-jiang-rim-light" x1="0" y1="0" x2="0" y2="1">
      <stop offset="0" stop-color="#ffe6ae" stop-opacity="0.92" />
      <stop offset="0.55" stop-color="#c9853e" stop-opacity="0.35" />
      <stop offset="1" stop-color="#5d2f14" stop-opacity="0.78" />
    </linearGradient>
    <pattern id="black-jiang-grain" width="96" height="30" patternUnits="userSpaceOnUse" patternTransform="rotate(-12)">
      <path d="M -20 13 C 12 4, 46 25, 82 12 C 104 4, 124 7, 142 18" fill="none" stroke="#fff2c7" stroke-width="1.5" stroke-opacity="0.18" />
      <path d="M -12 25 C 24 13, 59 35, 105 21" fill="none" stroke="#6c3718" stroke-width="1.4" stroke-opacity="0.13" />
    </pattern>
  </defs>

  <circle cx="110" cy="110" r="110" fill="url(#black-jiang-body)" filter="url(#black-jiang-shadow)" />
  <circle cx="110" cy="110" r="108" fill="none" stroke="#4d2811" stroke-width="2.2" stroke-opacity="0.55" />
  <circle cx="110" cy="110" r="101" fill="none" stroke="#ffdda0" stroke-width="3.2" stroke-opacity="0.58" />
  <circle cx="110" cy="110" r="93" fill="url(#black-jiang-face)" />
  <circle cx="110" cy="110" r="93" fill="url(#black-jiang-grain)" opacity="0.9" />
  <circle cx="110" cy="110" r="82" fill="none" stroke="#6d3a19" stroke-width="6.5" stroke-opacity="0.88" />
  <circle cx="110" cy="110" r="72" fill="none" stroke="#ffe2a8" stroke-width="2" stroke-opacity="0.45" />
  <path d="M 28 96 C 33 52, 65 24, 111 20 C 73 35, 51 65, 49 101 C 47 133, 61 161, 87 178 C 49 163, 25 132, 28 96 Z" fill="#fff1c5" opacity="0.22" />
  <path d="M 164 23 C 195 48, 211 86, 207 124 C 203 163, 175 195, 137 207 C 169 184, 188 152, 185 116 C 183 78, 174 47, 164 23 Z" fill="#4a250f" opacity="0.2" />

  <path d="M122.08 102Q121.96 102.73 121.41 103.4Q120.86 104.07 120.19 104.38Q119.52 104.68 118.72 104.44Q117.93 104.2 117.32 103.1Q116.83 102.49 115.31 100.6Q113.78 98.71 111.83 96.63Q110.12 97.97 108.41 99.19Q106.71 100.41 104.88 101.39Q102.19 102.98 101.52 102.49Q100.85 102 103.41 99.56Q106.1 96.75 108.72 93.4Q111.34 90.04 113.66 86.63Q115.98 83.21 117.87 79.86Q119.76 76.5 120.86 73.7Q122.44 70.16 122.69 68.27Q122.93 66.38 122.2 64.67Q120.61 61.5 122.38 60.76Q124.15 60.03 128.79 62.59Q133.91 65.03 134.58 66.74Q135.25 68.45 133.18 70.16Q132.45 70.77 131.47 71.99Q130.5 73.21 128.42 76.5Q132.08 76.26 135.68 75.28Q139.28 74.31 141.35 73.09Q143.31 72.11 144.59 72.17Q145.87 72.23 148.92 74.31Q153.68 77.48 153.92 79.06Q154.16 80.65 151.72 81.87Q150.75 82.6 148.37 84.8Q145.99 86.99 143.55 90.04Q140.99 92.97 138.73 95.53Q136.47 98.1 134.4 100.54Q135.62 100.78 138.43 102Q140.99 103.22 142.39 104.2Q143.79 105.17 144.34 106.03Q144.89 106.88 144.71 107.92Q144.53 108.95 144.04 110.42Q143.79 111.27 143.61 112.07Q143.43 112.86 143.18 114.08Q145.26 113.59 147.03 113.22Q148.8 112.86 150.63 112.37Q153.19 111.76 155.08 111.39Q156.97 111.03 158.5 111.09Q160.02 111.15 161.18 111.7Q162.34 112.25 163.8 113.1Q168.19 116.15 167.28 118.04Q166.36 119.93 160.02 119.32Q157.21 119.08 152.76 119.26Q148.31 119.45 143.06 119.93Q143.06 123.23 143.25 128.66Q143.43 134.09 143.92 142.75Q144.16 147.38 144.1 150.25Q144.04 153.12 143.61 155.38Q143.18 157.63 142.09 159.71Q140.99 161.78 139.16 164.59Q137.21 167.51 135.13 167.39Q133.06 167.27 131.47 163.98Q130.74 162.51 129.89 161.23Q129.03 159.95 127.81 158.67Q126.59 157.39 124.76 155.99Q122.93 154.58 120.25 152.63Q117.32 150.43 117.81 149.46Q118.3 148.48 122.32 149.58Q126.23 150.56 128.61 150.86Q130.98 151.17 132.26 151.04Q133.55 150.92 134.09 150.31Q134.64 149.7 134.64 148.6Q134.77 145.43 134.89 143.11Q135.01 140.8 135.01 138.97L135.01 125.67Q135.01 122.98 134.89 120.91Q129.64 121.52 124.64 122.19Q119.64 122.86 115.86 123.59Q119.03 126.03 120.92 127.74Q122.81 129.45 123.6 130.85Q124.4 132.26 124.4 133.72Q124.4 135.18 123.91 136.89Q122.93 140.19 121.04 140.74Q119.15 141.28 117.56 138.48Q116.34 136.4 115.49 134.88Q114.64 133.35 113.97 131.83Q113.29 130.3 112.62 128.66Q111.95 127.01 111.22 124.81L110.98 124.81Q108.9 125.42 107.13 125.12Q105.36 124.81 102.92 123.59Q100.61 122.5 100.79 121.76Q100.97 121.03 103.29 120.79Q105.61 120.67 109.02 120.12Q112.44 119.57 116.59 118.9Q120.74 118.23 125.43 117.43Q130.13 116.64 134.64 115.66Q134.4 112 134.09 109.81Q133.79 107.61 133.18 106.27Q132.69 105.29 132.39 104.38Q132.08 103.46 131.96 102.73Q125.62 108.95 119.52 112.98Q113.42 117.01 106.71 119.57Q105.73 119.93 105.79 118.78Q105.85 117.62 108.29 115.79Q117.81 108.83 125.25 100.9Q132.69 92.97 138.91 82.48Q140.87 79.06 137.08 79.8Q133.3 80.53 130.92 80.59Q128.54 80.65 126.23 80.04Q124.4 83.09 122.57 85.41Q128.06 86.02 129.76 87.73Q131.47 89.43 130.98 92.61Q130.74 94.31 129.09 94.68Q127.45 95.05 126.1 93.46Q124.27 91.75 123.05 90.41Q121.83 89.07 120.49 87.97Q117.56 91.75 114.27 94.56Q119.39 96.02 120.98 97.49Q122.57 98.95 122.08 102ZM81.57 127.62Q80.96 128.72 80.54 130.12Q80.11 131.52 79.5 133.6Q78.28 137.38 77 140.31Q75.72 143.24 73.83 145.74Q71.94 148.24 69.25 150.5Q66.57 152.75 63.03 155.07Q59 157.51 58.39 156.84Q57.78 156.17 60.71 153Q64.86 148.6 67.48 143.66Q70.11 138.72 71.94 132.01Q72.55 129.69 72.73 127.8Q72.91 125.91 72.55 123.59Q70.96 124.33 69.74 124.69Q68.52 125.06 67.67 125.42Q65.84 126.16 64.62 126.46Q63.4 126.77 62.24 126.58Q61.08 126.4 59.86 125.73Q58.64 125.06 56.81 123.72Q53.03 121.03 53.33 119.93Q53.64 118.84 57.05 119.08Q60.35 119.32 69.37 118.1Q78.4 116.88 91.94 114.08Q92.07 111.27 92.07 108.28Q92.07 105.29 92.19 101.76Q86.45 102.85 83.22 104.2Q79.99 105.54 78.16 107.12Q76.45 108.95 75.29 108.83Q74.13 108.71 71.94 106.39Q69.01 103.59 69.07 102.43Q69.13 101.27 71.2 100.41Q72.42 99.93 72.97 97.49Q73.52 95.05 73.4 92Q73.28 88.95 72.42 86.2Q71.57 83.46 69.98 81.99Q67.54 79.8 68.22 78.45Q68.89 77.11 73.4 78.33Q76.82 79.19 78.65 79.92Q80.48 80.65 81.21 81.63Q81.94 82.6 81.82 83.64Q81.7 84.68 81.21 86.14Q80.48 88.21 80.11 91.63Q79.74 95.05 79.99 98.95Q82.43 98.46 85.11 98.16Q87.8 97.85 92.43 97.24Q92.68 85.77 92.13 79.49Q91.58 73.21 89.99 71.13Q86.7 66.74 88.28 65.4Q89.87 64.06 95.24 66.5Q98.29 67.72 99.87 68.69Q101.46 69.67 102.07 70.77Q102.68 71.87 102.44 73.03Q102.19 74.18 101.58 75.65Q101.09 76.62 100.79 77.78Q100.48 78.94 100.24 81.02Q100 83.09 99.75 86.63Q99.51 90.17 99.26 96.14Q99.14 98.71 99.08 102Q99.02 105.29 98.9 110.24Q98.78 115.18 98.65 122.5Q98.53 129.82 98.41 140.43Q98.41 144.09 98.29 146.59Q98.17 149.09 97.98 151.11Q97.8 153.12 97.5 154.95Q97.19 156.78 96.7 158.97Q95.6 163 93.53 162.94Q91.46 162.88 89.26 158.73Q88.65 157.39 88.04 156.23Q87.43 155.07 87.31 153.42Q87.19 151.78 87.61 149.52Q88.04 147.26 89.14 143.97Q89.5 142.99 89.81 141.16Q90.11 139.33 90.48 136.4Q90.85 133.48 91.15 129.15Q91.46 124.81 91.7 118.59Q88.04 119.57 84.99 120.3Q81.94 121.03 79.5 121.64Q82.18 123.47 82.43 124.57Q82.67 125.67 81.57 127.62Z" fill="#0f191a" stroke="#f8d99b" stroke-width="1.2" stroke-opacity="0.24" paint-order="stroke fill" />
  <path d="M122.08 98Q121.96 98.73 121.41 99.4Q120.86 100.07 120.19 100.38Q119.52 100.68 118.72 100.44Q117.93 100.2 117.32 99.1Q116.83 98.49 115.31 96.6Q113.78 94.71 111.83 92.63Q110.12 93.97 108.41 95.19Q106.71 96.41 104.88 97.39Q102.19 98.98 101.52 98.49Q100.85 98 103.41 95.56Q106.1 92.75 108.72 89.4Q111.34 86.04 113.66 82.63Q115.98 79.21 117.87 75.86Q119.76 72.5 120.86 69.7Q122.44 66.16 122.69 64.27Q122.93 62.38 122.2 60.67Q120.61 57.5 122.38 56.76Q124.15 56.03 128.79 58.59Q133.91 61.03 134.58 62.74Q135.25 64.45 133.18 66.16Q132.45 66.77 131.47 67.99Q130.5 69.21 128.42 72.5Q132.08 72.26 135.68 71.28Q139.28 70.31 141.35 69.09Q143.31 68.11 144.59 68.17Q145.87 68.23 148.92 70.31Q153.68 73.48 153.92 75.06Q154.16 76.65 151.72 77.87Q150.75 78.6 148.37 80.8Q145.99 82.99 143.55 86.04Q140.99 88.97 138.73 91.53Q136.47 94.1 134.4 96.54Q135.62 96.78 138.43 98Q140.99 99.22 142.39 100.2Q143.79 101.17 144.34 102.03Q144.89 102.88 144.71 103.92Q144.53 104.95 144.04 106.42Q143.79 107.27 143.61 108.07Q143.43 108.86 143.18 110.08Q145.26 109.59 147.03 109.22Q148.8 108.86 150.63 108.37Q153.19 107.76 155.08 107.39Q156.97 107.03 158.5 107.09Q160.02 107.15 161.18 107.7Q162.34 108.25 163.8 109.1Q168.19 112.15 167.28 114.04Q166.36 115.93 160.02 115.32Q157.21 115.08 152.76 115.26Q148.31 115.45 143.06 115.93Q143.06 119.23 143.25 124.66Q143.43 130.09 143.92 138.75Q144.16 143.38 144.1 146.25Q144.04 149.12 143.61 151.38Q143.18 153.63 142.09 155.71Q140.99 157.78 139.16 160.59Q137.21 163.51 135.13 163.39Q133.06 163.27 131.47 159.98Q130.74 158.51 129.89 157.23Q129.03 155.95 127.81 154.67Q126.59 153.39 124.76 151.99Q122.93 150.58 120.25 148.63Q117.32 146.43 117.81 145.46Q118.3 144.48 122.32 145.58Q126.23 146.56 128.61 146.86Q130.98 147.17 132.26 147.04Q133.55 146.92 134.09 146.31Q134.64 145.7 134.64 144.6Q134.77 141.43 134.89 139.11Q135.01 136.8 135.01 134.97L135.01 121.67Q135.01 118.98 134.89 116.91Q129.64 117.52 124.64 118.19Q119.64 118.86 115.86 119.59Q119.03 122.03 120.92 123.74Q122.81 125.45 123.6 126.85Q124.4 128.26 124.4 129.72Q124.4 131.18 123.91 132.89Q122.93 136.19 121.04 136.74Q119.15 137.28 117.56 134.48Q116.34 132.4 115.49 130.88Q114.64 129.35 113.97 127.83Q113.29 126.3 112.62 124.66Q111.95 123.01 111.22 120.81L110.98 120.81Q108.9 121.42 107.13 121.12Q105.36 120.81 102.92 119.59Q100.61 118.5 100.79 117.76Q100.97 117.03 103.29 116.79Q105.61 116.67 109.02 116.12Q112.44 115.57 116.59 114.9Q120.74 114.23 125.43 113.43Q130.13 112.64 134.64 111.66Q134.4 108 134.09 105.81Q133.79 103.61 133.18 102.27Q132.69 101.29 132.39 100.38Q132.08 99.46 131.96 98.73Q125.62 104.95 119.52 108.98Q113.42 113.01 106.71 115.57Q105.73 115.93 105.79 114.78Q105.85 113.62 108.29 111.79Q117.81 104.83 125.25 96.9Q132.69 88.97 138.91 78.48Q140.87 75.06 137.08 75.8Q133.3 76.53 130.92 76.59Q128.54 76.65 126.23 76.04Q124.4 79.09 122.57 81.41Q128.06 82.02 129.76 83.73Q131.47 85.43 130.98 88.61Q130.74 90.31 129.09 90.68Q127.45 91.05 126.1 89.46Q124.27 87.75 123.05 86.41Q121.83 85.07 120.49 83.97Q117.56 87.75 114.27 90.56Q119.39 92.02 120.98 93.49Q122.57 94.95 122.08 98ZM81.57 123.62Q80.96 124.72 80.54 126.12Q80.11 127.52 79.5 129.6Q78.28 133.38 77 136.31Q75.72 139.24 73.83 141.74Q71.94 144.24 69.25 146.5Q66.57 148.75 63.03 151.07Q59 153.51 58.39 152.84Q57.78 152.17 60.71 149Q64.86 144.6 67.48 139.66Q70.11 134.72 71.94 128.01Q72.55 125.69 72.73 123.8Q72.91 121.91 72.55 119.59Q70.96 120.33 69.74 120.69Q68.52 121.06 67.67 121.42Q65.84 122.16 64.62 122.46Q63.4 122.77 62.24 122.58Q61.08 122.4 59.86 121.73Q58.64 121.06 56.81 119.72Q53.03 117.03 53.33 115.93Q53.64 114.84 57.05 115.08Q60.35 115.32 69.37 114.1Q78.4 112.88 91.94 110.08Q92.07 107.27 92.07 104.28Q92.07 101.29 92.19 97.76Q86.45 98.85 83.22 100.2Q79.99 101.54 78.16 103.12Q76.45 104.95 75.29 104.83Q74.13 104.71 71.94 102.39Q69.01 99.59 69.07 98.43Q69.13 97.27 71.2 96.41Q72.42 95.93 72.97 93.49Q73.52 91.05 73.4 88Q73.28 84.95 72.42 82.2Q71.57 79.46 69.98 77.99Q67.54 75.8 68.22 74.45Q68.89 73.11 73.4 74.33Q76.82 75.19 78.65 75.92Q80.48 76.65 81.21 77.63Q81.94 78.6 81.82 79.64Q81.7 80.68 81.21 82.14Q80.48 84.21 80.11 87.63Q79.74 91.05 79.99 94.95Q82.43 94.46 85.11 94.16Q87.8 93.85 92.43 93.24Q92.68 81.77 92.13 75.49Q91.58 69.21 89.99 67.13Q86.7 62.74 88.28 61.4Q89.87 60.06 95.24 62.5Q98.29 63.72 99.87 64.69Q101.46 65.67 102.07 66.77Q102.68 67.87 102.44 69.03Q102.19 70.18 101.58 71.65Q101.09 72.62 100.79 73.78Q100.48 74.94 100.24 77.02Q100 79.09 99.75 82.63Q99.51 86.17 99.26 92.14Q99.14 94.71 99.08 98Q99.02 101.29 98.9 106.24Q98.78 111.18 98.65 118.5Q98.53 125.82 98.41 136.43Q98.41 140.09 98.29 142.59Q98.17 145.09 97.98 147.11Q97.8 149.12 97.5 150.95Q97.19 152.78 96.7 154.97Q95.6 159 93.53 158.94Q91.46 158.88 89.26 154.73Q88.65 153.39 88.04 152.23Q87.43 151.07 87.31 149.42Q87.19 147.78 87.61 145.52Q88.04 143.26 89.14 139.97Q89.5 138.99 89.81 137.16Q90.11 135.33 90.48 132.4Q90.85 129.48 91.15 125.15Q91.46 120.81 91.7 114.59Q88.04 115.57 84.99 116.3Q81.94 117.03 79.5 117.64Q82.18 119.47 82.43 120.57Q82.67 121.67 81.57 123.62Z" fill="#1f2f31" />
</svg>
