<?xml version="1.0" encoding="UTF-8"?>
<svg xmlns="http://www.w3.org/2000/svg" shape-rendering="geometricPrecision" viewBox="-6 -6 232 232" role="img" aria-labelledby="title desc">
  <title id="title">黑卒棋子</title>
  <desc id="desc">透明背景、紧贴圆形边界的黑卒实体木质象棋棋子，字形已转路径并按真实包围盒居中。</desc>
  <defs>
    <radialGradient id="black-zu-body" cx="34%" cy="22%" r="80%">
      <stop offset="0" stop-color="#f2d9ad" />
      <stop offset="0.34" stop-color="#c9965c" />
      <stop offset="0.74" stop-color="#8d5a32" />
      <stop offset="1" stop-color="#4e2c18" />
    </radialGradient>
    <radialGradient id="black-zu-face" cx="37%" cy="28%" r="76%">
      <stop offset="0" stop-color="#ffe8bd" stop-opacity="0.86" />
      <stop offset="0.36" stop-color="#d6a061" />
      <stop offset="0.84" stop-color="#9a6538" />
      <stop offset="1" stop-color="#59331d" />
    </radialGradient>
    <linearGradient id="black-zu-glyph-floor" x1="0" y1="0" x2="0" y2="1">
      <stop offset="0" stop-color="#050302" />
      <stop offset="0.24" stop-color="#120c07" />
      <stop offset="0.72" stop-color="#24160d" />
      <stop offset="1" stop-color="#3a2415" />
    </linearGradient>
    <pattern id="black-zu-grain" width="118" height="34" patternUnits="userSpaceOnUse" patternTransform="rotate(-13)">
      <path d="M -28 16 C 10 4, 50 31, 91 13 C 113 4, 137 8, 156 21" fill="none" stroke="#f3c88e" stroke-width="1.9" stroke-opacity="0.12" />
      <path d="M -14 29 C 28 15, 68 43, 124 24" fill="none" stroke="#6e3e20" stroke-width="1.5" stroke-opacity="0.16" />
    </pattern>
  </defs>
  <circle cx="110" cy="110" r="106" fill="url(#black-zu-body)" />
  <circle cx="110" cy="110" r="103" fill="none" stroke="#efc98f" stroke-width="2.4" stroke-opacity="0.34" />
  <circle cx="110" cy="110" r="96" fill="none" stroke="#4f2b16" stroke-width="4.4" stroke-opacity="0.58" />
  <circle cx="110" cy="110" r="89" fill="url(#black-zu-face)" />
  <circle cx="110" cy="110" r="89" fill="url(#black-zu-grain)" opacity="0.8" />
  <circle cx="110" cy="110" r="76" fill="none" stroke="#5f341b" stroke-width="6.2" stroke-opacity="0.95" />
  <circle cx="110" cy="110" r="64" fill="none" stroke="#704021" stroke-width="1.9" stroke-opacity="0.52" />
  <path d="M 42 106 C 46 67, 72 41, 111 36 C 80 49, 61 75, 59 106 C 57 130, 66 151, 84 164 C 56 152, 39 130, 42 106 Z" fill="#ffe2ae" opacity="0.18" />
  <path d="M 162 37 C 185 57, 199 88, 196 120 C 193 152, 171 181, 141 191 C 166 172, 180 147, 178 117 C 177 86, 171 59, 162 37 Z" fill="#4c2a16" opacity="0.18" />
  <g fill="none" stroke="#0b0603" stroke-width="10" stroke-linejoin="round" stroke-linecap="round" opacity="0.96">
    <path d="M 593 -675 Q 593 -655 584 -640.5 Q 575 -626 562 -626 Q 549 -626 538 -637 Q 527 -648 505 -689.5 Q 483 -731 483 -737 Q 483 -743 493 -743 Q 515 -743 554 -726.5 Q 593 -710 593 -675 Z M 755 -650 Q 778 -650 792.5 -641 Q 807 -632 807 -627 Q 807 -617 782.5 -607 Q 758 -597 709 -592 L 566 -577 Q 475 -567 436 -560 Q 397 -553 362 -553 Q 327 -553 305 -566 Q 283 -579 283 -585 Q 283 -591 304 -592 Q 363 -594 491 -611 Q 619 -628 676.5 -639 Q 734 -650 755 -650 Z M 655 -439 Q 737 -416 764 -399.5 Q 791 -383 791 -355 Q 791 -327 770 -327 Q 753 -327 733 -347 L 646 -429 Q 614 -391 580.5 -366.5 Q 547 -342 536.5 -342 Q 526 -342 526 -347 Q 526 -352 535 -361 Q 569 -391 602.5 -448 Q 636 -505 633 -518 Q 630 -531 630 -538 Q 630 -554 643.5 -554 Q 657 -554 686.5 -541.5 Q 716 -529 716 -518 Q 716 -507 702 -496 Q 688 -485 655 -439 Z M 382 -408 Q 434 -392 448.5 -376 Q 463 -360 463 -342 Q 463 -324 456.5 -316 Q 450 -308 440 -308 Q 430 -308 424 -314.5 Q 418 -321 370 -395 Q 319 -338 282.5 -316.5 Q 246 -295 231 -295 Q 226 -295 226 -299 Q 226 -303 237 -313 Q 295 -364 334 -427.5 Q 373 -491 368 -512 Q 367 -517 367 -521 Q 367 -535 381 -535 Q 395 -535 423 -519 Q 451 -503 451 -492 Q 451 -481 438 -471.5 Q 425 -462 382 -408 Z M 558 -260 Q 735 -279 784 -286.5 Q 833 -294 865 -294 Q 897 -294 933.5 -275.5 Q 970 -257 970 -238 Q 970 -214 916 -214 Q 888 -214 850.5 -221.5 Q 813 -229 739.5 -229 Q 666 -229 558 -220 Q 561 -1 549.5 93 Q 538 187 521 187 Q 512 187 504.5 155.5 Q 497 124 497 44 L 499 -214 Q 313 -194 244.5 -177.5 Q 176 -161 153 -161 Q 130 -161 104 -178.5 Q 78 -196 78 -204.5 Q 78 -213 107 -213 Q 148 -213 499 -252 Q 497 -305 492 -314 Q 487 -323 487 -330 Q 487 -344 505.5 -344 Q 524 -344 544 -333.5 Q 564 -323 564 -303 Q 564 -297 561 -287 Q 558 -277 558 -260 Z" transform="translate(48.70 144.20) scale(0.11900)" />
  </g>
  <g fill="none" stroke="#2b1a0f" stroke-width="5.2" stroke-linejoin="round" stroke-linecap="round" opacity="0.98">
    <path d="M 593 -675 Q 593 -655 584 -640.5 Q 575 -626 562 -626 Q 549 -626 538 -637 Q 527 -648 505 -689.5 Q 483 -731 483 -737 Q 483 -743 493 -743 Q 515 -743 554 -726.5 Q 593 -710 593 -675 Z M 755 -650 Q 778 -650 792.5 -641 Q 807 -632 807 -627 Q 807 -617 782.5 -607 Q 758 -597 709 -592 L 566 -577 Q 475 -567 436 -560 Q 397 -553 362 -553 Q 327 -553 305 -566 Q 283 -579 283 -585 Q 283 -591 304 -592 Q 363 -594 491 -611 Q 619 -628 676.5 -639 Q 734 -650 755 -650 Z M 655 -439 Q 737 -416 764 -399.5 Q 791 -383 791 -355 Q 791 -327 770 -327 Q 753 -327 733 -347 L 646 -429 Q 614 -391 580.5 -366.5 Q 547 -342 536.5 -342 Q 526 -342 526 -347 Q 526 -352 535 -361 Q 569 -391 602.5 -448 Q 636 -505 633 -518 Q 630 -531 630 -538 Q 630 -554 643.5 -554 Q 657 -554 686.5 -541.5 Q 716 -529 716 -518 Q 716 -507 702 -496 Q 688 -485 655 -439 Z M 382 -408 Q 434 -392 448.5 -376 Q 463 -360 463 -342 Q 463 -324 456.5 -316 Q 450 -308 440 -308 Q 430 -308 424 -314.5 Q 418 -321 370 -395 Q 319 -338 282.5 -316.5 Q 246 -295 231 -295 Q 226 -295 226 -299 Q 226 -303 237 -313 Q 295 -364 334 -427.5 Q 373 -491 368 -512 Q 367 -517 367 -521 Q 367 -535 381 -535 Q 395 -535 423 -519 Q 451 -503 451 -492 Q 451 -481 438 -471.5 Q 425 -462 382 -408 Z M 558 -260 Q 735 -279 784 -286.5 Q 833 -294 865 -294 Q 897 -294 933.5 -275.5 Q 970 -257 970 -238 Q 970 -214 916 -214 Q 888 -214 850.5 -221.5 Q 813 -229 739.5 -229 Q 666 -229 558 -220 Q 561 -1 549.5 93 Q 538 187 521 187 Q 512 187 504.5 155.5 Q 497 124 497 44 L 499 -214 Q 313 -194 244.5 -177.5 Q 176 -161 153 -161 Q 130 -161 104 -178.5 Q 78 -196 78 -204.5 Q 78 -213 107 -213 Q 148 -213 499 -252 Q 497 -305 492 -314 Q 487 -323 487 -330 Q 487 -344 505.5 -344 Q 524 -344 544 -333.5 Q 564 -323 564 -303 Q 564 -297 561 -287 Q 558 -277 558 -260 Z" transform="translate(48.70 144.20) scale(0.11900)" />
  </g>
  <g fill="url(#black-zu-glyph-floor)" opacity="0.98">
    <path d="M 593 -675 Q 593 -655 584 -640.5 Q 575 -626 562 -626 Q 549 -626 538 -637 Q 527 -648 505 -689.5 Q 483 -731 483 -737 Q 483 -743 493 -743 Q 515 -743 554 -726.5 Q 593 -710 593 -675 Z M 755 -650 Q 778 -650 792.5 -641 Q 807 -632 807 -627 Q 807 -617 782.5 -607 Q 758 -597 709 -592 L 566 -577 Q 475 -567 436 -560 Q 397 -553 362 -553 Q 327 -553 305 -566 Q 283 -579 283 -585 Q 283 -591 304 -592 Q 363 -594 491 -611 Q 619 -628 676.5 -639 Q 734 -650 755 -650 Z M 655 -439 Q 737 -416 764 -399.5 Q 791 -383 791 -355 Q 791 -327 770 -327 Q 753 -327 733 -347 L 646 -429 Q 614 -391 580.5 -366.5 Q 547 -342 536.5 -342 Q 526 -342 526 -347 Q 526 -352 535 -361 Q 569 -391 602.5 -448 Q 636 -505 633 -518 Q 630 -531 630 -538 Q 630 -554 643.5 -554 Q 657 -554 686.5 -541.5 Q 716 -529 716 -518 Q 716 -507 702 -496 Q 688 -485 655 -439 Z M 382 -408 Q 434 -392 448.5 -376 Q 463 -360 463 -342 Q 463 -324 456.5 -316 Q 450 -308 440 -308 Q 430 -308 424 -314.5 Q 418 -321 370 -395 Q 319 -338 282.5 -316.5 Q 246 -295 231 -295 Q 226 -295 226 -299 Q 226 -303 237 -313 Q 295 -364 334 -427.5 Q 373 -491 368 -512 Q 367 -517 367 -521 Q 367 -535 381 -535 Q 395 -535 423 -519 Q 451 -503 451 -492 Q 451 -481 438 -471.5 Q 425 -462 382 -408 Z M 558 -260 Q 735 -279 784 -286.5 Q 833 -294 865 -294 Q 897 -294 933.5 -275.5 Q 970 -257 970 -238 Q 970 -214 916 -214 Q 888 -214 850.5 -221.5 Q 813 -229 739.5 -229 Q 666 -229 558 -220 Q 561 -1 549.5 93 Q 538 187 521 187 Q 512 187 504.5 155.5 Q 497 124 497 44 L 499 -214 Q 313 -194 244.5 -177.5 Q 176 -161 153 -161 Q 130 -161 104 -178.5 Q 78 -196 78 -204.5 Q 78 -213 107 -213 Q 148 -213 499 -252 Q 497 -305 492 -314 Q 487 -323 487 -330 Q 487 -344 505.5 -344 Q 524 -344 544 -333.5 Q 564 -323 564 -303 Q 564 -297 561 -287 Q 558 -277 558 -260 Z" transform="translate(48.70 144.20) scale(0.11900)" />
  </g>
  <circle cx="110" cy="110" r="106.8" fill="none" stroke="#f0d2a4" stroke-width="1.2" stroke-opacity="0.18" />
  <circle cx="110" cy="110" r="105.4" fill="none" stroke="#5f3b22" stroke-width="1.1" stroke-opacity="0.28" />
</svg>
