<?xml version="1.0" encoding="UTF-8"?>
<svg xmlns="http://www.w3.org/2000/svg" shape-rendering="geometricPrecision" text-rendering="geometricPrecision" viewBox="-18 -18 256 256" role="img" aria-labelledby="title desc">
  <title id="title">紅方仕棋子</title>
  <desc id="desc">浅木立体象棋棋子，繁体字，带柔和投影。</desc>
  <defs>
    <filter id="red-shi-shadow" x="-20%" y="-20%" width="145%" height="145%" color-interpolation-filters="sRGB">
      <feDropShadow dx="7" dy="9" stdDeviation="5" flood-color="#2a1608" flood-opacity="0.42" />
    </filter>
    <radialGradient id="red-shi-body" cx="34%" cy="24%" r="78%">
      <stop offset="0" stop-color="#ffe8b9" />
      <stop offset="0.42" stop-color="#d99b55" />
      <stop offset="0.76" stop-color="#a7632c" />
      <stop offset="1" stop-color="#6b3819" />
    </radialGradient>
    <radialGradient id="red-shi-face" cx="37%" cy="26%" r="72%">
      <stop offset="0" stop-color="#fff0ca" />
      <stop offset="0.5" stop-color="#e0ad68" />
      <stop offset="1" stop-color="#9a5824" />
    </radialGradient>
    <linearGradient id="red-shi-rim-light" x1="0" y1="0" x2="0" y2="1">
      <stop offset="0" stop-color="#ffe6ae" stop-opacity="0.92" />
      <stop offset="0.55" stop-color="#c9853e" stop-opacity="0.35" />
      <stop offset="1" stop-color="#5d2f14" stop-opacity="0.78" />
    </linearGradient>
    <pattern id="red-shi-grain" width="96" height="30" patternUnits="userSpaceOnUse" patternTransform="rotate(-12)">
      <path d="M -20 13 C 12 4, 46 25, 82 12 C 104 4, 124 7, 142 18" fill="none" stroke="#fff2c7" stroke-width="1.5" stroke-opacity="0.18" />
      <path d="M -12 25 C 24 13, 59 35, 105 21" fill="none" stroke="#6c3718" stroke-width="1.4" stroke-opacity="0.13" />
    </pattern>
  </defs>

  <circle cx="110" cy="110" r="110" fill="url(#red-shi-body)" filter="url(#red-shi-shadow)" />
  <circle cx="110" cy="110" r="108" fill="none" stroke="#4d2811" stroke-width="2.2" stroke-opacity="0.55" />
  <circle cx="110" cy="110" r="101" fill="none" stroke="#ffdda0" stroke-width="3.2" stroke-opacity="0.58" />
  <circle cx="110" cy="110" r="93" fill="url(#red-shi-face)" />
  <circle cx="110" cy="110" r="93" fill="url(#red-shi-grain)" opacity="0.9" />
  <circle cx="110" cy="110" r="82" fill="none" stroke="#6d3a19" stroke-width="6.5" stroke-opacity="0.88" />
  <circle cx="110" cy="110" r="72" fill="none" stroke="#ffe2a8" stroke-width="2" stroke-opacity="0.45" />
  <path d="M 28 96 C 33 52, 65 24, 111 20 C 73 35, 51 65, 49 101 C 47 133, 61 161, 87 178 C 49 163, 25 132, 28 96 Z" fill="#fff1c5" opacity="0.22" />
  <path d="M 164 23 C 195 48, 211 86, 207 124 C 203 163, 175 195, 137 207 C 169 184, 188 152, 185 116 C 183 78, 174 47, 164 23 Z" fill="#4a250f" opacity="0.2" />

  <path d="M78.04 105.86Q73.64 111.35 69.19 115.37Q64.74 119.4 59.86 122.57Q55.95 125.13 55.34 124.4Q54.73 123.67 57.78 120.38Q60.71 117.2 63.27 113.97Q65.84 110.74 68.28 107.26Q70.72 103.78 73.16 99.76Q75.6 95.73 78.16 90.85Q82.67 82.43 84.01 77.19Q85.36 71.94 84.38 69.87Q83.53 67.92 83.71 66.45Q83.89 64.99 84.99 64.5Q86.09 64.01 88.16 64.68Q90.24 65.35 93.16 67.67Q95.85 69.75 97.25 71.21Q98.65 72.67 99.02 73.65Q99.39 74.63 98.96 75.42Q98.53 76.21 97.56 77.07Q94.14 79.99 90.97 85.73Q86.33 94.15 82.43 99.76Q85.6 102.93 86.39 105Q87.19 107.08 86.94 109.4Q86.7 112.93 86.52 116.04Q86.33 119.16 86.21 122.57Q86.09 125.99 85.97 130.01Q85.84 134.04 85.72 139.29Q85.72 143.19 85.6 146.12Q85.48 149.05 85.3 151.49Q85.11 153.93 84.75 156Q84.38 158.07 83.89 160.27Q83.16 163.44 81.33 163.69Q79.5 163.93 77.43 161.12Q75.6 158.93 74.74 157.04Q73.89 155.15 73.77 153.32Q73.64 151.49 74.19 149.53Q74.74 147.58 75.96 145.14Q76.82 143.56 77.36 141.79Q77.91 140.02 78.28 137.21Q78.65 134.41 78.89 130.14Q79.13 125.87 79.38 119.28Q79.5 116.23 79.44 114.09Q79.38 111.96 79.19 110.49Q79.01 109.03 78.71 107.93Q78.4 106.83 78.04 105.86ZM129.03 142.09Q131.72 141.48 134.22 140.99Q136.72 140.51 138.91 139.9Q141.35 139.29 143.18 139.04Q145.01 138.8 146.48 138.86Q147.94 138.92 149.22 139.41Q150.5 139.9 151.97 140.75Q157.58 144.29 156.54 146.36Q155.51 148.44 146.11 148.19Q141.6 148.07 136.53 148.19Q131.47 148.31 126.47 148.68Q121.47 149.05 116.83 149.66Q112.2 150.27 108.41 151.12Q104.63 151.97 102.31 151.67Q100 151.36 97.19 149.53Q93.9 147.46 94.38 146.61Q94.87 145.75 100.61 145.63Q103.78 145.51 109.02 145.02Q114.27 144.53 120.13 143.56L120.13 116.23Q116.22 116.84 112.38 117.45Q108.54 118.06 105.73 118.67Q103.17 119.03 101.64 119.22Q100.12 119.4 99.02 119.4Q97.92 119.4 97.01 119.09Q96.09 118.79 94.75 118.18Q90.48 116.35 90.97 115.13Q91.46 113.91 97.8 113.54Q99.26 113.54 104.2 112.75Q109.15 111.96 120.13 110.01Q120.13 100 119.88 93.47Q119.64 86.95 119.15 82.92Q118.66 78.9 117.87 76.7Q117.08 74.5 115.98 73.04Q112.44 68.4 114.21 67.18Q115.98 65.96 125.25 69.14Q128.67 70.36 130.68 71.33Q132.69 72.31 133.42 73.41Q134.16 74.5 133.85 75.85Q133.55 77.19 132.45 79.14Q131.72 80.6 131.23 82.19Q130.74 83.78 130.37 86.76Q130.01 89.75 129.82 94.82Q129.64 99.88 129.52 108.3Q133.79 107.44 137.14 106.71Q140.5 105.98 142.21 105.37Q145.26 104.39 147.51 103.97Q149.77 103.54 151.6 103.54Q153.43 103.54 155.14 104.09Q156.85 104.64 158.68 105.61Q160.87 106.83 161.79 108.24Q162.7 109.64 161.91 110.8Q161.12 111.96 158.5 112.63Q155.87 113.3 150.99 113.06Q147.82 112.93 142.51 113.36Q137.21 113.79 129.52 114.76Z" fill="#5e1712" stroke="#f8d99b" stroke-width="1.2" stroke-opacity="0.24" paint-order="stroke fill" />
  <path d="M78.04 101.86Q73.64 107.35 69.19 111.37Q64.74 115.4 59.86 118.57Q55.95 121.13 55.34 120.4Q54.73 119.67 57.78 116.38Q60.71 113.2 63.27 109.97Q65.84 106.74 68.28 103.26Q70.72 99.78 73.16 95.76Q75.6 91.73 78.16 86.85Q82.67 78.43 84.01 73.19Q85.36 67.94 84.38 65.87Q83.53 63.92 83.71 62.45Q83.89 60.99 84.99 60.5Q86.09 60.01 88.16 60.68Q90.24 61.35 93.16 63.67Q95.85 65.75 97.25 67.21Q98.65 68.67 99.02 69.65Q99.39 70.63 98.96 71.42Q98.53 72.21 97.56 73.07Q94.14 75.99 90.97 81.73Q86.33 90.15 82.43 95.76Q85.6 98.93 86.39 101Q87.19 103.08 86.94 105.4Q86.7 108.93 86.52 112.04Q86.33 115.16 86.21 118.57Q86.09 121.99 85.97 126.01Q85.84 130.04 85.72 135.29Q85.72 139.19 85.6 142.12Q85.48 145.05 85.3 147.49Q85.11 149.93 84.75 152Q84.38 154.07 83.89 156.27Q83.16 159.44 81.33 159.69Q79.5 159.93 77.43 157.12Q75.6 154.93 74.74 153.04Q73.89 151.15 73.77 149.32Q73.64 147.49 74.19 145.53Q74.74 143.58 75.96 141.14Q76.82 139.56 77.36 137.79Q77.91 136.02 78.28 133.21Q78.65 130.41 78.89 126.14Q79.13 121.87 79.38 115.28Q79.5 112.23 79.44 110.09Q79.38 107.96 79.19 106.49Q79.01 105.03 78.71 103.93Q78.4 102.83 78.04 101.86ZM129.03 138.09Q131.72 137.48 134.22 136.99Q136.72 136.51 138.91 135.9Q141.35 135.29 143.18 135.04Q145.01 134.8 146.48 134.86Q147.94 134.92 149.22 135.41Q150.5 135.9 151.97 136.75Q157.58 140.29 156.54 142.36Q155.51 144.44 146.11 144.19Q141.6 144.07 136.53 144.19Q131.47 144.31 126.47 144.68Q121.47 145.05 116.83 145.66Q112.2 146.27 108.41 147.12Q104.63 147.97 102.31 147.67Q100 147.36 97.19 145.53Q93.9 143.46 94.38 142.61Q94.87 141.75 100.61 141.63Q103.78 141.51 109.02 141.02Q114.27 140.53 120.13 139.56L120.13 112.23Q116.22 112.84 112.38 113.45Q108.54 114.06 105.73 114.67Q103.17 115.03 101.64 115.22Q100.12 115.4 99.02 115.4Q97.92 115.4 97.01 115.09Q96.09 114.79 94.75 114.18Q90.48 112.35 90.97 111.13Q91.46 109.91 97.8 109.54Q99.26 109.54 104.2 108.75Q109.15 107.96 120.13 106.01Q120.13 96 119.88 89.47Q119.64 82.95 119.15 78.92Q118.66 74.9 117.87 72.7Q117.08 70.5 115.98 69.04Q112.44 64.4 114.21 63.18Q115.98 61.96 125.25 65.14Q128.67 66.36 130.68 67.33Q132.69 68.31 133.42 69.41Q134.16 70.5 133.85 71.85Q133.55 73.19 132.45 75.14Q131.72 76.6 131.23 78.19Q130.74 79.78 130.37 82.76Q130.01 85.75 129.82 90.82Q129.64 95.88 129.52 104.3Q133.79 103.44 137.14 102.71Q140.5 101.98 142.21 101.37Q145.26 100.39 147.51 99.97Q149.77 99.54 151.6 99.54Q153.43 99.54 155.14 100.09Q156.85 100.64 158.68 101.61Q160.87 102.83 161.79 104.24Q162.7 105.64 161.91 106.8Q161.12 107.96 158.5 108.63Q155.87 109.3 150.99 109.06Q147.82 108.93 142.51 109.36Q137.21 109.79 129.52 110.76Z" fill="#8e2d21" />
</svg>
