<?xml version="1.0" encoding="UTF-8"?>
<svg xmlns="http://www.w3.org/2000/svg" shape-rendering="geometricPrecision" viewBox="-6 -6 232 232" role="img" aria-labelledby="title desc">
  <title id="title">红马棋子</title>
  <desc id="desc">透明背景、紧贴圆形边界的红马实体木质象棋棋子，字形已转路径并按真实包围盒居中。</desc>
  <defs>
    <radialGradient id="red-ma-body" cx="34%" cy="22%" r="80%">
      <stop offset="0" stop-color="#f2d9ad" />
      <stop offset="0.34" stop-color="#c9965c" />
      <stop offset="0.74" stop-color="#8d5a32" />
      <stop offset="1" stop-color="#4e2c18" />
    </radialGradient>
    <radialGradient id="red-ma-face" cx="37%" cy="28%" r="76%">
      <stop offset="0" stop-color="#ffe8bd" stop-opacity="0.86" />
      <stop offset="0.36" stop-color="#d6a061" />
      <stop offset="0.84" stop-color="#9a6538" />
      <stop offset="1" stop-color="#59331d" />
    </radialGradient>
    <linearGradient id="red-ma-glyph-floor" x1="0" y1="0" x2="0" y2="1">
      <stop offset="0" stop-color="#7a120d" />
      <stop offset="0.24" stop-color="#d51f18" />
      <stop offset="0.72" stop-color="#f03027" />
      <stop offset="1" stop-color="#ff6355" />
    </linearGradient>
    <pattern id="red-ma-grain" width="118" height="34" patternUnits="userSpaceOnUse" patternTransform="rotate(-13)">
      <path d="M -28 16 C 10 4, 50 31, 91 13 C 113 4, 137 8, 156 21" fill="none" stroke="#f3c88e" stroke-width="1.9" stroke-opacity="0.12" />
      <path d="M -14 29 C 28 15, 68 43, 124 24" fill="none" stroke="#6e3e20" stroke-width="1.5" stroke-opacity="0.16" />
    </pattern>
  </defs>
  <circle cx="110" cy="110" r="106" fill="url(#red-ma-body)" />
  <circle cx="110" cy="110" r="103" fill="none" stroke="#efc98f" stroke-width="2.4" stroke-opacity="0.34" />
  <circle cx="110" cy="110" r="96" fill="none" stroke="#4f2b16" stroke-width="4.4" stroke-opacity="0.58" />
  <circle cx="110" cy="110" r="89" fill="url(#red-ma-face)" />
  <circle cx="110" cy="110" r="89" fill="url(#red-ma-grain)" opacity="0.8" />
  <circle cx="110" cy="110" r="76" fill="none" stroke="#5f341b" stroke-width="6.2" stroke-opacity="0.95" />
  <circle cx="110" cy="110" r="64" fill="none" stroke="#704021" stroke-width="1.9" stroke-opacity="0.52" />
  <path d="M 42 106 C 46 67, 72 41, 111 36 C 80 49, 61 75, 59 106 C 57 130, 66 151, 84 164 C 56 152, 39 130, 42 106 Z" fill="#ffe2ae" opacity="0.18" />
  <path d="M 162 37 C 185 57, 199 88, 196 120 C 193 152, 171 181, 141 191 C 166 172, 180 147, 178 117 C 177 86, 171 59, 162 37 Z" fill="#4c2a16" opacity="0.18" />
  <g fill="none" stroke="#5a150f" stroke-width="10" stroke-linejoin="round" stroke-linecap="round" opacity="0.96">
    <path d="M 674 -633 Q 674 -624 658.5 -610 Q 643 -596 633.5 -566 Q 624 -536 617 -477.5 Q 610 -419 599 -383.5 Q 588 -348 581 -337.5 Q 574 -327 562.5 -327 Q 551 -327 542 -344.5 Q 533 -362 533 -377.5 Q 533 -393 548 -440.5 Q 563 -488 570 -543.5 Q 577 -599 577 -608 Q 577 -617 572.5 -620.5 Q 568 -624 552.5 -624 Q 537 -624 459 -610 Q 381 -596 361.5 -589 Q 342 -582 327.5 -582 Q 313 -582 289.5 -598.5 Q 266 -615 266 -622 Q 266 -629 274.5 -630.5 Q 283 -632 323 -632 Q 363 -632 460 -649 Q 557 -666 574 -678 Q 591 -690 607.5 -690 Q 624 -690 649 -668 Q 674 -646 674 -633 Z M 371 -286 Q 439 -302 540 -317.5 Q 641 -333 691 -335.5 Q 741 -338 750 -344 Q 759 -350 771 -350 Q 798 -350 836 -325.5 Q 874 -301 874 -283 Q 874 -274 860 -261.5 Q 846 -249 836.5 -211.5 Q 827 -174 818 -96 Q 809 -18 785 40 Q 761 98 736.5 120 Q 712 142 698.5 142 Q 685 142 678 126 Q 647 68 611 21 Q 599 4 599 -1.5 Q 599 -7 605.5 -7 Q 612 -7 639.5 10.5 Q 667 28 687 28 Q 707 28 721.5 9 Q 736 -10 755 -86 Q 774 -162 774 -256 Q 774 -283 758.5 -292 Q 743 -301 696 -301 Q 606 -301 484.5 -275.5 Q 363 -250 328 -223 Q 321 -218 312.5 -218 Q 304 -218 295 -231.5 Q 286 -245 286 -259 Q 286 -273 297 -280 Q 316 -293 329 -339.5 Q 342 -386 342 -436 Q 342 -486 330 -507 Q 323 -519 323 -527.5 Q 323 -536 334.5 -536 Q 346 -536 377 -522 Q 408 -508 408 -491 Q 408 -484 403 -472 Q 387 -427 371 -286 Z M 603 -177 Q 639 -177 659.5 -159 Q 680 -141 680 -128 Q 680 -112 647 -112 Q 638 -112 622 -114 Q 606 -116 574 -116 Q 471 -116 351 -96 Q 231 -76 215.5 -67 Q 200 -58 181.5 -58 Q 163 -58 131 -75.5 Q 99 -93 99 -100 Q 99 -107 122 -107 Q 194 -107 364 -136 Q 534 -165 558 -171 Q 582 -177 603 -177 Z" transform="translate(48.20 145.40) scale(0.12050)" />
  </g>
  <g fill="none" stroke="#8f1f17" stroke-width="5.2" stroke-linejoin="round" stroke-linecap="round" opacity="0.98">
    <path d="M 674 -633 Q 674 -624 658.5 -610 Q 643 -596 633.5 -566 Q 624 -536 617 -477.5 Q 610 -419 599 -383.5 Q 588 -348 581 -337.5 Q 574 -327 562.5 -327 Q 551 -327 542 -344.5 Q 533 -362 533 -377.5 Q 533 -393 548 -440.5 Q 563 -488 570 -543.5 Q 577 -599 577 -608 Q 577 -617 572.5 -620.5 Q 568 -624 552.5 -624 Q 537 -624 459 -610 Q 381 -596 361.5 -589 Q 342 -582 327.5 -582 Q 313 -582 289.5 -598.5 Q 266 -615 266 -622 Q 266 -629 274.5 -630.5 Q 283 -632 323 -632 Q 363 -632 460 -649 Q 557 -666 574 -678 Q 591 -690 607.5 -690 Q 624 -690 649 -668 Q 674 -646 674 -633 Z M 371 -286 Q 439 -302 540 -317.5 Q 641 -333 691 -335.5 Q 741 -338 750 -344 Q 759 -350 771 -350 Q 798 -350 836 -325.5 Q 874 -301 874 -283 Q 874 -274 860 -261.5 Q 846 -249 836.5 -211.5 Q 827 -174 818 -96 Q 809 -18 785 40 Q 761 98 736.5 120 Q 712 142 698.5 142 Q 685 142 678 126 Q 647 68 611 21 Q 599 4 599 -1.5 Q 599 -7 605.5 -7 Q 612 -7 639.5 10.5 Q 667 28 687 28 Q 707 28 721.5 9 Q 736 -10 755 -86 Q 774 -162 774 -256 Q 774 -283 758.5 -292 Q 743 -301 696 -301 Q 606 -301 484.5 -275.5 Q 363 -250 328 -223 Q 321 -218 312.5 -218 Q 304 -218 295 -231.5 Q 286 -245 286 -259 Q 286 -273 297 -280 Q 316 -293 329 -339.5 Q 342 -386 342 -436 Q 342 -486 330 -507 Q 323 -519 323 -527.5 Q 323 -536 334.5 -536 Q 346 -536 377 -522 Q 408 -508 408 -491 Q 408 -484 403 -472 Q 387 -427 371 -286 Z M 603 -177 Q 639 -177 659.5 -159 Q 680 -141 680 -128 Q 680 -112 647 -112 Q 638 -112 622 -114 Q 606 -116 574 -116 Q 471 -116 351 -96 Q 231 -76 215.5 -67 Q 200 -58 181.5 -58 Q 163 -58 131 -75.5 Q 99 -93 99 -100 Q 99 -107 122 -107 Q 194 -107 364 -136 Q 534 -165 558 -171 Q 582 -177 603 -177 Z" transform="translate(48.20 145.40) scale(0.12050)" />
  </g>
  <g fill="url(#red-ma-glyph-floor)" opacity="0.98">
    <path d="M 674 -633 Q 674 -624 658.5 -610 Q 643 -596 633.5 -566 Q 624 -536 617 -477.5 Q 610 -419 599 -383.5 Q 588 -348 581 -337.5 Q 574 -327 562.5 -327 Q 551 -327 542 -344.5 Q 533 -362 533 -377.5 Q 533 -393 548 -440.5 Q 563 -488 570 -543.5 Q 577 -599 577 -608 Q 577 -617 572.5 -620.5 Q 568 -624 552.5 -624 Q 537 -624 459 -610 Q 381 -596 361.5 -589 Q 342 -582 327.5 -582 Q 313 -582 289.5 -598.5 Q 266 -615 266 -622 Q 266 -629 274.5 -630.5 Q 283 -632 323 -632 Q 363 -632 460 -649 Q 557 -666 574 -678 Q 591 -690 607.5 -690 Q 624 -690 649 -668 Q 674 -646 674 -633 Z M 371 -286 Q 439 -302 540 -317.5 Q 641 -333 691 -335.5 Q 741 -338 750 -344 Q 759 -350 771 -350 Q 798 -350 836 -325.5 Q 874 -301 874 -283 Q 874 -274 860 -261.5 Q 846 -249 836.5 -211.5 Q 827 -174 818 -96 Q 809 -18 785 40 Q 761 98 736.5 120 Q 712 142 698.5 142 Q 685 142 678 126 Q 647 68 611 21 Q 599 4 599 -1.5 Q 599 -7 605.5 -7 Q 612 -7 639.5 10.5 Q 667 28 687 28 Q 707 28 721.5 9 Q 736 -10 755 -86 Q 774 -162 774 -256 Q 774 -283 758.5 -292 Q 743 -301 696 -301 Q 606 -301 484.5 -275.5 Q 363 -250 328 -223 Q 321 -218 312.5 -218 Q 304 -218 295 -231.5 Q 286 -245 286 -259 Q 286 -273 297 -280 Q 316 -293 329 -339.5 Q 342 -386 342 -436 Q 342 -486 330 -507 Q 323 -519 323 -527.5 Q 323 -536 334.5 -536 Q 346 -536 377 -522 Q 408 -508 408 -491 Q 408 -484 403 -472 Q 387 -427 371 -286 Z M 603 -177 Q 639 -177 659.5 -159 Q 680 -141 680 -128 Q 680 -112 647 -112 Q 638 -112 622 -114 Q 606 -116 574 -116 Q 471 -116 351 -96 Q 231 -76 215.5 -67 Q 200 -58 181.5 -58 Q 163 -58 131 -75.5 Q 99 -93 99 -100 Q 99 -107 122 -107 Q 194 -107 364 -136 Q 534 -165 558 -171 Q 582 -177 603 -177 Z" transform="translate(48.20 145.40) scale(0.12050)" />
  </g>
  <circle cx="110" cy="110" r="106.8" fill="none" stroke="#f0d2a4" stroke-width="1.2" stroke-opacity="0.18" />
  <circle cx="110" cy="110" r="105.4" fill="none" stroke="#5f3b22" stroke-width="1.1" stroke-opacity="0.28" />
</svg>
