<?xml version="1.0" encoding="UTF-8"?>
<svg xmlns="http://www.w3.org/2000/svg" shape-rendering="geometricPrecision" text-rendering="geometricPrecision" viewBox="-18 -18 256 256" role="img" aria-labelledby="title desc">
  <title id="title">紅方兵棋子</title>
  <desc id="desc">浅木立体象棋棋子，繁体字，带柔和投影。</desc>
  <defs>
    <filter id="red-bing-shadow" x="-20%" y="-20%" width="145%" height="145%" color-interpolation-filters="sRGB">
      <feDropShadow dx="7" dy="9" stdDeviation="5" flood-color="#2a1608" flood-opacity="0.42" />
    </filter>
    <radialGradient id="red-bing-body" cx="34%" cy="24%" r="78%">
      <stop offset="0" stop-color="#ffe8b9" />
      <stop offset="0.42" stop-color="#d99b55" />
      <stop offset="0.76" stop-color="#a7632c" />
      <stop offset="1" stop-color="#6b3819" />
    </radialGradient>
    <radialGradient id="red-bing-face" cx="37%" cy="26%" r="72%">
      <stop offset="0" stop-color="#fff0ca" />
      <stop offset="0.5" stop-color="#e0ad68" />
      <stop offset="1" stop-color="#9a5824" />
    </radialGradient>
    <linearGradient id="red-bing-rim-light" x1="0" y1="0" x2="0" y2="1">
      <stop offset="0" stop-color="#ffe6ae" stop-opacity="0.92" />
      <stop offset="0.55" stop-color="#c9853e" stop-opacity="0.35" />
      <stop offset="1" stop-color="#5d2f14" stop-opacity="0.78" />
    </linearGradient>
    <pattern id="red-bing-grain" width="96" height="30" patternUnits="userSpaceOnUse" patternTransform="rotate(-12)">
      <path d="M -20 13 C 12 4, 46 25, 82 12 C 104 4, 124 7, 142 18" fill="none" stroke="#fff2c7" stroke-width="1.5" stroke-opacity="0.18" />
      <path d="M -12 25 C 24 13, 59 35, 105 21" fill="none" stroke="#6c3718" stroke-width="1.4" stroke-opacity="0.13" />
    </pattern>
  </defs>

  <circle cx="110" cy="110" r="110" fill="url(#red-bing-body)" filter="url(#red-bing-shadow)" />
  <circle cx="110" cy="110" r="108" fill="none" stroke="#4d2811" stroke-width="2.2" stroke-opacity="0.55" />
  <circle cx="110" cy="110" r="101" fill="none" stroke="#ffdda0" stroke-width="3.2" stroke-opacity="0.58" />
  <circle cx="110" cy="110" r="93" fill="url(#red-bing-face)" />
  <circle cx="110" cy="110" r="93" fill="url(#red-bing-grain)" opacity="0.9" />
  <circle cx="110" cy="110" r="82" fill="none" stroke="#6d3a19" stroke-width="6.5" stroke-opacity="0.88" />
  <circle cx="110" cy="110" r="72" fill="none" stroke="#ffe2a8" stroke-width="2" stroke-opacity="0.45" />
  <path d="M 28 96 C 33 52, 65 24, 111 20 C 73 35, 51 65, 49 101 C 47 133, 61 161, 87 178 C 49 163, 25 132, 28 96 Z" fill="#fff1c5" opacity="0.22" />
  <path d="M 164 23 C 195 48, 211 86, 207 124 C 203 163, 175 195, 137 207 C 169 184, 188 152, 185 116 C 183 78, 174 47, 164 23 Z" fill="#4a250f" opacity="0.2" />

  <path d="M147.33 155.54Q147.45 163.1 144.77 163.77Q142.09 164.44 136.84 158.22Q134.03 154.93 131.78 152.18Q129.52 149.44 127.45 146.94Q125.37 144.44 123.42 141.94Q121.47 139.43 119.27 136.63Q116.59 133.09 117.14 132.3Q117.69 131.5 121.83 133.21Q129.89 136.63 134.89 139.31Q139.89 142 142.63 144.56Q145.38 147.12 146.36 149.74Q147.33 152.37 147.33 155.54ZM101.83 143.58Q100.48 144.19 99.51 144.68Q98.53 145.17 97.5 145.78Q96.46 146.39 95.36 147.18Q94.26 147.97 92.8 149.07Q89.5 151.51 86.58 153.34Q83.65 155.17 80.78 156.64Q77.91 158.1 75.05 159.2Q72.18 160.3 69.01 161.15Q63.4 162.74 63.09 161.58Q62.79 160.42 68.03 157.37Q72.18 154.93 76.27 151.76Q80.35 148.58 83.59 145.41Q86.82 142.24 88.71 139.62Q90.6 136.99 90.6 135.65Q90.48 132.11 92.74 131.57Q94.99 131.02 99.63 134.92Q104.27 138.82 104.51 140.53Q104.75 142.24 101.83 143.58ZM113.05 100.88Q109.15 101.49 106.4 101.8Q103.66 102.1 101.64 102.29Q99.63 102.47 98.23 102.53Q96.82 102.59 95.73 102.47L96.09 122.23Q101.46 121.62 105.91 121.13Q110.37 120.65 114.27 120.28Q114.76 116.01 114.94 113.02Q115.12 110.03 115 107.84Q114.88 105.64 114.39 103.99Q113.9 102.35 113.05 100.88ZM95.36 80.87Q100.36 79.04 104.51 77.21Q108.66 75.38 111.65 73.74Q114.64 72.09 116.34 70.69Q118.05 69.28 118.3 68.31Q118.66 66.36 119.45 65.26Q120.25 64.16 121.96 64.16Q123.66 64.16 126.53 65.44Q129.4 66.72 134.03 69.41Q136.72 70.99 136.41 72.52Q136.11 74.04 133.55 74.41Q130.25 75.02 127.14 75.93Q124.03 76.85 118.66 78.56Q115.25 79.65 112.56 80.45Q109.88 81.24 107.32 82.03Q104.75 82.83 102.01 83.62Q99.26 84.41 95.73 85.51Q95.48 87.58 95.54 90.33Q95.6 93.07 95.73 98.32Q102.07 97.71 109.33 96Q116.59 94.29 125.86 91.49Q130.62 89.9 133.73 89.9Q136.84 89.9 139.52 91.73Q143.06 94.17 142.63 95.58Q142.21 96.98 137.33 97.47Q134.52 97.71 129.58 98.38Q124.64 99.05 118.91 100.03Q122.08 101.25 123.79 102.16Q125.49 103.08 126.16 103.87Q126.84 104.66 126.53 105.46Q126.23 106.25 125.49 107.35Q125.01 108.08 124.58 108.81Q124.15 109.54 123.66 110.89Q123.18 112.23 122.63 114.24Q122.08 116.25 121.35 119.55Q129.4 118.57 134.16 117.9Q138.91 117.23 141.72 116.62Q145.38 115.89 147.88 115.71Q150.38 115.52 152.21 115.89Q154.04 116.25 155.44 117.23Q156.85 118.21 158.56 119.79Q162.58 123.94 161.48 125.77Q160.39 127.6 153.31 126.62Q145.99 125.65 134.95 125.34Q123.91 125.04 108.78 126.26Q103.17 126.62 98.53 127.17Q93.9 127.72 89.75 128.39Q85.6 129.06 81.63 129.98Q77.67 130.89 73.52 131.99Q71.33 132.6 69.68 132.85Q68.03 133.09 66.57 132.91Q65.1 132.72 63.64 132.05Q62.18 131.38 60.35 130.16Q52.9 125.16 61.81 125.53Q64.01 125.53 70.29 124.98Q76.57 124.43 88.28 123.09Q88.04 113.45 87.61 106.8Q87.19 100.15 86.58 95.64Q85.97 91.12 85.17 88.44Q84.38 85.75 83.4 84.05Q81.94 81.61 81.51 80.08Q81.09 78.56 82.31 78.07Q83.53 77.58 86.7 78.25Q89.87 78.92 95.36 80.87Z" fill="#5e1712" stroke="#f8d99b" stroke-width="1.2" stroke-opacity="0.24" paint-order="stroke fill" />
  <path d="M147.33 151.54Q147.45 159.1 144.77 159.77Q142.09 160.44 136.84 154.22Q134.03 150.93 131.78 148.18Q129.52 145.44 127.45 142.94Q125.37 140.44 123.42 137.94Q121.47 135.43 119.27 132.63Q116.59 129.09 117.14 128.3Q117.69 127.5 121.83 129.21Q129.89 132.63 134.89 135.31Q139.89 138 142.63 140.56Q145.38 143.12 146.36 145.74Q147.33 148.37 147.33 151.54ZM101.83 139.58Q100.48 140.19 99.51 140.68Q98.53 141.17 97.5 141.78Q96.46 142.39 95.36 143.18Q94.26 143.97 92.8 145.07Q89.5 147.51 86.58 149.34Q83.65 151.17 80.78 152.64Q77.91 154.1 75.05 155.2Q72.18 156.3 69.01 157.15Q63.4 158.74 63.09 157.58Q62.79 156.42 68.03 153.37Q72.18 150.93 76.27 147.76Q80.35 144.58 83.59 141.41Q86.82 138.24 88.71 135.62Q90.6 132.99 90.6 131.65Q90.48 128.11 92.74 127.57Q94.99 127.02 99.63 130.92Q104.27 134.82 104.51 136.53Q104.75 138.24 101.83 139.58ZM113.05 96.88Q109.15 97.49 106.4 97.8Q103.66 98.1 101.64 98.29Q99.63 98.47 98.23 98.53Q96.82 98.59 95.73 98.47L96.09 118.23Q101.46 117.62 105.91 117.13Q110.37 116.65 114.27 116.28Q114.76 112.01 114.94 109.02Q115.12 106.03 115 103.84Q114.88 101.64 114.39 99.99Q113.9 98.35 113.05 96.88ZM95.36 76.87Q100.36 75.04 104.51 73.21Q108.66 71.38 111.65 69.74Q114.64 68.09 116.34 66.69Q118.05 65.28 118.3 64.31Q118.66 62.36 119.45 61.26Q120.25 60.16 121.96 60.16Q123.66 60.16 126.53 61.44Q129.4 62.72 134.03 65.41Q136.72 66.99 136.41 68.52Q136.11 70.04 133.55 70.41Q130.25 71.02 127.14 71.93Q124.03 72.85 118.66 74.56Q115.25 75.65 112.56 76.45Q109.88 77.24 107.32 78.03Q104.75 78.83 102.01 79.62Q99.26 80.41 95.73 81.51Q95.48 83.58 95.54 86.33Q95.6 89.07 95.73 94.32Q102.07 93.71 109.33 92Q116.59 90.29 125.86 87.49Q130.62 85.9 133.73 85.9Q136.84 85.9 139.52 87.73Q143.06 90.17 142.63 91.58Q142.21 92.98 137.33 93.47Q134.52 93.71 129.58 94.38Q124.64 95.05 118.91 96.03Q122.08 97.25 123.79 98.16Q125.49 99.08 126.16 99.87Q126.84 100.66 126.53 101.46Q126.23 102.25 125.49 103.35Q125.01 104.08 124.58 104.81Q124.15 105.54 123.66 106.89Q123.18 108.23 122.63 110.24Q122.08 112.25 121.35 115.55Q129.4 114.57 134.16 113.9Q138.91 113.23 141.72 112.62Q145.38 111.89 147.88 111.71Q150.38 111.52 152.21 111.89Q154.04 112.25 155.44 113.23Q156.85 114.21 158.56 115.79Q162.58 119.94 161.48 121.77Q160.39 123.6 153.31 122.62Q145.99 121.65 134.95 121.34Q123.91 121.04 108.78 122.26Q103.17 122.62 98.53 123.17Q93.9 123.72 89.75 124.39Q85.6 125.06 81.63 125.98Q77.67 126.89 73.52 127.99Q71.33 128.6 69.68 128.85Q68.03 129.09 66.57 128.91Q65.1 128.72 63.64 128.05Q62.18 127.38 60.35 126.16Q52.9 121.16 61.81 121.53Q64.01 121.53 70.29 120.98Q76.57 120.43 88.28 119.09Q88.04 109.45 87.61 102.8Q87.19 96.15 86.58 91.64Q85.97 87.12 85.17 84.44Q84.38 81.75 83.4 80.05Q81.94 77.61 81.51 76.08Q81.09 74.56 82.31 74.07Q83.53 73.58 86.7 74.25Q89.87 74.92 95.36 76.87Z" fill="#8e2d21" />
</svg>
