<?xml version="1.0" encoding="UTF-8"?>
<svg xmlns="http://www.w3.org/2000/svg" shape-rendering="geometricPrecision" viewBox="-6 -6 232 232" role="img" aria-labelledby="title desc">
  <title id="title">红相棋子</title>
  <desc id="desc">透明背景、紧贴圆形边界的红相实体木质象棋棋子，字形已转路径并按真实包围盒居中。</desc>
  <defs>
    <radialGradient id="red-xiang-body" cx="34%" cy="22%" r="80%">
      <stop offset="0" stop-color="#f2d9ad" />
      <stop offset="0.34" stop-color="#c9965c" />
      <stop offset="0.74" stop-color="#8d5a32" />
      <stop offset="1" stop-color="#4e2c18" />
    </radialGradient>
    <radialGradient id="red-xiang-face" cx="37%" cy="28%" r="76%">
      <stop offset="0" stop-color="#ffe8bd" stop-opacity="0.86" />
      <stop offset="0.36" stop-color="#d6a061" />
      <stop offset="0.84" stop-color="#9a6538" />
      <stop offset="1" stop-color="#59331d" />
    </radialGradient>
    <linearGradient id="red-xiang-glyph-floor" x1="0" y1="0" x2="0" y2="1">
      <stop offset="0" stop-color="#7a120d" />
      <stop offset="0.24" stop-color="#d51f18" />
      <stop offset="0.72" stop-color="#f03027" />
      <stop offset="1" stop-color="#ff6355" />
    </linearGradient>
    <pattern id="red-xiang-grain" width="118" height="34" patternUnits="userSpaceOnUse" patternTransform="rotate(-13)">
      <path d="M -28 16 C 10 4, 50 31, 91 13 C 113 4, 137 8, 156 21" fill="none" stroke="#f3c88e" stroke-width="1.9" stroke-opacity="0.12" />
      <path d="M -14 29 C 28 15, 68 43, 124 24" fill="none" stroke="#6e3e20" stroke-width="1.5" stroke-opacity="0.16" />
    </pattern>
  </defs>
  <circle cx="110" cy="110" r="106" fill="url(#red-xiang-body)" />
  <circle cx="110" cy="110" r="103" fill="none" stroke="#efc98f" stroke-width="2.4" stroke-opacity="0.34" />
  <circle cx="110" cy="110" r="96" fill="none" stroke="#4f2b16" stroke-width="4.4" stroke-opacity="0.58" />
  <circle cx="110" cy="110" r="89" fill="url(#red-xiang-face)" />
  <circle cx="110" cy="110" r="89" fill="url(#red-xiang-grain)" opacity="0.8" />
  <circle cx="110" cy="110" r="76" fill="none" stroke="#5f341b" stroke-width="6.2" stroke-opacity="0.95" />
  <circle cx="110" cy="110" r="64" fill="none" stroke="#704021" stroke-width="1.9" stroke-opacity="0.52" />
  <path d="M 42 106 C 46 67, 72 41, 111 36 C 80 49, 61 75, 59 106 C 57 130, 66 151, 84 164 C 56 152, 39 130, 42 106 Z" fill="#ffe2ae" opacity="0.18" />
  <path d="M 162 37 C 185 57, 199 88, 196 120 C 193 152, 171 181, 141 191 C 166 172, 180 147, 178 117 C 177 86, 171 59, 162 37 Z" fill="#4c2a16" opacity="0.18" />
  <g fill="none" stroke="#5a150f" stroke-width="10" stroke-linejoin="round" stroke-linecap="round" opacity="0.96">
    <path d="M 359 -478 Q 412 -491 434 -491 Q 456 -491 473 -483 Q 490 -475 490 -464 Q 490 -448 448.5 -440 Q 407 -432 356 -421 L 354 -328 Q 437 -323 452.5 -300.5 Q 468 -278 468 -257 Q 468 -232 450 -232 Q 438 -232 421 -247 L 354 -307 Q 353 -239 353 -62 Q 353 19 340.5 62 Q 328 105 316 105 Q 304 105 291 77.5 Q 278 50 278 29.5 Q 278 9 287 -18 Q 311 -115 317 -339 Q 286 -270 237 -211.5 Q 188 -153 130 -113 Q 72 -73 53 -73 Q 46 -73 46 -78 Q 46 -83 57 -92 Q 194 -204 301 -409 Q 195 -388 161.5 -388 Q 128 -388 108.5 -395.5 Q 89 -403 89 -409.5 Q 89 -416 131.5 -423.5 Q 174 -431 318 -468 Q 318 -561 316.5 -603.5 Q 315 -646 310.5 -662 Q 306 -678 295.5 -693.5 Q 285 -709 285 -719.5 Q 285 -730 299 -730 Q 313 -730 352 -713 Q 391 -696 391 -678 Q 391 -672 383.5 -649.5 Q 376 -627 370 -592 Q 364 -557 359 -478 Z M 568 -512 Q 647 -521 742 -558 Q 757 -563 769.5 -563 Q 782 -563 828 -540 Q 874 -517 874 -502 Q 874 -495 864 -483 Q 844 -458 844 -404.5 Q 844 -351 852 -242.5 Q 860 -134 860 -98 Q 860 -34 838 16.5 Q 816 67 795 67 Q 789 67 783.5 53.5 Q 778 40 758 -28 Q 749 -60 724 -60 Q 716 -60 705 -57 Q 637 -40 578 -43 Q 575 2 569 15 Q 563 28 551.5 28 Q 540 28 529.5 1.5 Q 519 -25 519 -47 Q 519 -69 522 -81 Q 536 -130 536 -315 Q 536 -401 532 -435 Q 528 -469 518 -486.5 Q 508 -504 508 -514.5 Q 508 -525 523.5 -525 Q 539 -525 568 -512 Z M 580 -73 Q 692 -96 726 -96 Q 745 -96 754 -88 Q 777 -68 782 -68 Q 787 -68 790.5 -87.5 Q 794 -107 794 -194 Q 794 -281 790 -354 Q 786 -427 781 -459.5 Q 776 -492 771.5 -497 Q 767 -502 757.5 -505.5 Q 748 -509 721.5 -509 Q 695 -509 656.5 -497.5 Q 618 -486 582 -487 Q 584 -416 584 -363 Q 680 -394 699 -394 Q 718 -394 728.5 -387.5 Q 739 -381 739 -373 Q 739 -365 731.5 -360.5 Q 724 -356 681.5 -347.5 Q 639 -339 620.5 -339 Q 602 -339 584 -343 L 583 -232 Q 681 -262 698 -262 Q 715 -262 730.5 -253 Q 746 -244 746 -236 Q 746 -228 737.5 -223.5 Q 729 -219 684 -212.5 Q 639 -206 617.5 -206 Q 596 -206 583 -208 Z" transform="translate(57.40 146.80) scale(0.11450)" />
  </g>
  <g fill="none" stroke="#8f1f17" stroke-width="5.2" stroke-linejoin="round" stroke-linecap="round" opacity="0.98">
    <path d="M 359 -478 Q 412 -491 434 -491 Q 456 -491 473 -483 Q 490 -475 490 -464 Q 490 -448 448.5 -440 Q 407 -432 356 -421 L 354 -328 Q 437 -323 452.5 -300.5 Q 468 -278 468 -257 Q 468 -232 450 -232 Q 438 -232 421 -247 L 354 -307 Q 353 -239 353 -62 Q 353 19 340.5 62 Q 328 105 316 105 Q 304 105 291 77.5 Q 278 50 278 29.5 Q 278 9 287 -18 Q 311 -115 317 -339 Q 286 -270 237 -211.5 Q 188 -153 130 -113 Q 72 -73 53 -73 Q 46 -73 46 -78 Q 46 -83 57 -92 Q 194 -204 301 -409 Q 195 -388 161.5 -388 Q 128 -388 108.5 -395.5 Q 89 -403 89 -409.5 Q 89 -416 131.5 -423.5 Q 174 -431 318 -468 Q 318 -561 316.5 -603.5 Q 315 -646 310.5 -662 Q 306 -678 295.5 -693.5 Q 285 -709 285 -719.5 Q 285 -730 299 -730 Q 313 -730 352 -713 Q 391 -696 391 -678 Q 391 -672 383.5 -649.5 Q 376 -627 370 -592 Q 364 -557 359 -478 Z M 568 -512 Q 647 -521 742 -558 Q 757 -563 769.5 -563 Q 782 -563 828 -540 Q 874 -517 874 -502 Q 874 -495 864 -483 Q 844 -458 844 -404.5 Q 844 -351 852 -242.5 Q 860 -134 860 -98 Q 860 -34 838 16.5 Q 816 67 795 67 Q 789 67 783.5 53.5 Q 778 40 758 -28 Q 749 -60 724 -60 Q 716 -60 705 -57 Q 637 -40 578 -43 Q 575 2 569 15 Q 563 28 551.5 28 Q 540 28 529.5 1.5 Q 519 -25 519 -47 Q 519 -69 522 -81 Q 536 -130 536 -315 Q 536 -401 532 -435 Q 528 -469 518 -486.5 Q 508 -504 508 -514.5 Q 508 -525 523.5 -525 Q 539 -525 568 -512 Z M 580 -73 Q 692 -96 726 -96 Q 745 -96 754 -88 Q 777 -68 782 -68 Q 787 -68 790.5 -87.5 Q 794 -107 794 -194 Q 794 -281 790 -354 Q 786 -427 781 -459.5 Q 776 -492 771.5 -497 Q 767 -502 757.5 -505.5 Q 748 -509 721.5 -509 Q 695 -509 656.5 -497.5 Q 618 -486 582 -487 Q 584 -416 584 -363 Q 680 -394 699 -394 Q 718 -394 728.5 -387.5 Q 739 -381 739 -373 Q 739 -365 731.5 -360.5 Q 724 -356 681.5 -347.5 Q 639 -339 620.5 -339 Q 602 -339 584 -343 L 583 -232 Q 681 -262 698 -262 Q 715 -262 730.5 -253 Q 746 -244 746 -236 Q 746 -228 737.5 -223.5 Q 729 -219 684 -212.5 Q 639 -206 617.5 -206 Q 596 -206 583 -208 Z" transform="translate(57.40 146.80) scale(0.11450)" />
  </g>
  <g fill="url(#red-xiang-glyph-floor)" opacity="0.98">
    <path d="M 359 -478 Q 412 -491 434 -491 Q 456 -491 473 -483 Q 490 -475 490 -464 Q 490 -448 448.5 -440 Q 407 -432 356 -421 L 354 -328 Q 437 -323 452.5 -300.5 Q 468 -278 468 -257 Q 468 -232 450 -232 Q 438 -232 421 -247 L 354 -307 Q 353 -239 353 -62 Q 353 19 340.5 62 Q 328 105 316 105 Q 304 105 291 77.5 Q 278 50 278 29.5 Q 278 9 287 -18 Q 311 -115 317 -339 Q 286 -270 237 -211.5 Q 188 -153 130 -113 Q 72 -73 53 -73 Q 46 -73 46 -78 Q 46 -83 57 -92 Q 194 -204 301 -409 Q 195 -388 161.5 -388 Q 128 -388 108.5 -395.5 Q 89 -403 89 -409.5 Q 89 -416 131.5 -423.5 Q 174 -431 318 -468 Q 318 -561 316.5 -603.5 Q 315 -646 310.5 -662 Q 306 -678 295.5 -693.5 Q 285 -709 285 -719.5 Q 285 -730 299 -730 Q 313 -730 352 -713 Q 391 -696 391 -678 Q 391 -672 383.5 -649.5 Q 376 -627 370 -592 Q 364 -557 359 -478 Z M 568 -512 Q 647 -521 742 -558 Q 757 -563 769.5 -563 Q 782 -563 828 -540 Q 874 -517 874 -502 Q 874 -495 864 -483 Q 844 -458 844 -404.5 Q 844 -351 852 -242.5 Q 860 -134 860 -98 Q 860 -34 838 16.5 Q 816 67 795 67 Q 789 67 783.5 53.5 Q 778 40 758 -28 Q 749 -60 724 -60 Q 716 -60 705 -57 Q 637 -40 578 -43 Q 575 2 569 15 Q 563 28 551.5 28 Q 540 28 529.5 1.5 Q 519 -25 519 -47 Q 519 -69 522 -81 Q 536 -130 536 -315 Q 536 -401 532 -435 Q 528 -469 518 -486.5 Q 508 -504 508 -514.5 Q 508 -525 523.5 -525 Q 539 -525 568 -512 Z M 580 -73 Q 692 -96 726 -96 Q 745 -96 754 -88 Q 777 -68 782 -68 Q 787 -68 790.5 -87.5 Q 794 -107 794 -194 Q 794 -281 790 -354 Q 786 -427 781 -459.5 Q 776 -492 771.5 -497 Q 767 -502 757.5 -505.5 Q 748 -509 721.5 -509 Q 695 -509 656.5 -497.5 Q 618 -486 582 -487 Q 584 -416 584 -363 Q 680 -394 699 -394 Q 718 -394 728.5 -387.5 Q 739 -381 739 -373 Q 739 -365 731.5 -360.5 Q 724 -356 681.5 -347.5 Q 639 -339 620.5 -339 Q 602 -339 584 -343 L 583 -232 Q 681 -262 698 -262 Q 715 -262 730.5 -253 Q 746 -244 746 -236 Q 746 -228 737.5 -223.5 Q 729 -219 684 -212.5 Q 639 -206 617.5 -206 Q 596 -206 583 -208 Z" transform="translate(57.40 146.80) scale(0.11450)" />
  </g>
  <circle cx="110" cy="110" r="106.8" fill="none" stroke="#f0d2a4" stroke-width="1.2" stroke-opacity="0.18" />
  <circle cx="110" cy="110" r="105.4" fill="none" stroke="#5f3b22" stroke-width="1.1" stroke-opacity="0.28" />
</svg>
