<?xml version="1.0" encoding="UTF-8"?>
<svg xmlns="http://www.w3.org/2000/svg" shape-rendering="geometricPrecision" text-rendering="geometricPrecision" viewBox="-18 -18 256 256" role="img" aria-labelledby="title desc">
  <title id="title">紅方馬棋子</title>
  <desc id="desc">浅木立体象棋棋子，繁体字，带柔和投影。</desc>
  <defs>
    <filter id="red-ma-shadow" x="-20%" y="-20%" width="145%" height="145%" color-interpolation-filters="sRGB">
      <feDropShadow dx="7" dy="9" stdDeviation="5" flood-color="#2a1608" flood-opacity="0.42" />
    </filter>
    <radialGradient id="red-ma-body" cx="34%" cy="24%" r="78%">
      <stop offset="0" stop-color="#ffe8b9" />
      <stop offset="0.42" stop-color="#d99b55" />
      <stop offset="0.76" stop-color="#a7632c" />
      <stop offset="1" stop-color="#6b3819" />
    </radialGradient>
    <radialGradient id="red-ma-face" cx="37%" cy="26%" r="72%">
      <stop offset="0" stop-color="#fff0ca" />
      <stop offset="0.5" stop-color="#e0ad68" />
      <stop offset="1" stop-color="#9a5824" />
    </radialGradient>
    <linearGradient id="red-ma-rim-light" x1="0" y1="0" x2="0" y2="1">
      <stop offset="0" stop-color="#ffe6ae" stop-opacity="0.92" />
      <stop offset="0.55" stop-color="#c9853e" stop-opacity="0.35" />
      <stop offset="1" stop-color="#5d2f14" stop-opacity="0.78" />
    </linearGradient>
    <pattern id="red-ma-grain" width="96" height="30" patternUnits="userSpaceOnUse" patternTransform="rotate(-12)">
      <path d="M -20 13 C 12 4, 46 25, 82 12 C 104 4, 124 7, 142 18" fill="none" stroke="#fff2c7" stroke-width="1.5" stroke-opacity="0.18" />
      <path d="M -12 25 C 24 13, 59 35, 105 21" fill="none" stroke="#6c3718" stroke-width="1.4" stroke-opacity="0.13" />
    </pattern>
  </defs>

  <circle cx="110" cy="110" r="110" fill="url(#red-ma-body)" filter="url(#red-ma-shadow)" />
  <circle cx="110" cy="110" r="108" fill="none" stroke="#4d2811" stroke-width="2.2" stroke-opacity="0.55" />
  <circle cx="110" cy="110" r="101" fill="none" stroke="#ffdda0" stroke-width="3.2" stroke-opacity="0.58" />
  <circle cx="110" cy="110" r="93" fill="url(#red-ma-face)" />
  <circle cx="110" cy="110" r="93" fill="url(#red-ma-grain)" opacity="0.9" />
  <circle cx="110" cy="110" r="82" fill="none" stroke="#6d3a19" stroke-width="6.5" stroke-opacity="0.88" />
  <circle cx="110" cy="110" r="72" fill="none" stroke="#ffe2a8" stroke-width="2" stroke-opacity="0.45" />
  <path d="M 28 96 C 33 52, 65 24, 111 20 C 73 35, 51 65, 49 101 C 47 133, 61 161, 87 178 C 49 163, 25 132, 28 96 Z" fill="#fff1c5" opacity="0.22" />
  <path d="M 164 23 C 195 48, 211 86, 207 124 C 203 163, 175 195, 137 207 C 169 184, 188 152, 185 116 C 183 78, 174 47, 164 23 Z" fill="#4a250f" opacity="0.2" />

  <path d="M83.28 67.18Q88.41 68.53 89.63 69.62Q94.14 69.38 101.03 67.85Q107.93 66.33 119.27 63.04Q124.64 61.45 127.93 61.33Q131.23 61.21 134.52 62.3Q137.57 63.4 137.21 65.05Q136.84 66.7 132.45 67.79Q126.47 69.14 122.69 69.93Q118.91 70.72 116.47 71.33Q116.34 72.67 116.28 74.81Q116.22 76.94 116.1 80.48Q120.61 79.02 122.99 78.96Q125.37 78.9 127.57 80.24Q130.01 81.58 129.82 83.17Q129.64 84.75 125.13 85.61Q122.2 86.22 120.06 86.52Q117.93 86.83 115.73 87.19Q115.61 89.02 115.55 91.1Q115.49 93.17 115.49 95.61Q120.49 94.15 123.18 94.08Q125.86 94.02 128.06 95.24Q130.5 96.71 130.25 97.99Q130.01 99.27 125.62 100.12Q122.69 100.86 120.31 101.28Q117.93 101.71 115.25 102.2Q115.25 104.27 115.19 106.65Q115.12 109.03 115 111.59Q122.93 110.25 129.15 108.91Q135.38 107.57 137.82 106.59Q138.91 106.1 139.83 105.98Q140.74 105.86 142.09 106.16Q143.43 106.47 145.32 107.44Q147.21 108.42 150.14 110.25Q154.65 113.18 155.26 114.64Q155.87 116.11 154.29 117.81Q153.43 118.55 152.94 119.4Q152.46 120.25 152.15 121.53Q151.85 122.82 151.6 124.65Q151.36 126.48 150.99 129.04Q150.02 136.97 148.98 141.66Q147.94 146.36 146.97 149.66Q145.62 154.05 143.06 157.77Q140.5 161.49 135.5 165.27Q130.62 169.05 129.52 162.71Q129.28 161.12 128.73 159.66Q128.18 158.2 127.26 156.73Q126.35 155.27 124.82 153.5Q123.3 151.73 121.1 149.41Q118.91 147.34 119.64 146.36Q120.37 145.39 124.52 146.85Q127.93 147.95 130.19 148.37Q132.45 148.8 133.85 148.74Q135.25 148.68 135.86 148.19Q136.47 147.7 136.84 146.97Q139.52 139.29 140.68 132.88Q141.84 126.48 141.11 119.16Q140.74 117.08 139.89 116.04Q139.04 115.01 135.93 114.76Q132.81 114.52 126.59 115.13Q120.37 115.74 109.27 117.33Q102.68 118.18 98.72 118.85Q94.75 119.52 92.43 120.13Q90.11 120.74 89.2 121.47Q88.28 122.21 87.8 123.06Q86.33 125.5 84.56 125.5Q82.79 125.5 81.33 122.69Q79.01 117.45 80.48 112.69Q81.09 110.74 81.51 107.2Q81.94 103.66 82.25 99.57Q82.55 95.49 82.49 91.1Q82.43 86.7 82.12 82.86Q81.82 79.02 81.33 76.21Q80.84 73.41 80.11 72.31Q77.55 68.65 78.65 67.43Q79.74 66.21 83.28 67.18ZM106.58 72.8Q100.48 73.65 97.07 73.83Q93.65 74.02 90.97 73.77Q90.6 77.8 90.42 82.13Q90.24 86.46 90.11 91.46Q89.99 96.46 89.81 102.14Q89.63 107.81 89.38 114.76Q93.41 114.52 97.98 113.97Q102.56 113.42 107.19 112.69Q107.32 110.25 107.32 107.99Q107.32 105.74 107.32 103.54Q107.07 103.54 106.89 103.6Q106.71 103.66 106.46 103.66Q102.31 104.39 99.69 104.39Q97.07 104.39 94.51 103.42Q92.19 102.44 92.37 101.71Q92.55 100.98 94.75 100.73Q98.17 100.12 100.91 99.64Q103.66 99.15 107.56 98.05Q107.56 95.61 107.44 93.35Q107.32 91.1 107.32 88.9Q106.95 89.02 106.64 89.08Q106.34 89.14 105.97 89.14Q101.83 89.88 99.2 89.88Q96.58 89.88 94.02 88.9Q91.94 87.8 92 87.07Q92.07 86.34 94.26 86.09Q96.09 85.85 97.5 85.61Q98.9 85.36 100.36 85.06Q101.83 84.75 103.41 84.32Q105 83.9 107.07 83.17Q106.95 80.73 106.89 78.16Q106.83 75.6 106.58 72.8ZM72.91 127.09Q75.11 132.33 74.62 138.31Q74.13 144.29 71.33 148.8Q69.5 151.73 67.73 151.73Q65.96 151.73 64.62 148.56Q63.88 146.73 63.52 145.39Q63.15 144.04 63.15 143.01Q63.15 141.97 63.46 141.18Q63.76 140.38 64.37 139.29Q66.32 135.99 67.24 133.43Q68.15 130.87 68.52 127.57Q69.01 123.55 70.23 123.43Q71.45 123.3 72.91 127.09ZM127.57 134.89Q127.2 137.7 125.31 138.31Q123.42 138.92 121.22 136.48Q117.69 132.94 114.39 124.89Q113.42 122.82 114.39 122.21Q115.37 121.6 117.56 122.57Q120.98 124.16 123.11 125.56Q125.25 126.96 126.29 128.31Q127.32 129.65 127.57 131.23Q127.81 132.82 127.57 134.89ZM91.94 141.12Q91.58 142.82 90.72 143.62Q89.87 144.41 88.89 144.47Q87.92 144.53 86.82 143.74Q85.72 142.95 84.99 141.12Q84.26 139.53 83.59 137.03Q82.92 134.53 82.06 130.38Q81.21 125.26 85.36 128.67Q87.92 130.87 89.44 132.45Q90.97 134.04 91.58 135.38Q92.19 136.72 92.25 138.13Q92.31 139.53 91.94 141.12ZM108.78 136.36Q108.41 139.77 106.28 140.2Q104.14 140.63 102.31 137.7Q100.73 135.26 99.57 132.94Q98.41 130.62 97.43 127.7Q95.85 122.82 100.85 125.5Q103.66 127.09 105.24 128.24Q106.83 129.4 107.74 130.62Q108.66 131.84 108.78 133.25Q108.9 134.65 108.78 136.36Z" fill="#5e1712" stroke="#f8d99b" stroke-width="1.2" stroke-opacity="0.24" paint-order="stroke fill" />
  <path d="M83.28 63.18Q88.41 64.53 89.63 65.62Q94.14 65.38 101.03 63.85Q107.93 62.33 119.27 59.04Q124.64 57.45 127.93 57.33Q131.23 57.21 134.52 58.3Q137.57 59.4 137.21 61.05Q136.84 62.7 132.45 63.79Q126.47 65.14 122.69 65.93Q118.91 66.72 116.47 67.33Q116.34 68.67 116.28 70.81Q116.22 72.94 116.1 76.48Q120.61 75.02 122.99 74.96Q125.37 74.9 127.57 76.24Q130.01 77.58 129.82 79.17Q129.64 80.75 125.13 81.61Q122.2 82.22 120.06 82.52Q117.93 82.83 115.73 83.19Q115.61 85.02 115.55 87.1Q115.49 89.17 115.49 91.61Q120.49 90.15 123.18 90.08Q125.86 90.02 128.06 91.24Q130.5 92.71 130.25 93.99Q130.01 95.27 125.62 96.12Q122.69 96.86 120.31 97.28Q117.93 97.71 115.25 98.2Q115.25 100.27 115.19 102.65Q115.12 105.03 115 107.59Q122.93 106.25 129.15 104.91Q135.38 103.57 137.82 102.59Q138.91 102.1 139.83 101.98Q140.74 101.86 142.09 102.16Q143.43 102.47 145.32 103.44Q147.21 104.42 150.14 106.25Q154.65 109.18 155.26 110.64Q155.87 112.11 154.29 113.81Q153.43 114.55 152.94 115.4Q152.46 116.25 152.15 117.53Q151.85 118.82 151.6 120.65Q151.36 122.48 150.99 125.04Q150.02 132.97 148.98 137.66Q147.94 142.36 146.97 145.66Q145.62 150.05 143.06 153.77Q140.5 157.49 135.5 161.27Q130.62 165.05 129.52 158.71Q129.28 157.12 128.73 155.66Q128.18 154.2 127.26 152.73Q126.35 151.27 124.82 149.5Q123.3 147.73 121.1 145.41Q118.91 143.34 119.64 142.36Q120.37 141.39 124.52 142.85Q127.93 143.95 130.19 144.37Q132.45 144.8 133.85 144.74Q135.25 144.68 135.86 144.19Q136.47 143.7 136.84 142.97Q139.52 135.29 140.68 128.88Q141.84 122.48 141.11 115.16Q140.74 113.08 139.89 112.04Q139.04 111.01 135.93 110.76Q132.81 110.52 126.59 111.13Q120.37 111.74 109.27 113.33Q102.68 114.18 98.72 114.85Q94.75 115.52 92.43 116.13Q90.11 116.74 89.2 117.47Q88.28 118.21 87.8 119.06Q86.33 121.5 84.56 121.5Q82.79 121.5 81.33 118.69Q79.01 113.45 80.48 108.69Q81.09 106.74 81.51 103.2Q81.94 99.66 82.25 95.57Q82.55 91.49 82.49 87.1Q82.43 82.7 82.12 78.86Q81.82 75.02 81.33 72.21Q80.84 69.41 80.11 68.31Q77.55 64.65 78.65 63.43Q79.74 62.21 83.28 63.18ZM106.58 68.8Q100.48 69.65 97.07 69.83Q93.65 70.02 90.97 69.77Q90.6 73.8 90.42 78.13Q90.24 82.46 90.11 87.46Q89.99 92.46 89.81 98.14Q89.63 103.81 89.38 110.76Q93.41 110.52 97.98 109.97Q102.56 109.42 107.19 108.69Q107.32 106.25 107.32 103.99Q107.32 101.74 107.32 99.54Q107.07 99.54 106.89 99.6Q106.71 99.66 106.46 99.66Q102.31 100.39 99.69 100.39Q97.07 100.39 94.51 99.42Q92.19 98.44 92.37 97.71Q92.55 96.98 94.75 96.73Q98.17 96.12 100.91 95.64Q103.66 95.15 107.56 94.05Q107.56 91.61 107.44 89.35Q107.32 87.1 107.32 84.9Q106.95 85.02 106.64 85.08Q106.34 85.14 105.97 85.14Q101.83 85.88 99.2 85.88Q96.58 85.88 94.02 84.9Q91.94 83.8 92 83.07Q92.07 82.34 94.26 82.09Q96.09 81.85 97.5 81.61Q98.9 81.36 100.36 81.06Q101.83 80.75 103.41 80.32Q105 79.9 107.07 79.17Q106.95 76.73 106.89 74.16Q106.83 71.6 106.58 68.8ZM72.91 123.09Q75.11 128.33 74.62 134.31Q74.13 140.29 71.33 144.8Q69.5 147.73 67.73 147.73Q65.96 147.73 64.62 144.56Q63.88 142.73 63.52 141.39Q63.15 140.04 63.15 139.01Q63.15 137.97 63.46 137.18Q63.76 136.38 64.37 135.29Q66.32 131.99 67.24 129.43Q68.15 126.87 68.52 123.57Q69.01 119.55 70.23 119.43Q71.45 119.3 72.91 123.09ZM127.57 130.89Q127.2 133.7 125.31 134.31Q123.42 134.92 121.22 132.48Q117.69 128.94 114.39 120.89Q113.42 118.82 114.39 118.21Q115.37 117.6 117.56 118.57Q120.98 120.16 123.11 121.56Q125.25 122.96 126.29 124.31Q127.32 125.65 127.57 127.23Q127.81 128.82 127.57 130.89ZM91.94 137.12Q91.58 138.82 90.72 139.62Q89.87 140.41 88.89 140.47Q87.92 140.53 86.82 139.74Q85.72 138.95 84.99 137.12Q84.26 135.53 83.59 133.03Q82.92 130.53 82.06 126.38Q81.21 121.26 85.36 124.67Q87.92 126.87 89.44 128.45Q90.97 130.04 91.58 131.38Q92.19 132.72 92.25 134.13Q92.31 135.53 91.94 137.12ZM108.78 132.36Q108.41 135.77 106.28 136.2Q104.14 136.63 102.31 133.7Q100.73 131.26 99.57 128.94Q98.41 126.62 97.43 123.7Q95.85 118.82 100.85 121.5Q103.66 123.09 105.24 124.24Q106.83 125.4 107.74 126.62Q108.66 127.84 108.78 129.25Q108.9 130.65 108.78 132.36Z" fill="#8e2d21" />
</svg>
