<?xml version="1.0" encoding="UTF-8"?>
<svg xmlns="http://www.w3.org/2000/svg" shape-rendering="geometricPrecision" viewBox="-6 -6 232 232" role="img" aria-labelledby="title desc">
  <title id="title">红帅棋子</title>
  <desc id="desc">透明背景、紧贴圆形边界的红帅实体木质象棋棋子，字形已转路径并按真实包围盒居中。</desc>
  <defs>
    <radialGradient id="red-shuai-body" cx="34%" cy="22%" r="80%">
      <stop offset="0" stop-color="#f2d9ad" />
      <stop offset="0.34" stop-color="#c9965c" />
      <stop offset="0.74" stop-color="#8d5a32" />
      <stop offset="1" stop-color="#4e2c18" />
    </radialGradient>
    <radialGradient id="red-shuai-face" cx="37%" cy="28%" r="76%">
      <stop offset="0" stop-color="#ffe8bd" stop-opacity="0.86" />
      <stop offset="0.36" stop-color="#d6a061" />
      <stop offset="0.84" stop-color="#9a6538" />
      <stop offset="1" stop-color="#59331d" />
    </radialGradient>
    <linearGradient id="red-shuai-glyph-floor" x1="0" y1="0" x2="0" y2="1">
      <stop offset="0" stop-color="#7a120d" />
      <stop offset="0.24" stop-color="#d51f18" />
      <stop offset="0.72" stop-color="#f03027" />
      <stop offset="1" stop-color="#ff6355" />
    </linearGradient>
    <pattern id="red-shuai-grain" width="118" height="34" patternUnits="userSpaceOnUse" patternTransform="rotate(-13)">
      <path d="M -28 16 C 10 4, 50 31, 91 13 C 113 4, 137 8, 156 21" fill="none" stroke="#f3c88e" stroke-width="1.9" stroke-opacity="0.12" />
      <path d="M -14 29 C 28 15, 68 43, 124 24" fill="none" stroke="#6e3e20" stroke-width="1.5" stroke-opacity="0.16" />
    </pattern>
  </defs>
  <circle cx="110" cy="110" r="106" fill="url(#red-shuai-body)" />
  <circle cx="110" cy="110" r="103" fill="none" stroke="#efc98f" stroke-width="2.4" stroke-opacity="0.34" />
  <circle cx="110" cy="110" r="96" fill="none" stroke="#4f2b16" stroke-width="4.4" stroke-opacity="0.58" />
  <circle cx="110" cy="110" r="89" fill="url(#red-shuai-face)" />
  <circle cx="110" cy="110" r="89" fill="url(#red-shuai-grain)" opacity="0.8" />
  <circle cx="110" cy="110" r="76" fill="none" stroke="#5f341b" stroke-width="6.2" stroke-opacity="0.95" />
  <circle cx="110" cy="110" r="64" fill="none" stroke="#704021" stroke-width="1.9" stroke-opacity="0.52" />
  <path d="M 42 106 C 46 67, 72 41, 111 36 C 80 49, 61 75, 59 106 C 57 130, 66 151, 84 164 C 56 152, 39 130, 42 106 Z" fill="#ffe2ae" opacity="0.18" />
  <path d="M 162 37 C 185 57, 199 88, 196 120 C 193 152, 171 181, 141 191 C 166 172, 180 147, 178 117 C 177 86, 171 59, 162 37 Z" fill="#4c2a16" opacity="0.18" />
  <g fill="none" stroke="#5a150f" stroke-width="10" stroke-linejoin="round" stroke-linecap="round" opacity="0.96">
    <path d="M 661 -423 Q 733 -436 759 -448 Q 785 -460 801 -460 Q 817 -460 855 -439.5 Q 893 -419 893 -408.5 Q 893 -398 882 -384 Q 871 -370 865.5 -337 Q 860 -304 854.5 -236.5 Q 849 -169 825.5 -129.5 Q 802 -90 781 -90 Q 770 -90 763 -101 Q 742 -141 710 -182 Q 702 -191 702 -198 Q 702 -205 711 -205 Q 716 -205 733 -198.5 Q 750 -192 765.5 -192 Q 781 -192 788 -206.5 Q 795 -221 798.5 -271.5 Q 802 -322 802 -355 Q 802 -388 795.5 -397 Q 789 -406 767 -406 Q 745 -406 661 -392 Q 660 -6 646.5 90.5 Q 633 187 617 187 Q 601 187 601 52.5 Q 601 -82 608 -381 Q 548 -375 505 -375 Q 507 -315 507 -273 Q 507 -95 476 -95 Q 465 -95 454.5 -116.5 Q 444 -138 444 -167 Q 444 -196 450.5 -215 Q 457 -234 457 -273 Q 457 -312 451 -348.5 Q 445 -385 436.5 -394 Q 428 -403 428 -411.5 Q 428 -420 444.5 -420 Q 461 -420 491 -404 Q 540 -404 609 -414 Q 611 -519 605 -589.5 Q 599 -660 585 -676.5 Q 571 -693 571 -705 Q 571 -717 589 -717 Q 607 -717 644.5 -699 Q 682 -681 682 -662 Q 682 -654 678 -641 Q 670 -613 661 -423 Z M 406 -583 Q 406 -577 401 -566 Q 392 -544 389 -459.5 Q 386 -375 374 -264.5 Q 362 -154 313.5 -71 Q 265 12 208 53.5 Q 151 95 134 95 Q 125 95 125 88.5 Q 125 82 135 74 Q 199 24 251.5 -62 Q 304 -148 318 -250 Q 332 -352 332 -437 Q 332 -567 305 -607 Q 295 -622 295 -631.5 Q 295 -641 308.5 -641 Q 322 -641 364 -620 Q 406 -599 406 -583 Z M 231 -427 Q 231 -421 230 -416 Q 222 -371 222 -303.5 Q 222 -236 209.5 -200.5 Q 197 -165 185.5 -165 Q 174 -165 164.5 -184.5 Q 155 -204 155 -221 Q 155 -238 166.5 -276 Q 178 -314 178 -355 Q 178 -396 174.5 -429.5 Q 171 -463 166 -474 Q 161 -485 161 -491.5 Q 161 -498 169 -498 Q 185 -498 208 -478 Q 231 -458 231 -427 Z" transform="translate(49.70 144.20) scale(0.11900)" />
  </g>
  <g fill="none" stroke="#8f1f17" stroke-width="5.2" stroke-linejoin="round" stroke-linecap="round" opacity="0.98">
    <path d="M 661 -423 Q 733 -436 759 -448 Q 785 -460 801 -460 Q 817 -460 855 -439.5 Q 893 -419 893 -408.5 Q 893 -398 882 -384 Q 871 -370 865.5 -337 Q 860 -304 854.5 -236.5 Q 849 -169 825.5 -129.5 Q 802 -90 781 -90 Q 770 -90 763 -101 Q 742 -141 710 -182 Q 702 -191 702 -198 Q 702 -205 711 -205 Q 716 -205 733 -198.5 Q 750 -192 765.5 -192 Q 781 -192 788 -206.5 Q 795 -221 798.5 -271.5 Q 802 -322 802 -355 Q 802 -388 795.5 -397 Q 789 -406 767 -406 Q 745 -406 661 -392 Q 660 -6 646.5 90.5 Q 633 187 617 187 Q 601 187 601 52.5 Q 601 -82 608 -381 Q 548 -375 505 -375 Q 507 -315 507 -273 Q 507 -95 476 -95 Q 465 -95 454.5 -116.5 Q 444 -138 444 -167 Q 444 -196 450.5 -215 Q 457 -234 457 -273 Q 457 -312 451 -348.5 Q 445 -385 436.5 -394 Q 428 -403 428 -411.5 Q 428 -420 444.5 -420 Q 461 -420 491 -404 Q 540 -404 609 -414 Q 611 -519 605 -589.5 Q 599 -660 585 -676.5 Q 571 -693 571 -705 Q 571 -717 589 -717 Q 607 -717 644.5 -699 Q 682 -681 682 -662 Q 682 -654 678 -641 Q 670 -613 661 -423 Z M 406 -583 Q 406 -577 401 -566 Q 392 -544 389 -459.5 Q 386 -375 374 -264.5 Q 362 -154 313.5 -71 Q 265 12 208 53.5 Q 151 95 134 95 Q 125 95 125 88.5 Q 125 82 135 74 Q 199 24 251.5 -62 Q 304 -148 318 -250 Q 332 -352 332 -437 Q 332 -567 305 -607 Q 295 -622 295 -631.5 Q 295 -641 308.5 -641 Q 322 -641 364 -620 Q 406 -599 406 -583 Z M 231 -427 Q 231 -421 230 -416 Q 222 -371 222 -303.5 Q 222 -236 209.5 -200.5 Q 197 -165 185.5 -165 Q 174 -165 164.5 -184.5 Q 155 -204 155 -221 Q 155 -238 166.5 -276 Q 178 -314 178 -355 Q 178 -396 174.5 -429.5 Q 171 -463 166 -474 Q 161 -485 161 -491.5 Q 161 -498 169 -498 Q 185 -498 208 -478 Q 231 -458 231 -427 Z" transform="translate(49.70 144.20) scale(0.11900)" />
  </g>
  <g fill="url(#red-shuai-glyph-floor)" opacity="0.98">
    <path d="M 661 -423 Q 733 -436 759 -448 Q 785 -460 801 -460 Q 817 -460 855 -439.5 Q 893 -419 893 -408.5 Q 893 -398 882 -384 Q 871 -370 865.5 -337 Q 860 -304 854.5 -236.5 Q 849 -169 825.5 -129.5 Q 802 -90 781 -90 Q 770 -90 763 -101 Q 742 -141 710 -182 Q 702 -191 702 -198 Q 702 -205 711 -205 Q 716 -205 733 -198.5 Q 750 -192 765.5 -192 Q 781 -192 788 -206.5 Q 795 -221 798.5 -271.5 Q 802 -322 802 -355 Q 802 -388 795.5 -397 Q 789 -406 767 -406 Q 745 -406 661 -392 Q 660 -6 646.5 90.5 Q 633 187 617 187 Q 601 187 601 52.5 Q 601 -82 608 -381 Q 548 -375 505 -375 Q 507 -315 507 -273 Q 507 -95 476 -95 Q 465 -95 454.5 -116.5 Q 444 -138 444 -167 Q 444 -196 450.5 -215 Q 457 -234 457 -273 Q 457 -312 451 -348.5 Q 445 -385 436.5 -394 Q 428 -403 428 -411.5 Q 428 -420 444.5 -420 Q 461 -420 491 -404 Q 540 -404 609 -414 Q 611 -519 605 -589.5 Q 599 -660 585 -676.5 Q 571 -693 571 -705 Q 571 -717 589 -717 Q 607 -717 644.5 -699 Q 682 -681 682 -662 Q 682 -654 678 -641 Q 670 -613 661 -423 Z M 406 -583 Q 406 -577 401 -566 Q 392 -544 389 -459.5 Q 386 -375 374 -264.5 Q 362 -154 313.5 -71 Q 265 12 208 53.5 Q 151 95 134 95 Q 125 95 125 88.5 Q 125 82 135 74 Q 199 24 251.5 -62 Q 304 -148 318 -250 Q 332 -352 332 -437 Q 332 -567 305 -607 Q 295 -622 295 -631.5 Q 295 -641 308.5 -641 Q 322 -641 364 -620 Q 406 -599 406 -583 Z M 231 -427 Q 231 -421 230 -416 Q 222 -371 222 -303.5 Q 222 -236 209.5 -200.5 Q 197 -165 185.5 -165 Q 174 -165 164.5 -184.5 Q 155 -204 155 -221 Q 155 -238 166.5 -276 Q 178 -314 178 -355 Q 178 -396 174.5 -429.5 Q 171 -463 166 -474 Q 161 -485 161 -491.5 Q 161 -498 169 -498 Q 185 -498 208 -478 Q 231 -458 231 -427 Z" transform="translate(49.70 144.20) scale(0.11900)" />
  </g>
  <circle cx="110" cy="110" r="106.8" fill="none" stroke="#f0d2a4" stroke-width="1.2" stroke-opacity="0.18" />
  <circle cx="110" cy="110" r="105.4" fill="none" stroke="#5f3b22" stroke-width="1.1" stroke-opacity="0.28" />
</svg>
