<?xml version="1.0" standalone="no"?><!DOCTYPE svg PUBLIC "-//W3C//DTD SVG 1.1//EN" "http://www.w3.org/Graphics/SVG/1.1/DTD/svg11.dtd"><svg t="1783860107780" class="icon" viewBox="0 0 1024 1024" version="1.1" xmlns="http://www.w3.org/2000/svg" p-id="9677" id="mx_n_1783860107781" xmlns:xlink="http://www.w3.org/1999/xlink" width="200" height="200"><path d="M512 512m-492.307692 0a492.307692 492.307692 0 1 0 984.615384 0 492.307692 492.307692 0 1 0-984.615384 0Z" fill="#875635" p-id="9678" data-spm-anchor-id="a313x.search_index.0.i14.95bf3a81Yb254O" class="selected"></path><path d="M512 1024a512 512 0 1 1 512-512 512.590769 512.590769 0 0 1-512 512zM512 39.384615a472.615385 472.615385 0 1 0 472.615385 472.615385A473.107692 473.107692 0 0 0 512 39.384615z" fill="#875635" p-id="9679"></path><path d="M512 350.030769m-126.424615 0a126.424615 126.424615 0 1 0 252.84923 0 126.424615 126.424615 0 1 0-252.84923 0Z" fill="#FFFFFF" p-id="9680"></path><path d="M754.018462 768.492308H269.981538V617.550769S342.055385 512 512 512c173.095385 0 242.018462 105.550769 242.018462 105.550769z" fill="#FFFFFF" p-id="9681"></path></svg>