<svg width="150" height="150" viewBox="0 0 150 150" fill="none" xmlns="http://www.w3.org/2000/svg">
  <defs>
    <radialGradient id="face" cx="0" cy="0" r="1" gradientUnits="userSpaceOnUse" gradientTransform="translate(53 43) rotate(51) scale(96)">
      <stop stop-color="#FFF2BF"/>
      <stop offset="0.52" stop-color="#D39A4C"/>
      <stop offset="1" stop-color="#7A431F"/>
    </radialGradient>
    <filter id="drop" x="-20%" y="-20%" width="140%" height="140%">
      <feDropShadow dx="0" dy="10" stdDeviation="8" flood-color="#3A1A0A" flood-opacity="0.35"/>
    </filter>
  </defs>
  <g filter="url(#drop)">
    <circle cx="75" cy="75" r="61" fill="#854A24"/>
    <circle cx="75" cy="75" r="52" fill="url(#face)" stroke="#503018" stroke-width="5"/>
    <circle cx="75" cy="75" r="39" fill="none" stroke="#885124" stroke-width="4" opacity="0.7"/>
    <path d="M65.02 75.09Q65.02 70.15 64.94 66.82Q64.86 63.49 64.65 61.36Q64.44 59.23 64.13 58.11Q63.82 56.99 63.4 56.42Q61.84 54.34 62.31 53.77Q62.78 53.2 65.54 54.13Q67.15 54.7 68.06 55.09Q68.97 55.48 69.31 55.87Q69.64 56.26 69.57 56.78Q69.49 57.3 69.12 58.08Q68.97 58.4 68.86 59.02Q68.76 59.64 68.63 60.74Q68.5 61.83 68.42 63.49Q68.34 65.16 68.29 67.6Q68.24 69.16 68.24 71.92L68.24 77.64Q68.24 80.6 68.27 83.38Q68.29 86.16 68.29 87.78Q68.29 89.44 68.27 90.64Q68.24 91.83 68.14 92.74Q68.03 93.65 67.85 94.35Q67.67 95.06 67.36 95.68Q66.73 97.03 65.9 97.01Q65.07 96.98 64.13 95.42Q63.61 94.54 63.33 93.96Q63.04 93.39 63.01 92.79Q62.99 92.2 63.2 91.47Q63.4 90.74 63.87 89.6Q64.18 88.87 64.37 87.98Q64.55 87.1 64.68 85.77Q64.81 84.45 64.86 82.52Q64.91 80.6 64.96 77.69Q62.47 79.3 60.7 80.68Q58.93 82.06 57.48 83.51Q57.01 83.98 56.59 84.21Q56.18 84.45 55.71 84.4Q55.24 84.34 54.64 83.98Q54.04 83.62 53.21 82.89Q51.96 81.85 51.39 81.2Q50.82 80.55 50.9 80.21Q50.98 79.87 51.68 79.74Q52.38 79.61 53.68 79.61Q54.2 79.61 55.14 79.38Q56.07 79.14 57.45 78.62Q58.83 78.1 60.7 77.22Q62.57 76.34 65.02 75.09ZM85.19 76.96Q83.68 77.12 82.18 77.35Q80.67 77.58 79.29 77.82Q77.91 78.05 76.72 78.26Q75.52 78.47 74.69 78.68Q73.86 78.88 73.28 78.96Q72.71 79.04 72.24 79.01Q71.78 78.99 71.36 78.83Q70.94 78.68 70.48 78.42Q68.86 77.48 68.94 77.01Q69.02 76.54 70.94 76.44Q71.93 76.39 73.23 76.26Q74.53 76.13 76.2 75.92Q77.86 75.71 80.02 75.4Q82.18 75.09 84.98 74.67Q84.88 73.42 84.65 72.67Q84.41 71.92 84.15 71.5Q83.11 70.2 83.68 69.71Q84.26 69.21 86.54 69.94Q87.64 70.3 88.23 70.54Q88.83 70.77 89.07 71.06Q89.3 71.34 89.25 71.66Q89.2 71.97 88.99 72.49Q88.88 72.75 88.81 73.16Q88.73 73.58 88.62 74.1Q89.51 73.94 90.21 73.79Q90.91 73.63 91.28 73.53Q92.73 73.16 93.72 73.01Q94.71 72.85 95.46 72.88Q96.22 72.9 96.79 73.16Q97.36 73.42 97.93 73.84Q99.86 75.3 99.39 76.13Q98.92 76.96 95.38 76.6Q94.19 76.49 92.37 76.49Q90.55 76.49 88.57 76.65Q88.68 78.68 88.81 81.3Q88.94 83.93 89.25 88.19Q89.35 89.86 89.3 91.05Q89.25 92.25 89.07 93.16Q88.88 94.07 88.52 94.77Q88.16 95.47 87.64 96.1Q86.18 97.92 85.14 97.84Q84.1 97.76 82.96 95.63Q82.54 94.9 81.81 94.04Q81.08 93.18 80.1 92.51Q78.59 91.47 78.77 91Q78.95 90.53 80.77 91Q82.02 91.31 82.83 91.42Q83.63 91.52 84.1 91.39Q84.57 91.26 84.75 90.95Q84.93 90.64 84.98 90.12Q85.14 88.61 85.19 86.81Q85.24 85.02 85.27 83.23Q85.3 81.43 85.27 79.79Q85.24 78.16 85.19 76.96ZM76.56 63.86Q75.94 64.27 75.26 64.69Q74.58 65.1 73.96 65.42Q71.98 66.4 71.75 65.99Q71.52 65.57 73.23 64.06Q74.01 63.39 75.08 62.09Q76.14 60.79 77.44 58.76Q78.48 57.15 78.9 55.87Q79.32 54.6 79.06 53.92Q78.48 52.52 79.03 52.13Q79.58 51.74 81.5 52.62Q82.96 53.35 83.74 53.82Q84.52 54.29 84.78 54.65Q85.04 55.02 84.88 55.33Q84.72 55.64 84.36 55.95Q83.84 56.37 83.24 56.97Q82.64 57.56 81.6 58.86Q83.27 58.81 84.88 58.47Q86.49 58.14 87.69 57.46Q88.21 57.15 88.6 56.99Q88.99 56.84 89.38 56.89Q89.77 56.94 90.24 57.17Q90.7 57.41 91.38 57.88Q92.63 58.76 93.25 59.31Q93.88 59.85 94.01 60.24Q94.14 60.63 93.8 60.92Q93.46 61.2 92.78 61.52Q92.21 61.83 91.33 62.43Q90.44 63.02 89.77 63.75Q88.57 65.1 87.45 66.17Q86.34 67.24 85.24 68.15Q84.15 69.06 82.98 69.86Q81.81 70.67 80.51 71.4Q78.12 72.8 74.95 73.63Q72.3 74.31 72.11 73.84Q71.93 73.37 74.43 72.12Q76.61 71.03 78.51 69.78Q80.41 68.54 82.28 66.72Q83.42 65.68 84.59 64.32Q85.76 62.97 86.7 61.57Q87.12 61 86.99 60.74Q86.86 60.48 86.34 60.58Q85.61 60.68 85.06 60.74Q84.52 60.79 83.84 60.89Q82.59 61.05 81.84 60.92Q81.08 60.79 80.36 60.37Q79.78 61 79.16 61.62Q78.54 62.24 77.86 62.82Q80.25 63.39 80.95 64.04Q81.66 64.69 81.6 65.88Q81.55 67.24 80.93 67.63Q80.3 68.02 79.73 67.7Q78.85 67.24 78.07 66.33Q77.29 65.42 76.56 63.86ZM62.73 69.63Q62.31 71.34 61.22 71.55Q60.13 71.76 59.14 70.36Q58.78 69.84 58.39 69.16Q58 68.48 57.66 67.78Q57.32 67.08 57.03 66.4Q56.75 65.73 56.59 65.16Q56.18 63.96 56.54 63.65Q56.9 63.34 57.94 63.75Q61.01 64.84 62.08 66.4Q63.14 67.96 62.73 69.63ZM80.25 84.4Q80.1 86.37 79.11 86.76Q78.12 87.15 77.24 86.06Q76.56 85.23 75.96 84.19Q75.36 83.15 74.64 81.33Q73.65 79.04 76.25 80.03Q78.8 81.02 79.58 81.98Q80.36 82.94 80.25 84.4Z" fill="#263D3C" />
  </g>
</svg>
