<svg width="150" height="150" viewBox="0 0 150 150" fill="none" xmlns="http://www.w3.org/2000/svg">
  <defs>
    <radialGradient id="face" cx="0" cy="0" r="1" gradientUnits="userSpaceOnUse" gradientTransform="translate(55 42) rotate(51) scale(96)">
      <stop stop-color="#FFF2BF"/>
      <stop offset="0.52" stop-color="#D99C4E"/>
      <stop offset="1" stop-color="#8B4B22"/>
    </radialGradient>
    <filter id="drop" x="-20%" y="-20%" width="140%" height="140%">
      <feDropShadow dx="0" dy="10" stdDeviation="8" flood-color="#3A1A0A" flood-opacity="0.35"/>
    </filter>
  </defs>
  <g filter="url(#drop)">
    <circle cx="75" cy="75" r="61" fill="#9B5426"/>
    <circle cx="75" cy="75" r="52" fill="url(#face)" stroke="#633318" stroke-width="5"/>
    <circle cx="75" cy="75" r="39" fill="none" stroke="#AD602A" stroke-width="4" opacity="0.7"/>
    <path d="M74.43 67.6Q77.03 67.5 79.58 67.13Q79.52 63.65 79.42 61.49Q79.32 59.33 79.13 58.03Q78.95 56.73 78.61 56.03Q78.28 55.33 77.81 54.76Q76.46 53.14 77 52.62Q77.55 52.1 80.56 52.99Q82.02 53.46 82.85 53.85Q83.68 54.24 84.07 54.68Q84.46 55.12 84.44 55.61Q84.41 56.11 84.2 56.73Q84.05 57.2 83.92 57.67Q83.79 58.14 83.71 58.68Q83.63 59.23 83.61 59.9Q83.58 60.58 83.53 61.57Q83.48 62.3 83.45 63.6Q83.42 64.9 83.42 66.51Q84.57 66.25 85.35 66.07Q86.13 65.88 86.65 65.73Q87.17 65.57 87.53 65.44Q87.9 65.31 88.26 65.16Q88.94 64.84 89.46 64.69Q89.98 64.53 90.5 64.61Q91.02 64.69 91.64 64.97Q92.26 65.26 93.15 65.78Q94.24 66.46 94.81 66.9Q95.38 67.34 95.54 67.7Q95.7 68.07 95.46 68.46Q95.23 68.85 94.71 69.37Q94.45 69.63 94.29 69.99Q94.14 70.36 93.98 71.11Q93.82 71.86 93.69 73.19Q93.56 74.52 93.41 76.6Q93.2 79.25 92.52 80.96Q91.85 82.68 90.5 84.03Q89.66 84.86 88.91 84.79Q88.16 84.71 87.79 83.93Q87.32 82.89 86.62 81.85Q85.92 80.81 85.04 79.92Q84 78.88 84.33 78.42Q84.67 77.95 86.18 78.42Q87.12 78.73 87.66 78.83Q88.21 78.94 88.52 78.88Q88.83 78.83 88.96 78.55Q89.09 78.26 89.2 77.79Q89.3 77.32 89.43 76.18Q89.56 75.04 89.64 73.76Q89.72 72.49 89.72 71.27Q89.72 70.04 89.66 69.32Q89.51 67.86 88.05 68.02Q86.39 68.17 83.42 68.69L83.42 71.55Q83.42 72.96 83.48 74.2Q83.58 77.64 83.55 81.02Q83.53 84.4 83.42 88.56Q83.37 90.12 83.32 91.26Q83.27 92.4 83.16 93.37Q83.06 94.33 82.9 95.19Q82.75 96.04 82.54 97.03Q81.97 99.79 81.14 99.71Q80.3 99.63 80.04 96.56Q79.89 94.59 79.76 92.82Q79.63 91.05 79.58 89.34Q79.52 87.62 79.52 85.88Q79.52 84.14 79.63 82.16Q79.68 81.38 79.68 80.39L79.68 77.9Q79.68 76.39 79.65 74.33Q79.63 72.28 79.58 69.37Q78.64 69.47 77.52 69.55Q76.4 69.63 75.26 69.68Q75.36 74.67 75.26 77.74Q75.16 80.81 74.9 82Q74.43 84.55 73.65 84.81Q72.87 85.07 71.83 83.62Q71.26 82.84 70.94 82.24Q70.63 81.64 70.61 81.04Q70.58 80.44 70.81 79.69Q71.05 78.94 71.52 77.74Q71.78 77.12 71.83 75.92Q71.88 74.72 71.78 73.37Q71.67 72.02 71.36 70.75Q71.05 69.47 70.58 68.74Q69.59 67.18 70.37 66.72Q71.15 66.25 74.43 67.6ZM69.75 60.84Q69.54 61.15 69.44 61.98Q69.33 62.82 69.23 65Q69.18 66.72 69.07 68.64Q68.97 70.56 68.81 72.38Q68.66 74.2 68.5 75.74Q68.34 77.27 68.19 78.16Q67.72 81.17 66.58 83.8Q65.43 86.42 63.79 88.58Q62.16 90.74 60.13 92.4Q58.1 94.07 55.86 95.11Q54.51 95.68 54.3 95.29Q54.1 94.9 55.29 93.86Q58.83 90.84 61.25 86.76Q63.66 82.68 64.39 78.05Q64.91 74.93 65.12 71.86Q65.33 68.8 65.28 66.17Q65.22 63.54 64.91 61.59Q64.6 59.64 63.98 58.76Q62.78 56.99 63.46 56.37Q64.13 55.74 66.68 56.94Q68.08 57.62 68.89 58.11Q69.7 58.6 70.01 59.02Q70.32 59.44 70.22 59.88Q70.11 60.32 69.75 60.84ZM60.7 67.03Q60.6 67.44 60.52 68.15Q60.44 68.85 60.39 69.65Q60.34 70.46 60.31 71.19Q60.28 71.92 60.28 72.38Q60.39 75.14 60.13 76.8Q59.87 78.47 59.3 79.82Q58.83 80.91 58.1 80.91Q57.37 80.91 56.64 79.66Q56.18 78.83 55.92 78.29Q55.66 77.74 55.63 77.25Q55.6 76.75 55.81 76.15Q56.02 75.56 56.49 74.67Q56.85 73.94 57.06 72.67Q57.27 71.4 57.22 69.11Q57.16 67.13 56.93 65.86Q56.7 64.58 56.33 63.91Q55.71 62.71 56.23 62.37Q56.75 62.04 58.78 62.92Q60.44 63.65 60.8 64.56Q61.17 65.47 60.7 67.03Z" fill="#8F2D1F" />
  </g>
</svg>
