<svg width="680" height="180" viewBox="0 0 680 180" fill="none" xmlns="http://www.w3.org/2000/svg">
  <defs>
<linearGradient id="frontGold" x1="340" y1="24" x2="340" y2="122" gradientUnits="userSpaceOnUse">
      <stop stop-color="#FFF1A7"/>
      <stop offset="0.5" stop-color="#B93B27"/>
      <stop offset="1" stop-color="#6B2517"/>
    </linearGradient>
    <linearGradient id="topLight" x1="338" y1="22" x2="338" y2="88" gradientUnits="userSpaceOnUse">
      <stop stop-color="#FFF1A7"/>
      <stop offset="1" stop-color="#F5D27A" stop-opacity="0"/>
    </linearGradient>
    <filter id="castShadow" x="-10%" y="-20%" width="120%" height="160%" color-interpolation-filters="sRGB">
      <feDropShadow dx="3" dy="4" stdDeviation="0" flood-color="#F5D27A" flood-opacity="0.62"/>
      <feDropShadow dx="7" dy="8" stdDeviation="0" flood-color="#5B351F" flood-opacity="0.46"/>
      <feDropShadow dx="0" dy="12" stdDeviation="12" flood-color="#452714" flood-opacity="0.18"/>
    </filter>
    <filter id="softBlur" x="-20%" y="-40%" width="140%" height="180%">
      <feGaussianBlur stdDeviation="8"/>
    </filter>
  </defs>

  <ellipse cx="344" cy="140" rx="284" ry="22" fill="#6d431c" opacity="0.1" filter="url(#softBlur)"/>

  <g filter="url(#castShadow)">
    <path fill="#5B351F" stroke="#5B351F" stroke-width="10" opacity="0.48" d="M186.13 86.55Q182.09 87.24 178.82 87.93Q175.55 88.62 173.32 89.31Q172.03 89.74 171.08 89.91Q170.13 90.08 169.27 90.04Q168.41 89.99 167.6 89.69Q166.78 89.39 165.66 88.88Q163.51 87.84 163.86 87.07Q164.2 86.3 167.81 86.3Q168.59 86.3 171.21 85.95Q173.83 85.61 177.4 85.09Q180.97 84.58 185.01 83.97Q189.05 83.37 192.67 82.73Q196.28 82.08 199.03 81.52Q201.78 80.96 202.81 80.62Q204.36 80.1 205.48 79.85Q206.6 79.59 207.54 79.72Q208.49 79.85 209.52 80.36Q210.55 80.88 211.93 81.82Q216.06 84.75 216.1 85.82Q216.14 86.9 213.05 87.41Q211.07 87.76 209.26 88.49Q207.46 89.22 205.31 90.6Q203.33 91.89 202.86 91.41Q202.38 90.94 203.59 88.36Q204.96 85.52 204.66 84.96Q204.36 84.4 202.04 84.58Q199.03 84.83 196.19 85.14Q193.35 85.44 190.69 85.87Q192.41 86.64 193.35 87.16Q194.3 87.67 194.64 88.19Q194.99 88.7 194.86 89.26Q194.73 89.82 194.3 90.6Q193.87 91.37 193.57 92.49Q193.27 93.61 193.18 95.33Q194.21 95.24 195.38 94.9Q196.54 94.55 198 93.78Q199.46 93.09 201.18 92.96Q202.9 92.83 204.1 93.26Q207.03 94.29 206.98 95.5Q206.94 96.7 203.42 97.39Q200.15 98.08 197.7 98.29Q195.25 98.51 193.01 98.16L192.58 106.25Q193.61 106.68 194.64 107.02Q195.68 107.37 196.79 107.8Q200.66 109.09 203.93 109.95Q207.2 110.81 210.55 111.32Q213.91 111.84 217.78 112.1Q221.65 112.35 226.81 112.44Q230.59 112.53 230.72 113.6Q230.85 114.68 226.38 116.05Q220.01 118.03 216.27 118.93Q212.53 119.84 209.78 119.79Q207.03 119.75 204.58 118.63Q202.13 117.51 198.43 115.36Q192.24 111.75 186.43 108.44Q180.63 105.13 175.72 102.55Q169.53 111.67 158.44 115.79Q155.69 116.83 155.38 116.09Q155.08 115.36 157.58 113.82Q160.59 111.92 163.64 109.04Q166.69 106.16 168.59 103.41Q170.05 101.35 170.95 99.8Q171.85 98.25 172.33 97.13Q172.8 96.01 172.84 95.11Q172.89 94.21 172.63 93.43Q171.85 91.2 172.97 90.68Q174.09 90.17 177.7 91.89Q180.28 93.09 180.58 93.99Q180.88 94.9 179.77 96.27Q179.34 96.7 178.91 97.35Q178.48 97.99 177.62 99.45Q180.63 100.92 183.12 102.12Q185.61 103.32 187.85 104.36Q188.11 99.63 188.19 96.66Q188.28 93.69 188.11 91.76Q187.94 89.82 187.46 88.7Q186.99 87.59 186.13 86.55ZM172.89 66.43Q170.91 66.77 169.53 66.65Q168.16 66.52 166.26 66.09Q163.68 65.4 163.68 64.75Q163.68 64.11 166.69 63.85Q168.93 63.68 170.95 63.29Q172.97 62.9 176.15 61.96Q176.15 57.31 175.77 54.73Q175.38 52.15 174.69 51.38Q172.46 49.06 173.1 48.16Q173.75 47.25 176.93 48.2Q179.16 48.89 180.41 49.36Q181.66 49.83 182.09 50.31Q182.52 50.78 182.35 51.47Q182.17 52.15 181.66 53.19Q181.49 53.53 181.31 54Q181.14 54.48 181.01 55.29Q180.88 56.11 180.75 57.4Q180.63 58.69 180.54 60.67Q182.69 59.98 183.81 59.85Q184.93 59.72 186.39 59.98Q188.71 60.41 188.84 61.74Q188.97 63.08 186.56 63.68Q184.58 64.19 183.12 64.54Q181.66 64.88 180.28 65.14L180.28 68.49Q184.24 68.67 185.61 69.05Q186.99 69.44 187.51 70.39Q188.54 72.45 187.51 73.61Q186.47 74.77 184.75 74Q183.89 73.65 182.99 72.88Q182.09 72.11 180.28 70.39L180.28 76.23Q180.28 79.07 179.89 80.62Q179.51 82.17 178.86 82.73Q178.22 83.29 177.4 82.94Q176.58 82.6 175.64 81.57Q174.35 80.19 174.22 79.24Q174.09 78.3 175.04 76.32Q175.47 75.46 175.64 74.13Q175.81 72.79 175.98 69.61Q174.52 72.19 173.01 74.13Q171.51 76.06 169.88 77.61Q168.24 79.16 166.35 80.41Q164.46 81.65 162.14 82.86Q159.38 84.32 159.08 83.76Q158.78 83.2 161.28 81.14Q164.72 78.3 167.47 74.9Q170.22 71.5 172.89 66.43ZM205.57 57.4Q206.25 57.23 206.81 57.06Q207.37 56.88 207.8 56.71Q210.12 55.85 211.54 55.77Q212.96 55.68 215.11 56.11Q217 56.54 217.05 57.74Q217.09 58.95 214.68 59.55Q212.62 59.98 210.08 60.5Q207.54 61.01 205.31 61.44Q205.22 62.47 205.22 63.68Q205.22 64.88 205.22 66.26Q208.4 66.69 210.3 67.08Q212.19 67.46 213.31 67.85Q214.42 68.24 214.94 68.75Q215.46 69.27 215.89 70.04Q216.66 71.5 216.7 72.62Q216.75 73.74 216.23 74.39Q215.71 75.03 214.85 75.12Q213.99 75.2 213.13 74.51Q211.16 73.14 209.52 71.93Q207.89 70.73 205.22 68.75Q205.39 70.47 205.35 72.84Q205.31 75.2 204.96 77.35Q204.62 79.67 203.33 79.85Q202.04 80.02 200.66 78.13Q199.98 77.18 199.59 76.49Q199.2 75.8 199.16 75.25Q199.12 74.69 199.33 74.04Q199.55 73.4 199.98 72.45Q200.15 72.11 200.28 71.76Q200.41 71.42 200.45 70.86Q200.49 70.3 200.58 69.4Q200.66 68.49 200.66 67.03Q197.74 71.59 194.69 74.17Q191.63 76.75 188.02 78.3Q184.93 79.67 184.67 79.24Q184.41 78.81 187.08 76.49Q188.88 74.86 190.34 73.44Q191.81 72.02 193.1 70.47Q194.39 68.92 195.63 66.99Q196.88 65.05 198.34 62.47Q195.25 62.9 193.96 62.82Q192.67 62.73 191.98 62.56Q190 61.96 190.04 61.18Q190.09 60.41 192.58 60.24Q193.7 60.07 195.98 59.64Q198.26 59.21 200.75 58.6Q200.75 55.85 200.71 54.09Q200.66 52.33 200.49 51.21Q200.32 50.09 200.06 49.49Q199.8 48.89 199.37 48.37Q197.4 46.13 198.17 45.23Q198.94 44.33 202.56 45.53Q204.62 46.22 205.69 46.69Q206.77 47.17 207.2 47.64Q207.63 48.11 207.46 48.71Q207.29 49.32 206.86 50.35Q206.34 51.55 206.04 53.06Q205.74 54.56 205.57 57.4ZM274.78 85.44Q272.46 90.85 270.91 94.64Q269.36 98.42 268.33 101.22Q267.3 104.01 266.65 105.99Q266.01 107.97 265.49 109.6Q264.89 111.67 264.16 112.61Q263.43 113.56 262.52 113.13Q261.62 112.7 260.59 110.81Q259.56 108.91 258.27 105.3Q257.06 101.95 257.49 100.92Q257.92 99.88 259.73 99.97Q260.59 99.97 261.28 99.71Q261.96 99.45 263.17 97.99Q264.37 96.53 266.48 93.31Q268.59 90.08 272.28 84.23Q274.26 81.14 275.25 81.52Q276.24 81.91 274.78 85.44ZM285.61 86.38Q288.97 85.95 290.43 85.56Q291.89 85.18 292.84 84.49Q293.35 83.03 293.57 81.48Q293.78 79.93 293.87 78.13Q293.96 77.01 293.57 76.66Q293.18 76.32 291.72 76.49Q288.8 76.92 287.25 77.09Q285.7 77.27 284.58 77.44Q285.01 81.22 285.23 83.24Q285.44 85.26 285.61 86.38ZM282.95 74.34Q286.65 74.17 289.18 73.48Q291.72 72.79 293.44 71.85Q294.21 71.42 294.77 71.2Q295.33 70.99 295.98 71.03Q296.62 71.07 297.4 71.42Q298.17 71.76 299.29 72.36Q301.09 73.4 302.04 74.13Q302.99 74.86 303.24 75.42Q303.5 75.98 303.24 76.49Q302.99 77.01 302.3 77.7Q301.09 78.9 300.36 79.76Q299.63 80.62 299.12 81.35Q298.6 82.08 298.3 82.81Q298 83.54 297.65 84.4Q299.63 85.95 299.5 87.33Q299.37 88.7 296.88 88.88Q294.73 89.05 291.63 89.35Q288.54 89.65 285.79 89.99Q285.53 93.09 283.81 93.26Q282.95 93.35 282.09 91.97Q281.23 90.6 280.97 88.45Q280.37 84.15 279.59 81.31Q278.82 78.47 277.44 75.8Q276.5 73.83 277.49 73.31Q278.48 72.79 282.95 74.34ZM268.24 73.65Q268.59 77.01 266.82 78Q265.06 78.99 262.74 77.35Q261.28 76.41 259.9 74.94Q258.52 73.48 256.55 70.99Q255 69.01 255.38 68.45Q255.77 67.89 258.44 68.32Q261.53 68.84 263.38 69.31Q265.23 69.78 266.26 70.34Q267.3 70.9 267.68 71.72Q268.07 72.54 268.24 73.65ZM303.42 61.61Q298.86 62.04 294.69 62.73Q290.52 63.42 287.25 64.11Q285.18 64.62 283.81 64.8Q282.43 64.97 281.44 64.88Q280.45 64.8 279.55 64.41Q278.65 64.02 277.53 63.25Q275.72 62.04 275.98 61.18Q276.24 60.32 278.65 60.32Q279.77 60.32 282 60.15Q284.24 59.98 287.16 59.68Q290.09 59.38 293.44 58.95Q296.79 58.52 300.11 58.05Q303.42 57.57 306.51 57.06Q309.61 56.54 311.93 56.02Q314.77 55.42 316.7 55.12Q318.64 54.82 320.06 54.78Q321.48 54.73 322.51 55.04Q323.54 55.34 324.49 55.85Q328.87 58.43 328.49 60.07Q328.1 61.7 323.2 61.36Q319.84 61.18 316.32 61.06Q312.79 60.93 308.83 61.1Q311.16 62.22 312.4 63.03Q313.65 63.85 314.21 64.58Q314.77 65.31 314.73 65.96Q314.68 66.6 314.34 67.38Q313.91 68.58 313.65 72.19Q313.39 75.8 313.48 81.91Q313.56 88.36 313.74 93.09Q313.91 97.82 314.25 102.12Q314.51 104.96 314.51 106.89Q314.51 108.83 314.12 110.42Q313.74 112.01 312.92 113.6Q312.1 115.19 310.55 117.34Q308.75 119.92 307.07 119.97Q305.39 120.01 304.62 117.77Q303.67 115.28 302.17 113.43Q300.66 111.58 297.91 109.43Q295.25 107.45 295.46 106.64Q295.68 105.82 298.6 106.42Q301.18 106.94 302.69 107.06Q304.19 107.19 305.01 106.94Q305.82 106.68 306.13 105.9Q306.43 105.13 306.51 103.84Q307.2 95.5 307.2 88.02Q307.2 80.53 306.77 72.19Q306.6 70.21 306.43 68.8Q306.25 67.38 305.91 66.22Q305.57 65.05 304.96 63.98Q304.36 62.9 303.42 61.61ZM275.55 55.77Q275.72 58.86 274.22 59.94Q272.71 61.01 270.56 59.64Q267.21 57.49 263.6 52.67Q262.22 50.78 262.65 50.31Q263.08 49.83 266.18 50Q270.99 50.26 273.19 51.72Q275.38 53.19 275.55 55.77ZM374.78 85.78Q372.89 90.08 371.3 94.04Q369.7 97.99 368.54 101.39Q367.38 104.79 366.65 107.37Q365.92 109.95 365.75 111.32Q365.4 113.64 364.89 114.81Q364.37 115.97 363.51 115.88Q362.65 115.79 361.4 114.33Q360.16 112.87 358.52 109.95Q357.06 107.45 356.42 106.03Q355.77 104.61 355.69 103.88Q355.6 103.15 356.12 102.94Q356.63 102.72 357.58 102.55Q358.61 102.38 360.12 101.17Q361.62 99.97 363.94 96.62Q365.23 94.81 366.18 93.39Q367.12 91.97 368.07 90.42Q369.02 88.88 370.18 87.03Q371.34 85.18 372.97 82.43Q374.35 80.02 375.38 78.99Q376.41 77.95 376.8 78.34Q377.19 78.73 376.76 80.58Q376.33 82.43 374.78 85.78ZM398 95.58Q395.5 98.59 392.58 100.96Q389.66 103.32 386.47 105Q383.29 106.68 379.94 107.62Q376.58 108.57 373.32 108.74Q370.56 108.83 370.39 107.97Q370.22 107.11 372.46 106.25Q379.16 103.93 384.8 99.63Q390.43 95.33 394.3 90.34Q392.67 88.02 391.5 86.25Q390.34 84.49 389.44 83.24Q388.54 82 387.94 81.14Q387.33 80.28 386.82 79.59Q385.1 77.18 383.21 75.59Q381.31 74 379.94 73.48Q377.53 72.54 377.83 71.38Q378.13 70.21 381.4 70.3Q382.78 70.3 383.81 70.52Q384.84 70.73 385.66 71.25Q386.47 71.76 387.29 72.62Q388.11 73.48 389.05 74.86Q389.66 75.72 390.6 77.05Q391.55 78.38 392.67 79.85Q393.78 81.31 394.99 82.86Q396.19 84.4 397.31 85.69Q399.46 81.65 401.05 76.36Q402.64 71.07 403.59 65.83Q403.85 64.19 403.55 63.81Q403.24 63.42 402.13 63.59Q400.75 63.76 399.63 63.98Q398.51 64.19 397.44 64.41Q396.36 64.62 395.29 64.93Q394.21 65.23 392.92 65.57Q390.34 66.34 388.67 66.73Q386.99 67.12 385.83 67.2Q384.67 67.29 383.76 67.03Q382.86 66.77 381.83 66.26Q378.91 64.8 379.03 63.94Q379.16 63.08 381.74 62.9Q382.78 62.9 384.19 62.73Q385.61 62.56 387.2 62.3Q388.8 62.04 390.43 61.74Q392.06 61.44 393.53 61.1Q397.91 59.89 400.49 58.86Q403.07 57.83 404.28 56.63Q405.39 55.59 406.81 55.68Q408.23 55.77 411.59 57.74Q413.74 58.95 414.9 59.77Q416.06 60.58 416.32 61.31Q416.57 62.04 416.01 62.82Q415.46 63.59 414.17 64.71Q412.96 65.83 411.71 67.94Q410.47 70.04 409.52 72.97Q407.8 78.38 405.82 82.64Q403.85 86.9 401.52 90.6Q404.45 93.78 407.24 96.19Q410.04 98.59 413.13 100.49Q416.23 102.38 419.84 103.93Q423.45 105.47 428.1 106.94Q431.45 108.05 431.45 109.04Q431.45 110.03 428.53 110.38Q421.82 111.06 417.99 111.32Q414.17 111.58 411.97 111.15Q409.78 110.72 408.53 109.52Q407.29 108.31 405.65 106.08Q403.5 103.24 401.57 100.53Q399.63 97.82 398 95.58ZM368.33 78.99Q368.67 82.17 367.25 83.03Q365.83 83.89 363.51 82.34Q361.79 81.14 360.42 79.55Q359.04 77.95 357.23 75.12Q356.03 73.22 356.5 72.71Q356.98 72.19 359.73 72.45Q364.29 72.88 366.18 74.51Q368.07 76.15 368.33 78.99ZM374.95 60.75Q375.21 62.22 374.78 63.16Q374.35 64.11 373.62 64.58Q372.89 65.05 371.94 64.97Q370.99 64.88 370.13 64.37Q368.41 63.25 366.48 61.18Q364.54 59.12 363.25 57.14Q362.14 55.42 362.57 54.95Q363 54.48 366.18 54.65Q370.56 54.91 372.54 56.45Q374.52 58 374.95 60.75ZM495.76 83.72Q497.83 84.58 498.99 85.18Q500.15 85.78 500.62 86.38Q501.09 86.98 501.05 87.59Q501.01 88.19 500.75 89.05Q500.06 90.94 499.85 93.86Q499.63 96.79 499.8 99.88Q499.89 101.52 499.93 103.32Q499.98 105.13 500.02 106.76Q500.06 108.4 500.06 109.64Q500.06 110.89 500.06 111.32Q499.98 113.99 499.85 115.58Q499.72 117.17 499.46 119.23Q499.12 121.99 497.4 122.07Q495.68 122.16 493.96 119.41Q493.18 118.12 492.75 117.26Q492.32 116.4 492.28 115.49Q492.24 114.59 492.49 113.52Q492.75 112.44 493.35 110.72Q493.7 109.69 493.91 108.48Q494.13 107.28 494.21 105.43Q494.3 103.58 494.26 100.92Q494.21 98.25 494.13 94.29Q493.96 91.2 493.44 88.96Q492.92 86.73 492.24 86.04Q491.38 85.09 491.16 84.32Q490.95 83.54 491.38 83.16Q491.81 82.77 492.88 82.86Q493.96 82.94 495.76 83.72ZM486.04 91.54Q485.36 92.83 484.97 94.25Q484.58 95.67 484.32 97.05Q483.29 102.46 479.89 107.37Q476.5 112.27 470.65 115.54Q467.3 117.51 466.87 116.83Q466.44 116.14 469.27 113.3Q472.03 110.55 473.96 107.45Q475.9 104.36 477.36 99.8Q478.22 97.3 478.69 95.5Q479.16 93.69 479.29 92.44Q479.42 91.2 479.21 90.34Q478.99 89.48 478.48 88.79Q477.1 87.07 478.18 86.04Q479.25 85.01 482.52 86.38Q484.24 87.07 485.18 87.63Q486.13 88.19 486.47 88.75Q486.82 89.31 486.69 89.95Q486.56 90.6 486.04 91.54ZM484.24 54.13Q482 54.48 479.55 54.69Q477.1 54.91 474.61 55.08Q475.21 58.35 475.9 62.26Q476.58 66.17 477.19 69.53Q479.34 69.35 481.27 69.05Q483.21 68.75 485.44 68.32L485.53 63.51Q483.29 63.68 481.66 63.68Q480.02 63.68 479.25 63.33Q477.01 62.47 476.97 62Q476.93 61.53 479.34 61.1Q480.97 60.84 482.56 60.58Q484.15 60.32 485.61 60.07Q485.44 56.97 484.24 54.13ZM490.52 67.38Q494.04 66.69 495.68 66.69Q497.31 66.69 498.17 67.12Q499.46 67.81 500.15 67.46Q500.84 67.12 501.61 65.14Q503.5 60.32 504.36 54.39Q504.62 52.76 504.23 52.28Q503.85 51.81 502.3 51.9Q500.84 51.98 499.16 52.11Q497.48 52.24 495.81 52.41Q494.13 52.58 492.62 52.76Q491.12 52.93 490.09 53.1Q491.98 54.05 492.28 54.56Q492.58 55.08 492.06 55.94Q491.29 57.14 490.95 58.69Q493.7 57.92 495.29 57.79Q496.88 57.66 498.08 58.09Q499.89 58.69 499.98 59.81Q500.06 60.93 498.34 61.44Q496.71 61.96 494.73 62.35Q492.75 62.73 490.6 63.08ZM493.01 70.73Q496.79 73.91 500.19 76.36Q503.59 78.81 507.8 81.48Q509.18 82.43 511.37 83.46Q513.56 84.49 516.14 85.56Q518.72 86.64 521.52 87.59Q524.31 88.53 527.07 89.13Q530.85 90.08 530.89 91.16Q530.94 92.23 527.41 92.66Q521.82 93.35 518.6 93.65Q515.37 93.95 513.43 93.78Q511.5 93.61 510.43 92.88Q509.35 92.14 508.15 90.85Q506.94 89.65 504.49 87.11Q502.04 84.58 499.2 81.65Q496.36 78.73 493.61 75.85Q490.86 72.97 489.14 71.16Q487.94 71.33 486.65 71.5Q485.36 71.68 483.64 71.93Q486.73 74 486.99 75.03Q487.25 76.06 485.7 77.18Q484.75 77.87 483.64 78.94Q482.52 80.02 481.83 80.96Q477.19 87.16 471.25 91.24Q465.32 95.33 457.23 98.16Q453.97 99.37 453.58 98.51Q453.19 97.65 455.94 96.1Q458.61 94.64 461.4 92.66Q464.2 90.68 466.65 88.66Q469.1 86.64 470.95 84.92Q472.8 83.2 473.57 82.17Q476.41 78.56 477.7 76.32Q478.99 74.08 479.51 72.36Q478.99 72.45 478.48 72.49Q477.96 72.54 477.53 72.54Q477.44 73.83 476.88 74.3Q476.33 74.77 475.55 74.94Q474.61 75.12 473.57 73.65Q472.54 72.19 471.85 69.18Q470.39 63.25 469.14 59.89Q467.9 56.54 466.44 54.65Q465.49 53.36 465.19 52.41Q464.89 51.47 465.53 51.08Q466.18 50.69 467.81 50.91Q469.45 51.12 472.28 52.07Q476.93 51.72 481.66 51.17Q486.39 50.61 490.43 49.96Q494.47 49.32 497.35 48.71Q500.23 48.11 501.09 47.68Q502.47 47.08 503.42 46.78Q504.36 46.48 505.35 46.65Q506.34 46.82 507.59 47.47Q508.83 48.11 510.81 49.4Q512.96 50.78 514.12 51.72Q515.28 52.67 515.54 53.44Q515.8 54.22 515.24 54.95Q514.68 55.68 513.48 56.71Q512.27 57.66 510.94 59.77Q509.61 61.87 508.58 64.19Q507.89 65.83 507.16 67.08Q506.43 68.32 505.22 70.04Q503.5 72.71 502.08 72.88Q500.66 73.05 499.63 71.42Q499.29 70.99 498.94 70.73Q498.6 70.47 497.91 70.39Q497.22 70.3 496.06 70.39Q494.9 70.47 493.01 70.73Z"/>
    <path fill="#6B2517" stroke="#6B2517" stroke-width="8" opacity="0.58" d="M179.13 79.55Q175.09 80.24 171.82 80.93Q168.55 81.62 166.32 82.31Q165.03 82.74 164.08 82.91Q163.13 83.08 162.27 83.04Q161.41 82.99 160.6 82.69Q159.78 82.39 158.66 81.88Q156.51 80.84 156.86 80.07Q157.2 79.3 160.81 79.3Q161.59 79.3 164.21 78.95Q166.83 78.61 170.4 78.09Q173.97 77.58 178.01 76.97Q182.05 76.37 185.67 75.73Q189.28 75.08 192.03 74.52Q194.78 73.96 195.81 73.62Q197.36 73.1 198.48 72.85Q199.6 72.59 200.54 72.72Q201.49 72.85 202.52 73.36Q203.55 73.88 204.93 74.82Q209.06 77.75 209.1 78.82Q209.14 79.9 206.05 80.41Q204.07 80.76 202.26 81.49Q200.46 82.22 198.31 83.6Q196.33 84.89 195.86 84.41Q195.38 83.94 196.59 81.36Q197.96 78.52 197.66 77.96Q197.36 77.4 195.04 77.58Q192.03 77.83 189.19 78.14Q186.35 78.44 183.69 78.87Q185.41 79.64 186.35 80.16Q187.3 80.67 187.64 81.19Q187.99 81.7 187.86 82.26Q187.73 82.82 187.3 83.6Q186.87 84.37 186.57 85.49Q186.27 86.61 186.18 88.33Q187.21 88.24 188.38 87.9Q189.54 87.55 191 86.78Q192.46 86.09 194.18 85.96Q195.9 85.83 197.1 86.26Q200.03 87.29 199.98 88.5Q199.94 89.7 196.42 90.39Q193.15 91.08 190.7 91.29Q188.25 91.51 186.01 91.16L185.58 99.25Q186.61 99.68 187.64 100.02Q188.68 100.37 189.79 100.8Q193.66 102.09 196.93 102.95Q200.2 103.81 203.55 104.32Q206.91 104.84 210.78 105.1Q214.65 105.35 219.81 105.44Q223.59 105.53 223.72 106.6Q223.85 107.68 219.38 109.05Q213.01 111.03 209.27 111.93Q205.53 112.84 202.78 112.79Q200.03 112.75 197.58 111.63Q195.13 110.51 191.43 108.36Q185.24 104.75 179.43 101.44Q173.63 98.13 168.72 95.55Q162.53 104.67 151.44 108.79Q148.69 109.83 148.38 109.09Q148.08 108.36 150.58 106.82Q153.59 104.92 156.64 102.04Q159.69 99.16 161.59 96.41Q163.05 94.35 163.95 92.8Q164.85 91.25 165.33 90.13Q165.8 89.01 165.84 88.11Q165.89 87.21 165.63 86.43Q164.85 84.2 165.97 83.68Q167.09 83.17 170.7 84.89Q173.28 86.09 173.58 86.99Q173.88 87.9 172.77 89.27Q172.34 89.7 171.91 90.35Q171.48 90.99 170.62 92.45Q173.63 93.92 176.12 95.12Q178.61 96.32 180.85 97.36Q181.11 92.63 181.19 89.66Q181.28 86.69 181.11 84.76Q180.94 82.82 180.46 81.7Q179.99 80.59 179.13 79.55ZM165.89 59.43Q163.91 59.77 162.53 59.65Q161.16 59.52 159.26 59.09Q156.68 58.4 156.68 57.75Q156.68 57.11 159.69 56.85Q161.93 56.68 163.95 56.29Q165.97 55.9 169.15 54.96Q169.15 50.31 168.77 47.73Q168.38 45.15 167.69 44.38Q165.46 42.06 166.1 41.16Q166.75 40.25 169.93 41.2Q172.16 41.89 173.41 42.36Q174.66 42.83 175.09 43.31Q175.52 43.78 175.35 44.47Q175.17 45.15 174.66 46.19Q174.49 46.53 174.31 47Q174.14 47.48 174.01 48.29Q173.88 49.11 173.75 50.4Q173.63 51.69 173.54 53.67Q175.69 52.98 176.81 52.85Q177.93 52.72 179.39 52.98Q181.71 53.41 181.84 54.74Q181.97 56.08 179.56 56.68Q177.58 57.19 176.12 57.54Q174.66 57.88 173.28 58.14L173.28 61.49Q177.24 61.67 178.61 62.05Q179.99 62.44 180.51 63.39Q181.54 65.45 180.51 66.61Q179.47 67.77 177.75 67Q176.89 66.65 175.99 65.88Q175.09 65.11 173.28 63.39L173.28 69.23Q173.28 72.07 172.89 73.62Q172.51 75.17 171.86 75.73Q171.22 76.29 170.4 75.94Q169.58 75.6 168.64 74.57Q167.35 73.19 167.22 72.24Q167.09 71.3 168.04 69.32Q168.47 68.46 168.64 67.13Q168.81 65.79 168.98 62.61Q167.52 65.19 166.01 67.13Q164.51 69.06 162.88 70.61Q161.24 72.16 159.35 73.41Q157.46 74.65 155.14 75.86Q152.38 77.32 152.08 76.76Q151.78 76.2 154.28 74.14Q157.72 71.3 160.47 67.9Q163.22 64.5 165.89 59.43ZM198.57 50.4Q199.25 50.23 199.81 50.06Q200.37 49.88 200.8 49.71Q203.12 48.85 204.54 48.77Q205.96 48.68 208.11 49.11Q210 49.54 210.05 50.74Q210.09 51.95 207.68 52.55Q205.62 52.98 203.08 53.5Q200.54 54.01 198.31 54.44Q198.22 55.47 198.22 56.68Q198.22 57.88 198.22 59.26Q201.4 59.69 203.3 60.08Q205.19 60.46 206.31 60.85Q207.42 61.24 207.94 61.75Q208.46 62.27 208.89 63.04Q209.66 64.5 209.7 65.62Q209.75 66.74 209.23 67.39Q208.71 68.03 207.85 68.12Q206.99 68.2 206.13 67.51Q204.16 66.14 202.52 64.93Q200.89 63.73 198.22 61.75Q198.39 63.47 198.35 65.84Q198.31 68.2 197.96 70.35Q197.62 72.67 196.33 72.85Q195.04 73.02 193.66 71.13Q192.98 70.18 192.59 69.49Q192.2 68.8 192.16 68.25Q192.12 67.69 192.33 67.04Q192.55 66.4 192.98 65.45Q193.15 65.11 193.28 64.76Q193.41 64.42 193.45 63.86Q193.49 63.3 193.58 62.4Q193.66 61.49 193.66 60.03Q190.74 64.59 187.69 67.17Q184.63 69.75 181.02 71.3Q177.93 72.67 177.67 72.24Q177.41 71.81 180.08 69.49Q181.88 67.86 183.34 66.44Q184.81 65.02 186.1 63.47Q187.39 61.92 188.63 59.99Q189.88 58.05 191.34 55.47Q188.25 55.9 186.96 55.82Q185.67 55.73 184.98 55.56Q183 54.96 183.04 54.18Q183.09 53.41 185.58 53.24Q186.7 53.07 188.98 52.64Q191.26 52.21 193.75 51.6Q193.75 48.85 193.71 47.09Q193.66 45.33 193.49 44.21Q193.32 43.09 193.06 42.49Q192.8 41.89 192.37 41.37Q190.4 39.13 191.17 38.23Q191.94 37.33 195.56 38.53Q197.62 39.22 198.69 39.69Q199.77 40.17 200.2 40.64Q200.63 41.11 200.46 41.71Q200.29 42.32 199.86 43.35Q199.34 44.55 199.04 46.06Q198.74 47.56 198.57 50.4ZM267.78 78.44Q265.46 83.85 263.91 87.64Q262.36 91.42 261.33 94.22Q260.3 97.01 259.65 98.99Q259.01 100.97 258.49 102.6Q257.89 104.67 257.16 105.61Q256.43 106.56 255.52 106.13Q254.62 105.7 253.59 103.81Q252.56 101.91 251.27 98.3Q250.06 94.95 250.49 93.92Q250.92 92.88 252.73 92.97Q253.59 92.97 254.28 92.71Q254.96 92.45 256.17 90.99Q257.37 89.53 259.48 86.31Q261.59 83.08 265.28 77.23Q267.26 74.14 268.25 74.52Q269.24 74.91 267.78 78.44ZM278.61 79.38Q281.97 78.95 283.43 78.56Q284.89 78.18 285.84 77.49Q286.35 76.03 286.57 74.48Q286.78 72.93 286.87 71.13Q286.96 70.01 286.57 69.66Q286.18 69.32 284.72 69.49Q281.8 69.92 280.25 70.09Q278.7 70.27 277.58 70.44Q278.01 74.22 278.23 76.24Q278.44 78.26 278.61 79.38ZM275.95 67.34Q279.65 67.17 282.18 66.48Q284.72 65.79 286.44 64.85Q287.21 64.42 287.77 64.2Q288.33 63.99 288.98 64.03Q289.62 64.07 290.4 64.42Q291.17 64.76 292.29 65.36Q294.09 66.4 295.04 67.13Q295.99 67.86 296.24 68.42Q296.5 68.98 296.24 69.49Q295.99 70.01 295.3 70.7Q294.09 71.9 293.36 72.76Q292.63 73.62 292.12 74.35Q291.6 75.08 291.3 75.81Q291 76.54 290.65 77.4Q292.63 78.95 292.5 80.33Q292.37 81.7 289.88 81.88Q287.73 82.05 284.63 82.35Q281.54 82.65 278.79 82.99Q278.53 86.09 276.81 86.26Q275.95 86.35 275.09 84.97Q274.23 83.6 273.97 81.45Q273.37 77.15 272.59 74.31Q271.82 71.47 270.44 68.8Q269.5 66.83 270.49 66.31Q271.48 65.79 275.95 67.34ZM261.24 66.65Q261.59 70.01 259.82 71Q258.06 71.99 255.74 70.35Q254.28 69.41 252.9 67.94Q251.52 66.48 249.55 63.99Q248 62.01 248.38 61.45Q248.77 60.89 251.44 61.32Q254.53 61.84 256.38 62.31Q258.23 62.78 259.26 63.34Q260.3 63.9 260.68 64.72Q261.07 65.54 261.24 66.65ZM296.42 54.61Q291.86 55.04 287.69 55.73Q283.52 56.42 280.25 57.11Q278.18 57.62 276.81 57.8Q275.43 57.97 274.44 57.88Q273.45 57.8 272.55 57.41Q271.65 57.02 270.53 56.25Q268.72 55.04 268.98 54.18Q269.24 53.32 271.65 53.32Q272.77 53.32 275 53.15Q277.24 52.98 280.16 52.68Q283.09 52.38 286.44 51.95Q289.79 51.52 293.11 51.05Q296.42 50.57 299.51 50.06Q302.61 49.54 304.93 49.02Q307.77 48.42 309.7 48.12Q311.64 47.82 313.06 47.78Q314.48 47.73 315.51 48.04Q316.54 48.34 317.49 48.85Q321.87 51.43 321.49 53.07Q321.1 54.7 316.2 54.36Q312.84 54.18 309.32 54.06Q305.79 53.93 301.83 54.1Q304.16 55.22 305.4 56.03Q306.65 56.85 307.21 57.58Q307.77 58.31 307.73 58.96Q307.68 59.6 307.34 60.38Q306.91 61.58 306.65 65.19Q306.39 68.8 306.48 74.91Q306.56 81.36 306.74 86.09Q306.91 90.82 307.25 95.12Q307.51 97.96 307.51 99.89Q307.51 101.83 307.12 103.42Q306.74 105.01 305.92 106.6Q305.1 108.19 303.55 110.34Q301.75 112.92 300.07 112.97Q298.39 113.01 297.62 110.77Q296.67 108.28 295.17 106.43Q293.66 104.58 290.91 102.43Q288.25 100.45 288.46 99.64Q288.68 98.82 291.6 99.42Q294.18 99.94 295.69 100.06Q297.19 100.19 298.01 99.94Q298.82 99.68 299.13 98.9Q299.43 98.13 299.51 96.84Q300.2 88.5 300.2 81.02Q300.2 73.53 299.77 65.19Q299.6 63.21 299.43 61.8Q299.25 60.38 298.91 59.22Q298.57 58.05 297.96 56.98Q297.36 55.9 296.42 54.61ZM268.55 48.77Q268.72 51.86 267.22 52.94Q265.71 54.01 263.56 52.64Q260.21 50.49 256.6 45.67Q255.22 43.78 255.65 43.31Q256.08 42.83 259.18 43Q263.99 43.26 266.19 44.72Q268.38 46.19 268.55 48.77ZM367.78 78.78Q365.89 83.08 364.3 87.04Q362.7 90.99 361.54 94.39Q360.38 97.79 359.65 100.37Q358.92 102.95 358.75 104.32Q358.4 106.64 357.89 107.81Q357.37 108.97 356.51 108.88Q355.65 108.79 354.4 107.33Q353.16 105.87 351.52 102.95Q350.06 100.45 349.42 99.03Q348.77 97.61 348.69 96.88Q348.6 96.15 349.12 95.94Q349.63 95.72 350.58 95.55Q351.61 95.38 353.12 94.17Q354.62 92.97 356.94 89.62Q358.23 87.81 359.18 86.39Q360.12 84.97 361.07 83.42Q362.02 81.88 363.18 80.03Q364.34 78.18 365.97 75.43Q367.35 73.02 368.38 71.99Q369.41 70.95 369.8 71.34Q370.19 71.73 369.76 73.58Q369.33 75.43 367.78 78.78ZM391 88.58Q388.5 91.59 385.58 93.96Q382.66 96.32 379.47 98Q376.29 99.68 372.94 100.62Q369.58 101.57 366.32 101.74Q363.56 101.83 363.39 100.97Q363.22 100.11 365.46 99.25Q372.16 96.93 377.8 92.63Q383.43 88.33 387.3 83.34Q385.67 81.02 384.5 79.25Q383.34 77.49 382.44 76.24Q381.54 75 380.94 74.14Q380.33 73.28 379.82 72.59Q378.1 70.18 376.21 68.59Q374.31 67 372.94 66.48Q370.53 65.54 370.83 64.38Q371.13 63.21 374.4 63.3Q375.78 63.3 376.81 63.52Q377.84 63.73 378.66 64.25Q379.47 64.76 380.29 65.62Q381.11 66.48 382.05 67.86Q382.66 68.72 383.6 70.05Q384.55 71.38 385.67 72.85Q386.78 74.31 387.99 75.86Q389.19 77.4 390.31 78.69Q392.46 74.65 394.05 69.36Q395.64 64.07 396.59 58.83Q396.85 57.19 396.55 56.81Q396.24 56.42 395.13 56.59Q393.75 56.76 392.63 56.98Q391.51 57.19 390.44 57.41Q389.36 57.62 388.29 57.93Q387.21 58.23 385.92 58.57Q383.34 59.34 381.67 59.73Q379.99 60.12 378.83 60.2Q377.67 60.29 376.76 60.03Q375.86 59.77 374.83 59.26Q371.91 57.8 372.03 56.94Q372.16 56.08 374.74 55.9Q375.78 55.9 377.19 55.73Q378.61 55.56 380.2 55.3Q381.8 55.04 383.43 54.74Q385.06 54.44 386.53 54.1Q390.91 52.89 393.49 51.86Q396.07 50.83 397.28 49.63Q398.39 48.59 399.81 48.68Q401.23 48.77 404.59 50.74Q406.74 51.95 407.9 52.77Q409.06 53.58 409.32 54.31Q409.57 55.04 409.01 55.82Q408.46 56.59 407.17 57.71Q405.96 58.83 404.71 60.94Q403.47 63.04 402.52 65.97Q400.8 71.38 398.82 75.64Q396.85 79.9 394.52 83.6Q397.45 86.78 400.24 89.19Q403.04 91.59 406.13 93.49Q409.23 95.38 412.84 96.93Q416.45 98.47 421.1 99.94Q424.45 101.05 424.45 102.04Q424.45 103.03 421.53 103.38Q414.82 104.06 410.99 104.32Q407.17 104.58 404.97 104.15Q402.78 103.72 401.53 102.52Q400.29 101.31 398.65 99.08Q396.5 96.24 394.57 93.53Q392.63 90.82 391 88.58ZM361.33 71.99Q361.67 75.17 360.25 76.03Q358.83 76.89 356.51 75.34Q354.79 74.14 353.42 72.55Q352.04 70.95 350.23 68.12Q349.03 66.22 349.5 65.71Q349.98 65.19 352.73 65.45Q357.29 65.88 359.18 67.51Q361.07 69.15 361.33 71.99ZM367.95 53.75Q368.21 55.22 367.78 56.16Q367.35 57.11 366.62 57.58Q365.89 58.05 364.94 57.97Q363.99 57.88 363.13 57.37Q361.41 56.25 359.48 54.18Q357.54 52.12 356.25 50.14Q355.14 48.42 355.57 47.95Q356 47.48 359.18 47.65Q363.56 47.91 365.54 49.45Q367.52 51 367.95 53.75ZM488.76 76.72Q490.83 77.58 491.99 78.18Q493.15 78.78 493.62 79.38Q494.09 79.98 494.05 80.59Q494.01 81.19 493.75 82.05Q493.06 83.94 492.85 86.86Q492.63 89.79 492.8 92.88Q492.89 94.52 492.93 96.32Q492.98 98.13 493.02 99.76Q493.06 101.4 493.06 102.64Q493.06 103.89 493.06 104.32Q492.98 106.99 492.85 108.58Q492.72 110.17 492.46 112.23Q492.12 114.99 490.4 115.07Q488.68 115.16 486.96 112.41Q486.18 111.12 485.75 110.26Q485.32 109.4 485.28 108.49Q485.24 107.59 485.49 106.52Q485.75 105.44 486.35 103.72Q486.7 102.69 486.91 101.48Q487.13 100.28 487.21 98.43Q487.3 96.58 487.26 93.92Q487.21 91.25 487.13 87.29Q486.96 84.2 486.44 81.96Q485.92 79.73 485.24 79.04Q484.38 78.09 484.16 77.32Q483.95 76.54 484.38 76.16Q484.81 75.77 485.88 75.86Q486.96 75.94 488.76 76.72ZM479.04 84.54Q478.36 85.83 477.97 87.25Q477.58 88.67 477.32 90.05Q476.29 95.46 472.89 100.37Q469.5 105.27 463.65 108.54Q460.3 110.51 459.87 109.83Q459.44 109.14 462.27 106.3Q465.03 103.55 466.96 100.45Q468.9 97.36 470.36 92.8Q471.22 90.3 471.69 88.5Q472.16 86.69 472.29 85.44Q472.42 84.2 472.21 83.34Q471.99 82.48 471.48 81.79Q470.1 80.07 471.18 79.04Q472.25 78.01 475.52 79.38Q477.24 80.07 478.18 80.63Q479.13 81.19 479.47 81.75Q479.82 82.31 479.69 82.95Q479.56 83.6 479.04 84.54ZM477.24 47.13Q475 47.48 472.55 47.69Q470.1 47.91 467.61 48.08Q468.21 51.35 468.9 55.26Q469.58 59.17 470.19 62.53Q472.34 62.35 474.27 62.05Q476.21 61.75 478.44 61.32L478.53 56.51Q476.29 56.68 474.66 56.68Q473.02 56.68 472.25 56.33Q470.01 55.47 469.97 55Q469.93 54.53 472.34 54.1Q473.97 53.84 475.56 53.58Q477.15 53.32 478.61 53.07Q478.44 49.97 477.24 47.13ZM483.52 60.38Q487.04 59.69 488.68 59.69Q490.31 59.69 491.17 60.12Q492.46 60.81 493.15 60.46Q493.84 60.12 494.61 58.14Q496.5 53.32 497.36 47.39Q497.62 45.76 497.23 45.28Q496.85 44.81 495.3 44.9Q493.84 44.98 492.16 45.11Q490.48 45.24 488.81 45.41Q487.13 45.58 485.62 45.76Q484.12 45.93 483.09 46.1Q484.98 47.05 485.28 47.56Q485.58 48.08 485.06 48.94Q484.29 50.14 483.95 51.69Q486.7 50.92 488.29 50.79Q489.88 50.66 491.08 51.09Q492.89 51.69 492.98 52.81Q493.06 53.93 491.34 54.44Q489.71 54.96 487.73 55.35Q485.75 55.73 483.6 56.08ZM486.01 63.73Q489.79 66.91 493.19 69.36Q496.59 71.81 500.8 74.48Q502.18 75.43 504.37 76.46Q506.56 77.49 509.14 78.56Q511.72 79.64 514.52 80.59Q517.31 81.53 520.07 82.13Q523.85 83.08 523.89 84.16Q523.94 85.23 520.41 85.66Q514.82 86.35 511.6 86.65Q508.37 86.95 506.44 86.78Q504.5 86.61 503.43 85.88Q502.35 85.14 501.15 83.85Q499.94 82.65 497.49 80.11Q495.04 77.58 492.2 74.65Q489.36 71.73 486.61 68.85Q483.86 65.97 482.14 64.16Q480.94 64.33 479.65 64.5Q478.36 64.68 476.64 64.93Q479.73 67 479.99 68.03Q480.25 69.06 478.7 70.18Q477.75 70.87 476.64 71.94Q475.52 73.02 474.83 73.96Q470.19 80.16 464.25 84.24Q458.32 88.33 450.23 91.16Q446.97 92.37 446.58 91.51Q446.19 90.65 448.94 89.1Q451.61 87.64 454.4 85.66Q457.2 83.68 459.65 81.66Q462.1 79.64 463.95 77.92Q465.8 76.2 466.57 75.17Q469.41 71.56 470.7 69.32Q471.99 67.08 472.51 65.36Q471.99 65.45 471.48 65.49Q470.96 65.54 470.53 65.54Q470.44 66.83 469.88 67.3Q469.33 67.77 468.55 67.94Q467.61 68.12 466.57 66.65Q465.54 65.19 464.85 62.18Q463.39 56.25 462.14 52.89Q460.9 49.54 459.44 47.65Q458.49 46.36 458.19 45.41Q457.89 44.47 458.53 44.08Q459.18 43.69 460.81 43.91Q462.45 44.12 465.28 45.07Q469.93 44.72 474.66 44.17Q479.39 43.61 483.43 42.96Q487.47 42.32 490.35 41.71Q493.23 41.11 494.09 40.68Q495.47 40.08 496.42 39.78Q497.36 39.48 498.35 39.65Q499.34 39.82 500.59 40.47Q501.83 41.11 503.81 42.4Q505.96 43.78 507.12 44.72Q508.28 45.67 508.54 46.44Q508.8 47.22 508.24 47.95Q507.68 48.68 506.48 49.71Q505.27 50.66 503.94 52.77Q502.61 54.87 501.58 57.19Q500.89 58.83 500.16 60.08Q499.43 61.32 498.22 63.04Q496.5 65.71 495.08 65.88Q493.66 66.05 492.63 64.42Q492.29 63.99 491.94 63.73Q491.6 63.47 490.91 63.39Q490.22 63.3 489.06 63.39Q487.9 63.47 486.01 63.73Z"/>
    <path fill="#B93B27" stroke="#F5D27A" stroke-width="7" stroke-linejoin="round" d="M173.13 73.55Q169.09 74.24 165.82 74.93Q162.55 75.62 160.32 76.31Q159.03 76.74 158.08 76.91Q157.13 77.08 156.27 77.04Q155.41 76.99 154.6 76.69Q153.78 76.39 152.66 75.88Q150.51 74.84 150.86 74.07Q151.2 73.3 154.81 73.3Q155.59 73.3 158.21 72.95Q160.83 72.61 164.4 72.09Q167.97 71.58 172.01 70.97Q176.05 70.37 179.67 69.73Q183.28 69.08 186.03 68.52Q188.78 67.96 189.81 67.62Q191.36 67.1 192.48 66.85Q193.6 66.59 194.54 66.72Q195.49 66.85 196.52 67.36Q197.55 67.88 198.93 68.82Q203.06 71.75 203.1 72.82Q203.14 73.9 200.05 74.41Q198.07 74.76 196.26 75.49Q194.46 76.22 192.31 77.6Q190.33 78.89 189.86 78.41Q189.38 77.94 190.59 75.36Q191.96 72.52 191.66 71.96Q191.36 71.4 189.04 71.58Q186.03 71.83 183.19 72.14Q180.35 72.44 177.69 72.87Q179.41 73.64 180.35 74.16Q181.3 74.67 181.64 75.19Q181.99 75.7 181.86 76.26Q181.73 76.82 181.3 77.6Q180.87 78.37 180.57 79.49Q180.27 80.61 180.18 82.33Q181.21 82.24 182.38 81.9Q183.54 81.55 185 80.78Q186.46 80.09 188.18 79.96Q189.9 79.83 191.1 80.26Q194.03 81.29 193.98 82.5Q193.94 83.7 190.42 84.39Q187.15 85.08 184.7 85.29Q182.25 85.51 180.01 85.16L179.58 93.25Q180.61 93.68 181.64 94.02Q182.68 94.37 183.79 94.8Q187.66 96.09 190.93 96.95Q194.2 97.81 197.55 98.32Q200.91 98.84 204.78 99.1Q208.65 99.35 213.81 99.44Q217.59 99.53 217.72 100.6Q217.85 101.68 213.38 103.05Q207.01 105.03 203.27 105.93Q199.53 106.84 196.78 106.79Q194.03 106.75 191.58 105.63Q189.13 104.51 185.43 102.36Q179.24 98.75 173.43 95.44Q167.63 92.13 162.72 89.55Q156.53 98.67 145.44 102.79Q142.69 103.83 142.38 103.09Q142.08 102.36 144.58 100.82Q147.59 98.92 150.64 96.04Q153.69 93.16 155.59 90.41Q157.05 88.35 157.95 86.8Q158.85 85.25 159.33 84.13Q159.8 83.01 159.84 82.11Q159.89 81.21 159.63 80.43Q158.85 78.2 159.97 77.68Q161.09 77.17 164.7 78.89Q167.28 80.09 167.58 80.99Q167.88 81.9 166.77 83.27Q166.34 83.7 165.91 84.35Q165.48 84.99 164.62 86.45Q167.63 87.92 170.12 89.12Q172.61 90.32 174.85 91.36Q175.11 86.63 175.19 83.66Q175.28 80.69 175.11 78.76Q174.94 76.82 174.46 75.7Q173.99 74.59 173.13 73.55ZM159.89 53.43Q157.91 53.77 156.53 53.65Q155.16 53.52 153.26 53.09Q150.68 52.4 150.68 51.75Q150.68 51.11 153.69 50.85Q155.93 50.68 157.95 50.29Q159.97 49.9 163.15 48.96Q163.15 44.31 162.77 41.73Q162.38 39.15 161.69 38.38Q159.46 36.06 160.1 35.16Q160.75 34.25 163.93 35.2Q166.16 35.89 167.41 36.36Q168.66 36.83 169.09 37.31Q169.52 37.78 169.35 38.47Q169.17 39.15 168.66 40.19Q168.49 40.53 168.31 41Q168.14 41.48 168.01 42.29Q167.88 43.11 167.75 44.4Q167.63 45.69 167.54 47.67Q169.69 46.98 170.81 46.85Q171.93 46.72 173.39 46.98Q175.71 47.41 175.84 48.74Q175.97 50.08 173.56 50.68Q171.58 51.19 170.12 51.54Q168.66 51.88 167.28 52.14L167.28 55.49Q171.24 55.67 172.61 56.05Q173.99 56.44 174.51 57.39Q175.54 59.45 174.51 60.61Q173.47 61.77 171.75 61Q170.89 60.65 169.99 59.88Q169.09 59.11 167.28 57.39L167.28 63.23Q167.28 66.07 166.89 67.62Q166.51 69.17 165.86 69.73Q165.22 70.29 164.4 69.94Q163.58 69.6 162.64 68.57Q161.35 67.19 161.22 66.24Q161.09 65.3 162.04 63.32Q162.47 62.46 162.64 61.13Q162.81 59.79 162.98 56.61Q161.52 59.19 160.01 61.13Q158.51 63.06 156.88 64.61Q155.24 66.16 153.35 67.41Q151.46 68.65 149.14 69.86Q146.38 71.32 146.08 70.76Q145.78 70.2 148.28 68.14Q151.72 65.3 154.47 61.9Q157.22 58.5 159.89 53.43ZM192.57 44.4Q193.25 44.23 193.81 44.06Q194.37 43.88 194.8 43.71Q197.12 42.85 198.54 42.77Q199.96 42.68 202.11 43.11Q204 43.54 204.05 44.74Q204.09 45.95 201.68 46.55Q199.62 46.98 197.08 47.5Q194.54 48.01 192.31 48.44Q192.22 49.47 192.22 50.68Q192.22 51.88 192.22 53.26Q195.4 53.69 197.3 54.08Q199.19 54.46 200.31 54.85Q201.42 55.24 201.94 55.75Q202.46 56.27 202.89 57.04Q203.66 58.5 203.7 59.62Q203.75 60.74 203.23 61.39Q202.71 62.03 201.85 62.12Q200.99 62.2 200.13 61.51Q198.16 60.14 196.52 58.93Q194.89 57.73 192.22 55.75Q192.39 57.47 192.35 59.84Q192.31 62.2 191.96 64.35Q191.62 66.67 190.33 66.85Q189.04 67.02 187.66 65.13Q186.98 64.18 186.59 63.49Q186.2 62.8 186.16 62.25Q186.12 61.69 186.33 61.04Q186.55 60.4 186.98 59.45Q187.15 59.11 187.28 58.76Q187.41 58.42 187.45 57.86Q187.49 57.3 187.58 56.4Q187.66 55.49 187.66 54.03Q184.74 58.59 181.69 61.17Q178.63 63.75 175.02 65.3Q171.93 66.67 171.67 66.24Q171.41 65.81 174.08 63.49Q175.88 61.86 177.34 60.44Q178.81 59.02 180.1 57.47Q181.39 55.92 182.63 53.99Q183.88 52.05 185.34 49.47Q182.25 49.9 180.96 49.82Q179.67 49.73 178.98 49.56Q177 48.96 177.04 48.18Q177.09 47.41 179.58 47.24Q180.7 47.07 182.98 46.64Q185.26 46.21 187.75 45.6Q187.75 42.85 187.71 41.09Q187.66 39.33 187.49 38.21Q187.32 37.09 187.06 36.49Q186.8 35.89 186.37 35.37Q184.4 33.13 185.17 32.23Q185.94 31.33 189.56 32.53Q191.62 33.22 192.69 33.69Q193.77 34.17 194.2 34.64Q194.63 35.11 194.46 35.71Q194.29 36.32 193.86 37.35Q193.34 38.55 193.04 40.06Q192.74 41.56 192.57 44.4ZM261.78 72.44Q259.46 77.85 257.91 81.64Q256.36 85.42 255.33 88.22Q254.3 91.01 253.65 92.99Q253.01 94.97 252.49 96.6Q251.89 98.67 251.16 99.61Q250.43 100.56 249.52 100.13Q248.62 99.7 247.59 97.81Q246.56 95.91 245.27 92.3Q244.06 88.95 244.49 87.92Q244.92 86.88 246.73 86.97Q247.59 86.97 248.28 86.71Q248.96 86.45 250.17 84.99Q251.37 83.53 253.48 80.31Q255.59 77.08 259.28 71.23Q261.26 68.14 262.25 68.52Q263.24 68.91 261.78 72.44ZM272.61 73.38Q275.97 72.95 277.43 72.56Q278.89 72.18 279.84 71.49Q280.35 70.03 280.57 68.48Q280.78 66.93 280.87 65.13Q280.96 64.01 280.57 63.66Q280.18 63.32 278.72 63.49Q275.8 63.92 274.25 64.09Q272.7 64.27 271.58 64.44Q272.01 68.22 272.23 70.24Q272.44 72.26 272.61 73.38ZM269.95 61.34Q273.65 61.17 276.18 60.48Q278.72 59.79 280.44 58.85Q281.21 58.42 281.77 58.2Q282.33 57.99 282.98 58.03Q283.62 58.07 284.4 58.42Q285.17 58.76 286.29 59.36Q288.09 60.4 289.04 61.13Q289.99 61.86 290.24 62.42Q290.5 62.98 290.24 63.49Q289.99 64.01 289.3 64.7Q288.09 65.9 287.36 66.76Q286.63 67.62 286.12 68.35Q285.6 69.08 285.3 69.81Q285 70.54 284.65 71.4Q286.63 72.95 286.5 74.33Q286.37 75.7 283.88 75.88Q281.73 76.05 278.63 76.35Q275.54 76.65 272.79 76.99Q272.53 80.09 270.81 80.26Q269.95 80.35 269.09 78.97Q268.23 77.6 267.97 75.45Q267.37 71.15 266.59 68.31Q265.82 65.47 264.44 62.8Q263.5 60.83 264.49 60.31Q265.48 59.79 269.95 61.34ZM255.24 60.65Q255.59 64.01 253.82 65Q252.06 65.99 249.74 64.35Q248.28 63.41 246.9 61.94Q245.52 60.48 243.55 57.99Q242 56.01 242.38 55.45Q242.77 54.89 245.44 55.32Q248.53 55.84 250.38 56.31Q252.23 56.78 253.26 57.34Q254.3 57.9 254.68 58.72Q255.07 59.54 255.24 60.65ZM290.42 48.61Q285.86 49.04 281.69 49.73Q277.52 50.42 274.25 51.11Q272.18 51.62 270.81 51.8Q269.43 51.97 268.44 51.88Q267.45 51.8 266.55 51.41Q265.65 51.02 264.53 50.25Q262.72 49.04 262.98 48.18Q263.24 47.32 265.65 47.32Q266.77 47.32 269 47.15Q271.24 46.98 274.16 46.68Q277.09 46.38 280.44 45.95Q283.79 45.52 287.11 45.05Q290.42 44.57 293.51 44.06Q296.61 43.54 298.93 43.02Q301.77 42.42 303.7 42.12Q305.64 41.82 307.06 41.78Q308.48 41.73 309.51 42.04Q310.54 42.34 311.49 42.85Q315.87 45.43 315.49 47.07Q315.1 48.7 310.2 48.36Q306.84 48.18 303.32 48.06Q299.79 47.93 295.83 48.1Q298.16 49.22 299.4 50.03Q300.65 50.85 301.21 51.58Q301.77 52.31 301.73 52.96Q301.68 53.6 301.34 54.38Q300.91 55.58 300.65 59.19Q300.39 62.8 300.48 68.91Q300.56 75.36 300.74 80.09Q300.91 84.82 301.25 89.12Q301.51 91.96 301.51 93.89Q301.51 95.83 301.12 97.42Q300.74 99.01 299.92 100.6Q299.1 102.19 297.55 104.34Q295.75 106.92 294.07 106.97Q292.39 107.01 291.62 104.77Q290.67 102.28 289.17 100.43Q287.66 98.58 284.91 96.43Q282.25 94.45 282.46 93.64Q282.68 92.82 285.6 93.42Q288.18 93.94 289.69 94.06Q291.19 94.19 292.01 93.94Q292.82 93.68 293.13 92.9Q293.43 92.13 293.51 90.84Q294.2 82.5 294.2 75.02Q294.2 67.53 293.77 59.19Q293.6 57.21 293.43 55.8Q293.25 54.38 292.91 53.22Q292.57 52.05 291.96 50.98Q291.36 49.9 290.42 48.61ZM262.55 42.77Q262.72 45.86 261.22 46.94Q259.71 48.01 257.56 46.64Q254.21 44.49 250.6 39.67Q249.22 37.78 249.65 37.31Q250.08 36.83 253.18 37Q257.99 37.26 260.19 38.72Q262.38 40.19 262.55 42.77ZM361.78 72.78Q359.89 77.08 358.3 81.04Q356.7 84.99 355.54 88.39Q354.38 91.79 353.65 94.37Q352.92 96.95 352.75 98.32Q352.4 100.64 351.89 101.81Q351.37 102.97 350.51 102.88Q349.65 102.79 348.4 101.33Q347.16 99.87 345.52 96.95Q344.06 94.45 343.42 93.03Q342.77 91.61 342.69 90.88Q342.6 90.15 343.12 89.94Q343.63 89.72 344.58 89.55Q345.61 89.38 347.12 88.17Q348.62 86.97 350.94 83.62Q352.23 81.81 353.18 80.39Q354.12 78.97 355.07 77.42Q356.02 75.88 357.18 74.03Q358.34 72.18 359.97 69.43Q361.35 67.02 362.38 65.99Q363.41 64.95 363.8 65.34Q364.19 65.73 363.76 67.58Q363.33 69.43 361.78 72.78ZM385 82.58Q382.5 85.59 379.58 87.96Q376.66 90.32 373.47 92Q370.29 93.68 366.94 94.62Q363.58 95.57 360.32 95.74Q357.56 95.83 357.39 94.97Q357.22 94.11 359.46 93.25Q366.16 90.93 371.8 86.63Q377.43 82.33 381.3 77.34Q379.67 75.02 378.5 73.25Q377.34 71.49 376.44 70.24Q375.54 69 374.94 68.14Q374.33 67.28 373.82 66.59Q372.1 64.18 370.21 62.59Q368.31 61 366.94 60.48Q364.53 59.54 364.83 58.38Q365.13 57.21 368.4 57.3Q369.78 57.3 370.81 57.52Q371.84 57.73 372.66 58.25Q373.47 58.76 374.29 59.62Q375.11 60.48 376.05 61.86Q376.66 62.72 377.6 64.05Q378.55 65.38 379.67 66.85Q380.78 68.31 381.99 69.86Q383.19 71.4 384.31 72.69Q386.46 68.65 388.05 63.36Q389.64 58.07 390.59 52.83Q390.85 51.19 390.55 50.81Q390.24 50.42 389.13 50.59Q387.75 50.76 386.63 50.98Q385.51 51.19 384.44 51.41Q383.36 51.62 382.29 51.93Q381.21 52.23 379.92 52.57Q377.34 53.34 375.67 53.73Q373.99 54.12 372.83 54.2Q371.67 54.29 370.76 54.03Q369.86 53.77 368.83 53.26Q365.91 51.8 366.03 50.94Q366.16 50.08 368.74 49.9Q369.78 49.9 371.19 49.73Q372.61 49.56 374.2 49.3Q375.8 49.04 377.43 48.74Q379.06 48.44 380.53 48.1Q384.91 46.89 387.49 45.86Q390.07 44.83 391.28 43.63Q392.39 42.59 393.81 42.68Q395.23 42.77 398.59 44.74Q400.74 45.95 401.9 46.77Q403.06 47.58 403.32 48.31Q403.57 49.04 403.01 49.82Q402.46 50.59 401.17 51.71Q399.96 52.83 398.71 54.94Q397.47 57.04 396.52 59.97Q394.8 65.38 392.82 69.64Q390.85 73.9 388.52 77.6Q391.45 80.78 394.24 83.19Q397.04 85.59 400.13 87.49Q403.23 89.38 406.84 90.93Q410.45 92.47 415.1 93.94Q418.45 95.05 418.45 96.04Q418.45 97.03 415.53 97.38Q408.82 98.06 404.99 98.32Q401.17 98.58 398.97 98.15Q396.78 97.72 395.53 96.52Q394.29 95.31 392.65 93.08Q390.5 90.24 388.57 87.53Q386.63 84.82 385 82.58ZM355.33 65.99Q355.67 69.17 354.25 70.03Q352.83 70.89 350.51 69.34Q348.79 68.14 347.42 66.55Q346.04 64.95 344.23 62.12Q343.03 60.22 343.5 59.71Q343.98 59.19 346.73 59.45Q351.29 59.88 353.18 61.51Q355.07 63.15 355.33 65.99ZM361.95 47.75Q362.21 49.22 361.78 50.16Q361.35 51.11 360.62 51.58Q359.89 52.05 358.94 51.97Q357.99 51.88 357.13 51.37Q355.41 50.25 353.48 48.18Q351.54 46.12 350.25 44.14Q349.14 42.42 349.57 41.95Q350 41.48 353.18 41.65Q357.56 41.91 359.54 43.45Q361.52 45 361.95 47.75ZM482.76 70.72Q484.83 71.58 485.99 72.18Q487.15 72.78 487.62 73.38Q488.09 73.98 488.05 74.59Q488.01 75.19 487.75 76.05Q487.06 77.94 486.85 80.86Q486.63 83.79 486.8 86.88Q486.89 88.52 486.93 90.32Q486.98 92.13 487.02 93.76Q487.06 95.4 487.06 96.64Q487.06 97.89 487.06 98.32Q486.98 100.99 486.85 102.58Q486.72 104.17 486.46 106.23Q486.12 108.99 484.4 109.07Q482.68 109.16 480.96 106.41Q480.18 105.12 479.75 104.26Q479.32 103.4 479.28 102.49Q479.24 101.59 479.49 100.52Q479.75 99.44 480.35 97.72Q480.7 96.69 480.91 95.48Q481.13 94.28 481.21 92.43Q481.3 90.58 481.26 87.92Q481.21 85.25 481.13 81.29Q480.96 78.2 480.44 75.96Q479.92 73.73 479.24 73.04Q478.38 72.09 478.16 71.32Q477.95 70.54 478.38 70.16Q478.81 69.77 479.88 69.86Q480.96 69.94 482.76 70.72ZM473.04 78.54Q472.36 79.83 471.97 81.25Q471.58 82.67 471.32 84.05Q470.29 89.46 466.89 94.37Q463.5 99.27 457.65 102.54Q454.3 104.51 453.87 103.83Q453.44 103.14 456.27 100.3Q459.03 97.55 460.96 94.45Q462.9 91.36 464.36 86.8Q465.22 84.3 465.69 82.5Q466.16 80.69 466.29 79.44Q466.42 78.2 466.21 77.34Q465.99 76.48 465.48 75.79Q464.1 74.07 465.18 73.04Q466.25 72.01 469.52 73.38Q471.24 74.07 472.18 74.63Q473.13 75.19 473.47 75.75Q473.82 76.31 473.69 76.95Q473.56 77.6 473.04 78.54ZM471.24 41.13Q469 41.48 466.55 41.69Q464.1 41.91 461.61 42.08Q462.21 45.35 462.9 49.26Q463.58 53.17 464.19 56.53Q466.34 56.35 468.27 56.05Q470.21 55.75 472.44 55.32L472.53 50.51Q470.29 50.68 468.66 50.68Q467.02 50.68 466.25 50.33Q464.01 49.47 463.97 49Q463.93 48.53 466.34 48.1Q467.97 47.84 469.56 47.58Q471.15 47.32 472.61 47.07Q472.44 43.97 471.24 41.13ZM477.52 54.38Q481.04 53.69 482.68 53.69Q484.31 53.69 485.17 54.12Q486.46 54.81 487.15 54.46Q487.84 54.12 488.61 52.14Q490.5 47.32 491.36 41.39Q491.62 39.76 491.23 39.28Q490.85 38.81 489.3 38.9Q487.84 38.98 486.16 39.11Q484.48 39.24 482.81 39.41Q481.13 39.58 479.62 39.76Q478.12 39.93 477.09 40.1Q478.98 41.05 479.28 41.56Q479.58 42.08 479.06 42.94Q478.29 44.14 477.95 45.69Q480.7 44.92 482.29 44.79Q483.88 44.66 485.08 45.09Q486.89 45.69 486.98 46.81Q487.06 47.93 485.34 48.44Q483.71 48.96 481.73 49.35Q479.75 49.73 477.6 50.08ZM480.01 57.73Q483.79 60.91 487.19 63.36Q490.59 65.81 494.8 68.48Q496.18 69.43 498.37 70.46Q500.56 71.49 503.14 72.56Q505.72 73.64 508.52 74.59Q511.31 75.53 514.07 76.13Q517.85 77.08 517.89 78.16Q517.94 79.23 514.41 79.66Q508.82 80.35 505.6 80.65Q502.37 80.95 500.44 80.78Q498.5 80.61 497.43 79.88Q496.35 79.14 495.15 77.85Q493.94 76.65 491.49 74.11Q489.04 71.58 486.2 68.65Q483.36 65.73 480.61 62.85Q477.86 59.97 476.14 58.16Q474.94 58.33 473.65 58.5Q472.36 58.68 470.64 58.93Q473.73 61 473.99 62.03Q474.25 63.06 472.7 64.18Q471.75 64.87 470.64 65.94Q469.52 67.02 468.83 67.96Q464.19 74.16 458.25 78.24Q452.32 82.33 444.23 85.16Q440.97 86.37 440.58 85.51Q440.19 84.65 442.94 83.1Q445.61 81.64 448.4 79.66Q451.2 77.68 453.65 75.66Q456.1 73.64 457.95 71.92Q459.8 70.2 460.57 69.17Q463.41 65.56 464.7 63.32Q465.99 61.08 466.51 59.36Q465.99 59.45 465.48 59.49Q464.96 59.54 464.53 59.54Q464.44 60.83 463.88 61.3Q463.33 61.77 462.55 61.94Q461.61 62.12 460.57 60.65Q459.54 59.19 458.85 56.18Q457.39 50.25 456.14 46.89Q454.9 43.54 453.44 41.65Q452.49 40.36 452.19 39.41Q451.89 38.47 452.53 38.08Q453.18 37.69 454.81 37.91Q456.45 38.12 459.28 39.07Q463.93 38.72 468.66 38.17Q473.39 37.61 477.43 36.96Q481.47 36.32 484.35 35.71Q487.23 35.11 488.09 34.68Q489.47 34.08 490.42 33.78Q491.36 33.48 492.35 33.65Q493.34 33.82 494.59 34.47Q495.83 35.11 497.81 36.4Q499.96 37.78 501.12 38.72Q502.28 39.67 502.54 40.44Q502.8 41.22 502.24 41.95Q501.68 42.68 500.48 43.71Q499.27 44.66 497.94 46.77Q496.61 48.87 495.58 51.19Q494.89 52.83 494.16 54.08Q493.43 55.32 492.22 57.04Q490.5 59.71 489.08 59.88Q487.66 60.05 486.63 58.42Q486.29 57.99 485.94 57.73Q485.6 57.47 484.91 57.39Q484.22 57.3 483.06 57.39Q481.9 57.47 480.01 57.73Z"/>
    <path fill="url(#frontGold)" stroke="#6B2517" stroke-width="2.5" stroke-linejoin="round" d="M173.13 73.55Q169.09 74.24 165.82 74.93Q162.55 75.62 160.32 76.31Q159.03 76.74 158.08 76.91Q157.13 77.08 156.27 77.04Q155.41 76.99 154.6 76.69Q153.78 76.39 152.66 75.88Q150.51 74.84 150.86 74.07Q151.2 73.3 154.81 73.3Q155.59 73.3 158.21 72.95Q160.83 72.61 164.4 72.09Q167.97 71.58 172.01 70.97Q176.05 70.37 179.67 69.73Q183.28 69.08 186.03 68.52Q188.78 67.96 189.81 67.62Q191.36 67.1 192.48 66.85Q193.6 66.59 194.54 66.72Q195.49 66.85 196.52 67.36Q197.55 67.88 198.93 68.82Q203.06 71.75 203.1 72.82Q203.14 73.9 200.05 74.41Q198.07 74.76 196.26 75.49Q194.46 76.22 192.31 77.6Q190.33 78.89 189.86 78.41Q189.38 77.94 190.59 75.36Q191.96 72.52 191.66 71.96Q191.36 71.4 189.04 71.58Q186.03 71.83 183.19 72.14Q180.35 72.44 177.69 72.87Q179.41 73.64 180.35 74.16Q181.3 74.67 181.64 75.19Q181.99 75.7 181.86 76.26Q181.73 76.82 181.3 77.6Q180.87 78.37 180.57 79.49Q180.27 80.61 180.18 82.33Q181.21 82.24 182.38 81.9Q183.54 81.55 185 80.78Q186.46 80.09 188.18 79.96Q189.9 79.83 191.1 80.26Q194.03 81.29 193.98 82.5Q193.94 83.7 190.42 84.39Q187.15 85.08 184.7 85.29Q182.25 85.51 180.01 85.16L179.58 93.25Q180.61 93.68 181.64 94.02Q182.68 94.37 183.79 94.8Q187.66 96.09 190.93 96.95Q194.2 97.81 197.55 98.32Q200.91 98.84 204.78 99.1Q208.65 99.35 213.81 99.44Q217.59 99.53 217.72 100.6Q217.85 101.68 213.38 103.05Q207.01 105.03 203.27 105.93Q199.53 106.84 196.78 106.79Q194.03 106.75 191.58 105.63Q189.13 104.51 185.43 102.36Q179.24 98.75 173.43 95.44Q167.63 92.13 162.72 89.55Q156.53 98.67 145.44 102.79Q142.69 103.83 142.38 103.09Q142.08 102.36 144.58 100.82Q147.59 98.92 150.64 96.04Q153.69 93.16 155.59 90.41Q157.05 88.35 157.95 86.8Q158.85 85.25 159.33 84.13Q159.8 83.01 159.84 82.11Q159.89 81.21 159.63 80.43Q158.85 78.2 159.97 77.68Q161.09 77.17 164.7 78.89Q167.28 80.09 167.58 80.99Q167.88 81.9 166.77 83.27Q166.34 83.7 165.91 84.35Q165.48 84.99 164.62 86.45Q167.63 87.92 170.12 89.12Q172.61 90.32 174.85 91.36Q175.11 86.63 175.19 83.66Q175.28 80.69 175.11 78.76Q174.94 76.82 174.46 75.7Q173.99 74.59 173.13 73.55ZM159.89 53.43Q157.91 53.77 156.53 53.65Q155.16 53.52 153.26 53.09Q150.68 52.4 150.68 51.75Q150.68 51.11 153.69 50.85Q155.93 50.68 157.95 50.29Q159.97 49.9 163.15 48.96Q163.15 44.31 162.77 41.73Q162.38 39.15 161.69 38.38Q159.46 36.06 160.1 35.16Q160.75 34.25 163.93 35.2Q166.16 35.89 167.41 36.36Q168.66 36.83 169.09 37.31Q169.52 37.78 169.35 38.47Q169.17 39.15 168.66 40.19Q168.49 40.53 168.31 41Q168.14 41.48 168.01 42.29Q167.88 43.11 167.75 44.4Q167.63 45.69 167.54 47.67Q169.69 46.98 170.81 46.85Q171.93 46.72 173.39 46.98Q175.71 47.41 175.84 48.74Q175.97 50.08 173.56 50.68Q171.58 51.19 170.12 51.54Q168.66 51.88 167.28 52.14L167.28 55.49Q171.24 55.67 172.61 56.05Q173.99 56.44 174.51 57.39Q175.54 59.45 174.51 60.61Q173.47 61.77 171.75 61Q170.89 60.65 169.99 59.88Q169.09 59.11 167.28 57.39L167.28 63.23Q167.28 66.07 166.89 67.62Q166.51 69.17 165.86 69.73Q165.22 70.29 164.4 69.94Q163.58 69.6 162.64 68.57Q161.35 67.19 161.22 66.24Q161.09 65.3 162.04 63.32Q162.47 62.46 162.64 61.13Q162.81 59.79 162.98 56.61Q161.52 59.19 160.01 61.13Q158.51 63.06 156.88 64.61Q155.24 66.16 153.35 67.41Q151.46 68.65 149.14 69.86Q146.38 71.32 146.08 70.76Q145.78 70.2 148.28 68.14Q151.72 65.3 154.47 61.9Q157.22 58.5 159.89 53.43ZM192.57 44.4Q193.25 44.23 193.81 44.06Q194.37 43.88 194.8 43.71Q197.12 42.85 198.54 42.77Q199.96 42.68 202.11 43.11Q204 43.54 204.05 44.74Q204.09 45.95 201.68 46.55Q199.62 46.98 197.08 47.5Q194.54 48.01 192.31 48.44Q192.22 49.47 192.22 50.68Q192.22 51.88 192.22 53.26Q195.4 53.69 197.3 54.08Q199.19 54.46 200.31 54.85Q201.42 55.24 201.94 55.75Q202.46 56.27 202.89 57.04Q203.66 58.5 203.7 59.62Q203.75 60.74 203.23 61.39Q202.71 62.03 201.85 62.12Q200.99 62.2 200.13 61.51Q198.16 60.14 196.52 58.93Q194.89 57.73 192.22 55.75Q192.39 57.47 192.35 59.84Q192.31 62.2 191.96 64.35Q191.62 66.67 190.33 66.85Q189.04 67.02 187.66 65.13Q186.98 64.18 186.59 63.49Q186.2 62.8 186.16 62.25Q186.12 61.69 186.33 61.04Q186.55 60.4 186.98 59.45Q187.15 59.11 187.28 58.76Q187.41 58.42 187.45 57.86Q187.49 57.3 187.58 56.4Q187.66 55.49 187.66 54.03Q184.74 58.59 181.69 61.17Q178.63 63.75 175.02 65.3Q171.93 66.67 171.67 66.24Q171.41 65.81 174.08 63.49Q175.88 61.86 177.34 60.44Q178.81 59.02 180.1 57.47Q181.39 55.92 182.63 53.99Q183.88 52.05 185.34 49.47Q182.25 49.9 180.96 49.82Q179.67 49.73 178.98 49.56Q177 48.96 177.04 48.18Q177.09 47.41 179.58 47.24Q180.7 47.07 182.98 46.64Q185.26 46.21 187.75 45.6Q187.75 42.85 187.71 41.09Q187.66 39.33 187.49 38.21Q187.32 37.09 187.06 36.49Q186.8 35.89 186.37 35.37Q184.4 33.13 185.17 32.23Q185.94 31.33 189.56 32.53Q191.62 33.22 192.69 33.69Q193.77 34.17 194.2 34.64Q194.63 35.11 194.46 35.71Q194.29 36.32 193.86 37.35Q193.34 38.55 193.04 40.06Q192.74 41.56 192.57 44.4ZM261.78 72.44Q259.46 77.85 257.91 81.64Q256.36 85.42 255.33 88.22Q254.3 91.01 253.65 92.99Q253.01 94.97 252.49 96.6Q251.89 98.67 251.16 99.61Q250.43 100.56 249.52 100.13Q248.62 99.7 247.59 97.81Q246.56 95.91 245.27 92.3Q244.06 88.95 244.49 87.92Q244.92 86.88 246.73 86.97Q247.59 86.97 248.28 86.71Q248.96 86.45 250.17 84.99Q251.37 83.53 253.48 80.31Q255.59 77.08 259.28 71.23Q261.26 68.14 262.25 68.52Q263.24 68.91 261.78 72.44ZM272.61 73.38Q275.97 72.95 277.43 72.56Q278.89 72.18 279.84 71.49Q280.35 70.03 280.57 68.48Q280.78 66.93 280.87 65.13Q280.96 64.01 280.57 63.66Q280.18 63.32 278.72 63.49Q275.8 63.92 274.25 64.09Q272.7 64.27 271.58 64.44Q272.01 68.22 272.23 70.24Q272.44 72.26 272.61 73.38ZM269.95 61.34Q273.65 61.17 276.18 60.48Q278.72 59.79 280.44 58.85Q281.21 58.42 281.77 58.2Q282.33 57.99 282.98 58.03Q283.62 58.07 284.4 58.42Q285.17 58.76 286.29 59.36Q288.09 60.4 289.04 61.13Q289.99 61.86 290.24 62.42Q290.5 62.98 290.24 63.49Q289.99 64.01 289.3 64.7Q288.09 65.9 287.36 66.76Q286.63 67.62 286.12 68.35Q285.6 69.08 285.3 69.81Q285 70.54 284.65 71.4Q286.63 72.95 286.5 74.33Q286.37 75.7 283.88 75.88Q281.73 76.05 278.63 76.35Q275.54 76.65 272.79 76.99Q272.53 80.09 270.81 80.26Q269.95 80.35 269.09 78.97Q268.23 77.6 267.97 75.45Q267.37 71.15 266.59 68.31Q265.82 65.47 264.44 62.8Q263.5 60.83 264.49 60.31Q265.48 59.79 269.95 61.34ZM255.24 60.65Q255.59 64.01 253.82 65Q252.06 65.99 249.74 64.35Q248.28 63.41 246.9 61.94Q245.52 60.48 243.55 57.99Q242 56.01 242.38 55.45Q242.77 54.89 245.44 55.32Q248.53 55.84 250.38 56.31Q252.23 56.78 253.26 57.34Q254.3 57.9 254.68 58.72Q255.07 59.54 255.24 60.65ZM290.42 48.61Q285.86 49.04 281.69 49.73Q277.52 50.42 274.25 51.11Q272.18 51.62 270.81 51.8Q269.43 51.97 268.44 51.88Q267.45 51.8 266.55 51.41Q265.65 51.02 264.53 50.25Q262.72 49.04 262.98 48.18Q263.24 47.32 265.65 47.32Q266.77 47.32 269 47.15Q271.24 46.98 274.16 46.68Q277.09 46.38 280.44 45.95Q283.79 45.52 287.11 45.05Q290.42 44.57 293.51 44.06Q296.61 43.54 298.93 43.02Q301.77 42.42 303.7 42.12Q305.64 41.82 307.06 41.78Q308.48 41.73 309.51 42.04Q310.54 42.34 311.49 42.85Q315.87 45.43 315.49 47.07Q315.1 48.7 310.2 48.36Q306.84 48.18 303.32 48.06Q299.79 47.93 295.83 48.1Q298.16 49.22 299.4 50.03Q300.65 50.85 301.21 51.58Q301.77 52.31 301.73 52.96Q301.68 53.6 301.34 54.38Q300.91 55.58 300.65 59.19Q300.39 62.8 300.48 68.91Q300.56 75.36 300.74 80.09Q300.91 84.82 301.25 89.12Q301.51 91.96 301.51 93.89Q301.51 95.83 301.12 97.42Q300.74 99.01 299.92 100.6Q299.1 102.19 297.55 104.34Q295.75 106.92 294.07 106.97Q292.39 107.01 291.62 104.77Q290.67 102.28 289.17 100.43Q287.66 98.58 284.91 96.43Q282.25 94.45 282.46 93.64Q282.68 92.82 285.6 93.42Q288.18 93.94 289.69 94.06Q291.19 94.19 292.01 93.94Q292.82 93.68 293.13 92.9Q293.43 92.13 293.51 90.84Q294.2 82.5 294.2 75.02Q294.2 67.53 293.77 59.19Q293.6 57.21 293.43 55.8Q293.25 54.38 292.91 53.22Q292.57 52.05 291.96 50.98Q291.36 49.9 290.42 48.61ZM262.55 42.77Q262.72 45.86 261.22 46.94Q259.71 48.01 257.56 46.64Q254.21 44.49 250.6 39.67Q249.22 37.78 249.65 37.31Q250.08 36.83 253.18 37Q257.99 37.26 260.19 38.72Q262.38 40.19 262.55 42.77ZM361.78 72.78Q359.89 77.08 358.3 81.04Q356.7 84.99 355.54 88.39Q354.38 91.79 353.65 94.37Q352.92 96.95 352.75 98.32Q352.4 100.64 351.89 101.81Q351.37 102.97 350.51 102.88Q349.65 102.79 348.4 101.33Q347.16 99.87 345.52 96.95Q344.06 94.45 343.42 93.03Q342.77 91.61 342.69 90.88Q342.6 90.15 343.12 89.94Q343.63 89.72 344.58 89.55Q345.61 89.38 347.12 88.17Q348.62 86.97 350.94 83.62Q352.23 81.81 353.18 80.39Q354.12 78.97 355.07 77.42Q356.02 75.88 357.18 74.03Q358.34 72.18 359.97 69.43Q361.35 67.02 362.38 65.99Q363.41 64.95 363.8 65.34Q364.19 65.73 363.76 67.58Q363.33 69.43 361.78 72.78ZM385 82.58Q382.5 85.59 379.58 87.96Q376.66 90.32 373.47 92Q370.29 93.68 366.94 94.62Q363.58 95.57 360.32 95.74Q357.56 95.83 357.39 94.97Q357.22 94.11 359.46 93.25Q366.16 90.93 371.8 86.63Q377.43 82.33 381.3 77.34Q379.67 75.02 378.5 73.25Q377.34 71.49 376.44 70.24Q375.54 69 374.94 68.14Q374.33 67.28 373.82 66.59Q372.1 64.18 370.21 62.59Q368.31 61 366.94 60.48Q364.53 59.54 364.83 58.38Q365.13 57.21 368.4 57.3Q369.78 57.3 370.81 57.52Q371.84 57.73 372.66 58.25Q373.47 58.76 374.29 59.62Q375.11 60.48 376.05 61.86Q376.66 62.72 377.6 64.05Q378.55 65.38 379.67 66.85Q380.78 68.31 381.99 69.86Q383.19 71.4 384.31 72.69Q386.46 68.65 388.05 63.36Q389.64 58.07 390.59 52.83Q390.85 51.19 390.55 50.81Q390.24 50.42 389.13 50.59Q387.75 50.76 386.63 50.98Q385.51 51.19 384.44 51.41Q383.36 51.62 382.29 51.93Q381.21 52.23 379.92 52.57Q377.34 53.34 375.67 53.73Q373.99 54.12 372.83 54.2Q371.67 54.29 370.76 54.03Q369.86 53.77 368.83 53.26Q365.91 51.8 366.03 50.94Q366.16 50.08 368.74 49.9Q369.78 49.9 371.19 49.73Q372.61 49.56 374.2 49.3Q375.8 49.04 377.43 48.74Q379.06 48.44 380.53 48.1Q384.91 46.89 387.49 45.86Q390.07 44.83 391.28 43.63Q392.39 42.59 393.81 42.68Q395.23 42.77 398.59 44.74Q400.74 45.95 401.9 46.77Q403.06 47.58 403.32 48.31Q403.57 49.04 403.01 49.82Q402.46 50.59 401.17 51.71Q399.96 52.83 398.71 54.94Q397.47 57.04 396.52 59.97Q394.8 65.38 392.82 69.64Q390.85 73.9 388.52 77.6Q391.45 80.78 394.24 83.19Q397.04 85.59 400.13 87.49Q403.23 89.38 406.84 90.93Q410.45 92.47 415.1 93.94Q418.45 95.05 418.45 96.04Q418.45 97.03 415.53 97.38Q408.82 98.06 404.99 98.32Q401.17 98.58 398.97 98.15Q396.78 97.72 395.53 96.52Q394.29 95.31 392.65 93.08Q390.5 90.24 388.57 87.53Q386.63 84.82 385 82.58ZM355.33 65.99Q355.67 69.17 354.25 70.03Q352.83 70.89 350.51 69.34Q348.79 68.14 347.42 66.55Q346.04 64.95 344.23 62.12Q343.03 60.22 343.5 59.71Q343.98 59.19 346.73 59.45Q351.29 59.88 353.18 61.51Q355.07 63.15 355.33 65.99ZM361.95 47.75Q362.21 49.22 361.78 50.16Q361.35 51.11 360.62 51.58Q359.89 52.05 358.94 51.97Q357.99 51.88 357.13 51.37Q355.41 50.25 353.48 48.18Q351.54 46.12 350.25 44.14Q349.14 42.42 349.57 41.95Q350 41.48 353.18 41.65Q357.56 41.91 359.54 43.45Q361.52 45 361.95 47.75ZM482.76 70.72Q484.83 71.58 485.99 72.18Q487.15 72.78 487.62 73.38Q488.09 73.98 488.05 74.59Q488.01 75.19 487.75 76.05Q487.06 77.94 486.85 80.86Q486.63 83.79 486.8 86.88Q486.89 88.52 486.93 90.32Q486.98 92.13 487.02 93.76Q487.06 95.4 487.06 96.64Q487.06 97.89 487.06 98.32Q486.98 100.99 486.85 102.58Q486.72 104.17 486.46 106.23Q486.12 108.99 484.4 109.07Q482.68 109.16 480.96 106.41Q480.18 105.12 479.75 104.26Q479.32 103.4 479.28 102.49Q479.24 101.59 479.49 100.52Q479.75 99.44 480.35 97.72Q480.7 96.69 480.91 95.48Q481.13 94.28 481.21 92.43Q481.3 90.58 481.26 87.92Q481.21 85.25 481.13 81.29Q480.96 78.2 480.44 75.96Q479.92 73.73 479.24 73.04Q478.38 72.09 478.16 71.32Q477.95 70.54 478.38 70.16Q478.81 69.77 479.88 69.86Q480.96 69.94 482.76 70.72ZM473.04 78.54Q472.36 79.83 471.97 81.25Q471.58 82.67 471.32 84.05Q470.29 89.46 466.89 94.37Q463.5 99.27 457.65 102.54Q454.3 104.51 453.87 103.83Q453.44 103.14 456.27 100.3Q459.03 97.55 460.96 94.45Q462.9 91.36 464.36 86.8Q465.22 84.3 465.69 82.5Q466.16 80.69 466.29 79.44Q466.42 78.2 466.21 77.34Q465.99 76.48 465.48 75.79Q464.1 74.07 465.18 73.04Q466.25 72.01 469.52 73.38Q471.24 74.07 472.18 74.63Q473.13 75.19 473.47 75.75Q473.82 76.31 473.69 76.95Q473.56 77.6 473.04 78.54ZM471.24 41.13Q469 41.48 466.55 41.69Q464.1 41.91 461.61 42.08Q462.21 45.35 462.9 49.26Q463.58 53.17 464.19 56.53Q466.34 56.35 468.27 56.05Q470.21 55.75 472.44 55.32L472.53 50.51Q470.29 50.68 468.66 50.68Q467.02 50.68 466.25 50.33Q464.01 49.47 463.97 49Q463.93 48.53 466.34 48.1Q467.97 47.84 469.56 47.58Q471.15 47.32 472.61 47.07Q472.44 43.97 471.24 41.13ZM477.52 54.38Q481.04 53.69 482.68 53.69Q484.31 53.69 485.17 54.12Q486.46 54.81 487.15 54.46Q487.84 54.12 488.61 52.14Q490.5 47.32 491.36 41.39Q491.62 39.76 491.23 39.28Q490.85 38.81 489.3 38.9Q487.84 38.98 486.16 39.11Q484.48 39.24 482.81 39.41Q481.13 39.58 479.62 39.76Q478.12 39.93 477.09 40.1Q478.98 41.05 479.28 41.56Q479.58 42.08 479.06 42.94Q478.29 44.14 477.95 45.69Q480.7 44.92 482.29 44.79Q483.88 44.66 485.08 45.09Q486.89 45.69 486.98 46.81Q487.06 47.93 485.34 48.44Q483.71 48.96 481.73 49.35Q479.75 49.73 477.6 50.08ZM480.01 57.73Q483.79 60.91 487.19 63.36Q490.59 65.81 494.8 68.48Q496.18 69.43 498.37 70.46Q500.56 71.49 503.14 72.56Q505.72 73.64 508.52 74.59Q511.31 75.53 514.07 76.13Q517.85 77.08 517.89 78.16Q517.94 79.23 514.41 79.66Q508.82 80.35 505.6 80.65Q502.37 80.95 500.44 80.78Q498.5 80.61 497.43 79.88Q496.35 79.14 495.15 77.85Q493.94 76.65 491.49 74.11Q489.04 71.58 486.2 68.65Q483.36 65.73 480.61 62.85Q477.86 59.97 476.14 58.16Q474.94 58.33 473.65 58.5Q472.36 58.68 470.64 58.93Q473.73 61 473.99 62.03Q474.25 63.06 472.7 64.18Q471.75 64.87 470.64 65.94Q469.52 67.02 468.83 67.96Q464.19 74.16 458.25 78.24Q452.32 82.33 444.23 85.16Q440.97 86.37 440.58 85.51Q440.19 84.65 442.94 83.1Q445.61 81.64 448.4 79.66Q451.2 77.68 453.65 75.66Q456.1 73.64 457.95 71.92Q459.8 70.2 460.57 69.17Q463.41 65.56 464.7 63.32Q465.99 61.08 466.51 59.36Q465.99 59.45 465.48 59.49Q464.96 59.54 464.53 59.54Q464.44 60.83 463.88 61.3Q463.33 61.77 462.55 61.94Q461.61 62.12 460.57 60.65Q459.54 59.19 458.85 56.18Q457.39 50.25 456.14 46.89Q454.9 43.54 453.44 41.65Q452.49 40.36 452.19 39.41Q451.89 38.47 452.53 38.08Q453.18 37.69 454.81 37.91Q456.45 38.12 459.28 39.07Q463.93 38.72 468.66 38.17Q473.39 37.61 477.43 36.96Q481.47 36.32 484.35 35.71Q487.23 35.11 488.09 34.68Q489.47 34.08 490.42 33.78Q491.36 33.48 492.35 33.65Q493.34 33.82 494.59 34.47Q495.83 35.11 497.81 36.4Q499.96 37.78 501.12 38.72Q502.28 39.67 502.54 40.44Q502.8 41.22 502.24 41.95Q501.68 42.68 500.48 43.71Q499.27 44.66 497.94 46.77Q496.61 48.87 495.58 51.19Q494.89 52.83 494.16 54.08Q493.43 55.32 492.22 57.04Q490.5 59.71 489.08 59.88Q487.66 60.05 486.63 58.42Q486.29 57.99 485.94 57.73Q485.6 57.47 484.91 57.39Q484.22 57.3 483.06 57.39Q481.9 57.47 480.01 57.73Z"/>
    <path fill="url(#topLight)" opacity="0.82" d="M169.13 67.55Q165.09 68.24 161.82 68.93Q158.55 69.62 156.32 70.31Q155.03 70.74 154.08 70.91Q153.13 71.08 152.27 71.04Q151.41 70.99 150.6 70.69Q149.78 70.39 148.66 69.88Q146.51 68.84 146.86 68.07Q147.2 67.3 150.81 67.3Q151.59 67.3 154.21 66.95Q156.83 66.61 160.4 66.09Q163.97 65.58 168.01 64.97Q172.05 64.37 175.67 63.73Q179.28 63.08 182.03 62.52Q184.78 61.96 185.81 61.62Q187.36 61.1 188.48 60.85Q189.6 60.59 190.54 60.72Q191.49 60.85 192.52 61.36Q193.55 61.88 194.93 62.82Q199.06 65.75 199.1 66.82Q199.14 67.9 196.05 68.41Q194.07 68.76 192.26 69.49Q190.46 70.22 188.31 71.6Q186.33 72.89 185.86 72.41Q185.38 71.94 186.59 69.36Q187.96 66.52 187.66 65.96Q187.36 65.4 185.04 65.58Q182.03 65.83 179.19 66.14Q176.35 66.44 173.69 66.87Q175.41 67.64 176.35 68.16Q177.3 68.67 177.64 69.19Q177.99 69.7 177.86 70.26Q177.73 70.82 177.3 71.6Q176.87 72.37 176.57 73.49Q176.27 74.61 176.18 76.33Q177.21 76.24 178.38 75.9Q179.54 75.55 181 74.78Q182.46 74.09 184.18 73.96Q185.9 73.83 187.1 74.26Q190.03 75.29 189.98 76.5Q189.94 77.7 186.42 78.39Q183.15 79.08 180.7 79.29Q178.25 79.51 176.01 79.16L175.58 87.25Q176.61 87.68 177.64 88.02Q178.68 88.37 179.79 88.8Q183.66 90.09 186.93 90.95Q190.2 91.81 193.55 92.32Q196.91 92.84 200.78 93.1Q204.65 93.35 209.81 93.44Q213.59 93.53 213.72 94.6Q213.85 95.68 209.38 97.05Q203.01 99.03 199.27 99.93Q195.53 100.84 192.78 100.79Q190.03 100.75 187.58 99.63Q185.13 98.51 181.43 96.36Q175.24 92.75 169.43 89.44Q163.63 86.13 158.72 83.55Q152.53 92.67 141.44 96.79Q138.69 97.83 138.38 97.09Q138.08 96.36 140.58 94.82Q143.59 92.92 146.64 90.04Q149.69 87.16 151.59 84.41Q153.05 82.35 153.95 80.8Q154.85 79.25 155.33 78.13Q155.8 77.01 155.84 76.11Q155.89 75.21 155.63 74.43Q154.85 72.2 155.97 71.68Q157.09 71.17 160.7 72.89Q163.28 74.09 163.58 74.99Q163.88 75.9 162.77 77.27Q162.34 77.7 161.91 78.35Q161.48 78.99 160.62 80.45Q163.63 81.92 166.12 83.12Q168.61 84.32 170.85 85.36Q171.11 80.63 171.19 77.66Q171.28 74.69 171.11 72.76Q170.94 70.82 170.46 69.7Q169.99 68.59 169.13 67.55ZM155.89 47.43Q153.91 47.77 152.53 47.65Q151.16 47.52 149.26 47.09Q146.68 46.4 146.68 45.75Q146.68 45.11 149.69 44.85Q151.93 44.68 153.95 44.29Q155.97 43.9 159.15 42.96Q159.15 38.31 158.77 35.73Q158.38 33.15 157.69 32.38Q155.46 30.06 156.1 29.16Q156.75 28.25 159.93 29.2Q162.16 29.89 163.41 30.36Q164.66 30.83 165.09 31.31Q165.52 31.78 165.35 32.47Q165.17 33.15 164.66 34.19Q164.49 34.53 164.31 35Q164.14 35.48 164.01 36.29Q163.88 37.11 163.75 38.4Q163.63 39.69 163.54 41.67Q165.69 40.98 166.81 40.85Q167.93 40.72 169.39 40.98Q171.71 41.41 171.84 42.74Q171.97 44.08 169.56 44.68Q167.58 45.19 166.12 45.54Q164.66 45.88 163.28 46.14L163.28 49.49Q167.24 49.67 168.61 50.05Q169.99 50.44 170.51 51.39Q171.54 53.45 170.51 54.61Q169.47 55.77 167.75 55Q166.89 54.65 165.99 53.88Q165.09 53.11 163.28 51.39L163.28 57.23Q163.28 60.07 162.89 61.62Q162.51 63.17 161.86 63.73Q161.22 64.29 160.4 63.94Q159.58 63.6 158.64 62.57Q157.35 61.19 157.22 60.24Q157.09 59.3 158.04 57.32Q158.47 56.46 158.64 55.13Q158.81 53.79 158.98 50.61Q157.52 53.19 156.01 55.13Q154.51 57.06 152.88 58.61Q151.24 60.16 149.35 61.41Q147.46 62.65 145.14 63.86Q142.38 65.32 142.08 64.76Q141.78 64.2 144.28 62.14Q147.72 59.3 150.47 55.9Q153.22 52.5 155.89 47.43ZM188.57 38.4Q189.25 38.23 189.81 38.06Q190.37 37.88 190.8 37.71Q193.12 36.85 194.54 36.77Q195.96 36.68 198.11 37.11Q200 37.54 200.05 38.74Q200.09 39.95 197.68 40.55Q195.62 40.98 193.08 41.5Q190.54 42.01 188.31 42.44Q188.22 43.47 188.22 44.68Q188.22 45.88 188.22 47.26Q191.4 47.69 193.3 48.08Q195.19 48.46 196.31 48.85Q197.42 49.24 197.94 49.75Q198.46 50.27 198.89 51.04Q199.66 52.5 199.7 53.62Q199.75 54.74 199.23 55.39Q198.71 56.03 197.85 56.12Q196.99 56.2 196.13 55.51Q194.16 54.14 192.52 52.93Q190.89 51.73 188.22 49.75Q188.39 51.47 188.35 53.84Q188.31 56.2 187.96 58.35Q187.62 60.67 186.33 60.85Q185.04 61.02 183.66 59.13Q182.98 58.18 182.59 57.49Q182.2 56.8 182.16 56.25Q182.12 55.69 182.33 55.04Q182.55 54.4 182.98 53.45Q183.15 53.11 183.28 52.76Q183.41 52.42 183.45 51.86Q183.49 51.3 183.58 50.4Q183.66 49.49 183.66 48.03Q180.74 52.59 177.69 55.17Q174.63 57.75 171.02 59.3Q167.93 60.67 167.67 60.24Q167.41 59.81 170.08 57.49Q171.88 55.86 173.34 54.44Q174.81 53.02 176.1 51.47Q177.39 49.92 178.63 47.99Q179.88 46.05 181.34 43.47Q178.25 43.9 176.96 43.82Q175.67 43.73 174.98 43.56Q173 42.96 173.04 42.18Q173.09 41.41 175.58 41.24Q176.7 41.07 178.98 40.64Q181.26 40.21 183.75 39.6Q183.75 36.85 183.71 35.09Q183.66 33.33 183.49 32.21Q183.32 31.09 183.06 30.49Q182.8 29.89 182.37 29.37Q180.4 27.13 181.17 26.23Q181.94 25.33 185.56 26.53Q187.62 27.22 188.69 27.69Q189.77 28.17 190.2 28.64Q190.63 29.11 190.46 29.71Q190.29 30.32 189.86 31.35Q189.34 32.55 189.04 34.06Q188.74 35.56 188.57 38.4ZM257.78 66.44Q255.46 71.85 253.91 75.64Q252.36 79.42 251.33 82.22Q250.3 85.01 249.65 86.99Q249.01 88.97 248.49 90.6Q247.89 92.67 247.16 93.61Q246.43 94.56 245.52 94.13Q244.62 93.7 243.59 91.81Q242.56 89.91 241.27 86.3Q240.06 82.95 240.49 81.92Q240.92 80.88 242.73 80.97Q243.59 80.97 244.28 80.71Q244.96 80.45 246.17 78.99Q247.37 77.53 249.48 74.31Q251.59 71.08 255.28 65.23Q257.26 62.14 258.25 62.52Q259.24 62.91 257.78 66.44ZM268.61 67.38Q271.97 66.95 273.43 66.56Q274.89 66.18 275.84 65.49Q276.35 64.03 276.57 62.48Q276.78 60.93 276.87 59.13Q276.96 58.01 276.57 57.66Q276.18 57.32 274.72 57.49Q271.8 57.92 270.25 58.09Q268.7 58.27 267.58 58.44Q268.01 62.22 268.23 64.24Q268.44 66.26 268.61 67.38ZM265.95 55.34Q269.65 55.17 272.18 54.48Q274.72 53.79 276.44 52.85Q277.21 52.42 277.77 52.2Q278.33 51.99 278.98 52.03Q279.62 52.07 280.4 52.42Q281.17 52.76 282.29 53.36Q284.09 54.4 285.04 55.13Q285.99 55.86 286.24 56.42Q286.5 56.98 286.24 57.49Q285.99 58.01 285.3 58.7Q284.09 59.9 283.36 60.76Q282.63 61.62 282.12 62.35Q281.6 63.08 281.3 63.81Q281 64.54 280.65 65.4Q282.63 66.95 282.5 68.33Q282.37 69.7 279.88 69.88Q277.73 70.05 274.63 70.35Q271.54 70.65 268.79 70.99Q268.53 74.09 266.81 74.26Q265.95 74.35 265.09 72.97Q264.23 71.6 263.97 69.45Q263.37 65.15 262.59 62.31Q261.82 59.47 260.44 56.8Q259.5 54.83 260.49 54.31Q261.48 53.79 265.95 55.34ZM251.24 54.65Q251.59 58.01 249.82 59Q248.06 59.99 245.74 58.35Q244.28 57.41 242.9 55.94Q241.52 54.48 239.55 51.99Q238 50.01 238.38 49.45Q238.77 48.89 241.44 49.32Q244.53 49.84 246.38 50.31Q248.23 50.78 249.26 51.34Q250.3 51.9 250.68 52.72Q251.07 53.54 251.24 54.65ZM286.42 42.61Q281.86 43.04 277.69 43.73Q273.52 44.42 270.25 45.11Q268.18 45.62 266.81 45.8Q265.43 45.97 264.44 45.88Q263.45 45.8 262.55 45.41Q261.65 45.02 260.53 44.25Q258.72 43.04 258.98 42.18Q259.24 41.32 261.65 41.32Q262.77 41.32 265 41.15Q267.24 40.98 270.16 40.68Q273.09 40.38 276.44 39.95Q279.79 39.52 283.11 39.05Q286.42 38.57 289.51 38.06Q292.61 37.54 294.93 37.02Q297.77 36.42 299.7 36.12Q301.64 35.82 303.06 35.78Q304.48 35.73 305.51 36.04Q306.54 36.34 307.49 36.85Q311.87 39.43 311.49 41.07Q311.1 42.7 306.2 42.36Q302.84 42.18 299.32 42.06Q295.79 41.93 291.83 42.1Q294.16 43.22 295.4 44.03Q296.65 44.85 297.21 45.58Q297.77 46.31 297.73 46.96Q297.68 47.6 297.34 48.38Q296.91 49.58 296.65 53.19Q296.39 56.8 296.48 62.91Q296.56 69.36 296.74 74.09Q296.91 78.82 297.25 83.12Q297.51 85.96 297.51 87.89Q297.51 89.83 297.12 91.42Q296.74 93.01 295.92 94.6Q295.1 96.19 293.55 98.34Q291.75 100.92 290.07 100.97Q288.39 101.01 287.62 98.77Q286.67 96.28 285.17 94.43Q283.66 92.58 280.91 90.43Q278.25 88.45 278.46 87.64Q278.68 86.82 281.6 87.42Q284.18 87.94 285.69 88.06Q287.19 88.19 288.01 87.94Q288.82 87.68 289.13 86.9Q289.43 86.13 289.51 84.84Q290.2 76.5 290.2 69.02Q290.2 61.53 289.77 53.19Q289.6 51.21 289.43 49.8Q289.25 48.38 288.91 47.22Q288.57 46.05 287.96 44.98Q287.36 43.9 286.42 42.61ZM258.55 36.77Q258.72 39.86 257.22 40.94Q255.71 42.01 253.56 40.64Q250.21 38.49 246.6 33.67Q245.22 31.78 245.65 31.31Q246.08 30.83 249.18 31Q253.99 31.26 256.19 32.72Q258.38 34.19 258.55 36.77ZM357.78 66.78Q355.89 71.08 354.3 75.04Q352.7 78.99 351.54 82.39Q350.38 85.79 349.65 88.37Q348.92 90.95 348.75 92.32Q348.4 94.64 347.89 95.81Q347.37 96.97 346.51 96.88Q345.65 96.79 344.4 95.33Q343.16 93.87 341.52 90.95Q340.06 88.45 339.42 87.03Q338.77 85.61 338.69 84.88Q338.6 84.15 339.12 83.94Q339.63 83.72 340.58 83.55Q341.61 83.38 343.12 82.17Q344.62 80.97 346.94 77.62Q348.23 75.81 349.18 74.39Q350.12 72.97 351.07 71.42Q352.02 69.88 353.18 68.03Q354.34 66.18 355.97 63.43Q357.35 61.02 358.38 59.99Q359.41 58.95 359.8 59.34Q360.19 59.73 359.76 61.58Q359.33 63.43 357.78 66.78ZM381 76.58Q378.5 79.59 375.58 81.96Q372.66 84.32 369.47 86Q366.29 87.68 362.94 88.62Q359.58 89.57 356.32 89.74Q353.56 89.83 353.39 88.97Q353.22 88.11 355.46 87.25Q362.16 84.93 367.8 80.63Q373.43 76.33 377.3 71.34Q375.67 69.02 374.5 67.25Q373.34 65.49 372.44 64.24Q371.54 63 370.94 62.14Q370.33 61.28 369.82 60.59Q368.1 58.18 366.21 56.59Q364.31 55 362.94 54.48Q360.53 53.54 360.83 52.38Q361.13 51.21 364.4 51.3Q365.78 51.3 366.81 51.52Q367.84 51.73 368.66 52.25Q369.47 52.76 370.29 53.62Q371.11 54.48 372.05 55.86Q372.66 56.72 373.6 58.05Q374.55 59.38 375.67 60.85Q376.78 62.31 377.99 63.86Q379.19 65.4 380.31 66.69Q382.46 62.65 384.05 57.36Q385.64 52.07 386.59 46.83Q386.85 45.19 386.55 44.81Q386.24 44.42 385.13 44.59Q383.75 44.76 382.63 44.98Q381.51 45.19 380.44 45.41Q379.36 45.62 378.29 45.93Q377.21 46.23 375.92 46.57Q373.34 47.34 371.67 47.73Q369.99 48.12 368.83 48.2Q367.67 48.29 366.76 48.03Q365.86 47.77 364.83 47.26Q361.91 45.8 362.03 44.94Q362.16 44.08 364.74 43.9Q365.78 43.9 367.19 43.73Q368.61 43.56 370.2 43.3Q371.8 43.04 373.43 42.74Q375.06 42.44 376.53 42.1Q380.91 40.89 383.49 39.86Q386.07 38.83 387.28 37.63Q388.39 36.59 389.81 36.68Q391.23 36.77 394.59 38.74Q396.74 39.95 397.9 40.77Q399.06 41.58 399.32 42.31Q399.57 43.04 399.01 43.82Q398.46 44.59 397.17 45.71Q395.96 46.83 394.71 48.94Q393.47 51.04 392.52 53.97Q390.8 59.38 388.82 63.64Q386.85 67.9 384.52 71.6Q387.45 74.78 390.24 77.19Q393.04 79.59 396.13 81.49Q399.23 83.38 402.84 84.93Q406.45 86.47 411.1 87.94Q414.45 89.05 414.45 90.04Q414.45 91.03 411.53 91.38Q404.82 92.06 400.99 92.32Q397.17 92.58 394.97 92.15Q392.78 91.72 391.53 90.52Q390.29 89.31 388.65 87.08Q386.5 84.24 384.57 81.53Q382.63 78.82 381 76.58ZM351.33 59.99Q351.67 63.17 350.25 64.03Q348.83 64.89 346.51 63.34Q344.79 62.14 343.42 60.55Q342.04 58.95 340.23 56.12Q339.03 54.22 339.5 53.71Q339.98 53.19 342.73 53.45Q347.29 53.88 349.18 55.51Q351.07 57.15 351.33 59.99ZM357.95 41.75Q358.21 43.22 357.78 44.16Q357.35 45.11 356.62 45.58Q355.89 46.05 354.94 45.97Q353.99 45.88 353.13 45.37Q351.41 44.25 349.48 42.18Q347.54 40.12 346.25 38.14Q345.14 36.42 345.57 35.95Q346 35.48 349.18 35.65Q353.56 35.91 355.54 37.45Q357.52 39 357.95 41.75ZM478.76 64.72Q480.83 65.58 481.99 66.18Q483.15 66.78 483.62 67.38Q484.09 67.98 484.05 68.59Q484.01 69.19 483.75 70.05Q483.06 71.94 482.85 74.86Q482.63 77.79 482.8 80.88Q482.89 82.52 482.93 84.32Q482.98 86.13 483.02 87.76Q483.06 89.4 483.06 90.64Q483.06 91.89 483.06 92.32Q482.98 94.99 482.85 96.58Q482.72 98.17 482.46 100.23Q482.12 102.99 480.4 103.07Q478.68 103.16 476.96 100.41Q476.18 99.12 475.75 98.26Q475.32 97.4 475.28 96.49Q475.24 95.59 475.49 94.52Q475.75 93.44 476.35 91.72Q476.7 90.69 476.91 89.48Q477.13 88.28 477.21 86.43Q477.3 84.58 477.26 81.92Q477.21 79.25 477.13 75.29Q476.96 72.2 476.44 69.96Q475.92 67.73 475.24 67.04Q474.38 66.09 474.16 65.32Q473.95 64.54 474.38 64.16Q474.81 63.77 475.88 63.86Q476.96 63.94 478.76 64.72ZM469.04 72.54Q468.36 73.83 467.97 75.25Q467.58 76.67 467.32 78.05Q466.29 83.46 462.89 88.37Q459.5 93.27 453.65 96.54Q450.3 98.51 449.87 97.83Q449.44 97.14 452.27 94.3Q455.03 91.55 456.96 88.45Q458.9 85.36 460.36 80.8Q461.22 78.3 461.69 76.5Q462.16 74.69 462.29 73.44Q462.42 72.2 462.21 71.34Q461.99 70.48 461.48 69.79Q460.1 68.07 461.18 67.04Q462.25 66.01 465.52 67.38Q467.24 68.07 468.18 68.63Q469.13 69.19 469.47 69.75Q469.82 70.31 469.69 70.95Q469.56 71.6 469.04 72.54ZM467.24 35.13Q465 35.48 462.55 35.69Q460.1 35.91 457.61 36.08Q458.21 39.35 458.9 43.26Q459.58 47.17 460.19 50.53Q462.34 50.35 464.27 50.05Q466.21 49.75 468.44 49.32L468.53 44.51Q466.29 44.68 464.66 44.68Q463.02 44.68 462.25 44.33Q460.01 43.47 459.97 43Q459.93 42.53 462.34 42.1Q463.97 41.84 465.56 41.58Q467.15 41.32 468.61 41.07Q468.44 37.97 467.24 35.13ZM473.52 48.38Q477.04 47.69 478.68 47.69Q480.31 47.69 481.17 48.12Q482.46 48.81 483.15 48.46Q483.84 48.12 484.61 46.14Q486.5 41.32 487.36 35.39Q487.62 33.76 487.23 33.28Q486.85 32.81 485.3 32.9Q483.84 32.98 482.16 33.11Q480.48 33.24 478.81 33.41Q477.13 33.58 475.62 33.76Q474.12 33.93 473.09 34.1Q474.98 35.05 475.28 35.56Q475.58 36.08 475.06 36.94Q474.29 38.14 473.95 39.69Q476.7 38.92 478.29 38.79Q479.88 38.66 481.08 39.09Q482.89 39.69 482.98 40.81Q483.06 41.93 481.34 42.44Q479.71 42.96 477.73 43.35Q475.75 43.73 473.6 44.08ZM476.01 51.73Q479.79 54.91 483.19 57.36Q486.59 59.81 490.8 62.48Q492.18 63.43 494.37 64.46Q496.56 65.49 499.14 66.56Q501.72 67.64 504.52 68.59Q507.31 69.53 510.07 70.13Q513.85 71.08 513.89 72.16Q513.94 73.23 510.41 73.66Q504.82 74.35 501.6 74.65Q498.37 74.95 496.44 74.78Q494.5 74.61 493.43 73.88Q492.35 73.14 491.15 71.85Q489.94 70.65 487.49 68.11Q485.04 65.58 482.2 62.65Q479.36 59.73 476.61 56.85Q473.86 53.97 472.14 52.16Q470.94 52.33 469.65 52.5Q468.36 52.68 466.64 52.93Q469.73 55 469.99 56.03Q470.25 57.06 468.7 58.18Q467.75 58.87 466.64 59.94Q465.52 61.02 464.83 61.96Q460.19 68.16 454.25 72.24Q448.32 76.33 440.23 79.16Q436.97 80.37 436.58 79.51Q436.19 78.65 438.94 77.1Q441.61 75.64 444.4 73.66Q447.2 71.68 449.65 69.66Q452.1 67.64 453.95 65.92Q455.8 64.2 456.57 63.17Q459.41 59.56 460.7 57.32Q461.99 55.08 462.51 53.36Q461.99 53.45 461.48 53.49Q460.96 53.54 460.53 53.54Q460.44 54.83 459.88 55.3Q459.33 55.77 458.55 55.94Q457.61 56.12 456.57 54.65Q455.54 53.19 454.85 50.18Q453.39 44.25 452.14 40.89Q450.9 37.54 449.44 35.65Q448.49 34.36 448.19 33.41Q447.89 32.47 448.53 32.08Q449.18 31.69 450.81 31.91Q452.45 32.12 455.28 33.07Q459.93 32.72 464.66 32.17Q469.39 31.61 473.43 30.96Q477.47 30.32 480.35 29.71Q483.23 29.11 484.09 28.68Q485.47 28.08 486.42 27.78Q487.36 27.48 488.35 27.65Q489.34 27.82 490.59 28.47Q491.83 29.11 493.81 30.4Q495.96 31.78 497.12 32.72Q498.28 33.67 498.54 34.44Q498.8 35.22 498.24 35.95Q497.68 36.68 496.48 37.71Q495.27 38.66 493.94 40.77Q492.61 42.87 491.58 45.19Q490.89 46.83 490.16 48.08Q489.43 49.32 488.22 51.04Q486.5 53.71 485.08 53.88Q483.66 54.05 482.63 52.42Q482.29 51.99 481.94 51.73Q481.6 51.47 480.91 51.39Q480.22 51.3 479.06 51.39Q477.9 51.47 476.01 51.73Z"/>
  </g>

  <path d="M76 40C188 18 354 17 604 36" stroke="#F5D27A" stroke-width="8" stroke-linecap="round" opacity="0.28"/>
  <path d="M96 128C220 154 386 156 584 126" stroke="#4d2a13" stroke-width="8" stroke-linecap="round" opacity="0.14"/>
</svg>
