<svg width="200" height="200" viewBox="0 0 1024 1024" fill="none" xmlns="http://www.w3.org/2000/svg" role="img" aria-labelledby="voiceTitle voiceDesc">
  <title id="voiceTitle">声音开启</title>
  <desc id="voiceDesc">带木质按钮风格外框的声音图标</desc>
  <defs>
    <linearGradient id="voiceOuter" x1="512" y1="96" x2="512" y2="928" gradientUnits="userSpaceOnUse">
      <stop stop-color="#F07142"/>
      <stop offset="0.52" stop-color="#C63A25"/>
      <stop offset="1" stop-color="#772414"/>
    </linearGradient>
    <linearGradient id="voiceFace" x1="220" y1="218" x2="804" y2="806" gradientUnits="userSpaceOnUse">
      <stop stop-color="#C94B2A"/>
      <stop offset="1" stop-color="#842416"/>
    </linearGradient>
    <filter id="voiceDrop" x="-16%" y="-16%" width="132%" height="132%">
      <feDropShadow dx="0" dy="28" stdDeviation="24" flood-color="#3A1D0D" flood-opacity="0.34"/>
    </filter>
  </defs>
  <g filter="url(#voiceDrop)">
    <path d="M174 116C296 82 728 82 850 116C934 140 964 274 946 512C964 750 934 884 850 908C728 942 296 942 174 908C90 884 60 750 78 512C60 274 90 140 174 116Z" fill="url(#voiceOuter)"/>
    <path d="M214 184C326 158 698 158 810 184C876 199 898 312 886 512C898 712 876 825 810 840C698 866 326 866 214 840C148 825 126 712 138 512C126 312 148 199 214 184Z" fill="url(#voiceFace)"/>
    <path d="M234 246C348 224 676 224 790 246" stroke="#FFB071" stroke-width="28" stroke-linecap="round" opacity="0.52"/>
    <path d="M244 790C362 826 662 826 780 790" stroke="#5B170E" stroke-width="24" stroke-linecap="round" opacity="0.36"/>
    <path d="M182 512C166 336 184 228 238 214" stroke="#FFE7A6" stroke-width="18" stroke-linecap="round" opacity="0.18"/>
    <path d="M842 512C858 688 840 796 786 810" stroke="#3A120B" stroke-width="18" stroke-linecap="round" opacity="0.16"/>
    <g transform="translate(180 180) scale(0.65)">
      <path d="M257.493333 322.4l215.573334-133.056c24.981333-15.413333 57.877333-7.914667 73.493333 16.746667 5.301333 8.373333 8.106667 18.048 8.106667 27.914666v555.989334C554.666667 819.093333 530.784 842.666667 501.333333 842.666667c-9.994667 0-19.786667-2.773333-28.266666-8L257.493333 701.6H160c-41.237333 0-74.666667-33.013333-74.666667-73.738667V396.138667c0-40.725333 33.429333-73.738667 74.666667-73.738667h97.493333z m26.133334 58.4a32.298667 32.298667 0 0 1-16.96 4.8H160c-5.888 0-10.666667 4.714667-10.666667 10.538667v231.733333c0 5.813333 4.778667 10.538667 10.666667 10.538667h106.666667c5.994667 0 11.872 1.664 16.96 4.8L490.666667 770.986667V253.013333L283.626667 380.8zM800.906667 829.653333a32.288 32.288 0 0 1-45.248-0.757333 31.317333 31.317333 0 0 1 0.768-44.693333c157.653333-150.464 157.653333-393.962667 0-544.426667a31.317333 31.317333 0 0 1-0.768-44.682667 32.288 32.288 0 0 1 45.248-0.757333c183.68 175.306667 183.68 460.010667 0 635.317333z m-106.901334-126.186666a32.288 32.288 0 0 1-45.248-1.216 31.328 31.328 0 0 1 1.237334-44.672c86.229333-80.608 86.229333-210.56 0-291.178667a31.328 31.328 0 0 1-1.237334-44.672 32.288 32.288 0 0 1 45.248-1.216c112.885333 105.546667 112.885333 277.418667 0 382.965333z" fill="#FFE7A6"/>
    </g>
  </g>
</svg>
