<?xml version="1.0" encoding="UTF-8"?>
<svg xmlns="http://www.w3.org/2000/svg" viewBox="0 0 920 1010" role="img" aria-labelledby="title desc">
  <title id="title">激光雕刻象棋棋盘</title>
  <desc id="desc">参考实体激光雕刻机出品的浅木象棋棋盘，留白舒展、线条克制、浅木板烧刻质感。</desc>
  <defs>
    <linearGradient id="wood" x1="0" y1="0" x2="1" y2="1">
      <stop offset="0" stop-color="#eadcc5" />
      <stop offset="0.32" stop-color="#d5bd98" />
      <stop offset="0.62" stop-color="#f5e8d2" />
      <stop offset="1" stop-color="#bea077" />
    </linearGradient>
    <linearGradient id="side" x1="0" y1="0" x2="0" y2="1">
      <stop offset="0" stop-color="#d9bea0" />
      <stop offset="1" stop-color="#8e6b4c" />
    </linearGradient>
    <pattern id="grain" width="240" height="62" patternUnits="userSpaceOnUse" patternTransform="rotate(-5)">
      <path d="M -42 30 C 17 13, 79 47, 145 25 C 184 12, 223 17, 281 34" fill="none" stroke="#846447" stroke-width="1.9" stroke-opacity="0.1" />
      <path d="M -26 48 C 38 32, 103 67, 184 45 C 217 36, 249 39, 286 52" fill="none" stroke="#fff4df" stroke-width="1.7" stroke-opacity="0.18" />
    </pattern>
    <style>
      .cut,
      .mark {
        fill: none;
        stroke: #5d4331;
        stroke-linecap: round;
        stroke-linejoin: round;
      }

      .cut {
        stroke-width: 3;
      }

      .thin {
        stroke-width: 2.7;
      }

      .mark {
        stroke-width: 2.8;
      }

      .river {
        fill: #664a36;
      }
    </style>
  </defs>
  <rect x="34" y="34" width="852" height="942" rx="22" fill="url(#side)" />
  <rect x="48" y="48" width="824" height="914" rx="16" fill="url(#wood)" />
  <rect x="48" y="48" width="824" height="914" rx="16" fill="url(#grain)" />
  <rect x="76" y="76" width="768" height="858" rx="8" fill="none" stroke="#8b6b4c" stroke-width="2.2" opacity="0.45" />
  <g>
    <line class="cut" x1="130" y1="122" x2="786" y2="122" />
      <line class="cut" x1="130" y1="204" x2="786" y2="204" />
      <line class="cut" x1="130" y1="286" x2="786" y2="286" />
      <line class="cut" x1="130" y1="368" x2="786" y2="368" />
      <line class="cut" x1="130" y1="450" x2="786" y2="450" />
      <line class="cut" x1="130" y1="532" x2="786" y2="532" />
      <line class="cut" x1="130" y1="614" x2="786" y2="614" />
      <line class="cut" x1="130" y1="696" x2="786" y2="696" />
      <line class="cut" x1="130" y1="778" x2="786" y2="778" />
      <line class="cut" x1="130" y1="860" x2="786" y2="860" />
    <line class="cut" x1="130" y1="122" x2="130" y2="860" />
      <line class="cut" x1="212" y1="122" x2="212" y2="450" />
      <line class="cut" x1="212" y1="532" x2="212" y2="860" />
      <line class="cut" x1="294" y1="122" x2="294" y2="450" />
      <line class="cut" x1="294" y1="532" x2="294" y2="860" />
      <line class="cut" x1="376" y1="122" x2="376" y2="450" />
      <line class="cut" x1="376" y1="532" x2="376" y2="860" />
      <line class="cut" x1="458" y1="122" x2="458" y2="450" />
      <line class="cut" x1="458" y1="532" x2="458" y2="860" />
      <line class="cut" x1="540" y1="122" x2="540" y2="450" />
      <line class="cut" x1="540" y1="532" x2="540" y2="860" />
      <line class="cut" x1="622" y1="122" x2="622" y2="450" />
      <line class="cut" x1="622" y1="532" x2="622" y2="860" />
      <line class="cut" x1="704" y1="122" x2="704" y2="450" />
      <line class="cut" x1="704" y1="532" x2="704" y2="860" />
      <line class="cut" x1="786" y1="122" x2="786" y2="860" />
    <line class="cut thin" x1="376" y1="122" x2="540" y2="286" />
      <line class="cut thin" x1="540" y1="122" x2="376" y2="286" />
      <line class="cut thin" x1="376" y1="696" x2="540" y2="860" />
      <line class="cut thin" x1="540" y1="696" x2="376" y2="860" />
    <path class="mark" d="M 199 261 v 12 h -12 M 199 311 v -12 h -12 M 225 261 v 12 h 12 M 225 311 v -12 h 12" />
      <path class="mark" d="M 691 261 v 12 h -12 M 691 311 v -12 h -12 M 717 261 v 12 h 12 M 717 311 v -12 h 12" />
      <path class="mark" d="M 143 343 v 12 h 12 M 143 393 v -12 h 12" />
      <path class="mark" d="M 281 343 v 12 h -12 M 281 393 v -12 h -12 M 307 343 v 12 h 12 M 307 393 v -12 h 12" />
      <path class="mark" d="M 445 343 v 12 h -12 M 445 393 v -12 h -12 M 471 343 v 12 h 12 M 471 393 v -12 h 12" />
      <path class="mark" d="M 609 343 v 12 h -12 M 609 393 v -12 h -12 M 635 343 v 12 h 12 M 635 393 v -12 h 12" />
      <path class="mark" d="M 773 343 v 12 h -12 M 773 393 v -12 h -12" />
      <path class="mark" d="M 143 589 v 12 h 12 M 143 639 v -12 h 12" />
      <path class="mark" d="M 281 589 v 12 h -12 M 281 639 v -12 h -12 M 307 589 v 12 h 12 M 307 639 v -12 h 12" />
      <path class="mark" d="M 445 589 v 12 h -12 M 445 639 v -12 h -12 M 471 589 v 12 h 12 M 471 639 v -12 h 12" />
      <path class="mark" d="M 609 589 v 12 h -12 M 609 639 v -12 h -12 M 635 589 v 12 h 12 M 635 639 v -12 h 12" />
      <path class="mark" d="M 773 589 v 12 h -12 M 773 639 v -12 h -12" />
      <path class="mark" d="M 199 671 v 12 h -12 M 199 721 v -12 h -12 M 225 671 v 12 h 12 M 225 721 v -12 h 12" />
      <path class="mark" d="M 691 671 v 12 h -12 M 691 721 v -12 h -12 M 717 671 v 12 h 12 M 717 721 v -12 h 12" />
  </g>
  <rect x="130" y="122" width="656" height="738" fill="none" stroke="#543b2a" stroke-width="3.8" opacity="0.9" />
  <path d="M263.43 489.99Q261.27 490.36 259.52 490.73Q257.77 491.1 256.58 491.47Q255.89 491.7 255.38 491.79Q254.87 491.88 254.41 491.86Q253.95 491.83 253.52 491.67Q253.08 491.51 252.48 491.24Q251.33 490.68 251.52 490.27Q251.7 489.86 253.63 489.86Q254.05 489.86 255.45 489.67Q256.85 489.49 258.76 489.21Q260.67 488.94 262.83 488.61Q264.99 488.29 266.93 487.95Q268.86 487.6 270.33 487.3Q271.8 487 272.35 486.82Q273.18 486.54 273.78 486.41Q274.38 486.27 274.88 486.34Q275.39 486.41 275.94 486.68Q276.49 486.96 277.23 487.46Q279.44 489.03 279.46 489.6Q279.48 490.18 277.83 490.45Q276.77 490.64 275.8 491.03Q274.84 491.42 273.69 492.16Q272.63 492.85 272.38 492.59Q272.12 492.34 272.77 490.96Q273.5 489.44 273.34 489.14Q273.18 488.84 271.94 488.94Q270.33 489.07 268.81 489.24Q267.29 489.4 265.87 489.63Q266.79 490.04 267.29 490.32Q267.8 490.59 267.98 490.87Q268.17 491.14 268.1 491.44Q268.03 491.74 267.8 492.16Q267.57 492.57 267.41 493.17Q267.25 493.77 267.2 494.69Q267.75 494.64 268.38 494.46Q269 494.27 269.78 493.86Q270.56 493.49 271.48 493.42Q272.4 493.35 273.04 493.58Q274.61 494.13 274.58 494.78Q274.56 495.42 272.68 495.79Q270.93 496.16 269.62 496.27Q268.31 496.39 267.11 496.2L266.88 500.53Q267.43 500.76 267.98 500.94Q268.54 501.13 269.13 501.36Q271.2 502.05 272.95 502.51Q274.7 502.97 276.49 503.24Q278.29 503.52 280.36 503.66Q282.43 503.79 285.19 503.84Q287.21 503.89 287.28 504.46Q287.35 505.04 284.96 505.77Q281.55 506.83 279.55 507.31Q277.55 507.8 276.08 507.77Q274.61 507.75 273.3 507.15Q271.99 506.55 270.01 505.4Q266.7 503.47 263.59 501.7Q260.49 499.93 257.86 498.55Q254.55 503.43 248.62 505.63Q247.15 506.19 246.99 505.8Q246.82 505.4 248.16 504.58Q249.77 503.56 251.4 502.02Q253.03 500.48 254.05 499.01Q254.83 497.91 255.31 497.08Q255.79 496.25 256.05 495.65Q256.3 495.05 256.32 494.57Q256.35 494.09 256.21 493.67Q255.79 492.48 256.39 492.2Q256.99 491.93 258.92 492.85Q260.3 493.49 260.46 493.97Q260.62 494.46 260.03 495.19Q259.8 495.42 259.57 495.77Q259.34 496.11 258.88 496.89Q260.49 497.68 261.82 498.32Q263.15 498.96 264.35 499.52Q264.49 496.99 264.53 495.4Q264.58 493.81 264.49 492.78Q264.4 491.74 264.14 491.14Q263.89 490.55 263.43 489.99ZM256.35 479.23Q255.29 479.41 254.55 479.35Q253.82 479.28 252.8 479.05Q251.42 478.68 251.42 478.33Q251.42 477.99 253.03 477.85Q254.23 477.76 255.31 477.55Q256.39 477.34 258.09 476.84Q258.09 474.35 257.89 472.97Q257.68 471.59 257.31 471.18Q256.12 469.94 256.46 469.45Q256.81 468.97 258.51 469.48Q259.7 469.85 260.37 470.1Q261.04 470.35 261.27 470.61Q261.5 470.86 261.41 471.23Q261.31 471.59 261.04 472.15Q260.95 472.33 260.85 472.58Q260.76 472.84 260.69 473.27Q260.62 473.71 260.56 474.4Q260.49 475.09 260.44 476.15Q261.59 475.78 262.19 475.71Q262.79 475.64 263.57 475.78Q264.81 476.01 264.88 476.72Q264.95 477.44 263.66 477.76Q262.6 478.03 261.82 478.22Q261.04 478.4 260.3 478.54L260.3 480.33Q262.42 480.43 263.15 480.63Q263.89 480.84 264.17 481.35Q264.72 482.45 264.17 483.07Q263.61 483.69 262.69 483.28Q262.23 483.09 261.75 482.68Q261.27 482.27 260.3 481.35L260.3 484.47Q260.3 485.99 260.1 486.82Q259.89 487.65 259.54 487.95Q259.2 488.25 258.76 488.06Q258.32 487.88 257.82 487.33Q257.13 486.59 257.06 486.08Q256.99 485.58 257.5 484.52Q257.73 484.06 257.82 483.35Q257.91 482.63 258 480.93Q257.22 482.31 256.42 483.35Q255.61 484.38 254.74 485.21Q253.86 486.04 252.85 486.7Q251.84 487.37 250.6 488.02Q249.12 488.8 248.96 488.5Q248.8 488.2 250.14 487.1Q251.98 485.58 253.45 483.76Q254.92 481.94 256.35 479.23ZM273.83 474.4Q274.19 474.31 274.49 474.22Q274.79 474.12 275.02 474.03Q276.26 473.57 277.02 473.53Q277.78 473.48 278.93 473.71Q279.94 473.94 279.97 474.58Q279.99 475.23 278.7 475.55Q277.6 475.78 276.24 476.06Q274.88 476.33 273.69 476.56Q273.64 477.11 273.64 477.76Q273.64 478.4 273.64 479.14Q275.34 479.37 276.36 479.57Q277.37 479.78 277.97 479.99Q278.56 480.2 278.84 480.47Q279.12 480.75 279.35 481.16Q279.76 481.94 279.78 482.54Q279.81 483.14 279.53 483.49Q279.25 483.83 278.79 483.88Q278.33 483.92 277.87 483.55Q276.82 482.82 275.94 482.17Q275.07 481.53 273.64 480.47Q273.73 481.39 273.71 482.66Q273.69 483.92 273.5 485.07Q273.32 486.31 272.63 486.41Q271.94 486.5 271.2 485.49Q270.84 484.98 270.63 484.61Q270.42 484.24 270.4 483.94Q270.38 483.65 270.49 483.3Q270.61 482.96 270.84 482.45Q270.93 482.27 271 482.08Q271.07 481.9 271.09 481.6Q271.11 481.3 271.16 480.82Q271.2 480.33 271.2 479.55Q269.64 481.99 268.01 483.37Q266.37 484.75 264.44 485.58Q262.79 486.31 262.65 486.08Q262.51 485.85 263.94 484.61Q264.9 483.74 265.68 482.98Q266.47 482.22 267.16 481.39Q267.85 480.56 268.51 479.53Q269.18 478.49 269.96 477.11Q268.31 477.34 267.62 477.3Q266.93 477.25 266.56 477.16Q265.5 476.84 265.52 476.42Q265.55 476.01 266.88 475.92Q267.48 475.83 268.7 475.6Q269.92 475.37 271.25 475.04Q271.25 473.57 271.23 472.63Q271.2 471.69 271.11 471.09Q271.02 470.49 270.88 470.17Q270.74 469.85 270.51 469.57Q269.46 468.37 269.87 467.89Q270.28 467.41 272.22 468.05Q273.32 468.42 273.89 468.67Q274.47 468.93 274.7 469.18Q274.93 469.43 274.84 469.75Q274.75 470.08 274.52 470.63Q274.24 471.27 274.08 472.08Q273.92 472.88 273.83 474.4ZM314.36 489.4Q313.12 492.29 312.29 494.32Q311.46 496.34 310.91 497.84Q310.36 499.33 310.01 500.39Q309.67 501.45 309.39 502.32Q309.07 503.43 308.68 503.93Q308.29 504.44 307.8 504.21Q307.32 503.98 306.77 502.97Q306.22 501.95 305.53 500.02Q304.88 498.23 305.11 497.68Q305.34 497.12 306.31 497.17Q306.77 497.17 307.14 497.03Q307.5 496.89 308.15 496.11Q308.79 495.33 309.92 493.61Q311.05 491.88 313.02 488.75Q314.08 487.1 314.61 487.3Q315.14 487.51 314.36 489.4ZM320.15 489.9Q321.95 489.67 322.73 489.46Q323.51 489.26 324.02 488.89Q324.29 488.11 324.41 487.28Q324.52 486.45 324.57 485.49Q324.62 484.89 324.41 484.7Q324.2 484.52 323.42 484.61Q321.86 484.84 321.03 484.93Q320.2 485.03 319.6 485.12Q319.83 487.14 319.95 488.22Q320.06 489.3 320.15 489.9ZM318.73 483.46Q320.71 483.37 322.06 483Q323.42 482.63 324.34 482.13Q324.75 481.9 325.05 481.78Q325.35 481.67 325.7 481.69Q326.04 481.71 326.46 481.9Q326.87 482.08 327.47 482.4Q328.43 482.96 328.94 483.35Q329.45 483.74 329.58 484.04Q329.72 484.34 329.58 484.61Q329.45 484.89 329.08 485.26Q328.43 485.9 328.04 486.36Q327.65 486.82 327.38 487.21Q327.1 487.6 326.94 487.99Q326.78 488.38 326.59 488.84Q327.65 489.67 327.58 490.41Q327.51 491.14 326.18 491.24Q325.03 491.33 323.37 491.49Q321.72 491.65 320.25 491.83Q320.11 493.49 319.19 493.58Q318.73 493.63 318.27 492.89Q317.81 492.16 317.67 491.01Q317.35 488.71 316.93 487.19Q316.52 485.67 315.78 484.24Q315.28 483.19 315.81 482.91Q316.34 482.63 318.73 483.46ZM310.86 483.09Q311.05 484.89 310.1 485.42Q309.16 485.95 307.92 485.07Q307.14 484.57 306.4 483.78Q305.66 483 304.61 481.67Q303.78 480.61 303.99 480.31Q304.19 480.01 305.62 480.24Q307.27 480.52 308.26 480.77Q309.25 481.02 309.8 481.32Q310.36 481.62 310.56 482.06Q310.77 482.5 310.86 483.09ZM329.68 476.65Q327.24 476.88 325.01 477.25Q322.78 477.62 321.03 477.99Q319.92 478.26 319.19 478.36Q318.45 478.45 317.92 478.4Q317.39 478.36 316.91 478.15Q316.43 477.94 315.83 477.53Q314.86 476.88 315 476.42Q315.14 475.96 316.43 475.96Q317.03 475.96 318.22 475.87Q319.42 475.78 320.98 475.62Q322.55 475.46 324.34 475.23Q326.13 475 327.9 474.75Q329.68 474.49 331.33 474.22Q332.99 473.94 334.23 473.66Q335.75 473.34 336.78 473.18Q337.82 473.02 338.58 473Q339.34 472.97 339.89 473.13Q340.44 473.3 340.95 473.57Q343.29 474.95 343.08 475.83Q342.88 476.7 340.26 476.52Q338.46 476.42 336.58 476.36Q334.69 476.29 332.57 476.38Q333.82 476.98 334.48 477.41Q335.15 477.85 335.45 478.24Q335.75 478.63 335.73 478.98Q335.7 479.32 335.52 479.74Q335.29 480.38 335.15 482.31Q335.01 484.24 335.06 487.51Q335.1 490.96 335.2 493.49Q335.29 496.02 335.47 498.32Q335.61 499.84 335.61 500.87Q335.61 501.91 335.4 502.76Q335.2 503.61 334.76 504.46Q334.32 505.31 333.49 506.46Q332.53 507.84 331.63 507.87Q330.73 507.89 330.32 506.69Q329.81 505.36 329.01 504.37Q328.2 503.38 326.73 502.23Q325.31 501.17 325.42 500.74Q325.54 500.3 327.1 500.62Q328.48 500.9 329.29 500.96Q330.09 501.03 330.53 500.9Q330.96 500.76 331.13 500.34Q331.29 499.93 331.33 499.24Q331.7 494.78 331.7 490.78Q331.7 486.77 331.47 482.31Q331.38 481.25 331.29 480.5Q331.19 479.74 331.01 479.12Q330.83 478.49 330.5 477.92Q330.18 477.34 329.68 476.65ZM314.77 473.53Q314.86 475.18 314.06 475.76Q313.25 476.33 312.1 475.6Q310.31 474.45 308.38 471.87Q307.64 470.86 307.87 470.61Q308.1 470.35 309.76 470.44Q312.33 470.58 313.51 471.36Q314.68 472.15 314.77 473.53Z" class="river" />
  <path d="M585.36 489.58Q584.35 491.88 583.5 494Q582.64 496.11 582.02 497.93Q581.4 499.75 581.01 501.13Q580.62 502.51 580.53 503.24Q580.34 504.48 580.07 505.11Q579.79 505.73 579.33 505.68Q578.87 505.63 578.21 504.85Q577.54 504.07 576.66 502.51Q575.88 501.17 575.54 500.41Q575.19 499.65 575.15 499.26Q575.1 498.87 575.38 498.76Q575.65 498.64 576.16 498.55Q576.71 498.46 577.51 497.81Q578.32 497.17 579.56 495.38Q580.25 494.41 580.76 493.65Q581.26 492.89 581.77 492.06Q582.28 491.24 582.9 490.25Q583.52 489.26 584.39 487.79Q585.13 486.5 585.68 485.95Q586.23 485.39 586.44 485.6Q586.65 485.81 586.42 486.8Q586.19 487.79 585.36 489.58ZM597.78 494.82Q596.44 496.43 594.88 497.7Q593.32 498.96 591.61 499.86Q589.91 500.76 588.12 501.26Q586.32 501.77 584.58 501.86Q583.1 501.91 583.01 501.45Q582.92 500.99 584.12 500.53Q587.7 499.29 590.72 496.99Q593.73 494.69 595.8 492.02Q594.93 490.78 594.3 489.83Q593.68 488.89 593.2 488.22Q592.72 487.56 592.4 487.1Q592.07 486.64 591.8 486.27Q590.88 484.98 589.87 484.13Q588.85 483.28 588.12 483Q586.83 482.5 586.99 481.88Q587.15 481.25 588.9 481.3Q589.64 481.3 590.19 481.42Q590.74 481.53 591.18 481.81Q591.61 482.08 592.05 482.54Q592.49 483 592.99 483.74Q593.32 484.2 593.82 484.91Q594.33 485.62 594.93 486.41Q595.52 487.19 596.17 488.02Q596.81 488.84 597.41 489.53Q598.56 487.37 599.41 484.54Q600.26 481.71 600.77 478.91Q600.91 478.03 600.75 477.83Q600.58 477.62 599.99 477.71Q599.25 477.8 598.65 477.92Q598.05 478.03 597.48 478.15Q596.9 478.26 596.33 478.43Q595.75 478.59 595.06 478.77Q593.68 479.18 592.79 479.39Q591.89 479.6 591.27 479.64Q590.65 479.69 590.16 479.55Q589.68 479.41 589.13 479.14Q587.57 478.36 587.63 477.9Q587.7 477.44 589.08 477.34Q589.64 477.34 590.39 477.25Q591.15 477.16 592 477.02Q592.86 476.88 593.73 476.72Q594.6 476.56 595.39 476.38Q597.73 475.73 599.11 475.18Q600.49 474.63 601.14 473.99Q601.73 473.43 602.49 473.48Q603.25 473.53 605.05 474.58Q606.2 475.23 606.82 475.67Q607.44 476.1 607.58 476.49Q607.71 476.88 607.41 477.3Q607.12 477.71 606.43 478.31Q605.78 478.91 605.12 480.04Q604.45 481.16 603.94 482.73Q603.02 485.62 601.96 487.9Q600.91 490.18 599.66 492.16Q601.23 493.86 602.72 495.15Q604.22 496.43 605.87 497.45Q607.53 498.46 609.46 499.29Q611.39 500.11 613.88 500.9Q615.67 501.49 615.67 502.02Q615.67 502.55 614.11 502.74Q610.52 503.1 608.47 503.24Q606.43 503.38 605.25 503.15Q604.08 502.92 603.41 502.28Q602.75 501.63 601.87 500.44Q600.72 498.92 599.69 497.47Q598.65 496.02 597.78 494.82ZM581.91 485.95Q582.09 487.65 581.33 488.11Q580.57 488.57 579.33 487.74Q578.41 487.1 577.68 486.25Q576.94 485.39 575.97 483.88Q575.33 482.86 575.58 482.59Q575.84 482.31 577.31 482.45Q579.75 482.68 580.76 483.55Q581.77 484.43 581.91 485.95ZM585.45 476.19Q585.59 476.98 585.36 477.48Q585.13 477.99 584.74 478.24Q584.35 478.49 583.84 478.45Q583.33 478.4 582.87 478.13Q581.95 477.53 580.92 476.42Q579.88 475.32 579.19 474.26Q578.6 473.34 578.83 473.09Q579.06 472.84 580.76 472.93Q583.1 473.07 584.16 473.89Q585.22 474.72 585.45 476.19ZM653.58 488.48Q654.69 488.94 655.31 489.26Q655.93 489.58 656.18 489.9Q656.43 490.22 656.41 490.55Q656.39 490.87 656.25 491.33Q655.88 492.34 655.77 493.9Q655.65 495.47 655.74 497.12Q655.79 498 655.81 498.96Q655.84 499.93 655.86 500.8Q655.88 501.68 655.88 502.35Q655.88 503.01 655.88 503.24Q655.84 504.67 655.77 505.52Q655.7 506.37 655.56 507.47Q655.38 508.95 654.46 508.99Q653.54 509.04 652.62 507.57Q652.2 506.88 651.97 506.42Q651.74 505.96 651.72 505.47Q651.7 504.99 651.83 504.42Q651.97 503.84 652.29 502.92Q652.48 502.37 652.59 501.72Q652.71 501.08 652.75 500.09Q652.8 499.1 652.78 497.68Q652.75 496.25 652.71 494.13Q652.62 492.48 652.34 491.28Q652.06 490.09 651.7 489.72Q651.24 489.21 651.12 488.8Q651.01 488.38 651.24 488.18Q651.47 487.97 652.04 488.02Q652.62 488.06 653.58 488.48ZM648.38 492.66Q648.02 493.35 647.81 494.11Q647.6 494.87 647.46 495.61Q646.91 498.5 645.1 501.13Q643.28 503.75 640.15 505.5Q638.36 506.55 638.13 506.19Q637.9 505.82 639.41 504.3Q640.89 502.83 641.92 501.17Q642.96 499.52 643.74 497.08Q644.2 495.74 644.45 494.78Q644.7 493.81 644.77 493.14Q644.84 492.48 644.73 492.02Q644.61 491.56 644.34 491.19Q643.6 490.27 644.17 489.72Q644.75 489.17 646.5 489.9Q647.42 490.27 647.92 490.57Q648.43 490.87 648.61 491.17Q648.8 491.47 648.73 491.81Q648.66 492.16 648.38 492.66ZM647.42 472.65Q646.22 472.84 644.91 472.95Q643.6 473.07 642.27 473.16Q642.59 474.91 642.96 477Q643.32 479.09 643.65 480.89Q644.8 480.79 645.83 480.63Q646.87 480.47 648.06 480.24L648.11 477.67Q646.91 477.76 646.04 477.76Q645.16 477.76 644.75 477.57Q643.55 477.11 643.53 476.86Q643.51 476.61 644.8 476.38Q645.67 476.24 646.52 476.1Q647.37 475.96 648.15 475.83Q648.06 474.17 647.42 472.65ZM650.78 479.74Q652.66 479.37 653.54 479.37Q654.41 479.37 654.87 479.6Q655.56 479.97 655.93 479.78Q656.3 479.6 656.71 478.54Q657.72 475.96 658.18 472.79Q658.32 471.92 658.11 471.66Q657.91 471.41 657.08 471.46Q656.3 471.5 655.4 471.57Q654.5 471.64 653.61 471.73Q652.71 471.82 651.9 471.92Q651.1 472.01 650.55 472.1Q651.56 472.61 651.72 472.88Q651.88 473.16 651.6 473.62Q651.19 474.26 651.01 475.09Q652.48 474.68 653.33 474.61Q654.18 474.54 654.82 474.77Q655.79 475.09 655.84 475.69Q655.88 476.29 654.96 476.56Q654.09 476.84 653.03 477.05Q651.97 477.25 650.82 477.44ZM652.11 481.53Q654.13 483.23 655.95 484.54Q657.77 485.85 660.02 487.28Q660.76 487.79 661.93 488.34Q663.1 488.89 664.48 489.46Q665.86 490.04 667.36 490.55Q668.85 491.05 670.33 491.37Q672.35 491.88 672.37 492.45Q672.4 493.03 670.51 493.26Q667.52 493.63 665.79 493.79Q664.07 493.95 663.03 493.86Q662 493.77 661.42 493.38Q660.85 492.98 660.21 492.29Q659.56 491.65 658.25 490.29Q656.94 488.94 655.42 487.37Q653.9 485.81 652.43 484.27Q650.96 482.73 650.04 481.76Q649.4 481.85 648.71 481.94Q648.02 482.04 647.1 482.17Q648.75 483.28 648.89 483.83Q649.03 484.38 648.2 484.98Q647.69 485.35 647.1 485.92Q646.5 486.5 646.13 487Q643.65 490.32 640.47 492.5Q637.3 494.69 632.97 496.2Q631.23 496.85 631.02 496.39Q630.81 495.93 632.28 495.1Q633.71 494.32 635.21 493.26Q636.7 492.2 638.01 491.12Q639.32 490.04 640.31 489.12Q641.3 488.2 641.71 487.65Q643.23 485.72 643.92 484.52Q644.61 483.32 644.89 482.4Q644.61 482.45 644.34 482.47Q644.06 482.5 643.83 482.5Q643.78 483.19 643.49 483.44Q643.19 483.69 642.77 483.78Q642.27 483.88 641.71 483.09Q641.16 482.31 640.79 480.7Q640.01 477.53 639.35 475.73Q638.68 473.94 637.9 472.93Q637.39 472.24 637.23 471.73Q637.07 471.23 637.41 471.02Q637.76 470.81 638.63 470.93Q639.51 471.04 641.02 471.55Q643.51 471.36 646.04 471.06Q648.57 470.77 650.73 470.42Q652.89 470.08 654.43 469.75Q655.97 469.43 656.43 469.2Q657.17 468.88 657.68 468.72Q658.18 468.56 658.71 468.65Q659.24 468.74 659.91 469.09Q660.57 469.43 661.63 470.12Q662.78 470.86 663.4 471.36Q664.02 471.87 664.16 472.28Q664.3 472.7 664 473.09Q663.7 473.48 663.06 474.03Q662.41 474.54 661.7 475.67Q660.99 476.79 660.44 478.03Q660.07 478.91 659.68 479.57Q659.29 480.24 658.64 481.16Q657.72 482.59 656.96 482.68Q656.2 482.77 655.65 481.9Q655.47 481.67 655.28 481.53Q655.1 481.39 654.73 481.35Q654.36 481.3 653.74 481.35Q653.12 481.39 652.11 481.53Z" class="river" />
</svg>
