<?xml version="1.0" encoding="UTF-8"?>
<svg width="720" height="540" viewBox="0 0 720 540" fill="none" xmlns="http://www.w3.org/2000/svg">
  <defs>
    <filter id="shadow" x="-18%" y="-22%" width="136%" height="150%" color-interpolation-filters="sRGB">
      <feDropShadow dx="0" dy="24" stdDeviation="24" flood-color="#60411f" flood-opacity="0.34"/>
      <feDropShadow dx="0" dy="4" stdDeviation="6" flood-color="#5b3718" flood-opacity="0.18"/>
    </filter>
    <linearGradient id="paper" x1="360" y1="58" x2="360" y2="492" gradientUnits="userSpaceOnUse">
      <stop offset="0" stop-color="#fff5d5"/>
      <stop offset="0.48" stop-color="#f1d39a"/>
      <stop offset="1" stop-color="#c7924f"/>
    </linearGradient>
    <linearGradient id="paperEdge" x1="360" y1="66" x2="360" y2="490" gradientUnits="userSpaceOnUse">
      <stop offset="0" stop-color="#fdf1c7"/>
      <stop offset="1" stop-color="#8c5e30"/>
    </linearGradient>
    <linearGradient id="topPlate" x1="360" y1="52" x2="360" y2="154" gradientUnits="userSpaceOnUse">
      <stop offset="0" stop-color="#9e5c2b"/>
      <stop offset="1" stop-color="#5f341b"/>
    </linearGradient>
    <linearGradient id="gold" x1="360" y1="80" x2="360" y2="136" gradientUnits="userSpaceOnUse">
      <stop offset="0" stop-color="#fff0a8"/>
      <stop offset="0.48" stop-color="#e8b458"/>
      <stop offset="1" stop-color="#9d642b"/>
    </linearGradient>
    <linearGradient id="button" x1="360" y1="360" x2="360" y2="424" gradientUnits="userSpaceOnUse">
      <stop offset="0" stop-color="#4099ff"/>
      <stop offset="1" stop-color="#1674da"/>
    </linearGradient>
    <linearGradient id="redPiece" x1="0" y1="0" x2="0" y2="86" gradientUnits="userSpaceOnUse">
      <stop offset="0" stop-color="#ffe3a3"/>
      <stop offset="0.46" stop-color="#c9823c"/>
      <stop offset="1" stop-color="#7c3b1e"/>
    </linearGradient>
    <pattern id="grain" width="88" height="44" patternUnits="userSpaceOnUse">
      <path d="M2 25C18 15 34 16 52 24C65 30 77 28 87 19" stroke="#8f6638" stroke-width="2" opacity="0.12"/>
      <path d="M0 39C24 30 44 31 60 39C70 44 80 43 88 36" stroke="#fff1bd" stroke-width="2" opacity="0.12"/>
    </pattern>
  </defs>

  <g filter="url(#shadow)">
    <path d="M88 80C88 57.909 105.909 40 128 40H592C614.091 40 632 57.909 632 80V444C632 466.091 614.091 484 592 484H128C105.909 484 88 466.091 88 444V80Z" fill="url(#paperEdge)"/>
    <path d="M108 96C108 76.118 124.118 60 144 60H576C595.882 60 612 76.118 612 96V428C612 447.882 595.882 464 576 464H144C124.118 464 108 447.882 108 428V96Z" fill="url(#paper)"/>
    <path d="M108 96C108 76.118 124.118 60 144 60H576C595.882 60 612 76.118 612 96V428C612 447.882 595.882 464 576 464H144C124.118 464 108 447.882 108 428V96Z" fill="url(#grain)" opacity="0.85"/>
    <path d="M128 110C128 92.327 142.327 78 160 78H560C577.673 78 592 92.327 592 110V414C592 431.673 577.673 446 560 446H160C142.327 446 128 431.673 128 414V110Z" fill="#fff5d9" opacity="0.24"/>
    <path d="M128 110C128 92.327 142.327 78 160 78H560C577.673 78 592 92.327 592 110V414C592 431.673 577.673 446 560 446H160C142.327 446 128 431.673 128 414V110Z" stroke="#8d6033" stroke-width="4" opacity="0.32"/>

    <path d="M235 56C245 34 268 20 293 20H427C452 20 475 34 485 56L504 98H216L235 56Z" fill="url(#topPlate)"/>
    <path d="M250 64C257 49 272 40 289 40H431C448 40 463 49 470 64L479 85H241L250 64Z" fill="url(#gold)" opacity="0.94"/>

    <circle cx="122" cy="98" r="44" fill="url(#redPiece)"/>
    <circle cx="122" cy="98" r="34" fill="#f7d48e" opacity="0.9"/>
    <circle cx="122" cy="98" r="28" stroke="#8a4c25" stroke-width="4" opacity="0.42"/>
    <text x="122" y="113" text-anchor="middle" font-family="serif" font-size="42" font-weight="700" fill="#8a2e24">帥</text>

    <circle cx="598" cy="426" r="42" fill="url(#redPiece)"/>
    <circle cx="598" cy="426" r="32" fill="#f7d48e" opacity="0.9"/>
    <circle cx="598" cy="426" r="26" stroke="#8a4c25" stroke-width="4" opacity="0.42"/>
    <text x="598" y="440" text-anchor="middle" font-family="serif" font-size="39" font-weight="700" fill="#8a2e24">马</text>

    <text x="360" y="160" text-anchor="middle" font-family="-apple-system, BlinkMacSystemFont, 'PingFang SC', 'Microsoft YaHei', sans-serif" font-size="42" font-weight="800" fill="#3b2819">游戏登陆</text>
    <path d="M286 180H434" stroke="#9e6b35" stroke-width="4" stroke-linecap="round" opacity="0.42"/>

    <rect x="188" y="218" width="344" height="58" rx="13" fill="#fffaf0" stroke="#b8864b" stroke-width="3"/>
    <text x="218" y="255" font-family="-apple-system, BlinkMacSystemFont, 'PingFang SC', 'Microsoft YaHei', sans-serif" font-size="22" font-weight="600" fill="#8b5e35">账号</text>
    <text x="302" y="255" font-family="-apple-system, BlinkMacSystemFont, 'PingFang SC', 'Microsoft YaHei', sans-serif" font-size="22" fill="#b6a999">请输入账号</text>

    <rect x="188" y="300" width="344" height="58" rx="13" fill="#fffaf0" stroke="#b8864b" stroke-width="3"/>
    <text x="218" y="337" font-family="-apple-system, BlinkMacSystemFont, 'PingFang SC', 'Microsoft YaHei', sans-serif" font-size="22" font-weight="600" fill="#8b5e35">密码</text>
    <text x="302" y="337" font-family="-apple-system, BlinkMacSystemFont, 'PingFang SC', 'Microsoft YaHei', sans-serif" font-size="22" fill="#b6a999">请输入密码</text>

    <rect x="188" y="388" width="344" height="64" rx="14" fill="url(#button)"/>
    <path d="M205 403H515" stroke="#8fc6ff" stroke-width="3" stroke-linecap="round" opacity="0.45"/>
    <text x="360" y="430" text-anchor="middle" font-family="-apple-system, BlinkMacSystemFont, 'PingFang SC', 'Microsoft YaHei', sans-serif" font-size="25" font-weight="800" fill="white">登录</text>
  </g>
</svg>
