<?xml version="1.0" encoding="UTF-8"?>
<svg width="1080" height="1920" viewBox="0 0 1080 1920" fill="none" xmlns="http://www.w3.org/2000/svg">
  <defs>
    <linearGradient id="sky" x1="540" y1="0" x2="540" y2="610" gradientUnits="userSpaceOnUse">
      <stop offset="0" stop-color="#58d4f0"/>
      <stop offset="0.48" stop-color="#93e7ef"/>
      <stop offset="1" stop-color="#fff1bd"/>
    </linearGradient>
    <linearGradient id="sea" x1="540" y1="238" x2="540" y2="560" gradientUnits="userSpaceOnUse">
      <stop offset="0" stop-color="#147db7"/>
      <stop offset="0.45" stop-color="#22bfd5"/>
      <stop offset="1" stop-color="#a6ead2"/>
    </linearGradient>
    <linearGradient id="sand" x1="540" y1="500" x2="540" y2="1920" gradientUnits="userSpaceOnUse">
      <stop offset="0" stop-color="#ffe9a8"/>
      <stop offset="0.45" stop-color="#eec46a"/>
      <stop offset="1" stop-color="#bd8740"/>
    </linearGradient>
    <linearGradient id="palmLeaf" x1="40" y1="0" x2="320" y2="290" gradientUnits="userSpaceOnUse">
      <stop offset="0" stop-color="#8ad64c"/>
      <stop offset="1" stop-color="#2e6f41"/>
    </linearGradient>
    <radialGradient id="sunGlow" cx="0" cy="0" r="1" gradientUnits="userSpaceOnUse" gradientTransform="translate(748 170) rotate(90) scale(230 330)">
      <stop offset="0" stop-color="#ffffff" stop-opacity="0.76"/>
      <stop offset="0.42" stop-color="#fff2a6" stop-opacity="0.34"/>
      <stop offset="1" stop-color="#fff2a6" stop-opacity="0"/>
    </radialGradient>
    <radialGradient id="loginGlow" cx="0" cy="0" r="1" gradientUnits="userSpaceOnUse" gradientTransform="translate(540 765) rotate(90) scale(470 390)">
      <stop offset="0" stop-color="#fff8da" stop-opacity="0.88"/>
      <stop offset="0.62" stop-color="#fff2be" stop-opacity="0.2"/>
      <stop offset="1" stop-color="#fff2be" stop-opacity="0"/>
    </radialGradient>
    <filter id="softShadow" x="-30%" y="-30%" width="160%" height="180%" color-interpolation-filters="sRGB">
      <feDropShadow dx="0" dy="18" stdDeviation="20" flood-color="#7a5227" flood-opacity="0.28"/>
    </filter>
    <filter id="haze" x="-40%" y="-40%" width="180%" height="180%">
      <feGaussianBlur stdDeviation="10"/>
    </filter>
  </defs>

  <rect width="1080" height="1920" fill="url(#sand)"/>
  <rect width="1080" height="610" fill="url(#sky)"/>
  <rect y="240" width="1080" height="330" fill="url(#sea)"/>
  <rect width="1080" height="610" fill="url(#sunGlow)"/>

  <path d="M0 288C126 260 243 270 350 320C467 374 579 370 687 308C811 238 942 238 1080 288V560H0V288Z" fill="#0b719d" opacity="0.2"/>
  <path d="M0 474C150 432 294 440 431 498C553 549 667 550 773 501C883 450 985 441 1080 472V706H0V474Z" fill="#fff0ac"/>
  <path d="M0 610C138 560 267 574 386 651C506 728 630 729 758 654C866 590 974 577 1080 616V1920H0V610Z" fill="url(#sand)"/>

  <path d="M190 395C282 430 384 432 496 402" stroke="#d9fff5" stroke-width="11" stroke-linecap="round" opacity="0.46"/>
  <path d="M560 376C652 408 750 406 856 370" stroke="#d9fff5" stroke-width="10" stroke-linecap="round" opacity="0.42"/>
  <path d="M65 535C186 500 307 511 427 567C535 617 648 616 767 565C866 523 960 517 1048 547" stroke="#fff5c8" stroke-width="22" stroke-linecap="round" opacity="0.34"/>
  <path d="M112 844C234 791 358 798 484 866C610 935 731 943 846 890" stroke="#f8de94" stroke-width="28" stroke-linecap="round" opacity="0.2"/>
  <path d="M72 1436C198 1372 327 1380 459 1460C587 1538 722 1545 864 1480" stroke="#f6e6aa" stroke-width="26" stroke-linecap="round" opacity="0.17"/>

  <rect width="1080" height="1920" fill="url(#loginGlow)"/>

  <g transform="translate(-42 18)" filter="url(#softShadow)">
    <path d="M124 101C184 44 270 34 362 72L344 338C250 374 171 356 105 284L124 101Z" fill="#b97939"/>
    <path d="M159 116C217 76 280 69 343 94L330 300C265 326 208 312 160 256L159 116Z" fill="#d49b4d"/>
    <path d="M158 117C222 168 282 205 339 229" stroke="#8a562b" stroke-width="14" opacity="0.35"/>
    <path d="M197 81C211 155 214 230 206 306" stroke="#8e5b2f" stroke-width="12" opacity="0.34"/>
    <path d="M269 70C265 152 258 231 246 307" stroke="#8e5b2f" stroke-width="12" opacity="0.27"/>
    <path d="M20 104C117 12 230 5 359 84C275 100 207 145 155 219C119 168 74 130 20 104Z" fill="url(#palmLeaf)"/>
    <path d="M158 12C250 38 322 99 374 196C294 154 221 145 154 170C163 109 165 56 158 12Z" fill="#6eae3e"/>
    <path d="M293 0C373 32 424 91 446 178C383 146 328 142 282 166C295 106 299 51 293 0Z" fill="#51953a"/>
    <path d="M0 176C68 114 148 94 240 117C173 152 127 207 101 283C70 225 37 190 0 176Z" fill="#7dc548"/>
  </g>

  <g transform="translate(748 310)" opacity="0.92" filter="url(#softShadow)">
    <path d="M20 64C53 15 111 6 158 43C104 48 72 71 61 111C45 95 31 79 20 64Z" fill="#806032"/>
    <path d="M54 62L178 82L149 155L26 132L54 62Z" fill="#bb8849"/>
    <path d="M74 83L128 94" stroke="#775233" stroke-width="13" stroke-linecap="round" opacity="0.46"/>
    <path d="M66 120L125 131" stroke="#775233" stroke-width="13" stroke-linecap="round" opacity="0.38"/>
    <path d="M95 104C116 111 130 126 138 153" stroke="#fff1bd" stroke-width="7" opacity="0.36"/>
  </g>

  <g transform="translate(72 885) rotate(-5 470 520)" opacity="0.74" filter="url(#softShadow)">
    <image href="../xiangqi-board-wood.svg" x="0" y="0" width="936" height="1028" preserveAspectRatio="xMidYMid meet"/>
    <rect x="76" y="92" width="784" height="846" rx="42" fill="#6c3e24" opacity="0.1"/>
  </g>

  <g opacity="0.9" filter="url(#softShadow)">
    <image href="../pieces-wood/red-shuai.svg" x="702" y="1012" width="160" height="160" transform="rotate(9 782 1092)"/>
    <image href="../pieces-wood/black-jiang.svg" x="150" y="1216" width="142" height="142" transform="rotate(-13 221 1287)"/>
    <image href="../pieces-wood/red-ma.svg" x="785" y="1460" width="126" height="126" transform="rotate(-12 848 1523)"/>
    <image href="../pieces-wood/black-ju.svg" x="154" y="1596" width="134" height="134" transform="rotate(16 221 1663)"/>
  </g>

  <g opacity="0.86">
    <path d="M842 650C886 618 954 630 985 681C930 698 881 688 842 650Z" fill="#edf2d2"/>
    <path d="M869 649C901 637 933 643 964 666" stroke="#b2bf8d" stroke-width="9" stroke-linecap="round"/>
    <path d="M83 1687L177 1638L281 1693L183 1749L83 1687Z" fill="#eee4b7"/>
    <path d="M138 1662L184 1748" stroke="#d1c684" stroke-width="7"/>
    <path d="M177 1639L184 1748" stroke="#d1c684" stroke-width="7"/>
    <path d="M280 1694L184 1748" stroke="#d1c684" stroke-width="7"/>
    <path d="M835 1768L902 1718L983 1769L912 1816L835 1768Z" fill="#efe7bb"/>
    <path d="M879 1735L912 1816" stroke="#d1c684" stroke-width="6"/>
    <path d="M983 1770L912 1816" stroke="#d1c684" stroke-width="6"/>
  </g>

  <ellipse cx="782" cy="122" rx="120" ry="28" fill="#ffffff" opacity="0.26" filter="url(#haze)"/>
  <ellipse cx="650" cy="96" rx="68" ry="18" fill="#ffffff" opacity="0.2" filter="url(#haze)"/>
  <ellipse cx="915" cy="180" rx="44" ry="12" fill="#ffffff" opacity="0.28"/>

  <rect width="1080" height="1920" fill="#ffffff" opacity="0.025"/>
  <rect width="1080" height="1920" fill="#5a3219" opacity="0.06"/>
</svg>
