<?xml version="1.0" encoding="UTF-8"?>
<svg width="720" height="1280" viewBox="0 0 720 1280" fill="none" xmlns="http://www.w3.org/2000/svg">
  <defs>
    <linearGradient id="sky" x1="360" y1="0" x2="360" y2="310" gradientUnits="userSpaceOnUse">
      <stop offset="0" stop-color="#5fd7ee"/>
      <stop offset="0.58" stop-color="#91e7ef"/>
      <stop offset="1" stop-color="#d8f4e5"/>
    </linearGradient>
    <linearGradient id="sea" x1="360" y1="148" x2="360" y2="330" gradientUnits="userSpaceOnUse">
      <stop offset="0" stop-color="#2aaed3"/>
      <stop offset="0.52" stop-color="#2fc7d8"/>
      <stop offset="1" stop-color="#91e4d6"/>
    </linearGradient>
    <linearGradient id="sand" x1="360" y1="245" x2="360" y2="1280" gradientUnits="userSpaceOnUse">
      <stop offset="0" stop-color="#f8e49f"/>
      <stop offset="0.42" stop-color="#efc96d"/>
      <stop offset="1" stop-color="#dcae54"/>
    </linearGradient>
    <radialGradient id="sunGlow" cx="0" cy="0" r="1" gradientUnits="userSpaceOnUse" gradientTransform="translate(395 112) rotate(90) scale(152 238)">
      <stop offset="0" stop-color="#ffffff" stop-opacity="0.54"/>
      <stop offset="0.52" stop-color="#fff4bf" stop-opacity="0.22"/>
      <stop offset="1" stop-color="#fff4bf" stop-opacity="0"/>
    </radialGradient>
    <linearGradient id="palmLeaf" x1="48" y1="48" x2="232" y2="146" gradientUnits="userSpaceOnUse">
      <stop offset="0" stop-color="#7cc43e"/>
      <stop offset="1" stop-color="#336f35"/>
    </linearGradient>
    <linearGradient id="grass" x1="96" y1="664" x2="354" y2="1050" gradientUnits="userSpaceOnUse">
      <stop offset="0" stop-color="#8cb84d"/>
      <stop offset="1" stop-color="#657e2f"/>
    </linearGradient>
    <filter id="softShadow" x="-20%" y="-20%" width="140%" height="160%" color-interpolation-filters="sRGB">
      <feDropShadow dx="0" dy="12" stdDeviation="14" flood-color="#8d6a2f" flood-opacity="0.24"/>
    </filter>
    <filter id="blurCloud" x="-30%" y="-30%" width="160%" height="160%">
      <feGaussianBlur stdDeviation="8"/>
    </filter>
  </defs>

  <rect width="720" height="1280" fill="url(#sand)"/>
  <rect width="720" height="300" fill="url(#sky)"/>
  <rect y="116" width="720" height="188" fill="url(#sea)"/>
  <rect width="720" height="300" fill="url(#sunGlow)"/>

  <path d="M368 126C421 69 480 58 550 133C500 119 454 139 410 181C392 163 379 145 368 126Z" fill="#5c9a83" opacity="0.58"/>
  <path d="M468 118C535 54 606 51 691 145C621 129 574 158 525 206C505 176 487 145 468 118Z" fill="#3f7469" opacity="0.52"/>
  <path d="M0 148C86 132 161 138 229 172C294 205 354 203 414 174C515 126 619 141 720 163V282H0V148Z" fill="#1f8db0" opacity="0.24"/>

  <path d="M0 274C110 255 204 253 284 280C367 308 452 307 538 276C600 253 660 250 720 262V405H0V274Z" fill="#f8e49f"/>
  <path d="M0 344C92 322 176 329 253 366C320 398 390 402 464 378C550 350 634 345 720 364V1280H0V344Z" fill="url(#sand)"/>

  <path d="M38 653C100 635 161 647 221 690C267 724 320 733 380 717C345 767 310 813 275 854C224 913 155 918 68 870C72 791 62 720 38 653Z" fill="url(#grass)" opacity="0.8"/>
  <path d="M0 827C60 787 126 778 197 801C260 822 324 818 389 789C344 883 279 949 194 985C130 1012 65 1006 0 966V827Z" fill="#758f3c" opacity="0.6"/>
  <path d="M576 1187C625 1168 673 1171 720 1196V1280H548C557 1245 566 1214 576 1187Z" fill="#748c3a" opacity="0.62"/>

  <path d="M151 450C204 421 276 419 366 446C455 473 524 469 573 434" stroke="#d6aa50" stroke-width="24" stroke-linecap="round" opacity="0.22"/>
  <path d="M102 560C176 531 253 532 334 563C420 596 504 596 586 564" stroke="#ffeeb8" stroke-width="16" stroke-linecap="round" opacity="0.22"/>
  <path d="M126 675C207 651 280 656 346 688C431 730 509 738 579 714" stroke="#d9a650" stroke-width="18" stroke-linecap="round" opacity="0.2"/>
  <path d="M100 985C186 948 266 954 340 1003C408 1048 476 1059 544 1037" stroke="#f6dd95" stroke-width="18" stroke-linecap="round" opacity="0.2"/>

  <g filter="url(#softShadow)">
    <path d="M63 84C109 35 171 27 236 60L229 223C166 242 111 231 64 190L63 84Z" fill="#b87d3a"/>
    <path d="M87 94C126 62 171 56 222 76L217 201C171 217 129 209 90 177L87 94Z" fill="#cf974c"/>
    <path d="M86 94C128 128 172 152 219 166" stroke="#8e5b2f" stroke-width="9" opacity="0.45"/>
    <path d="M112 70C124 116 128 163 123 210" stroke="#9b6530" stroke-width="8" opacity="0.35"/>
    <path d="M157 59C157 110 154 160 148 210" stroke="#9b6530" stroke-width="8" opacity="0.3"/>
    <path d="M204 68C190 116 184 161 186 203" stroke="#9b6530" stroke-width="8" opacity="0.32"/>
    <path d="M32 54C92 -8 165 -13 250 38C195 50 150 80 114 130C91 96 64 71 32 54Z" fill="url(#palmLeaf)"/>
    <path d="M114 2C174 18 222 58 257 123C205 97 157 91 113 105C116 65 116 31 114 2Z" fill="#6ead38"/>
    <path d="M198 0C251 20 284 57 298 111C258 91 222 88 190 101C199 65 202 31 198 0Z" fill="#5a9a35"/>
    <path d="M0 92C43 57 96 46 157 60C113 83 82 119 65 167C45 130 23 105 0 92Z" fill="#76b942"/>
  </g>

  <g filter="url(#softShadow)" opacity="0.96">
    <path d="M538 192C558 159 598 155 629 181C594 183 574 197 565 223C555 214 546 204 538 192Z" fill="#876334"/>
    <path d="M560 194L639 204L620 252L542 240L560 194Z" fill="#bc8746"/>
    <path d="M574 206L608 211" stroke="#79522f" stroke-width="9" stroke-linecap="round" opacity="0.5"/>
    <path d="M570 228L607 234" stroke="#79522f" stroke-width="9" stroke-linecap="round" opacity="0.42"/>
    <path d="M585 219C598 222 607 232 613 249" stroke="#fff0bc" stroke-width="5" opacity="0.42"/>
  </g>

  <g opacity="0.95">
    <path d="M604 244C627 226 663 233 680 259C645 267 620 262 604 244Z" fill="#eef3d8"/>
    <circle cx="630" cy="248" r="8" fill="#a8b565"/>
    <circle cx="655" cy="250" r="7" fill="#a8b565"/>
    <path d="M640 300C668 276 708 286 720 322C687 335 661 328 640 300Z" fill="#eef3d8"/>
    <circle cx="669" cy="303" r="9" fill="#a8b565"/>
    <circle cx="696" cy="310" r="8" fill="#a8b565"/>
  </g>

  <g opacity="0.86">
    <path d="M553 908C582 886 628 893 647 926C610 939 579 933 553 908Z" fill="#dfe8cf"/>
    <path d="M571 908C592 900 613 903 633 918" stroke="#b5c49a" stroke-width="6" stroke-linecap="round"/>
    <path d="M501 1120L565 1086L634 1124L569 1161L501 1120Z" fill="#efe6b9"/>
    <path d="M538 1104L569 1160" stroke="#d3c886" stroke-width="5"/>
    <path d="M566 1087L569 1160" stroke="#d3c886" stroke-width="5"/>
    <path d="M632 1124L569 1160" stroke="#d3c886" stroke-width="5"/>
    <path d="M387 1190L432 1156L486 1190L438 1222L387 1190Z" fill="#efe6b9"/>
    <path d="M417 1168L438 1222" stroke="#d3c886" stroke-width="4"/>
    <path d="M485 1191L438 1222" stroke="#d3c886" stroke-width="4"/>
  </g>

  <ellipse cx="546" cy="84" rx="70" ry="18" fill="#ffffff" opacity="0.22" filter="url(#blurCloud)"/>
  <ellipse cx="470" cy="66" rx="40" ry="12" fill="#ffffff" opacity="0.18" filter="url(#blurCloud)"/>
  <ellipse cx="390" cy="58" rx="18" ry="8" fill="#ffffff" opacity="0.24"/>
  <ellipse cx="510" cy="216" rx="80" ry="10" fill="#efffff" opacity="0.25"/>
  <path d="M286 246C329 262 375 263 424 248" stroke="#d7fff2" stroke-width="7" stroke-linecap="round" opacity="0.45"/>
  <path d="M458 236C494 248 535 248 581 236" stroke="#d7fff2" stroke-width="6" stroke-linecap="round" opacity="0.4"/>

  <rect width="720" height="1280" fill="url(#sunGlow)" opacity="0.35"/>
  <rect width="720" height="1280" fill="#ffffff" opacity="0.02"/>
</svg>
