<?xml version="1.0" encoding="UTF-8"?>
<svg xmlns="http://www.w3.org/2000/svg" shape-rendering="geometricPrecision" text-rendering="geometricPrecision" viewBox="-18 -18 256 256" role="img" aria-labelledby="title desc">
  <title id="title">黑方車棋子</title>
  <desc id="desc">浅木立体象棋棋子，繁体字，带柔和投影。</desc>
  <defs>
    <filter id="black-ju-shadow" x="-20%" y="-20%" width="145%" height="145%" color-interpolation-filters="sRGB">
      <feDropShadow dx="7" dy="9" stdDeviation="5" flood-color="#2a1608" flood-opacity="0.42" />
    </filter>
    <radialGradient id="black-ju-body" cx="34%" cy="24%" r="78%">
      <stop offset="0" stop-color="#ffe8b9" />
      <stop offset="0.42" stop-color="#d99b55" />
      <stop offset="0.76" stop-color="#a7632c" />
      <stop offset="1" stop-color="#6b3819" />
    </radialGradient>
    <radialGradient id="black-ju-face" cx="37%" cy="26%" r="72%">
      <stop offset="0" stop-color="#fff0ca" />
      <stop offset="0.5" stop-color="#e0ad68" />
      <stop offset="1" stop-color="#9a5824" />
    </radialGradient>
    <linearGradient id="black-ju-rim-light" x1="0" y1="0" x2="0" y2="1">
      <stop offset="0" stop-color="#ffe6ae" stop-opacity="0.92" />
      <stop offset="0.55" stop-color="#c9853e" stop-opacity="0.35" />
      <stop offset="1" stop-color="#5d2f14" stop-opacity="0.78" />
    </linearGradient>
    <pattern id="black-ju-grain" width="96" height="30" patternUnits="userSpaceOnUse" patternTransform="rotate(-12)">
      <path d="M -20 13 C 12 4, 46 25, 82 12 C 104 4, 124 7, 142 18" fill="none" stroke="#fff2c7" stroke-width="1.5" stroke-opacity="0.18" />
      <path d="M -12 25 C 24 13, 59 35, 105 21" fill="none" stroke="#6c3718" stroke-width="1.4" stroke-opacity="0.13" />
    </pattern>
  </defs>

  <circle cx="110" cy="110" r="110" fill="url(#black-ju-body)" filter="url(#black-ju-shadow)" />
  <circle cx="110" cy="110" r="108" fill="none" stroke="#4d2811" stroke-width="2.2" stroke-opacity="0.55" />
  <circle cx="110" cy="110" r="101" fill="none" stroke="#ffdda0" stroke-width="3.2" stroke-opacity="0.58" />
  <circle cx="110" cy="110" r="93" fill="url(#black-ju-face)" />
  <circle cx="110" cy="110" r="93" fill="url(#black-ju-grain)" opacity="0.9" />
  <circle cx="110" cy="110" r="82" fill="none" stroke="#6d3a19" stroke-width="6.5" stroke-opacity="0.88" />
  <circle cx="110" cy="110" r="72" fill="none" stroke="#ffe2a8" stroke-width="2" stroke-opacity="0.45" />
  <path d="M 28 96 C 33 52, 65 24, 111 20 C 73 35, 51 65, 49 101 C 47 133, 61 161, 87 178 C 49 163, 25 132, 28 96 Z" fill="#fff1c5" opacity="0.22" />
  <path d="M 164 23 C 195 48, 211 86, 207 124 C 203 163, 175 195, 137 207 C 169 184, 188 152, 185 116 C 183 78, 174 47, 164 23 Z" fill="#4a250f" opacity="0.2" />

  <path d="M116.1 64.5Q115.49 65.96 115 68.22Q114.51 70.47 114.27 74.13Q119.88 72.91 124.64 71.45Q127.93 70.47 130.01 70.54Q132.08 70.6 134.03 71.45Q137.69 73.16 137.45 75.05Q137.21 76.94 132.81 77.67Q131.59 78.04 129.4 78.4Q127.2 78.77 124.58 79.14Q121.96 79.5 119.15 79.93Q116.34 80.36 114.15 80.72L114.15 88.9Q119.15 87.92 123.11 87.07Q127.08 86.21 128.54 85.6Q129.89 85.11 130.92 84.93Q131.96 84.75 133.18 84.99Q134.4 85.24 135.99 85.97Q137.57 86.7 139.77 87.92Q145.26 90.97 145.87 92.86Q146.48 94.75 143.55 97.07Q142.33 98.05 140.99 100.91Q139.65 103.78 137.82 109.39Q136.47 113.17 135.44 115.37Q134.4 117.57 133.55 118.79Q131.59 121.71 129.82 121.65Q128.06 121.59 126.84 119.03Q126.59 118.54 125.98 118.3Q125.37 118.05 123.97 117.99Q122.57 117.93 120.19 118.12Q117.81 118.3 114.03 118.79L114.03 127.94Q114.64 127.81 115.31 127.75Q115.98 127.69 116.59 127.57Q119.88 127.2 123.48 126.72Q127.08 126.23 130.31 125.8Q133.55 125.38 135.93 124.95Q138.3 124.52 139.4 124.28Q142.82 123.42 145.2 123.18Q147.58 122.94 149.47 123.18Q151.36 123.42 152.94 124.28Q154.53 125.13 156.36 126.35Q161.12 129.89 160.2 132.21Q159.29 134.52 152.94 133.67Q148.19 133.06 144.28 132.63Q140.38 132.21 136.11 132.21Q131.84 132.21 126.59 132.57Q121.35 132.94 114.03 133.55L114.03 137.09Q114.03 141.84 113.78 146.66Q113.54 151.48 113.17 155.75Q112.81 160.02 112.26 163.38Q111.71 166.73 111.22 168.44Q110 172.83 109.27 172.83Q108.54 172.83 107.44 169.05Q107.07 167.83 106.89 166.92Q106.71 166 106.58 165.02Q106.46 164.05 106.4 162.95Q106.34 161.85 106.22 160.14Q105.97 156.85 105.91 153.92Q105.85 151 105.73 147.88Q105.61 144.77 105.61 141.48L105.61 134.28Q94.75 135.26 87.8 136.6Q80.84 137.94 75.47 139.28Q73.16 139.89 71.63 140.2Q70.11 140.5 68.7 140.32Q67.3 140.14 65.84 139.41Q64.37 138.67 62.42 137.21Q59.13 134.77 59.25 134.04Q59.37 133.31 62.91 133.43Q64.49 133.43 67.85 133.24Q71.2 133.06 75.17 132.76Q79.13 132.45 83.22 132.02Q87.31 131.6 90.48 131.23Q93.65 130.74 97.62 130.25Q101.58 129.77 105.61 129.16L105.61 120.01Q101.95 120.49 99.08 120.92Q96.21 121.35 93.65 121.71Q93.41 124.28 92.25 124.7Q91.09 125.13 89.38 124.16Q88.04 123.3 86.82 120.62Q85.6 117.93 84.38 112.69Q83.04 106.59 81.63 102.93Q80.23 99.27 78.4 97.07Q77.06 95.48 76.69 94.26Q76.33 93.04 77.24 92.5Q78.16 91.95 80.48 92.07Q82.79 92.19 86.82 93.04Q90.72 92.68 95.54 92.01Q100.36 91.34 105.24 90.6Q105.24 88.16 105.18 86.09Q105.12 84.02 105.12 82.31Q97.07 83.28 92.49 83.04Q87.92 82.8 85.36 81.7Q79.26 79.38 85.48 78.89Q89.5 78.65 94.44 77.86Q99.39 77.06 104.88 76.09Q104.63 72.43 104.39 69.99Q104.14 67.55 103.66 65.9Q103.17 64.25 102.5 63.22Q101.83 62.18 100.97 61.08Q97.31 57.54 98.9 55.9Q100.48 54.25 108.17 56.32Q111.71 57.42 113.72 58.15Q115.73 58.88 116.59 59.74Q117.44 60.59 117.2 61.75Q116.95 62.91 116.1 64.5ZM123.3 104.76Q122.93 105 121.22 105.43Q119.52 105.85 114.03 106.71L114.03 114.27Q118.78 113.66 121.28 113.42Q123.79 113.17 124.88 113.3Q126.35 113.54 126.9 113.3Q127.45 113.05 127.93 111.59Q129.4 106.71 130.07 103.6Q130.74 100.49 131.11 96.95Q131.35 94.02 130.62 93.04Q129.89 92.07 127.57 92.19Q125.13 92.31 121.47 92.56Q117.81 92.8 114.15 93.29Q114.15 95.12 114.09 96.83Q114.03 98.53 114.03 100.36Q117.08 99.51 118.91 99.51Q120.74 99.51 122.57 99.75Q125.74 100.36 125.8 101.77Q125.86 103.17 123.3 104.76ZM105.36 94.51Q102.8 95 100.91 95.24Q99.02 95.48 97.37 95.79Q95.73 96.09 93.96 96.4Q92.19 96.7 90.11 97.07Q90.85 102.19 91.7 107.38Q92.55 112.56 93.29 117.32Q96.95 116.71 99.94 116.35Q102.92 115.98 105.61 115.49L105.61 108.17Q101.58 108.66 99.63 108.36Q97.68 108.05 96.58 107.44Q92.19 104.76 97.07 104.27Q101.58 103.9 105.49 102.93L105.49 98.9Q105.49 96.83 105.36 94.51Z" fill="#0f191a" stroke="#f8d99b" stroke-width="1.2" stroke-opacity="0.24" paint-order="stroke fill" />
  <path d="M116.1 60.5Q115.49 61.96 115 64.22Q114.51 66.47 114.27 70.13Q119.88 68.91 124.64 67.45Q127.93 66.47 130.01 66.54Q132.08 66.6 134.03 67.45Q137.69 69.16 137.45 71.05Q137.21 72.94 132.81 73.67Q131.59 74.04 129.4 74.4Q127.2 74.77 124.58 75.14Q121.96 75.5 119.15 75.93Q116.34 76.36 114.15 76.72L114.15 84.9Q119.15 83.92 123.11 83.07Q127.08 82.21 128.54 81.6Q129.89 81.11 130.92 80.93Q131.96 80.75 133.18 80.99Q134.4 81.24 135.99 81.97Q137.57 82.7 139.77 83.92Q145.26 86.97 145.87 88.86Q146.48 90.75 143.55 93.07Q142.33 94.05 140.99 96.91Q139.65 99.78 137.82 105.39Q136.47 109.17 135.44 111.37Q134.4 113.57 133.55 114.79Q131.59 117.71 129.82 117.65Q128.06 117.59 126.84 115.03Q126.59 114.54 125.98 114.3Q125.37 114.05 123.97 113.99Q122.57 113.93 120.19 114.12Q117.81 114.3 114.03 114.79L114.03 123.94Q114.64 123.81 115.31 123.75Q115.98 123.69 116.59 123.57Q119.88 123.2 123.48 122.72Q127.08 122.23 130.31 121.8Q133.55 121.38 135.93 120.95Q138.3 120.52 139.4 120.28Q142.82 119.42 145.2 119.18Q147.58 118.93 149.47 119.18Q151.36 119.42 152.94 120.28Q154.53 121.13 156.36 122.35Q161.12 125.89 160.2 128.21Q159.29 130.52 152.94 129.67Q148.19 129.06 144.28 128.63Q140.38 128.21 136.11 128.21Q131.84 128.21 126.59 128.57Q121.35 128.94 114.03 129.55L114.03 133.09Q114.03 137.84 113.78 142.66Q113.54 147.48 113.17 151.75Q112.81 156.02 112.26 159.38Q111.71 162.73 111.22 164.44Q110 168.83 109.27 168.83Q108.54 168.83 107.44 165.05Q107.07 163.83 106.89 162.92Q106.71 162 106.58 161.02Q106.46 160.05 106.4 158.95Q106.34 157.85 106.22 156.14Q105.97 152.85 105.91 149.92Q105.85 147 105.73 143.88Q105.61 140.77 105.61 137.48L105.61 130.28Q94.75 131.26 87.8 132.6Q80.84 133.94 75.47 135.28Q73.16 135.89 71.63 136.2Q70.11 136.5 68.7 136.32Q67.3 136.14 65.84 135.41Q64.37 134.67 62.42 133.21Q59.13 130.77 59.25 130.04Q59.37 129.31 62.91 129.43Q64.49 129.43 67.85 129.24Q71.2 129.06 75.17 128.76Q79.13 128.45 83.22 128.02Q87.31 127.6 90.48 127.23Q93.65 126.74 97.62 126.25Q101.58 125.77 105.61 125.16L105.61 116.01Q101.95 116.49 99.08 116.92Q96.21 117.35 93.65 117.71Q93.41 120.28 92.25 120.7Q91.09 121.13 89.38 120.15Q88.04 119.3 86.82 116.62Q85.6 113.93 84.38 108.69Q83.04 102.59 81.63 98.93Q80.23 95.27 78.4 93.07Q77.06 91.48 76.69 90.26Q76.33 89.04 77.24 88.5Q78.16 87.95 80.48 88.07Q82.79 88.19 86.82 89.04Q90.72 88.68 95.54 88.01Q100.36 87.34 105.24 86.6Q105.24 84.16 105.18 82.09Q105.12 80.02 105.12 78.31Q97.07 79.28 92.49 79.04Q87.92 78.8 85.36 77.7Q79.26 75.38 85.48 74.89Q89.5 74.65 94.44 73.86Q99.39 73.06 104.88 72.09Q104.63 68.43 104.39 65.99Q104.14 63.55 103.66 61.9Q103.17 60.25 102.5 59.22Q101.83 58.18 100.97 57.08Q97.31 53.54 98.9 51.9Q100.48 50.25 108.17 52.32Q111.71 53.42 113.72 54.15Q115.73 54.88 116.59 55.74Q117.44 56.59 117.2 57.75Q116.95 58.91 116.1 60.5ZM123.3 100.76Q122.93 101 121.22 101.43Q119.52 101.85 114.03 102.71L114.03 110.27Q118.78 109.66 121.28 109.42Q123.79 109.17 124.88 109.3Q126.35 109.54 126.9 109.3Q127.45 109.05 127.93 107.59Q129.4 102.71 130.07 99.6Q130.74 96.49 131.11 92.95Q131.35 90.02 130.62 89.04Q129.89 88.07 127.57 88.19Q125.13 88.31 121.47 88.56Q117.81 88.8 114.15 89.29Q114.15 91.12 114.09 92.83Q114.03 94.53 114.03 96.36Q117.08 95.51 118.91 95.51Q120.74 95.51 122.57 95.75Q125.74 96.36 125.8 97.77Q125.86 99.17 123.3 100.76ZM105.36 90.51Q102.8 91 100.91 91.24Q99.02 91.48 97.37 91.79Q95.73 92.09 93.96 92.4Q92.19 92.7 90.11 93.07Q90.85 98.19 91.7 103.38Q92.55 108.56 93.29 113.32Q96.95 112.71 99.94 112.35Q102.92 111.98 105.61 111.49L105.61 104.17Q101.58 104.66 99.63 104.36Q97.68 104.05 96.58 103.44Q92.19 100.76 97.07 100.27Q101.58 99.9 105.49 98.93L105.49 94.9Q105.49 92.83 105.36 90.51Z" fill="#1f2f31" />
</svg>
