<?xml version="1.0" encoding="UTF-8"?>
<svg xmlns="http://www.w3.org/2000/svg" shape-rendering="geometricPrecision" viewBox="-6 -6 232 232" role="img" aria-labelledby="title desc">
  <title id="title">黑炮棋子</title>
  <desc id="desc">透明背景、紧贴圆形边界的黑炮实体木质象棋棋子，字形已转路径并按真实包围盒居中。</desc>
  <defs>
    <radialGradient id="black-pao-body" cx="34%" cy="22%" r="80%">
      <stop offset="0" stop-color="#8b735f" />
      <stop offset="0.34" stop-color="#4b3a31" />
      <stop offset="0.74" stop-color="#261e1a" />
      <stop offset="1" stop-color="#0b0807" />
    </radialGradient>
    <radialGradient id="black-pao-face" cx="37%" cy="28%" r="76%">
      <stop offset="0" stop-color="#8b735f" stop-opacity="0.7" />
      <stop offset="0.36" stop-color="#382c25" />
      <stop offset="0.84" stop-color="#15100e" />
      <stop offset="1" stop-color="#050403" />
    </radialGradient>
    <linearGradient id="black-pao-glyph-floor" x1="0" y1="0" x2="0" y2="1">
      <stop offset="0" stop-color="#030201" />
      <stop offset="0.24" stop-color="#c9bea8" />
      <stop offset="0.72" stop-color="#f1e7d2" />
      <stop offset="1" stop-color="#fffdf1" />
    </linearGradient>
    <pattern id="black-pao-grain" width="118" height="34" patternUnits="userSpaceOnUse" patternTransform="rotate(-13)">
      <path d="M -28 16 C 10 4, 50 31, 91 13 C 113 4, 137 8, 156 21" fill="none" stroke="#b8a78e" stroke-width="1.9" stroke-opacity="0.12" />
      <path d="M -14 29 C 28 15, 68 43, 124 24" fill="none" stroke="#030201" stroke-width="1.5" stroke-opacity="0.16" />
    </pattern>
  </defs>
  <circle cx="110" cy="110" r="106" fill="url(#black-pao-body)" />
  <circle cx="110" cy="110" r="103" fill="none" stroke="#8b735f" stroke-width="2.4" stroke-opacity="0.34" />
  <circle cx="110" cy="110" r="96" fill="none" stroke="#050302" stroke-width="4.4" stroke-opacity="0.58" />
  <circle cx="110" cy="110" r="89" fill="url(#black-pao-face)" />
  <circle cx="110" cy="110" r="89" fill="url(#black-pao-grain)" opacity="0.8" />
  <circle cx="110" cy="110" r="76" fill="none" stroke="#050403" stroke-width="6.2" stroke-opacity="0.95" />
  <circle cx="110" cy="110" r="64" fill="none" stroke="#050403" stroke-width="1.9" stroke-opacity="0.52" />
  <path d="M 42 106 C 46 67, 72 41, 111 36 C 80 49, 61 75, 59 106 C 57 130, 66 151, 84 164 C 56 152, 39 130, 42 106 Z" fill="#8b735f" opacity="0.16" />
  <path d="M 162 37 C 185 57, 199 88, 196 120 C 193 152, 171 181, 141 191 C 166 172, 180 147, 178 117 C 177 86, 171 59, 162 37 Z" fill="#030201" opacity="0.3" />
  <g fill="none" stroke="#020100" stroke-width="11" stroke-linejoin="round" stroke-linecap="round" opacity="0.96">
    <path d="M 548 -471 Q 592 -475 652.5 -493 Q 713 -511 737 -525 Q 748 -531 760 -531 Q 772 -531 809 -513 Q 846 -495 846 -480 Q 846 -473 834.5 -464 Q 823 -455 816.5 -427 Q 810 -399 800.5 -316 Q 791 -233 780 -197.5 Q 769 -162 748.5 -141 Q 728 -120 716 -120 Q 704 -120 698 -140 Q 688 -174 662 -205 Q 657 -211 657 -216.5 Q 657 -222 663.5 -222 Q 670 -222 685 -217.5 Q 700 -213 709.5 -213 Q 719 -213 724 -225 Q 729 -237 740 -307.5 Q 751 -378 751 -449 Q 751 -464 747 -470.5 Q 743 -477 736 -477 Q 729 -477 675.5 -467 Q 622 -457 604.5 -451 Q 587 -445 569 -445 Q 551 -445 533 -449 Q 508 -415 477 -384.5 Q 446 -354 435 -354 Q 431 -354 431 -360.5 Q 431 -367 443 -382 Q 479 -423 523.5 -519.5 Q 568 -616 568 -648 Q 568 -658 564 -668.5 Q 560 -679 560 -688.5 Q 560 -698 573 -698 Q 586 -698 618.5 -681 Q 651 -664 651 -646 Q 651 -636 638.5 -622.5 Q 626 -609 598.5 -556 Q 571 -503 548 -471 Z M 316 -420 Q 339 -443 352.5 -461 Q 366 -479 369.5 -491 Q 373 -503 373 -520.5 Q 373 -538 387 -538 Q 401 -538 424.5 -523.5 Q 448 -509 448 -501 Q 448 -493 440.5 -485 Q 433 -477 399.5 -451 Q 366 -425 315 -393 Q 309 -245 289 -166 Q 381 -135 381 -80 Q 381 -46 358 -46 Q 349 -46 343 -51.5 Q 337 -57 323.5 -77.5 Q 310 -98 284 -147 Q 253 -37 184 19 Q 115 75 96 75 Q 90 75 90 70 Q 90 65 101 55 Q 173 -12 207 -79.5 Q 241 -147 255 -256.5 Q 269 -366 269 -539 Q 269 -596 264.5 -617 Q 260 -638 248 -654 Q 236 -670 236 -680.5 Q 236 -691 258 -691 Q 280 -691 311.5 -677 Q 343 -663 343 -642 Q 343 -634 338 -626 Q 324 -605 316 -420 Z M 204 -307 Q 204 -290 196.5 -273.5 Q 189 -257 177 -257 Q 155 -257 129 -317 Q 103 -377 103 -388.5 Q 103 -400 114.5 -400 Q 126 -400 150.5 -385.5 Q 175 -371 189.5 -349 Q 204 -327 204 -307 Z M 481 -158 Q 479 -60 484 -43 Q 489 -26 507.5 -5 Q 526 16 578 24 Q 630 32 694.5 32 Q 759 32 800.5 22 Q 842 12 858 -3.5 Q 874 -19 885 -46.5 Q 896 -74 912 -137 Q 917 -158 923 -158 Q 929 -158 929 -134.5 Q 929 -111 934.5 -68 Q 940 -25 944 -9.5 Q 948 6 948 12 Q 948 45 880.5 71.5 Q 813 98 697 98 Q 581 98 527 71 Q 473 44 457.5 12.5 Q 442 -19 442 -98 L 446 -213 Q 446 -259 431 -298 Q 428 -306 428 -311 Q 428 -324 442 -324 Q 456 -324 480 -314 Q 540 -317 568 -344 Q 584 -360 599 -360 Q 614 -360 641 -344.5 Q 668 -329 668 -321 Q 668 -313 651.5 -299 Q 635 -285 621 -262.5 Q 607 -240 607 -229 Q 607 -218 612 -213.5 Q 617 -209 617 -200.5 Q 617 -192 600 -187 Q 583 -182 549 -170 Q 515 -158 481 -158 Z M 481 -186 Q 508 -188 526.5 -192.5 Q 545 -197 551.5 -201.5 Q 558 -206 563.5 -220 Q 569 -234 573.5 -260.5 Q 578 -287 578 -295 Q 578 -308 569.5 -308 Q 561 -308 544.5 -302.5 Q 528 -297 485 -290 Q 486 -283 486 -273 Q 486 -263 484.5 -244 Q 483 -225 481 -186 Z" transform="translate(48.70 145.20) scale(0.11800)" />
  </g>
  <g fill="none" stroke="#050403" stroke-width="5.8" stroke-linejoin="round" stroke-linecap="round" opacity="0.98">
    <path d="M 548 -471 Q 592 -475 652.5 -493 Q 713 -511 737 -525 Q 748 -531 760 -531 Q 772 -531 809 -513 Q 846 -495 846 -480 Q 846 -473 834.5 -464 Q 823 -455 816.5 -427 Q 810 -399 800.5 -316 Q 791 -233 780 -197.5 Q 769 -162 748.5 -141 Q 728 -120 716 -120 Q 704 -120 698 -140 Q 688 -174 662 -205 Q 657 -211 657 -216.5 Q 657 -222 663.5 -222 Q 670 -222 685 -217.5 Q 700 -213 709.5 -213 Q 719 -213 724 -225 Q 729 -237 740 -307.5 Q 751 -378 751 -449 Q 751 -464 747 -470.5 Q 743 -477 736 -477 Q 729 -477 675.5 -467 Q 622 -457 604.5 -451 Q 587 -445 569 -445 Q 551 -445 533 -449 Q 508 -415 477 -384.5 Q 446 -354 435 -354 Q 431 -354 431 -360.5 Q 431 -367 443 -382 Q 479 -423 523.5 -519.5 Q 568 -616 568 -648 Q 568 -658 564 -668.5 Q 560 -679 560 -688.5 Q 560 -698 573 -698 Q 586 -698 618.5 -681 Q 651 -664 651 -646 Q 651 -636 638.5 -622.5 Q 626 -609 598.5 -556 Q 571 -503 548 -471 Z M 316 -420 Q 339 -443 352.5 -461 Q 366 -479 369.5 -491 Q 373 -503 373 -520.5 Q 373 -538 387 -538 Q 401 -538 424.5 -523.5 Q 448 -509 448 -501 Q 448 -493 440.5 -485 Q 433 -477 399.5 -451 Q 366 -425 315 -393 Q 309 -245 289 -166 Q 381 -135 381 -80 Q 381 -46 358 -46 Q 349 -46 343 -51.5 Q 337 -57 323.5 -77.5 Q 310 -98 284 -147 Q 253 -37 184 19 Q 115 75 96 75 Q 90 75 90 70 Q 90 65 101 55 Q 173 -12 207 -79.5 Q 241 -147 255 -256.5 Q 269 -366 269 -539 Q 269 -596 264.5 -617 Q 260 -638 248 -654 Q 236 -670 236 -680.5 Q 236 -691 258 -691 Q 280 -691 311.5 -677 Q 343 -663 343 -642 Q 343 -634 338 -626 Q 324 -605 316 -420 Z M 204 -307 Q 204 -290 196.5 -273.5 Q 189 -257 177 -257 Q 155 -257 129 -317 Q 103 -377 103 -388.5 Q 103 -400 114.5 -400 Q 126 -400 150.5 -385.5 Q 175 -371 189.5 -349 Q 204 -327 204 -307 Z M 481 -158 Q 479 -60 484 -43 Q 489 -26 507.5 -5 Q 526 16 578 24 Q 630 32 694.5 32 Q 759 32 800.5 22 Q 842 12 858 -3.5 Q 874 -19 885 -46.5 Q 896 -74 912 -137 Q 917 -158 923 -158 Q 929 -158 929 -134.5 Q 929 -111 934.5 -68 Q 940 -25 944 -9.5 Q 948 6 948 12 Q 948 45 880.5 71.5 Q 813 98 697 98 Q 581 98 527 71 Q 473 44 457.5 12.5 Q 442 -19 442 -98 L 446 -213 Q 446 -259 431 -298 Q 428 -306 428 -311 Q 428 -324 442 -324 Q 456 -324 480 -314 Q 540 -317 568 -344 Q 584 -360 599 -360 Q 614 -360 641 -344.5 Q 668 -329 668 -321 Q 668 -313 651.5 -299 Q 635 -285 621 -262.5 Q 607 -240 607 -229 Q 607 -218 612 -213.5 Q 617 -209 617 -200.5 Q 617 -192 600 -187 Q 583 -182 549 -170 Q 515 -158 481 -158 Z M 481 -186 Q 508 -188 526.5 -192.5 Q 545 -197 551.5 -201.5 Q 558 -206 563.5 -220 Q 569 -234 573.5 -260.5 Q 578 -287 578 -295 Q 578 -308 569.5 -308 Q 561 -308 544.5 -302.5 Q 528 -297 485 -290 Q 486 -283 486 -273 Q 486 -263 484.5 -244 Q 483 -225 481 -186 Z" transform="translate(48.70 145.20) scale(0.11800)" />
  </g>
  <g fill="url(#black-pao-glyph-floor)" opacity="0.98">
    <path d="M 548 -471 Q 592 -475 652.5 -493 Q 713 -511 737 -525 Q 748 -531 760 -531 Q 772 -531 809 -513 Q 846 -495 846 -480 Q 846 -473 834.5 -464 Q 823 -455 816.5 -427 Q 810 -399 800.5 -316 Q 791 -233 780 -197.5 Q 769 -162 748.5 -141 Q 728 -120 716 -120 Q 704 -120 698 -140 Q 688 -174 662 -205 Q 657 -211 657 -216.5 Q 657 -222 663.5 -222 Q 670 -222 685 -217.5 Q 700 -213 709.5 -213 Q 719 -213 724 -225 Q 729 -237 740 -307.5 Q 751 -378 751 -449 Q 751 -464 747 -470.5 Q 743 -477 736 -477 Q 729 -477 675.5 -467 Q 622 -457 604.5 -451 Q 587 -445 569 -445 Q 551 -445 533 -449 Q 508 -415 477 -384.5 Q 446 -354 435 -354 Q 431 -354 431 -360.5 Q 431 -367 443 -382 Q 479 -423 523.5 -519.5 Q 568 -616 568 -648 Q 568 -658 564 -668.5 Q 560 -679 560 -688.5 Q 560 -698 573 -698 Q 586 -698 618.5 -681 Q 651 -664 651 -646 Q 651 -636 638.5 -622.5 Q 626 -609 598.5 -556 Q 571 -503 548 -471 Z M 316 -420 Q 339 -443 352.5 -461 Q 366 -479 369.5 -491 Q 373 -503 373 -520.5 Q 373 -538 387 -538 Q 401 -538 424.5 -523.5 Q 448 -509 448 -501 Q 448 -493 440.5 -485 Q 433 -477 399.5 -451 Q 366 -425 315 -393 Q 309 -245 289 -166 Q 381 -135 381 -80 Q 381 -46 358 -46 Q 349 -46 343 -51.5 Q 337 -57 323.5 -77.5 Q 310 -98 284 -147 Q 253 -37 184 19 Q 115 75 96 75 Q 90 75 90 70 Q 90 65 101 55 Q 173 -12 207 -79.5 Q 241 -147 255 -256.5 Q 269 -366 269 -539 Q 269 -596 264.5 -617 Q 260 -638 248 -654 Q 236 -670 236 -680.5 Q 236 -691 258 -691 Q 280 -691 311.5 -677 Q 343 -663 343 -642 Q 343 -634 338 -626 Q 324 -605 316 -420 Z M 204 -307 Q 204 -290 196.5 -273.5 Q 189 -257 177 -257 Q 155 -257 129 -317 Q 103 -377 103 -388.5 Q 103 -400 114.5 -400 Q 126 -400 150.5 -385.5 Q 175 -371 189.5 -349 Q 204 -327 204 -307 Z M 481 -158 Q 479 -60 484 -43 Q 489 -26 507.5 -5 Q 526 16 578 24 Q 630 32 694.5 32 Q 759 32 800.5 22 Q 842 12 858 -3.5 Q 874 -19 885 -46.5 Q 896 -74 912 -137 Q 917 -158 923 -158 Q 929 -158 929 -134.5 Q 929 -111 934.5 -68 Q 940 -25 944 -9.5 Q 948 6 948 12 Q 948 45 880.5 71.5 Q 813 98 697 98 Q 581 98 527 71 Q 473 44 457.5 12.5 Q 442 -19 442 -98 L 446 -213 Q 446 -259 431 -298 Q 428 -306 428 -311 Q 428 -324 442 -324 Q 456 -324 480 -314 Q 540 -317 568 -344 Q 584 -360 599 -360 Q 614 -360 641 -344.5 Q 668 -329 668 -321 Q 668 -313 651.5 -299 Q 635 -285 621 -262.5 Q 607 -240 607 -229 Q 607 -218 612 -213.5 Q 617 -209 617 -200.5 Q 617 -192 600 -187 Q 583 -182 549 -170 Q 515 -158 481 -158 Z M 481 -186 Q 508 -188 526.5 -192.5 Q 545 -197 551.5 -201.5 Q 558 -206 563.5 -220 Q 569 -234 573.5 -260.5 Q 578 -287 578 -295 Q 578 -308 569.5 -308 Q 561 -308 544.5 -302.5 Q 528 -297 485 -290 Q 486 -283 486 -273 Q 486 -263 484.5 -244 Q 483 -225 481 -186 Z" transform="translate(48.70 145.20) scale(0.11800)" />
  </g>
  <circle cx="110" cy="110" r="106.8" fill="none" stroke="#f0d2a4" stroke-width="1.2" stroke-opacity="0.18" />
  <circle cx="110" cy="110" r="105.4" fill="none" stroke="#5f3b22" stroke-width="1.1" stroke-opacity="0.28" />
</svg>
