<?xml version="1.0" encoding="UTF-8"?>
<svg xmlns="http://www.w3.org/2000/svg" shape-rendering="geometricPrecision" text-rendering="geometricPrecision" viewBox="-18 -18 256 256" role="img" aria-labelledby="title desc">
  <title id="title">黑方士棋子</title>
  <desc id="desc">浅木立体象棋棋子，繁体字，带柔和投影。</desc>
  <defs>
    <filter id="black-shi-shadow" x="-20%" y="-20%" width="145%" height="145%" color-interpolation-filters="sRGB">
      <feDropShadow dx="7" dy="9" stdDeviation="5" flood-color="#2a1608" flood-opacity="0.42" />
    </filter>
    <radialGradient id="black-shi-body" cx="34%" cy="24%" r="78%">
      <stop offset="0" stop-color="#ffe8b9" />
      <stop offset="0.42" stop-color="#d99b55" />
      <stop offset="0.76" stop-color="#a7632c" />
      <stop offset="1" stop-color="#6b3819" />
    </radialGradient>
    <radialGradient id="black-shi-face" cx="37%" cy="26%" r="72%">
      <stop offset="0" stop-color="#fff0ca" />
      <stop offset="0.5" stop-color="#e0ad68" />
      <stop offset="1" stop-color="#9a5824" />
    </radialGradient>
    <linearGradient id="black-shi-rim-light" x1="0" y1="0" x2="0" y2="1">
      <stop offset="0" stop-color="#ffe6ae" stop-opacity="0.92" />
      <stop offset="0.55" stop-color="#c9853e" stop-opacity="0.35" />
      <stop offset="1" stop-color="#5d2f14" stop-opacity="0.78" />
    </linearGradient>
    <pattern id="black-shi-grain" width="96" height="30" patternUnits="userSpaceOnUse" patternTransform="rotate(-12)">
      <path d="M -20 13 C 12 4, 46 25, 82 12 C 104 4, 124 7, 142 18" fill="none" stroke="#fff2c7" stroke-width="1.5" stroke-opacity="0.18" />
      <path d="M -12 25 C 24 13, 59 35, 105 21" fill="none" stroke="#6c3718" stroke-width="1.4" stroke-opacity="0.13" />
    </pattern>
  </defs>

  <circle cx="110" cy="110" r="110" fill="url(#black-shi-body)" filter="url(#black-shi-shadow)" />
  <circle cx="110" cy="110" r="108" fill="none" stroke="#4d2811" stroke-width="2.2" stroke-opacity="0.55" />
  <circle cx="110" cy="110" r="101" fill="none" stroke="#ffdda0" stroke-width="3.2" stroke-opacity="0.58" />
  <circle cx="110" cy="110" r="93" fill="url(#black-shi-face)" />
  <circle cx="110" cy="110" r="93" fill="url(#black-shi-grain)" opacity="0.9" />
  <circle cx="110" cy="110" r="82" fill="none" stroke="#6d3a19" stroke-width="6.5" stroke-opacity="0.88" />
  <circle cx="110" cy="110" r="72" fill="none" stroke="#ffe2a8" stroke-width="2" stroke-opacity="0.45" />
  <path d="M 28 96 C 33 52, 65 24, 111 20 C 73 35, 51 65, 49 101 C 47 133, 61 161, 87 178 C 49 163, 25 132, 28 96 Z" fill="#fff1c5" opacity="0.22" />
  <path d="M 164 23 C 195 48, 211 86, 207 124 C 203 163, 175 195, 137 207 C 169 184, 188 152, 185 116 C 183 78, 174 47, 164 23 Z" fill="#4a250f" opacity="0.2" />

  <path d="M112.93 149.35Q116.47 148.74 120 148.13Q123.54 147.52 126.71 146.91Q131.72 145.93 134.7 146.17Q137.69 146.42 140.87 148.61Q146.97 152.76 145.99 154.96Q145.01 157.15 135.86 156.54Q121.83 155.69 111.16 156.24Q100.48 156.79 91.58 158.74Q88.28 159.47 86.27 159.84Q84.26 160.2 82.79 160.14Q81.33 160.08 80.11 159.66Q78.89 159.23 77.43 158.25Q72.67 155.32 73.03 154.04Q73.4 152.76 79.99 152.52Q85.6 152.27 91.76 151.79Q97.92 151.3 104.14 150.57L104.39 119.94Q100.36 120.31 97.01 120.68Q93.65 121.04 90.54 121.47Q87.43 121.9 84.38 122.45Q81.33 122.99 78.04 123.73Q75.35 124.34 73.52 124.58Q71.69 124.82 70.23 124.64Q68.76 124.46 67.42 123.79Q66.08 123.12 64.25 121.9Q59.98 119.09 60.35 118.05Q60.71 117.02 65.84 116.89Q73.28 116.65 83.47 115.92Q93.65 115.19 104.39 113.97Q104.39 104.33 104.2 97.5Q104.02 90.66 103.47 85.97Q102.92 81.27 102.07 78.53Q101.22 75.78 100 74.19Q96.46 69.68 98.47 68.28Q100.48 66.87 109.02 70.05Q112.81 71.51 114.94 72.55Q117.08 73.58 117.81 74.68Q118.54 75.78 118.17 77.18Q117.81 78.59 116.71 80.78Q116.1 82.12 115.67 83.89Q115.25 85.66 114.94 89.08Q114.64 92.49 114.39 98.11Q114.15 103.72 113.9 112.87Q121.35 111.89 128 110.86Q134.64 109.82 140.13 108.84Q144.04 108.11 146.54 107.81Q149.04 107.5 150.81 107.56Q152.58 107.62 153.92 108.23Q155.26 108.84 156.85 109.94Q163.56 114.58 162.52 116.96Q161.48 119.33 150.99 118.48Q147.33 118.24 143.43 118.11Q139.52 117.99 135.07 118.05Q130.62 118.11 125.37 118.42Q120.13 118.72 113.78 119.21Z" fill="#0f191a" stroke="#f8d99b" stroke-width="1.2" stroke-opacity="0.24" paint-order="stroke fill" />
  <path d="M112.93 145.35Q116.47 144.74 120 144.13Q123.54 143.52 126.71 142.91Q131.72 141.93 134.7 142.17Q137.69 142.42 140.87 144.61Q146.97 148.76 145.99 150.96Q145.01 153.15 135.86 152.54Q121.83 151.69 111.16 152.24Q100.48 152.79 91.58 154.74Q88.28 155.47 86.27 155.84Q84.26 156.2 82.79 156.14Q81.33 156.08 80.11 155.66Q78.89 155.23 77.43 154.25Q72.67 151.32 73.03 150.04Q73.4 148.76 79.99 148.52Q85.6 148.27 91.76 147.79Q97.92 147.3 104.14 146.57L104.39 115.94Q100.36 116.31 97.01 116.68Q93.65 117.04 90.54 117.47Q87.43 117.9 84.38 118.45Q81.33 118.99 78.04 119.73Q75.35 120.34 73.52 120.58Q71.69 120.82 70.23 120.64Q68.76 120.46 67.42 119.79Q66.08 119.12 64.25 117.9Q59.98 115.09 60.35 114.05Q60.71 113.02 65.84 112.89Q73.28 112.65 83.47 111.92Q93.65 111.19 104.39 109.97Q104.39 100.33 104.2 93.5Q104.02 86.66 103.47 81.97Q102.92 77.27 102.07 74.53Q101.22 71.78 100 70.19Q96.46 65.68 98.47 64.28Q100.48 62.87 109.02 66.05Q112.81 67.51 114.94 68.55Q117.08 69.58 117.81 70.68Q118.54 71.78 118.17 73.18Q117.81 74.59 116.71 76.78Q116.1 78.12 115.67 79.89Q115.25 81.66 114.94 85.08Q114.64 88.49 114.39 94.11Q114.15 99.72 113.9 108.87Q121.35 107.89 128 106.86Q134.64 105.82 140.13 104.84Q144.04 104.11 146.54 103.81Q149.04 103.5 150.81 103.56Q152.58 103.62 153.92 104.23Q155.26 104.84 156.85 105.94Q163.56 110.58 162.52 112.96Q161.48 115.33 150.99 114.48Q147.33 114.24 143.43 114.11Q139.52 113.99 135.07 114.05Q130.62 114.11 125.37 114.42Q120.13 114.72 113.78 115.21Z" fill="#1f2f31" />
</svg>
