<?xml version="1.0" encoding="UTF-8"?>
<svg xmlns="http://www.w3.org/2000/svg" shape-rendering="geometricPrecision" text-rendering="geometricPrecision" viewBox="-18 -18 256 256" role="img" aria-labelledby="title desc">
  <title id="title">黑方象棋子</title>
  <desc id="desc">浅木立体象棋棋子，繁体字，带柔和投影。</desc>
  <defs>
    <filter id="black-xiang-shadow" x="-20%" y="-20%" width="145%" height="145%" color-interpolation-filters="sRGB">
      <feDropShadow dx="7" dy="9" stdDeviation="5" flood-color="#2a1608" flood-opacity="0.42" />
    </filter>
    <radialGradient id="black-xiang-body" cx="34%" cy="24%" r="78%">
      <stop offset="0" stop-color="#ffe8b9" />
      <stop offset="0.42" stop-color="#d99b55" />
      <stop offset="0.76" stop-color="#a7632c" />
      <stop offset="1" stop-color="#6b3819" />
    </radialGradient>
    <radialGradient id="black-xiang-face" cx="37%" cy="26%" r="72%">
      <stop offset="0" stop-color="#fff0ca" />
      <stop offset="0.5" stop-color="#e0ad68" />
      <stop offset="1" stop-color="#9a5824" />
    </radialGradient>
    <linearGradient id="black-xiang-rim-light" x1="0" y1="0" x2="0" y2="1">
      <stop offset="0" stop-color="#ffe6ae" stop-opacity="0.92" />
      <stop offset="0.55" stop-color="#c9853e" stop-opacity="0.35" />
      <stop offset="1" stop-color="#5d2f14" stop-opacity="0.78" />
    </linearGradient>
    <pattern id="black-xiang-grain" width="96" height="30" patternUnits="userSpaceOnUse" patternTransform="rotate(-12)">
      <path d="M -20 13 C 12 4, 46 25, 82 12 C 104 4, 124 7, 142 18" fill="none" stroke="#fff2c7" stroke-width="1.5" stroke-opacity="0.18" />
      <path d="M -12 25 C 24 13, 59 35, 105 21" fill="none" stroke="#6c3718" stroke-width="1.4" stroke-opacity="0.13" />
    </pattern>
  </defs>

  <circle cx="110" cy="110" r="110" fill="url(#black-xiang-body)" filter="url(#black-xiang-shadow)" />
  <circle cx="110" cy="110" r="108" fill="none" stroke="#4d2811" stroke-width="2.2" stroke-opacity="0.55" />
  <circle cx="110" cy="110" r="101" fill="none" stroke="#ffdda0" stroke-width="3.2" stroke-opacity="0.58" />
  <circle cx="110" cy="110" r="93" fill="url(#black-xiang-face)" />
  <circle cx="110" cy="110" r="93" fill="url(#black-xiang-grain)" opacity="0.9" />
  <circle cx="110" cy="110" r="82" fill="none" stroke="#6d3a19" stroke-width="6.5" stroke-opacity="0.88" />
  <circle cx="110" cy="110" r="72" fill="none" stroke="#ffe2a8" stroke-width="2" stroke-opacity="0.45" />
  <path d="M 28 96 C 33 52, 65 24, 111 20 C 73 35, 51 65, 49 101 C 47 133, 61 161, 87 178 C 49 163, 25 132, 28 96 Z" fill="#fff1c5" opacity="0.22" />
  <path d="M 164 23 C 195 48, 211 86, 207 124 C 203 163, 175 195, 137 207 C 169 184, 188 152, 185 116 C 183 78, 174 47, 164 23 Z" fill="#4a250f" opacity="0.2" />

  <path d="M105.24 99.57Q109.39 98.84 111.77 98.53Q114.15 98.23 115.37 98.16Q116.59 98.1 116.95 98.35Q117.32 98.59 117.56 98.96Q118.05 99.69 118.91 99.63Q119.76 99.57 120.61 98.35Q122.32 95.91 123.24 94.32Q124.15 92.74 125.01 90.3Q125.25 89.32 124.82 88.89Q124.4 88.47 122.44 88.34Q121.1 88.22 117.26 88.53Q113.42 88.83 106.58 89.56Q109.27 91.64 109.63 93.1Q110 94.57 108.78 95.79Q107.56 97.01 106.77 97.8Q105.97 98.59 105.24 99.57ZM86.82 102.62Q89.26 102.25 91.33 101.89Q93.41 101.52 94.87 101.28Q96.46 98.96 97.86 96.09Q99.26 93.22 99.87 90.54Q94.02 91.27 90.05 91.76Q86.09 92.25 82.31 92.49Q83.53 94.57 84.5 96.82Q85.48 99.08 86.82 102.62ZM96.82 74.07Q93.29 77.12 88.83 80.05Q84.38 82.98 80.23 84.68Q75.84 86.39 75.29 85.72Q74.74 85.05 78.16 82.37Q83.04 78.58 86.09 75.47Q89.14 72.36 90.78 69.92Q92.43 67.48 92.92 65.65Q93.41 63.82 93.16 62.48Q92.55 59.8 94.26 59.12Q95.97 58.45 100.48 60.41Q105.36 62.48 106.03 64Q106.71 65.53 104.63 66.87Q103.66 67.48 102.74 68.21Q101.83 68.95 100.85 69.92Q105 69.68 107.87 68.88Q110.73 68.09 114.03 66.14Q115.86 65.04 117.63 65.16Q119.39 65.29 122.81 66.99Q128.42 69.8 128.61 71.63Q128.79 73.46 124.76 74.44Q122.69 74.92 118.23 77.55Q113.78 80.17 107.56 85.05Q115.12 83.95 118.84 83.16Q122.57 82.37 123.91 81.76Q125.86 80.78 127.69 81.02Q129.52 81.27 133.42 83.59Q137.08 85.78 138.97 87.37Q140.87 88.95 141.23 90.05Q141.6 91.15 140.62 92Q139.65 92.86 137.69 93.71Q135.62 94.69 132.94 96.82Q130.25 98.96 125.74 103.96Q122.32 107.74 120.37 107.8Q118.42 107.86 117.69 105.42Q117.08 103.47 114.03 103.47Q109.88 103.47 101.46 104.57Q99.26 107.25 96.95 109.82Q102.68 112.26 106.77 115.67Q110.85 119.09 112.56 122.14Q119.15 116.89 122.14 113.48Q125.13 110.06 125.01 108.72Q124.76 106.28 126.35 105.36Q127.93 104.45 132.2 105.79Q139.16 108.11 140.19 109.69Q141.23 111.28 138.55 112.38Q137.08 112.99 135.62 113.66Q134.16 114.33 131.84 115.55Q129.52 116.77 125.92 118.78Q122.32 120.8 116.59 124.09Q124.64 127.99 130.56 130.56Q136.47 133.12 141.29 134.89Q146.11 136.66 150.5 137.63Q154.9 138.61 159.9 139.34Q165.02 139.95 165.08 141.35Q165.14 142.76 160.26 143.85Q152.94 145.56 148.8 146.42Q144.65 147.27 142.21 147.27Q139.77 147.27 138.3 146.48Q136.84 145.68 135.01 144.22Q132.57 142.27 130.56 140.68Q128.54 139.1 126.41 137.45Q124.27 135.8 121.83 133.91Q119.39 132.02 116.22 129.58Q118.91 136.9 119.15 145.2Q119.15 152.03 117.63 156.6Q116.1 161.18 112.56 165.33Q109.39 168.99 107.01 169.05Q104.63 169.11 103.66 166.67Q103.17 165.45 102.62 164.41Q102.07 163.37 101.03 162.21Q100 161.06 98.47 159.71Q96.95 158.37 94.63 156.42Q92.55 154.71 92.98 153.74Q93.41 152.76 95.97 153.37Q99.75 154.22 102.07 154.47Q104.39 154.71 105.67 154.35Q106.95 153.98 107.56 152.88Q108.17 151.78 108.54 149.95Q109.63 144.34 109.57 139.83Q109.51 135.31 108.05 130.92Q94.51 149.47 69.62 156.42Q65.96 157.4 65.53 156.24Q65.1 155.08 68.28 153.49Q79.13 148 88.16 140.19Q97.19 132.39 104.14 122.63Q103.29 121.28 101.7 119.7Q99.63 122.63 96.28 125.61Q92.92 128.6 88.77 131.29Q84.62 133.97 79.99 136.23Q75.35 138.49 70.72 140.07Q67.18 141.29 66.75 140.25Q66.32 139.22 69.5 137.27Q74.62 134.22 78.4 131.59Q82.18 128.97 85.23 126.41Q88.28 123.85 90.91 121.1Q93.53 118.36 96.34 114.82Q95.73 114.33 95.06 113.9Q94.38 113.48 93.65 112.87Q91.58 114.7 89.08 116.34Q86.58 117.99 84.01 119.39Q81.45 120.8 79.01 121.89Q76.57 122.99 74.5 123.6Q70.23 124.94 69.98 124.15Q69.74 123.36 73.64 120.67Q77.43 118.11 80.17 116.1Q82.92 114.09 85.05 112.32Q87.19 110.55 88.71 108.96Q90.24 107.38 91.7 105.55Q90.6 105.79 89.5 105.85Q88.41 105.91 87.43 106.03Q87.19 107.38 86.52 108.11Q85.84 108.84 85.23 108.96Q83.89 109.21 82.25 107.74Q80.6 106.28 79.26 103.11Q78.52 101.4 77.49 99.63Q76.45 97.86 75.23 96.27Q74.01 94.69 72.85 93.53Q71.69 92.37 70.84 91.76Q69.86 91.15 69.74 90.42Q69.62 89.69 70.47 89.2Q71.33 88.71 73.28 88.59Q75.23 88.47 78.28 89.2Q84.5 88.34 90.48 87.49Q96.46 86.64 101.58 85.9Q103.78 83.34 105.24 81.51Q106.71 79.68 107.74 78.22Q108.78 76.75 109.51 75.53Q110.24 74.31 110.98 72.97Q108.05 73.7 105.97 74.13Q103.9 74.56 102.38 74.62Q100.85 74.68 99.57 74.56Q98.29 74.44 96.82 74.07Z" fill="#0f191a" stroke="#f8d99b" stroke-width="1.2" stroke-opacity="0.24" paint-order="stroke fill" />
  <path d="M105.24 95.57Q109.39 94.84 111.77 94.53Q114.15 94.23 115.37 94.16Q116.59 94.1 116.95 94.35Q117.32 94.59 117.56 94.96Q118.05 95.69 118.91 95.63Q119.76 95.57 120.61 94.35Q122.32 91.91 123.24 90.32Q124.15 88.74 125.01 86.3Q125.25 85.32 124.82 84.89Q124.4 84.47 122.44 84.34Q121.1 84.22 117.26 84.53Q113.42 84.83 106.58 85.56Q109.27 87.64 109.63 89.1Q110 90.57 108.78 91.79Q107.56 93.01 106.77 93.8Q105.97 94.59 105.24 95.57ZM86.82 98.62Q89.26 98.25 91.33 97.89Q93.41 97.52 94.87 97.28Q96.46 94.96 97.86 92.09Q99.26 89.22 99.87 86.54Q94.02 87.27 90.05 87.76Q86.09 88.25 82.31 88.49Q83.53 90.57 84.5 92.82Q85.48 95.08 86.82 98.62ZM96.82 70.07Q93.29 73.12 88.83 76.05Q84.38 78.98 80.23 80.68Q75.84 82.39 75.29 81.72Q74.74 81.05 78.16 78.37Q83.04 74.58 86.09 71.47Q89.14 68.36 90.78 65.92Q92.43 63.48 92.92 61.65Q93.41 59.82 93.16 58.48Q92.55 55.8 94.26 55.12Q95.97 54.45 100.48 56.41Q105.36 58.48 106.03 60Q106.71 61.53 104.63 62.87Q103.66 63.48 102.74 64.21Q101.83 64.95 100.85 65.92Q105 65.68 107.87 64.88Q110.73 64.09 114.03 62.14Q115.86 61.04 117.63 61.16Q119.39 61.29 122.81 62.99Q128.42 65.8 128.61 67.63Q128.79 69.46 124.76 70.44Q122.69 70.92 118.23 73.55Q113.78 76.17 107.56 81.05Q115.12 79.95 118.84 79.16Q122.57 78.37 123.91 77.76Q125.86 76.78 127.69 77.02Q129.52 77.27 133.42 79.59Q137.08 81.78 138.97 83.37Q140.87 84.95 141.23 86.05Q141.6 87.15 140.62 88Q139.65 88.86 137.69 89.71Q135.62 90.69 132.94 92.82Q130.25 94.96 125.74 99.96Q122.32 103.74 120.37 103.8Q118.42 103.86 117.69 101.42Q117.08 99.47 114.03 99.47Q109.88 99.47 101.46 100.57Q99.26 103.25 96.95 105.82Q102.68 108.26 106.77 111.67Q110.85 115.09 112.56 118.14Q119.15 112.89 122.14 109.48Q125.13 106.06 125.01 104.72Q124.76 102.28 126.35 101.36Q127.93 100.45 132.2 101.79Q139.16 104.11 140.19 105.69Q141.23 107.28 138.55 108.38Q137.08 108.99 135.62 109.66Q134.16 110.33 131.84 111.55Q129.52 112.77 125.92 114.78Q122.32 116.8 116.59 120.09Q124.64 123.99 130.56 126.56Q136.47 129.12 141.29 130.89Q146.11 132.66 150.5 133.63Q154.9 134.61 159.9 135.34Q165.02 135.95 165.08 137.35Q165.14 138.76 160.26 139.85Q152.94 141.56 148.8 142.42Q144.65 143.27 142.21 143.27Q139.77 143.27 138.3 142.48Q136.84 141.68 135.01 140.22Q132.57 138.27 130.56 136.68Q128.54 135.1 126.41 133.45Q124.27 131.8 121.83 129.91Q119.39 128.02 116.22 125.58Q118.91 132.9 119.15 141.2Q119.15 148.03 117.63 152.6Q116.1 157.18 112.56 161.33Q109.39 164.99 107.01 165.05Q104.63 165.11 103.66 162.67Q103.17 161.45 102.62 160.41Q102.07 159.37 101.03 158.21Q100 157.06 98.47 155.71Q96.95 154.37 94.63 152.42Q92.55 150.71 92.98 149.74Q93.41 148.76 95.97 149.37Q99.75 150.22 102.07 150.47Q104.39 150.71 105.67 150.35Q106.95 149.98 107.56 148.88Q108.17 147.78 108.54 145.95Q109.63 140.34 109.57 135.83Q109.51 131.31 108.05 126.92Q94.51 145.47 69.62 152.42Q65.96 153.4 65.53 152.24Q65.1 151.08 68.28 149.49Q79.13 144 88.16 136.19Q97.19 128.39 104.14 118.63Q103.29 117.28 101.7 115.7Q99.63 118.63 96.28 121.61Q92.92 124.6 88.77 127.29Q84.62 129.97 79.99 132.23Q75.35 134.49 70.72 136.07Q67.18 137.29 66.75 136.25Q66.32 135.22 69.5 133.27Q74.62 130.22 78.4 127.59Q82.18 124.97 85.23 122.41Q88.28 119.85 90.91 117.1Q93.53 114.36 96.34 110.82Q95.73 110.33 95.06 109.9Q94.38 109.48 93.65 108.87Q91.58 110.7 89.08 112.34Q86.58 113.99 84.01 115.39Q81.45 116.8 79.01 117.89Q76.57 118.99 74.5 119.6Q70.23 120.94 69.98 120.15Q69.74 119.36 73.64 116.67Q77.43 114.11 80.17 112.1Q82.92 110.09 85.05 108.32Q87.19 106.55 88.71 104.96Q90.24 103.38 91.7 101.55Q90.6 101.79 89.5 101.85Q88.41 101.91 87.43 102.03Q87.19 103.38 86.52 104.11Q85.84 104.84 85.23 104.96Q83.89 105.21 82.25 103.74Q80.6 102.28 79.26 99.11Q78.52 97.4 77.49 95.63Q76.45 93.86 75.23 92.27Q74.01 90.69 72.85 89.53Q71.69 88.37 70.84 87.76Q69.86 87.15 69.74 86.42Q69.62 85.69 70.47 85.2Q71.33 84.71 73.28 84.59Q75.23 84.47 78.28 85.2Q84.5 84.34 90.48 83.49Q96.46 82.64 101.58 81.9Q103.78 79.34 105.24 77.51Q106.71 75.68 107.74 74.22Q108.78 72.75 109.51 71.53Q110.24 70.31 110.98 68.97Q108.05 69.7 105.97 70.13Q103.9 70.56 102.38 70.62Q100.85 70.68 99.57 70.56Q98.29 70.44 96.82 70.07Z" fill="#1f2f31" />
</svg>
