<?xml version="1.0" encoding="UTF-8"?>
<svg xmlns="http://www.w3.org/2000/svg" shape-rendering="geometricPrecision" viewBox="-6 -6 232 232" role="img" aria-labelledby="title desc">
  <title id="title">黑车棋子</title>
  <desc id="desc">透明背景、紧贴圆形边界的黑车实体木质象棋棋子，字形已转路径并按真实包围盒居中。</desc>
  <defs>
    <radialGradient id="black-ju-body" cx="34%" cy="22%" r="80%">
      <stop offset="0" stop-color="#8b735f" />
      <stop offset="0.34" stop-color="#4b3a31" />
      <stop offset="0.74" stop-color="#261e1a" />
      <stop offset="1" stop-color="#0b0807" />
    </radialGradient>
    <radialGradient id="black-ju-face" cx="37%" cy="28%" r="76%">
      <stop offset="0" stop-color="#8b735f" stop-opacity="0.7" />
      <stop offset="0.36" stop-color="#382c25" />
      <stop offset="0.84" stop-color="#15100e" />
      <stop offset="1" stop-color="#050403" />
    </radialGradient>
    <linearGradient id="black-ju-glyph-floor" x1="0" y1="0" x2="0" y2="1">
      <stop offset="0" stop-color="#030201" />
      <stop offset="0.24" stop-color="#c9bea8" />
      <stop offset="0.72" stop-color="#f1e7d2" />
      <stop offset="1" stop-color="#fffdf1" />
    </linearGradient>
    <pattern id="black-ju-grain" width="118" height="34" patternUnits="userSpaceOnUse" patternTransform="rotate(-13)">
      <path d="M -28 16 C 10 4, 50 31, 91 13 C 113 4, 137 8, 156 21" fill="none" stroke="#b8a78e" stroke-width="1.9" stroke-opacity="0.12" />
      <path d="M -14 29 C 28 15, 68 43, 124 24" fill="none" stroke="#030201" stroke-width="1.5" stroke-opacity="0.16" />
    </pattern>
  </defs>
  <circle cx="110" cy="110" r="106" fill="url(#black-ju-body)" />
  <circle cx="110" cy="110" r="103" fill="none" stroke="#8b735f" stroke-width="2.4" stroke-opacity="0.34" />
  <circle cx="110" cy="110" r="96" fill="none" stroke="#050302" stroke-width="4.4" stroke-opacity="0.58" />
  <circle cx="110" cy="110" r="89" fill="url(#black-ju-face)" />
  <circle cx="110" cy="110" r="89" fill="url(#black-ju-grain)" opacity="0.8" />
  <circle cx="110" cy="110" r="76" fill="none" stroke="#050403" stroke-width="6.2" stroke-opacity="0.95" />
  <circle cx="110" cy="110" r="64" fill="none" stroke="#050403" stroke-width="1.9" stroke-opacity="0.52" />
  <path d="M 42 106 C 46 67, 72 41, 111 36 C 80 49, 61 75, 59 106 C 57 130, 66 151, 84 164 C 56 152, 39 130, 42 106 Z" fill="#8b735f" opacity="0.16" />
  <path d="M 162 37 C 185 57, 199 88, 196 120 C 193 152, 171 181, 141 191 C 166 172, 180 147, 178 117 C 177 86, 171 59, 162 37 Z" fill="#030201" opacity="0.3" />
  <g fill="none" stroke="#020100" stroke-width="11" stroke-linejoin="round" stroke-linecap="round" opacity="0.96">
    <path d="M 556 -184 Q 696 -197 745.5 -205.5 Q 795 -214 825.5 -214 Q 856 -214 893.5 -193 Q 931 -172 931 -153.5 Q 931 -135 903 -135 Q 896 -135 887 -137 Q 843 -147 748.5 -147 Q 654 -147 555 -142 L 551 -3 Q 550 62 542 103 Q 534 144 527 161.5 Q 520 179 514 179 Q 497 179 497 59 L 503 -139 Q 327 -129 278.5 -117.5 Q 230 -106 203 -106 Q 176 -106 148 -122 Q 120 -138 120 -144.5 Q 120 -151 130 -154.5 Q 140 -158 202.5 -158 Q 265 -158 504 -179 L 507 -308 Q 445 -302 389.5 -292 Q 334 -282 314.5 -273 Q 295 -264 279.5 -264 Q 264 -264 257.5 -280 Q 251 -296 251 -306 Q 251 -327 290 -338 Q 309 -343 341 -386.5 Q 373 -430 405 -496 Q 376 -494 340.5 -494 Q 305 -494 285 -504 Q 265 -514 265 -521 Q 265 -528 299.5 -528.5 Q 334 -529 425 -541 Q 464 -621 475.5 -650.5 Q 487 -680 487 -699 Q 487 -718 490 -727.5 Q 493 -737 502.5 -737 Q 512 -737 547 -717.5 Q 582 -698 582 -684.5 Q 582 -671 566 -656 Q 538 -630 487 -549 Q 537 -556 598.5 -568.5 Q 660 -581 693.5 -581 Q 727 -581 748.5 -571.5 Q 770 -562 770 -549 Q 770 -532 727 -527 L 461 -501 Q 405 -403 356 -346 Q 344 -332 344 -327.5 Q 344 -323 354 -323 Q 378 -323 507 -343 Q 507 -415 499 -428.5 Q 491 -442 491 -451 Q 491 -460 502.5 -460 Q 514 -460 546.5 -449.5 Q 579 -439 579 -425.5 Q 579 -412 567 -385 Q 566 -382 564 -352 Q 653 -367 686.5 -367 Q 720 -367 731 -363 Q 742 -359 752.5 -347 Q 763 -335 763 -327 Q 763 -310 728 -313 Q 710 -315 666.5 -315 Q 623 -315 562 -312 Z" transform="translate(51.20 144.00) scale(0.12100)" />
  </g>
  <g fill="none" stroke="#050403" stroke-width="5.8" stroke-linejoin="round" stroke-linecap="round" opacity="0.98">
    <path d="M 556 -184 Q 696 -197 745.5 -205.5 Q 795 -214 825.5 -214 Q 856 -214 893.5 -193 Q 931 -172 931 -153.5 Q 931 -135 903 -135 Q 896 -135 887 -137 Q 843 -147 748.5 -147 Q 654 -147 555 -142 L 551 -3 Q 550 62 542 103 Q 534 144 527 161.5 Q 520 179 514 179 Q 497 179 497 59 L 503 -139 Q 327 -129 278.5 -117.5 Q 230 -106 203 -106 Q 176 -106 148 -122 Q 120 -138 120 -144.5 Q 120 -151 130 -154.5 Q 140 -158 202.5 -158 Q 265 -158 504 -179 L 507 -308 Q 445 -302 389.5 -292 Q 334 -282 314.5 -273 Q 295 -264 279.5 -264 Q 264 -264 257.5 -280 Q 251 -296 251 -306 Q 251 -327 290 -338 Q 309 -343 341 -386.5 Q 373 -430 405 -496 Q 376 -494 340.5 -494 Q 305 -494 285 -504 Q 265 -514 265 -521 Q 265 -528 299.5 -528.5 Q 334 -529 425 -541 Q 464 -621 475.5 -650.5 Q 487 -680 487 -699 Q 487 -718 490 -727.5 Q 493 -737 502.5 -737 Q 512 -737 547 -717.5 Q 582 -698 582 -684.5 Q 582 -671 566 -656 Q 538 -630 487 -549 Q 537 -556 598.5 -568.5 Q 660 -581 693.5 -581 Q 727 -581 748.5 -571.5 Q 770 -562 770 -549 Q 770 -532 727 -527 L 461 -501 Q 405 -403 356 -346 Q 344 -332 344 -327.5 Q 344 -323 354 -323 Q 378 -323 507 -343 Q 507 -415 499 -428.5 Q 491 -442 491 -451 Q 491 -460 502.5 -460 Q 514 -460 546.5 -449.5 Q 579 -439 579 -425.5 Q 579 -412 567 -385 Q 566 -382 564 -352 Q 653 -367 686.5 -367 Q 720 -367 731 -363 Q 742 -359 752.5 -347 Q 763 -335 763 -327 Q 763 -310 728 -313 Q 710 -315 666.5 -315 Q 623 -315 562 -312 Z" transform="translate(51.20 144.00) scale(0.12100)" />
  </g>
  <g fill="url(#black-ju-glyph-floor)" opacity="0.98">
    <path d="M 556 -184 Q 696 -197 745.5 -205.5 Q 795 -214 825.5 -214 Q 856 -214 893.5 -193 Q 931 -172 931 -153.5 Q 931 -135 903 -135 Q 896 -135 887 -137 Q 843 -147 748.5 -147 Q 654 -147 555 -142 L 551 -3 Q 550 62 542 103 Q 534 144 527 161.5 Q 520 179 514 179 Q 497 179 497 59 L 503 -139 Q 327 -129 278.5 -117.5 Q 230 -106 203 -106 Q 176 -106 148 -122 Q 120 -138 120 -144.5 Q 120 -151 130 -154.5 Q 140 -158 202.5 -158 Q 265 -158 504 -179 L 507 -308 Q 445 -302 389.5 -292 Q 334 -282 314.5 -273 Q 295 -264 279.5 -264 Q 264 -264 257.5 -280 Q 251 -296 251 -306 Q 251 -327 290 -338 Q 309 -343 341 -386.5 Q 373 -430 405 -496 Q 376 -494 340.5 -494 Q 305 -494 285 -504 Q 265 -514 265 -521 Q 265 -528 299.5 -528.5 Q 334 -529 425 -541 Q 464 -621 475.5 -650.5 Q 487 -680 487 -699 Q 487 -718 490 -727.5 Q 493 -737 502.5 -737 Q 512 -737 547 -717.5 Q 582 -698 582 -684.5 Q 582 -671 566 -656 Q 538 -630 487 -549 Q 537 -556 598.5 -568.5 Q 660 -581 693.5 -581 Q 727 -581 748.5 -571.5 Q 770 -562 770 -549 Q 770 -532 727 -527 L 461 -501 Q 405 -403 356 -346 Q 344 -332 344 -327.5 Q 344 -323 354 -323 Q 378 -323 507 -343 Q 507 -415 499 -428.5 Q 491 -442 491 -451 Q 491 -460 502.5 -460 Q 514 -460 546.5 -449.5 Q 579 -439 579 -425.5 Q 579 -412 567 -385 Q 566 -382 564 -352 Q 653 -367 686.5 -367 Q 720 -367 731 -363 Q 742 -359 752.5 -347 Q 763 -335 763 -327 Q 763 -310 728 -313 Q 710 -315 666.5 -315 Q 623 -315 562 -312 Z" transform="translate(51.20 144.00) scale(0.12100)" />
  </g>
  <circle cx="110" cy="110" r="106.8" fill="none" stroke="#f0d2a4" stroke-width="1.2" stroke-opacity="0.18" />
  <circle cx="110" cy="110" r="105.4" fill="none" stroke="#5f3b22" stroke-width="1.1" stroke-opacity="0.28" />
</svg>
