<?xml version="1.0" encoding="UTF-8"?>
<svg xmlns="http://www.w3.org/2000/svg" shape-rendering="geometricPrecision" text-rendering="geometricPrecision" viewBox="-18 -18 256 256" role="img" aria-labelledby="title desc">
  <title id="title">黑方卒棋子</title>
  <desc id="desc">浅木立体象棋棋子，繁体字，带柔和投影。</desc>
  <defs>
    <filter id="black-zu-shadow" x="-20%" y="-20%" width="145%" height="145%" color-interpolation-filters="sRGB">
      <feDropShadow dx="7" dy="9" stdDeviation="5" flood-color="#2a1608" flood-opacity="0.42" />
    </filter>
    <radialGradient id="black-zu-body" cx="34%" cy="24%" r="78%">
      <stop offset="0" stop-color="#ffe8b9" />
      <stop offset="0.42" stop-color="#d99b55" />
      <stop offset="0.76" stop-color="#a7632c" />
      <stop offset="1" stop-color="#6b3819" />
    </radialGradient>
    <radialGradient id="black-zu-face" cx="37%" cy="26%" r="72%">
      <stop offset="0" stop-color="#fff0ca" />
      <stop offset="0.5" stop-color="#e0ad68" />
      <stop offset="1" stop-color="#9a5824" />
    </radialGradient>
    <linearGradient id="black-zu-rim-light" x1="0" y1="0" x2="0" y2="1">
      <stop offset="0" stop-color="#ffe6ae" stop-opacity="0.92" />
      <stop offset="0.55" stop-color="#c9853e" stop-opacity="0.35" />
      <stop offset="1" stop-color="#5d2f14" stop-opacity="0.78" />
    </linearGradient>
    <pattern id="black-zu-grain" width="96" height="30" patternUnits="userSpaceOnUse" patternTransform="rotate(-12)">
      <path d="M -20 13 C 12 4, 46 25, 82 12 C 104 4, 124 7, 142 18" fill="none" stroke="#fff2c7" stroke-width="1.5" stroke-opacity="0.18" />
      <path d="M -12 25 C 24 13, 59 35, 105 21" fill="none" stroke="#6c3718" stroke-width="1.4" stroke-opacity="0.13" />
    </pattern>
  </defs>

  <circle cx="110" cy="110" r="110" fill="url(#black-zu-body)" filter="url(#black-zu-shadow)" />
  <circle cx="110" cy="110" r="108" fill="none" stroke="#4d2811" stroke-width="2.2" stroke-opacity="0.55" />
  <circle cx="110" cy="110" r="101" fill="none" stroke="#ffdda0" stroke-width="3.2" stroke-opacity="0.58" />
  <circle cx="110" cy="110" r="93" fill="url(#black-zu-face)" />
  <circle cx="110" cy="110" r="93" fill="url(#black-zu-grain)" opacity="0.9" />
  <circle cx="110" cy="110" r="82" fill="none" stroke="#6d3a19" stroke-width="6.5" stroke-opacity="0.88" />
  <circle cx="110" cy="110" r="72" fill="none" stroke="#ffe2a8" stroke-width="2" stroke-opacity="0.45" />
  <path d="M 28 96 C 33 52, 65 24, 111 20 C 73 35, 51 65, 49 101 C 47 133, 61 161, 87 178 C 49 163, 25 132, 28 96 Z" fill="#fff1c5" opacity="0.22" />
  <path d="M 164 23 C 195 48, 211 86, 207 124 C 203 163, 175 195, 137 207 C 169 184, 188 152, 185 116 C 183 78, 174 47, 164 23 Z" fill="#4a250f" opacity="0.2" />

  <path d="M115.12 118.37Q123.42 117.39 130.07 116.41Q136.72 115.44 140.26 114.83Q145.01 113.97 148 113.55Q150.99 113.12 153.13 113.3Q155.26 113.49 156.85 114.22Q158.43 114.95 160.26 116.41Q162.83 118.49 163.8 120.07Q164.78 121.66 163.62 122.64Q162.46 123.61 158.98 123.86Q155.51 124.1 149.16 123.37Q144.53 122.88 135.68 123.12Q126.84 123.37 115 124.22Q114.88 129.59 114.94 132.82Q115 136.06 114.88 139.59Q114.64 149.23 114.15 155.27Q113.66 161.31 112.68 164.12Q110.73 169.85 109.45 169.79Q108.17 169.73 106.83 163.63Q106.58 162.9 106.46 161.74Q106.34 160.58 106.28 158.81Q106.22 157.04 106.16 154.54Q106.1 152.04 106.1 148.38L106.1 124.95Q99.75 125.56 94.38 126.11Q89.02 126.66 85.6 127.27Q81.94 127.88 78.89 128.55Q75.84 129.22 71.2 130.44Q69.13 131.05 67.67 131.24Q66.2 131.42 64.86 131.18Q63.52 130.93 62.05 130.2Q60.59 129.47 58.39 128Q55.59 126.17 55.95 125.08Q56.32 123.98 59.98 123.86Q64.74 123.73 76.51 122.64Q88.28 121.54 106.1 119.46Q105.97 116.29 105.61 114.77Q105.24 113.24 104.63 112.27Q100.97 106.9 107.8 108.36Q111.22 109.09 113.11 109.7Q115 110.31 115.86 110.99Q116.71 111.66 116.65 112.51Q116.59 113.36 116.1 114.58Q115.25 116.54 115.12 118.37ZM90.72 103.36Q87.92 106.41 84.14 109.22Q80.35 112.02 77.18 113.61Q71.57 116.29 70.84 115.38Q70.11 114.46 74.01 111.17Q76.57 108.97 78.4 107.08Q80.23 105.19 81.7 103.36Q83.16 101.53 84.38 99.7Q85.6 97.87 86.7 95.8Q87.92 93.72 88.41 91.65Q88.89 89.57 88.28 88.48Q86.58 85.18 88.34 84.45Q90.11 83.72 95.6 86.77Q100.61 89.57 101.09 91.04Q101.58 92.5 99.02 94.33Q97.56 95.31 96.46 96.53Q95.36 97.75 93.29 100.19Q95.97 101.29 97.68 102.08Q99.39 102.87 100.36 103.6Q101.34 104.34 101.7 105.13Q102.07 105.92 102.31 106.78Q102.68 108.85 102.19 110.31Q101.7 111.78 100.67 112.39Q99.63 113 98.35 112.63Q97.07 112.27 95.97 110.8Q94.14 108.48 92.98 106.78Q91.82 105.07 90.72 103.36ZM126.1 98.48Q123.91 101.29 121.1 103.48Q118.3 105.68 115.98 106.9Q111.46 109.22 110.73 108.48Q110 107.75 112.93 104.58Q115.49 101.77 117.32 99.09Q119.15 96.41 120.37 93.97Q122.93 88.72 122.2 85.55Q121.47 82.5 122.87 81.95Q124.27 81.4 128.91 83.84Q131.47 85.18 132.81 86.16Q134.16 87.13 134.58 87.93Q135.01 88.72 134.58 89.45Q134.16 90.18 133.18 90.92Q131.59 92.14 130.44 93.23Q129.28 94.33 128.18 95.8Q132.94 96.89 135.8 97.81Q138.67 98.72 140.32 99.7Q141.96 100.68 142.57 101.84Q143.18 102.99 143.43 104.58Q143.67 106.65 143.18 108Q142.7 109.34 141.66 109.89Q140.62 110.44 139.16 110.13Q137.69 109.83 136.11 108.48Q133.91 106.65 131.59 104.4Q129.28 102.14 126.1 98.48ZM143.67 72.13Q147.94 74.2 147.33 75.85Q146.72 77.5 139.16 78.23Q135.13 78.59 129.22 79.27Q123.3 79.94 117.56 80.55Q111.83 81.16 107.44 81.71Q103.05 82.25 102.07 82.38Q97.68 83.11 94.63 83.41Q91.58 83.72 89.38 83.72Q87.19 83.72 85.54 83.29Q83.89 82.86 82.31 82.13Q78.16 80.18 78.46 79.33Q78.77 78.47 83.89 78.23Q87.92 78.11 93.47 77.56Q99.02 77.01 105 76.22Q110.98 75.42 116.83 74.39Q122.69 73.35 127.45 72.25Q130.86 71.4 133.24 70.97Q135.62 70.54 137.39 70.54Q139.16 70.54 140.56 70.97Q141.96 71.4 143.67 72.13ZM118.66 67.74Q118.54 69.93 117.75 71.21Q116.95 72.49 115.73 72.98Q114.51 73.47 113.17 73.04Q111.83 72.62 110.61 71.4Q108.9 69.69 107.32 67.68Q105.73 65.66 104.02 62.61Q102.31 59.56 102.92 58.71Q103.53 57.85 106.71 58.46Q110.24 59.07 112.62 59.93Q115 60.78 116.34 62Q117.69 63.22 118.23 64.63Q118.78 66.03 118.66 67.74Z" fill="#0f191a" stroke="#f8d99b" stroke-width="1.2" stroke-opacity="0.24" paint-order="stroke fill" />
  <path d="M115.12 114.37Q123.42 113.39 130.07 112.41Q136.72 111.44 140.26 110.83Q145.01 109.97 148 109.55Q150.99 109.12 153.13 109.3Q155.26 109.49 156.85 110.22Q158.43 110.95 160.26 112.41Q162.83 114.49 163.8 116.07Q164.78 117.66 163.62 118.64Q162.46 119.61 158.98 119.86Q155.51 120.1 149.16 119.37Q144.53 118.88 135.68 119.12Q126.84 119.37 115 120.22Q114.88 125.59 114.94 128.82Q115 132.06 114.88 135.59Q114.64 145.23 114.15 151.27Q113.66 157.31 112.68 160.12Q110.73 165.85 109.45 165.79Q108.17 165.73 106.83 159.63Q106.58 158.9 106.46 157.74Q106.34 156.58 106.28 154.81Q106.22 153.04 106.16 150.54Q106.1 148.04 106.1 144.38L106.1 120.95Q99.75 121.56 94.38 122.11Q89.02 122.66 85.6 123.27Q81.94 123.88 78.89 124.55Q75.84 125.22 71.2 126.44Q69.13 127.05 67.67 127.24Q66.2 127.42 64.86 127.18Q63.52 126.93 62.05 126.2Q60.59 125.47 58.39 124Q55.59 122.17 55.95 121.08Q56.32 119.98 59.98 119.86Q64.74 119.73 76.51 118.64Q88.28 117.54 106.1 115.46Q105.97 112.29 105.61 110.77Q105.24 109.24 104.63 108.27Q100.97 102.9 107.8 104.36Q111.22 105.09 113.11 105.7Q115 106.31 115.86 106.99Q116.71 107.66 116.65 108.51Q116.59 109.36 116.1 110.58Q115.25 112.54 115.12 114.37ZM90.72 99.36Q87.92 102.41 84.14 105.22Q80.35 108.02 77.18 109.61Q71.57 112.29 70.84 111.38Q70.11 110.46 74.01 107.17Q76.57 104.97 78.4 103.08Q80.23 101.19 81.7 99.36Q83.16 97.53 84.38 95.7Q85.6 93.87 86.7 91.8Q87.92 89.72 88.41 87.65Q88.89 85.57 88.28 84.48Q86.58 81.18 88.34 80.45Q90.11 79.72 95.6 82.77Q100.61 85.57 101.09 87.04Q101.58 88.5 99.02 90.33Q97.56 91.31 96.46 92.53Q95.36 93.75 93.29 96.19Q95.97 97.29 97.68 98.08Q99.39 98.87 100.36 99.6Q101.34 100.34 101.7 101.13Q102.07 101.92 102.31 102.78Q102.68 104.85 102.19 106.31Q101.7 107.78 100.67 108.39Q99.63 109 98.35 108.63Q97.07 108.27 95.97 106.8Q94.14 104.48 92.98 102.78Q91.82 101.07 90.72 99.36ZM126.1 94.48Q123.91 97.29 121.1 99.48Q118.3 101.68 115.98 102.9Q111.46 105.22 110.73 104.48Q110 103.75 112.93 100.58Q115.49 97.77 117.32 95.09Q119.15 92.41 120.37 89.97Q122.93 84.72 122.2 81.55Q121.47 78.5 122.87 77.95Q124.27 77.4 128.91 79.84Q131.47 81.18 132.81 82.16Q134.16 83.13 134.58 83.93Q135.01 84.72 134.58 85.45Q134.16 86.18 133.18 86.92Q131.59 88.14 130.44 89.23Q129.28 90.33 128.18 91.8Q132.94 92.89 135.8 93.81Q138.67 94.72 140.32 95.7Q141.96 96.68 142.57 97.84Q143.18 98.99 143.43 100.58Q143.67 102.65 143.18 104Q142.7 105.34 141.66 105.89Q140.62 106.44 139.16 106.13Q137.69 105.83 136.11 104.48Q133.91 102.65 131.59 100.4Q129.28 98.14 126.1 94.48ZM143.67 68.13Q147.94 70.2 147.33 71.85Q146.72 73.5 139.16 74.23Q135.13 74.59 129.22 75.27Q123.3 75.94 117.56 76.55Q111.83 77.16 107.44 77.71Q103.05 78.25 102.07 78.38Q97.68 79.11 94.63 79.41Q91.58 79.72 89.38 79.72Q87.19 79.72 85.54 79.29Q83.89 78.86 82.31 78.13Q78.16 76.18 78.46 75.33Q78.77 74.47 83.89 74.23Q87.92 74.11 93.47 73.56Q99.02 73.01 105 72.22Q110.98 71.42 116.83 70.39Q122.69 69.35 127.45 68.25Q130.86 67.4 133.24 66.97Q135.62 66.54 137.39 66.54Q139.16 66.54 140.56 66.97Q141.96 67.4 143.67 68.13ZM118.66 63.74Q118.54 65.93 117.75 67.21Q116.95 68.49 115.73 68.98Q114.51 69.47 113.17 69.04Q111.83 68.62 110.61 67.4Q108.9 65.69 107.32 63.68Q105.73 61.66 104.02 58.61Q102.31 55.56 102.92 54.71Q103.53 53.85 106.71 54.46Q110.24 55.07 112.62 55.93Q115 56.78 116.34 58Q117.69 59.22 118.23 60.63Q118.78 62.03 118.66 63.74Z" fill="#1f2f31" />
</svg>
