<?xml version="1.0" encoding="UTF-8"?>
<svg xmlns="http://www.w3.org/2000/svg" shape-rendering="geometricPrecision" text-rendering="geometricPrecision" viewBox="-18 -18 256 256" role="img" aria-labelledby="title desc">
  <title id="title">紅方相棋子</title>
  <desc id="desc">浅木立体象棋棋子，繁体字，带柔和投影。</desc>
  <defs>
    <filter id="red-xiang-shadow" x="-20%" y="-20%" width="145%" height="145%" color-interpolation-filters="sRGB">
      <feDropShadow dx="7" dy="9" stdDeviation="5" flood-color="#2a1608" flood-opacity="0.42" />
    </filter>
    <radialGradient id="red-xiang-body" cx="34%" cy="24%" r="78%">
      <stop offset="0" stop-color="#ffe8b9" />
      <stop offset="0.42" stop-color="#d99b55" />
      <stop offset="0.76" stop-color="#a7632c" />
      <stop offset="1" stop-color="#6b3819" />
    </radialGradient>
    <radialGradient id="red-xiang-face" cx="37%" cy="26%" r="72%">
      <stop offset="0" stop-color="#fff0ca" />
      <stop offset="0.5" stop-color="#e0ad68" />
      <stop offset="1" stop-color="#9a5824" />
    </radialGradient>
    <linearGradient id="red-xiang-rim-light" x1="0" y1="0" x2="0" y2="1">
      <stop offset="0" stop-color="#ffe6ae" stop-opacity="0.92" />
      <stop offset="0.55" stop-color="#c9853e" stop-opacity="0.35" />
      <stop offset="1" stop-color="#5d2f14" stop-opacity="0.78" />
    </linearGradient>
    <pattern id="red-xiang-grain" width="96" height="30" patternUnits="userSpaceOnUse" patternTransform="rotate(-12)">
      <path d="M -20 13 C 12 4, 46 25, 82 12 C 104 4, 124 7, 142 18" fill="none" stroke="#fff2c7" stroke-width="1.5" stroke-opacity="0.18" />
      <path d="M -12 25 C 24 13, 59 35, 105 21" fill="none" stroke="#6c3718" stroke-width="1.4" stroke-opacity="0.13" />
    </pattern>
  </defs>

  <circle cx="110" cy="110" r="110" fill="url(#red-xiang-body)" filter="url(#red-xiang-shadow)" />
  <circle cx="110" cy="110" r="108" fill="none" stroke="#4d2811" stroke-width="2.2" stroke-opacity="0.55" />
  <circle cx="110" cy="110" r="101" fill="none" stroke="#ffdda0" stroke-width="3.2" stroke-opacity="0.58" />
  <circle cx="110" cy="110" r="93" fill="url(#red-xiang-face)" />
  <circle cx="110" cy="110" r="93" fill="url(#red-xiang-grain)" opacity="0.9" />
  <circle cx="110" cy="110" r="82" fill="none" stroke="#6d3a19" stroke-width="6.5" stroke-opacity="0.88" />
  <circle cx="110" cy="110" r="72" fill="none" stroke="#ffe2a8" stroke-width="2" stroke-opacity="0.45" />
  <path d="M 28 96 C 33 52, 65 24, 111 20 C 73 35, 51 65, 49 101 C 47 133, 61 161, 87 178 C 49 163, 25 132, 28 96 Z" fill="#fff1c5" opacity="0.22" />
  <path d="M 164 23 C 195 48, 211 86, 207 124 C 203 163, 175 195, 137 207 C 169 184, 188 152, 185 116 C 183 78, 174 47, 164 23 Z" fill="#4a250f" opacity="0.2" />

  <path d="M117.2 89.88Q124.52 89.02 129.95 87.68Q135.38 86.34 138.55 84.51Q139.65 83.78 140.68 83.47Q141.72 83.17 142.88 83.29Q144.04 83.41 145.44 83.96Q146.84 84.51 148.8 85.61Q151.85 87.31 153.55 88.47Q155.26 89.63 155.81 90.61Q156.36 91.58 155.99 92.56Q155.63 93.54 154.65 94.76Q153.43 96.46 152.88 100.86Q152.33 105.25 152.7 112.08Q153.31 121.6 153.49 129.34Q153.68 137.09 153.55 141.48Q153.55 146.12 152.64 149.96Q151.72 153.8 150.44 156.61Q149.16 159.42 147.64 160.88Q146.11 162.34 144.89 162.22Q144.28 162.1 142.82 158.93Q141.35 155.76 140.01 149.9Q139.4 147.58 138.3 147.09Q137.21 146.61 134.52 147.22Q131.84 147.83 127.69 148.13Q123.54 148.44 119.15 148.44Q118.42 153.56 117.56 155.51Q116.71 157.46 115.61 157.46Q114.15 157.46 112.93 156.24Q111.71 155.02 110.98 152.89Q110.24 150.75 110.12 148.01Q110 145.26 110.85 142.09Q111.22 140.75 111.46 138.92Q111.71 137.09 111.89 134.47Q112.07 131.84 112.2 128.24Q112.32 124.65 112.44 119.89Q112.44 112.93 112.38 108.36Q112.32 103.78 112.01 100.73Q111.71 97.68 111.22 95.85Q110.73 94.02 109.88 92.68Q107.68 88.9 109.09 88.11Q110.49 87.31 117.2 89.88ZM82.92 103.66Q75.6 104.88 71.02 105Q66.45 105.13 62.3 104.52Q58.39 103.91 58.52 102.75Q58.64 101.59 62.66 100.98Q68.89 100.12 74.68 98.84Q80.48 97.56 85.6 95.85L85.6 90.49Q85.6 87.68 85.48 84.75Q85.23 77.31 84.62 73.83Q84.01 70.36 82.67 68.65Q79.74 64.87 81.39 63.52Q83.04 62.18 89.38 64.99Q92.55 66.45 94.32 67.49Q96.09 68.53 96.7 69.5Q97.31 70.48 96.95 71.58Q96.58 72.67 95.48 74.26Q94.51 75.6 93.84 80.18Q93.16 84.75 92.8 93.54Q96.58 92.44 98.65 92.38Q100.73 92.32 103.53 93.17Q107.56 94.51 107.68 96.4Q107.8 98.29 102.68 99.51Q100 100.12 97.43 100.67Q94.87 101.22 92.43 101.83Q92.43 104.15 92.37 107.2Q92.31 110.25 92.31 112.69Q96.21 113.06 98.78 113.6Q101.34 114.15 102.8 114.89Q104.27 115.62 105 116.59Q105.73 117.57 105.97 118.79Q106.34 120.62 106.03 122.02Q105.73 123.43 104.94 124.28Q104.14 125.13 103.05 125.26Q101.95 125.38 100.85 124.77Q97.31 122.82 92.31 117.45L92.31 140.75Q92.31 144.78 92.19 147.76Q92.07 150.75 91.88 153.13Q91.7 155.51 91.33 157.59Q90.97 159.66 90.48 161.61Q89.63 164.78 87.73 164.91Q85.84 165.03 83.89 162.47Q82.18 160.15 81.27 158.56Q80.35 156.98 80.23 155.39Q80.11 153.8 80.66 151.85Q81.21 149.9 82.55 146.73Q83.28 145.02 84.14 136.97Q84.99 128.92 85.36 115.86Q80.23 125.01 73.52 131.42Q66.81 137.82 58.39 142.34Q53.27 145.14 52.72 144.1Q52.17 143.07 56.44 139.16Q60.71 135.5 64.07 132.03Q67.42 128.55 70.47 124.52Q73.52 120.5 76.45 115.5Q79.38 110.49 82.92 103.66ZM120.25 107.81Q124.76 106.35 127.63 105.49Q130.5 104.64 132.39 104.39Q134.28 104.15 135.44 104.33Q136.6 104.52 137.69 105Q139.89 105.98 139.65 107.63Q139.4 109.27 136.35 109.88Q132.81 110.62 130.37 111.1Q127.93 111.59 126.16 111.77Q124.4 111.96 123.05 111.9Q121.71 111.84 120.25 111.59L120.25 117.57Q120.25 120.5 120.13 123.43Q124.64 122.08 127.51 121.29Q130.37 120.5 132.08 120.25Q133.79 120.01 134.7 120.07Q135.62 120.13 136.23 120.38Q139.65 121.72 139.77 123.49Q139.89 125.26 137.21 125.99Q132.69 127.33 128.42 127.63Q124.15 127.94 120 127.45Q120 131.72 119.94 135.81Q119.88 139.9 119.76 143.19Q126.35 142.09 130.31 141.6Q134.28 141.12 136.41 140.93Q138.55 140.75 139.28 140.99Q140.01 141.24 140.26 141.6Q141.23 143.31 142.33 143.31Q143.43 143.31 143.55 142.34Q144.4 128.06 144.1 116.78Q143.79 105.49 142.45 95.61Q142.09 93.17 141.23 92.44Q140.38 91.71 138.55 91.95Q134.64 92.32 132.57 92.62Q130.5 92.93 128.79 93.29Q124.27 94.39 120.13 94.76Q120.13 97.68 120.19 100.98Q120.25 104.27 120.25 107.81Z" fill="#5e1712" stroke="#f8d99b" stroke-width="1.2" stroke-opacity="0.24" paint-order="stroke fill" />
  <path d="M117.2 85.88Q124.52 85.02 129.95 83.68Q135.38 82.34 138.55 80.51Q139.65 79.78 140.68 79.47Q141.72 79.17 142.88 79.29Q144.04 79.41 145.44 79.96Q146.84 80.51 148.8 81.61Q151.85 83.31 153.55 84.47Q155.26 85.63 155.81 86.61Q156.36 87.58 155.99 88.56Q155.63 89.54 154.65 90.76Q153.43 92.46 152.88 96.86Q152.33 101.25 152.7 108.08Q153.31 117.6 153.49 125.34Q153.68 133.09 153.55 137.48Q153.55 142.12 152.64 145.96Q151.72 149.8 150.44 152.61Q149.16 155.42 147.64 156.88Q146.11 158.34 144.89 158.22Q144.28 158.1 142.82 154.93Q141.35 151.76 140.01 145.9Q139.4 143.58 138.3 143.09Q137.21 142.61 134.52 143.22Q131.84 143.83 127.69 144.13Q123.54 144.44 119.15 144.44Q118.42 149.56 117.56 151.51Q116.71 153.46 115.61 153.46Q114.15 153.46 112.93 152.24Q111.71 151.02 110.98 148.89Q110.24 146.75 110.12 144.01Q110 141.26 110.85 138.09Q111.22 136.75 111.46 134.92Q111.71 133.09 111.89 130.47Q112.07 127.84 112.2 124.24Q112.32 120.65 112.44 115.89Q112.44 108.93 112.38 104.36Q112.32 99.78 112.01 96.73Q111.71 93.68 111.22 91.85Q110.73 90.02 109.88 88.68Q107.68 84.9 109.09 84.11Q110.49 83.31 117.2 85.88ZM82.92 99.66Q75.6 100.88 71.02 101Q66.45 101.13 62.3 100.52Q58.39 99.91 58.52 98.75Q58.64 97.59 62.66 96.98Q68.89 96.12 74.68 94.84Q80.48 93.56 85.6 91.85L85.6 86.49Q85.6 83.68 85.48 80.75Q85.23 73.31 84.62 69.83Q84.01 66.36 82.67 64.65Q79.74 60.87 81.39 59.52Q83.04 58.18 89.38 60.99Q92.55 62.45 94.32 63.49Q96.09 64.53 96.7 65.5Q97.31 66.48 96.95 67.58Q96.58 68.67 95.48 70.26Q94.51 71.6 93.84 76.18Q93.16 80.75 92.8 89.54Q96.58 88.44 98.65 88.38Q100.73 88.32 103.53 89.17Q107.56 90.51 107.68 92.4Q107.8 94.29 102.68 95.51Q100 96.12 97.43 96.67Q94.87 97.22 92.43 97.83Q92.43 100.15 92.37 103.2Q92.31 106.25 92.31 108.69Q96.21 109.06 98.78 109.6Q101.34 110.15 102.8 110.89Q104.27 111.62 105 112.59Q105.73 113.57 105.97 114.79Q106.34 116.62 106.03 118.02Q105.73 119.43 104.94 120.28Q104.14 121.13 103.05 121.26Q101.95 121.38 100.85 120.77Q97.31 118.82 92.31 113.45L92.31 136.75Q92.31 140.78 92.19 143.76Q92.07 146.75 91.88 149.13Q91.7 151.51 91.33 153.59Q90.97 155.66 90.48 157.61Q89.63 160.78 87.73 160.91Q85.84 161.03 83.89 158.47Q82.18 156.15 81.27 154.56Q80.35 152.98 80.23 151.39Q80.11 149.8 80.66 147.85Q81.21 145.9 82.55 142.73Q83.28 141.02 84.14 132.97Q84.99 124.92 85.36 111.86Q80.23 121.01 73.52 127.42Q66.81 133.82 58.39 138.34Q53.27 141.14 52.72 140.1Q52.17 139.07 56.44 135.16Q60.71 131.5 64.07 128.03Q67.42 124.55 70.47 120.52Q73.52 116.5 76.45 111.5Q79.38 106.49 82.92 99.66ZM120.25 103.81Q124.76 102.35 127.63 101.49Q130.5 100.64 132.39 100.39Q134.28 100.15 135.44 100.33Q136.6 100.52 137.69 101Q139.89 101.98 139.65 103.63Q139.4 105.27 136.35 105.88Q132.81 106.62 130.37 107.1Q127.93 107.59 126.16 107.77Q124.4 107.96 123.05 107.9Q121.71 107.84 120.25 107.59L120.25 113.57Q120.25 116.5 120.13 119.43Q124.64 118.08 127.51 117.29Q130.37 116.5 132.08 116.25Q133.79 116.01 134.7 116.07Q135.62 116.13 136.23 116.38Q139.65 117.72 139.77 119.49Q139.89 121.26 137.21 121.99Q132.69 123.33 128.42 123.63Q124.15 123.94 120 123.45Q120 127.72 119.94 131.81Q119.88 135.9 119.76 139.19Q126.35 138.09 130.31 137.6Q134.28 137.12 136.41 136.93Q138.55 136.75 139.28 136.99Q140.01 137.24 140.26 137.6Q141.23 139.31 142.33 139.31Q143.43 139.31 143.55 138.34Q144.4 124.06 144.1 112.78Q143.79 101.49 142.45 91.61Q142.09 89.17 141.23 88.44Q140.38 87.71 138.55 87.95Q134.64 88.32 132.57 88.62Q130.5 88.93 128.79 89.29Q124.27 90.39 120.13 90.76Q120.13 93.68 120.19 96.98Q120.25 100.27 120.25 103.81Z" fill="#8e2d21" />
</svg>
