<?xml version="1.0" encoding="UTF-8"?>
<svg xmlns="http://www.w3.org/2000/svg" shape-rendering="geometricPrecision" text-rendering="geometricPrecision" viewBox="-18 -18 256 256" role="img" aria-labelledby="title desc">
  <title id="title">紅方帥棋子</title>
  <desc id="desc">浅木立体象棋棋子，繁体字，带柔和投影。</desc>
  <defs>
    <filter id="red-shuai-shadow" x="-20%" y="-20%" width="145%" height="145%" color-interpolation-filters="sRGB">
      <feDropShadow dx="7" dy="9" stdDeviation="5" flood-color="#2a1608" flood-opacity="0.42" />
    </filter>
    <radialGradient id="red-shuai-body" cx="34%" cy="24%" r="78%">
      <stop offset="0" stop-color="#ffe8b9" />
      <stop offset="0.42" stop-color="#d99b55" />
      <stop offset="0.76" stop-color="#a7632c" />
      <stop offset="1" stop-color="#6b3819" />
    </radialGradient>
    <radialGradient id="red-shuai-face" cx="37%" cy="26%" r="72%">
      <stop offset="0" stop-color="#fff0ca" />
      <stop offset="0.5" stop-color="#e0ad68" />
      <stop offset="1" stop-color="#9a5824" />
    </radialGradient>
    <linearGradient id="red-shuai-rim-light" x1="0" y1="0" x2="0" y2="1">
      <stop offset="0" stop-color="#ffe6ae" stop-opacity="0.92" />
      <stop offset="0.55" stop-color="#c9853e" stop-opacity="0.35" />
      <stop offset="1" stop-color="#5d2f14" stop-opacity="0.78" />
    </linearGradient>
    <pattern id="red-shuai-grain" width="96" height="30" patternUnits="userSpaceOnUse" patternTransform="rotate(-12)">
      <path d="M -20 13 C 12 4, 46 25, 82 12 C 104 4, 124 7, 142 18" fill="none" stroke="#fff2c7" stroke-width="1.5" stroke-opacity="0.18" />
      <path d="M -12 25 C 24 13, 59 35, 105 21" fill="none" stroke="#6c3718" stroke-width="1.4" stroke-opacity="0.13" />
    </pattern>
  </defs>

  <circle cx="110" cy="110" r="110" fill="url(#red-shuai-body)" filter="url(#red-shuai-shadow)" />
  <circle cx="110" cy="110" r="108" fill="none" stroke="#4d2811" stroke-width="2.2" stroke-opacity="0.55" />
  <circle cx="110" cy="110" r="101" fill="none" stroke="#ffdda0" stroke-width="3.2" stroke-opacity="0.58" />
  <circle cx="110" cy="110" r="93" fill="url(#red-shuai-face)" />
  <circle cx="110" cy="110" r="93" fill="url(#red-shuai-grain)" opacity="0.9" />
  <circle cx="110" cy="110" r="82" fill="none" stroke="#6d3a19" stroke-width="6.5" stroke-opacity="0.88" />
  <circle cx="110" cy="110" r="72" fill="none" stroke="#ffe2a8" stroke-width="2" stroke-opacity="0.45" />
  <path d="M 28 96 C 33 52, 65 24, 111 20 C 73 35, 51 65, 49 101 C 47 133, 61 161, 87 178 C 49 163, 25 132, 28 96 Z" fill="#fff1c5" opacity="0.22" />
  <path d="M 164 23 C 195 48, 211 86, 207 124 C 203 163, 175 195, 137 207 C 169 184, 188 152, 185 116 C 183 78, 174 47, 164 23 Z" fill="#4a250f" opacity="0.2" />

  <path d="M134.89 66.16Q134.16 67.38 133.67 69.15Q133.18 70.92 132.94 73.6Q132.69 76.29 132.57 80.37Q132.45 84.46 132.45 90.32Q136.84 89.34 140.19 88.3Q143.55 87.27 144.89 86.53Q146.11 85.8 147.21 85.44Q148.31 85.07 149.41 85.19Q150.5 85.31 152.03 85.8Q153.55 86.29 155.87 87.39Q158.43 88.61 159.96 89.46Q161.48 90.32 161.97 91.17Q162.46 92.02 162.22 92.82Q161.97 93.61 161.12 94.95Q159.65 97.03 159.23 100.87Q158.8 104.71 159.04 112.4Q159.17 115.57 158.92 117.95Q158.68 120.33 158.01 122.28Q157.34 124.23 156.12 126.06Q154.9 127.89 153.07 130.21Q151.11 132.77 149.1 132.59Q147.09 132.41 146.36 130.33Q145.5 127.28 143.92 125.21Q142.33 123.13 138.79 120.21Q135.86 117.64 136.35 116.79Q136.84 115.94 140.13 116.55Q142.94 117.16 144.59 117.28Q146.23 117.4 147.21 116.97Q148.19 116.55 148.55 115.45Q148.92 114.35 149.04 112.52Q149.53 105.69 148.31 97.27Q147.94 95.07 146.91 94.52Q145.87 93.98 142.57 94.22Q139.77 94.46 137.39 94.83Q135.01 95.2 132.45 95.56L132.45 115.08Q132.45 120.21 132.39 125.09Q132.33 129.97 132.33 133.02Q132.33 139.36 132.14 144.36Q131.96 149.36 131.59 153.33Q131.23 157.29 130.56 160.53Q129.89 163.76 129.03 166.69Q127.69 171.08 126.47 171.14Q125.25 171.2 124.64 165.96Q124.4 163.39 124.21 160.95Q124.03 158.51 123.97 155.71Q123.91 152.9 123.91 149.73L123.91 122.04Q123.91 115.69 123.85 109.16Q123.79 102.64 123.79 97.27Q120.61 97.88 117.93 98.31Q115.25 98.73 112.68 99.22Q113.17 108.25 112.99 114.53Q112.81 120.82 112.2 125.45Q111.46 130.33 109.45 130.58Q107.44 130.82 105.36 127.77Q104.51 126.67 104.08 125.76Q103.66 124.84 103.53 123.74Q103.41 122.65 103.53 121.36Q103.66 120.08 104.02 118.13Q104.51 115.69 104.57 112.7Q104.63 109.71 104.33 106.85Q104.02 103.98 103.47 101.42Q102.92 98.86 102.19 97.51Q100.36 94.59 102.31 93.43Q104.27 92.27 110 94.34Q113.54 93.85 116.95 93.3Q120.37 92.76 123.66 92.15L123.66 91.05Q123.42 82.87 123.24 77.87Q123.05 72.87 122.69 70Q122.32 67.14 121.65 65.49Q120.98 63.84 119.88 62.26Q117.2 58.35 118.6 57.25Q120 56.16 126.1 58.11Q129.89 59.21 132.02 60.06Q134.16 60.91 135.07 61.83Q135.99 62.74 135.8 63.66Q135.62 64.57 134.89 66.16ZM93.41 71.41Q91.09 72.38 85.6 76.83Q80.11 81.29 72.3 88.73Q76.69 88.12 79.74 87.02Q82.79 85.92 85.72 84.09Q87.43 82.87 89.08 82.69Q90.72 82.51 93.9 83.61Q99.14 85.44 99.87 86.66Q100.61 87.88 98.29 89.95Q96.7 91.41 95.36 93.79Q94.02 96.17 93.29 99.1Q99.39 102.52 91.94 104.83Q86.45 106.42 82.25 107.4Q78.04 108.37 73.28 108.98Q73.52 111.91 73.58 114.47Q73.64 117.03 73.77 119.47Q77.3 118.86 80.05 117.89Q82.79 116.91 85.72 114.84Q86.82 114.11 87.73 113.74Q88.65 113.37 89.63 113.37Q90.6 113.37 91.94 113.86Q93.29 114.35 95.12 115.2Q99.87 117.64 100.48 118.92Q101.09 120.21 98.9 122.28Q97.19 123.99 96.09 125.94Q94.99 127.89 93.65 131.92Q99.14 135.82 93.41 137.65Q91.82 138.14 89.08 138.69Q86.33 139.24 82.67 139.85Q80.72 140.21 78.71 140.46Q76.69 140.7 74.25 141.07L74.25 142.29Q74.13 146.68 73.52 149.18Q72.91 151.68 71.94 152.66Q70.96 153.63 69.86 153.15Q68.76 152.66 67.67 151.19Q66.32 149.49 65.59 148.02Q64.86 146.56 64.62 145.03Q64.37 143.51 64.62 141.68Q64.86 139.85 65.47 137.41Q65.96 135.58 66.2 133.02Q66.45 130.45 66.45 126.55Q66.45 122.65 66.14 116.97Q65.84 111.3 65.1 103.37Q64.62 97.88 63.7 94.77Q62.79 91.66 61.32 89.34Q59.98 87.39 61.38 86.41Q62.79 85.44 68.64 86.9Q73.03 81.53 75.53 77.81Q78.04 74.09 79.13 71.53Q80.84 67.99 79.99 66.4Q78.52 63.6 79.99 62.5Q81.45 61.4 86.21 63.11Q90.36 64.57 92.49 65.85Q94.63 67.14 95.3 68.11Q95.97 69.09 95.42 69.94Q94.87 70.8 93.41 71.41ZM83.28 91.17Q79.99 92.02 77.36 92.45Q74.74 92.88 72.06 93.12Q72.3 95.81 72.48 98.55Q72.67 101.3 72.91 104.59Q75.96 103.98 78.83 103.19Q81.7 102.39 84.62 101.05Q85.48 100.69 85.97 99.4Q86.45 98.12 86.7 94.95Q86.94 91.78 86.27 91.11Q85.6 90.44 83.28 91.17ZM74.01 124.23Q74.13 127.4 74.19 130.33Q74.25 133.26 74.25 135.7Q76.45 135.46 78.65 135.03Q80.84 134.6 83.4 133.87Q84.62 133.02 85.3 132.28Q85.97 131.55 86.39 130.7Q86.82 129.84 87.06 128.56Q87.31 127.28 87.55 125.45Q88.04 122.4 87.37 121.85Q86.7 121.3 84.62 121.91Q83.04 122.4 80.23 122.95Q77.43 123.5 74.01 124.23Z" fill="#5e1712" stroke="#f8d99b" stroke-width="1.2" stroke-opacity="0.24" paint-order="stroke fill" />
  <path d="M134.89 62.16Q134.16 63.38 133.67 65.15Q133.18 66.92 132.94 69.6Q132.69 72.29 132.57 76.37Q132.45 80.46 132.45 86.32Q136.84 85.34 140.19 84.3Q143.55 83.27 144.89 82.53Q146.11 81.8 147.21 81.44Q148.31 81.07 149.41 81.19Q150.5 81.31 152.03 81.8Q153.55 82.29 155.87 83.39Q158.43 84.61 159.96 85.46Q161.48 86.32 161.97 87.17Q162.46 88.02 162.22 88.82Q161.97 89.61 161.12 90.95Q159.65 93.03 159.23 96.87Q158.8 100.71 159.04 108.4Q159.17 111.57 158.92 113.95Q158.68 116.33 158.01 118.28Q157.34 120.23 156.12 122.06Q154.9 123.89 153.07 126.21Q151.11 128.77 149.1 128.59Q147.09 128.41 146.36 126.33Q145.5 123.28 143.92 121.21Q142.33 119.13 138.79 116.21Q135.86 113.64 136.35 112.79Q136.84 111.94 140.13 112.55Q142.94 113.16 144.59 113.28Q146.23 113.4 147.21 112.97Q148.19 112.55 148.55 111.45Q148.92 110.35 149.04 108.52Q149.53 101.69 148.31 93.27Q147.94 91.07 146.91 90.52Q145.87 89.98 142.57 90.22Q139.77 90.46 137.39 90.83Q135.01 91.2 132.45 91.56L132.45 111.08Q132.45 116.21 132.39 121.09Q132.33 125.97 132.33 129.02Q132.33 135.36 132.14 140.36Q131.96 145.36 131.59 149.33Q131.23 153.29 130.56 156.53Q129.89 159.76 129.03 162.69Q127.69 167.08 126.47 167.14Q125.25 167.2 124.64 161.96Q124.4 159.39 124.21 156.95Q124.03 154.51 123.97 151.71Q123.91 148.9 123.91 145.73L123.91 118.04Q123.91 111.69 123.85 105.16Q123.79 98.64 123.79 93.27Q120.61 93.88 117.93 94.31Q115.25 94.73 112.68 95.22Q113.17 104.25 112.99 110.53Q112.81 116.82 112.2 121.45Q111.46 126.33 109.45 126.58Q107.44 126.82 105.36 123.77Q104.51 122.67 104.08 121.76Q103.66 120.84 103.53 119.74Q103.41 118.65 103.53 117.36Q103.66 116.08 104.02 114.13Q104.51 111.69 104.57 108.7Q104.63 105.71 104.33 102.85Q104.02 99.98 103.47 97.42Q102.92 94.86 102.19 93.51Q100.36 90.59 102.31 89.43Q104.27 88.27 110 90.34Q113.54 89.85 116.95 89.3Q120.37 88.76 123.66 88.15L123.66 87.05Q123.42 78.87 123.24 73.87Q123.05 68.87 122.69 66Q122.32 63.14 121.65 61.49Q120.98 59.84 119.88 58.26Q117.2 54.35 118.6 53.25Q120 52.16 126.1 54.11Q129.89 55.21 132.02 56.06Q134.16 56.91 135.07 57.83Q135.99 58.74 135.8 59.66Q135.62 60.57 134.89 62.16ZM93.41 67.41Q91.09 68.38 85.6 72.83Q80.11 77.29 72.3 84.73Q76.69 84.12 79.74 83.02Q82.79 81.92 85.72 80.09Q87.43 78.87 89.08 78.69Q90.72 78.51 93.9 79.61Q99.14 81.44 99.87 82.66Q100.61 83.88 98.29 85.95Q96.7 87.41 95.36 89.79Q94.02 92.17 93.29 95.1Q99.39 98.52 91.94 100.83Q86.45 102.42 82.25 103.4Q78.04 104.37 73.28 104.98Q73.52 107.91 73.58 110.47Q73.64 113.03 73.77 115.47Q77.3 114.86 80.05 113.89Q82.79 112.91 85.72 110.84Q86.82 110.11 87.73 109.74Q88.65 109.37 89.63 109.37Q90.6 109.37 91.94 109.86Q93.29 110.35 95.12 111.2Q99.87 113.64 100.48 114.92Q101.09 116.21 98.9 118.28Q97.19 119.99 96.09 121.94Q94.99 123.89 93.65 127.92Q99.14 131.82 93.41 133.65Q91.82 134.14 89.08 134.69Q86.33 135.24 82.67 135.85Q80.72 136.21 78.71 136.46Q76.69 136.7 74.25 137.07L74.25 138.29Q74.13 142.68 73.52 145.18Q72.91 147.68 71.94 148.66Q70.96 149.63 69.86 149.15Q68.76 148.66 67.67 147.19Q66.32 145.49 65.59 144.02Q64.86 142.56 64.62 141.03Q64.37 139.51 64.62 137.68Q64.86 135.85 65.47 133.41Q65.96 131.58 66.2 129.02Q66.45 126.45 66.45 122.55Q66.45 118.65 66.14 112.97Q65.84 107.3 65.1 99.37Q64.62 93.88 63.7 90.77Q62.79 87.66 61.32 85.34Q59.98 83.39 61.38 82.41Q62.79 81.44 68.64 82.9Q73.03 77.53 75.53 73.81Q78.04 70.09 79.13 67.53Q80.84 63.99 79.99 62.4Q78.52 59.6 79.99 58.5Q81.45 57.4 86.21 59.11Q90.36 60.57 92.49 61.85Q94.63 63.14 95.3 64.11Q95.97 65.09 95.42 65.94Q94.87 66.8 93.41 67.41ZM83.28 87.17Q79.99 88.02 77.36 88.45Q74.74 88.88 72.06 89.12Q72.3 91.81 72.48 94.55Q72.67 97.3 72.91 100.59Q75.96 99.98 78.83 99.19Q81.7 98.39 84.62 97.05Q85.48 96.69 85.97 95.4Q86.45 94.12 86.7 90.95Q86.94 87.78 86.27 87.11Q85.6 86.44 83.28 87.17ZM74.01 120.23Q74.13 123.4 74.19 126.33Q74.25 129.26 74.25 131.7Q76.45 131.46 78.65 131.03Q80.84 130.6 83.4 129.87Q84.62 129.02 85.3 128.28Q85.97 127.55 86.39 126.7Q86.82 125.84 87.06 124.56Q87.31 123.28 87.55 121.45Q88.04 118.4 87.37 117.85Q86.7 117.3 84.62 117.91Q83.04 118.4 80.23 118.95Q77.43 119.5 74.01 120.23Z" fill="#8e2d21" />
</svg>
