<?xml version="1.0" encoding="UTF-8"?>
<svg xmlns="http://www.w3.org/2000/svg" shape-rendering="geometricPrecision" text-rendering="geometricPrecision" viewBox="-18 -18 256 256" role="img" aria-labelledby="title desc">
  <title id="title">紅方炮棋子</title>
  <desc id="desc">浅木立体象棋棋子，繁体字，带柔和投影。</desc>
  <defs>
    <filter id="red-pao-shadow" x="-20%" y="-20%" width="145%" height="145%" color-interpolation-filters="sRGB">
      <feDropShadow dx="7" dy="9" stdDeviation="5" flood-color="#2a1608" flood-opacity="0.42" />
    </filter>
    <radialGradient id="red-pao-body" cx="34%" cy="24%" r="78%">
      <stop offset="0" stop-color="#ffe8b9" />
      <stop offset="0.42" stop-color="#d99b55" />
      <stop offset="0.76" stop-color="#a7632c" />
      <stop offset="1" stop-color="#6b3819" />
    </radialGradient>
    <radialGradient id="red-pao-face" cx="37%" cy="26%" r="72%">
      <stop offset="0" stop-color="#fff0ca" />
      <stop offset="0.5" stop-color="#e0ad68" />
      <stop offset="1" stop-color="#9a5824" />
    </radialGradient>
    <linearGradient id="red-pao-rim-light" x1="0" y1="0" x2="0" y2="1">
      <stop offset="0" stop-color="#ffe6ae" stop-opacity="0.92" />
      <stop offset="0.55" stop-color="#c9853e" stop-opacity="0.35" />
      <stop offset="1" stop-color="#5d2f14" stop-opacity="0.78" />
    </linearGradient>
    <pattern id="red-pao-grain" width="96" height="30" patternUnits="userSpaceOnUse" patternTransform="rotate(-12)">
      <path d="M -20 13 C 12 4, 46 25, 82 12 C 104 4, 124 7, 142 18" fill="none" stroke="#fff2c7" stroke-width="1.5" stroke-opacity="0.18" />
      <path d="M -12 25 C 24 13, 59 35, 105 21" fill="none" stroke="#6c3718" stroke-width="1.4" stroke-opacity="0.13" />
    </pattern>
  </defs>

  <circle cx="110" cy="110" r="110" fill="url(#red-pao-body)" filter="url(#red-pao-shadow)" />
  <circle cx="110" cy="110" r="108" fill="none" stroke="#4d2811" stroke-width="2.2" stroke-opacity="0.55" />
  <circle cx="110" cy="110" r="101" fill="none" stroke="#ffdda0" stroke-width="3.2" stroke-opacity="0.58" />
  <circle cx="110" cy="110" r="93" fill="url(#red-pao-face)" />
  <circle cx="110" cy="110" r="93" fill="url(#red-pao-grain)" opacity="0.9" />
  <circle cx="110" cy="110" r="82" fill="none" stroke="#6d3a19" stroke-width="6.5" stroke-opacity="0.88" />
  <circle cx="110" cy="110" r="72" fill="none" stroke="#ffe2a8" stroke-width="2" stroke-opacity="0.45" />
  <path d="M 28 96 C 33 52, 65 24, 111 20 C 73 35, 51 65, 49 101 C 47 133, 61 161, 87 178 C 49 163, 25 132, 28 96 Z" fill="#fff1c5" opacity="0.22" />
  <path d="M 164 23 C 195 48, 211 86, 207 124 C 203 163, 175 195, 137 207 C 169 184, 188 152, 185 116 C 183 78, 174 47, 164 23 Z" fill="#4a250f" opacity="0.2" />

  <path d="M105.36 111.31Q112.81 110.58 115.86 107.89Q118.3 105.82 119.94 105.64Q121.59 105.45 124.76 107.04Q129.28 109.23 129.7 110.45Q130.13 111.67 127.69 113.75Q125.62 115.46 124.58 117.1Q123.54 118.75 122.57 121.56Q125.01 123.26 124.82 124.73Q124.64 126.19 121.47 127.17Q120 127.66 118.11 128.14Q116.22 128.63 114.76 129Q112.93 129.61 110.73 129.91Q108.54 130.22 106.46 130.22Q106.46 133.76 106.46 137.29Q106.46 140.83 106.71 142.3Q107.07 145.47 107.62 147.42Q108.17 149.37 109.88 150.59Q111.59 151.81 114.82 152.54Q118.05 153.28 123.66 154.01Q128.06 154.62 133.73 154.07Q139.4 153.52 144.77 151.81Q147.45 150.96 149.22 149.98Q150.99 149.01 152.27 147.12Q153.55 145.22 154.53 142.17Q155.51 139.12 156.6 134Q157.7 128.51 159.11 128.45Q160.51 128.39 160.87 133.51Q161.12 137.42 161.42 139.98Q161.73 142.54 162.16 144.25Q162.58 145.96 163.13 147.12Q163.68 148.27 164.53 149.25Q165.51 150.35 165.75 151.63Q166 152.91 165.2 154.31Q164.41 155.72 162.34 157.12Q160.26 158.52 156.6 159.99Q153.68 161.21 148.55 162.06Q143.43 162.91 137.75 163.4Q132.08 163.89 126.71 163.83Q121.35 163.77 117.81 163.16Q112.93 162.3 109.76 161.15Q106.58 159.99 104.63 158.22Q102.68 156.45 101.7 154.01Q100.73 151.57 100.36 148.15Q100.12 146.32 99.94 144.43Q99.75 142.54 99.63 140.1Q99.51 137.66 99.45 134.43Q99.39 131.19 99.39 126.56Q99.39 121.92 99.08 118.99Q98.78 116.07 97.8 113.99Q96.46 110.94 97.92 110.09Q99.39 109.23 105.36 111.31ZM106.58 125.95Q108.41 125.7 109.94 125.4Q111.46 125.09 112.81 124.73Q115.49 124 116.34 122.29Q116.83 120.82 117.08 119.48Q117.32 118.14 117.56 115.7Q117.81 113.87 117.14 113.44Q116.47 113.02 115 113.5Q111.22 114.72 106.71 115.21Q106.95 118.75 106.89 121.07Q106.83 123.39 106.58 125.95ZM73.52 114.11Q72.79 119.6 70.29 120.03Q67.79 120.46 65.35 116.43Q63.64 113.75 62.42 110.88Q61.2 108.01 60.22 104.84Q58.39 98.99 64.25 101.91Q70.11 104.84 72.06 107.83Q74.01 110.82 73.52 114.11ZM86.33 100.33Q89.75 96.79 91.15 94.35Q92.55 91.91 92.43 89.71Q92.31 87.27 93.53 86.79Q94.75 86.3 98.65 88.62Q100.73 89.84 101.77 90.69Q102.8 91.54 102.92 92.28Q103.05 93.01 102.38 93.86Q101.7 94.72 100.24 95.81Q99.02 96.79 95.12 99.35Q91.21 101.91 86.09 105.09Q85.36 120.82 83.04 130.95Q87.06 132.41 89.5 133.7Q91.94 134.98 93.22 136.44Q94.51 137.9 94.87 139.73Q95.24 141.56 95.12 143.88Q94.87 147.42 92.55 148.15Q90.24 148.88 88.53 146.57Q86.7 144 85.11 141.44Q83.53 138.88 81.82 135.46Q79.13 144.49 74.5 150.35Q69.86 156.2 62.54 160.96Q58.03 163.89 57.23 162.98Q56.44 162.06 59.74 158.52Q64.25 153.64 67.42 148.76Q70.59 143.88 72.73 137.84Q74.86 131.8 76.02 124Q77.18 116.19 77.67 105.33Q78.04 96.67 78.1 91.06Q78.16 85.44 77.85 81.97Q77.55 78.49 76.88 76.6Q76.21 74.71 75.35 73.61Q72.3 69.83 74.01 68.3Q75.72 66.78 82.55 69.34Q88.04 71.41 89.14 73.24Q90.24 75.07 88.77 77.76Q88.41 78.61 88.04 79.83Q87.67 81.05 87.43 83.43Q87.19 85.81 86.94 89.84Q86.7 93.86 86.33 100.33ZM113.29 96.42Q111.22 98.86 108.9 101Q106.58 103.13 103.78 105.21Q99.14 108.62 98.23 107.95Q97.31 107.28 100.12 103.62Q104.27 98.25 107.99 91.67Q111.71 85.08 114.15 77.88Q115.12 74.95 115.31 73.12Q115.49 71.29 114.88 69.71Q113.17 65.44 115 64.4Q116.83 63.36 123.66 66.9Q128.06 69.22 128.67 71.05Q129.28 72.88 127.08 74.83Q125.74 75.93 124.58 77.64Q123.42 79.34 122.08 82.15Q120.74 84.96 119.39 87.34Q118.05 89.71 116.59 91.91Q119.27 91.54 122.32 90.93Q125.37 90.32 128.18 89.53Q130.98 88.74 133.36 87.82Q135.74 86.91 136.96 86.18Q138.18 85.44 139.16 85.02Q140.13 84.59 141.17 84.59Q142.21 84.59 143.43 85.08Q144.65 85.57 146.48 86.66Q149.16 88.25 150.63 89.41Q152.09 90.57 152.52 91.48Q152.94 92.4 152.64 93.25Q152.33 94.11 151.48 94.96Q150.14 96.3 149.16 99.35Q148.19 102.4 147.58 108.26Q146.84 115.33 146.05 119.97Q145.26 124.61 144.34 127.66Q143.43 130.71 142.33 132.48Q141.23 134.24 139.77 135.59Q136.6 138.76 134.52 138.7Q132.45 138.64 131.84 135.83Q131.11 131.93 127.2 127.29Q125.13 124.85 125.92 124Q126.71 123.14 130.62 124.48Q133.3 125.46 134.46 124.79Q135.62 124.12 136.23 120.7Q136.96 117.04 137.45 114.3Q137.94 111.55 138.3 108.99Q138.67 106.43 138.85 103.68Q139.04 100.94 139.16 97.28Q139.28 94.35 138.3 93.62Q137.33 92.89 134.77 93.5Q131.59 94.35 127.39 95.14Q123.18 95.94 120 96.42Q118.3 96.67 116.59 96.67Q114.88 96.67 113.29 96.42Z" fill="#5e1712" stroke="#f8d99b" stroke-width="1.2" stroke-opacity="0.24" paint-order="stroke fill" />
  <path d="M105.36 107.31Q112.81 106.58 115.86 103.89Q118.3 101.82 119.94 101.64Q121.59 101.45 124.76 103.04Q129.28 105.23 129.7 106.45Q130.13 107.67 127.69 109.75Q125.62 111.46 124.58 113.1Q123.54 114.75 122.57 117.56Q125.01 119.26 124.82 120.73Q124.64 122.19 121.47 123.17Q120 123.66 118.11 124.14Q116.22 124.63 114.76 125Q112.93 125.61 110.73 125.91Q108.54 126.22 106.46 126.22Q106.46 129.76 106.46 133.29Q106.46 136.83 106.71 138.3Q107.07 141.47 107.62 143.42Q108.17 145.37 109.88 146.59Q111.59 147.81 114.82 148.54Q118.05 149.28 123.66 150.01Q128.06 150.62 133.73 150.07Q139.4 149.52 144.77 147.81Q147.45 146.96 149.22 145.98Q150.99 145.01 152.27 143.12Q153.55 141.22 154.53 138.17Q155.51 135.12 156.6 130Q157.7 124.51 159.11 124.45Q160.51 124.39 160.87 129.51Q161.12 133.42 161.42 135.98Q161.73 138.54 162.16 140.25Q162.58 141.96 163.13 143.12Q163.68 144.27 164.53 145.25Q165.51 146.35 165.75 147.63Q166 148.91 165.2 150.31Q164.41 151.72 162.34 153.12Q160.26 154.52 156.6 155.99Q153.68 157.21 148.55 158.06Q143.43 158.91 137.75 159.4Q132.08 159.89 126.71 159.83Q121.35 159.77 117.81 159.16Q112.93 158.3 109.76 157.15Q106.58 155.99 104.63 154.22Q102.68 152.45 101.7 150.01Q100.73 147.57 100.36 144.15Q100.12 142.32 99.94 140.43Q99.75 138.54 99.63 136.1Q99.51 133.66 99.45 130.43Q99.39 127.19 99.39 122.56Q99.39 117.92 99.08 114.99Q98.78 112.07 97.8 109.99Q96.46 106.94 97.92 106.09Q99.39 105.23 105.36 107.31ZM106.58 121.95Q108.41 121.7 109.94 121.4Q111.46 121.09 112.81 120.73Q115.49 120 116.34 118.29Q116.83 116.82 117.08 115.48Q117.32 114.14 117.56 111.7Q117.81 109.87 117.14 109.44Q116.47 109.02 115 109.5Q111.22 110.72 106.71 111.21Q106.95 114.75 106.89 117.07Q106.83 119.39 106.58 121.95ZM73.52 110.11Q72.79 115.6 70.29 116.03Q67.79 116.46 65.35 112.43Q63.64 109.75 62.42 106.88Q61.2 104.01 60.22 100.84Q58.39 94.99 64.25 97.91Q70.11 100.84 72.06 103.83Q74.01 106.82 73.52 110.11ZM86.33 96.33Q89.75 92.79 91.15 90.35Q92.55 87.91 92.43 85.71Q92.31 83.27 93.53 82.79Q94.75 82.3 98.65 84.62Q100.73 85.84 101.77 86.69Q102.8 87.54 102.92 88.28Q103.05 89.01 102.38 89.86Q101.7 90.72 100.24 91.81Q99.02 92.79 95.12 95.35Q91.21 97.91 86.09 101.09Q85.36 116.82 83.04 126.95Q87.06 128.41 89.5 129.7Q91.94 130.98 93.22 132.44Q94.51 133.9 94.87 135.73Q95.24 137.56 95.12 139.88Q94.87 143.42 92.55 144.15Q90.24 144.88 88.53 142.57Q86.7 140 85.11 137.44Q83.53 134.88 81.82 131.46Q79.13 140.49 74.5 146.35Q69.86 152.2 62.54 156.96Q58.03 159.89 57.23 158.98Q56.44 158.06 59.74 154.52Q64.25 149.64 67.42 144.76Q70.59 139.88 72.73 133.84Q74.86 127.8 76.02 120Q77.18 112.19 77.67 101.33Q78.04 92.67 78.1 87.06Q78.16 81.44 77.85 77.97Q77.55 74.49 76.88 72.6Q76.21 70.71 75.35 69.61Q72.3 65.83 74.01 64.3Q75.72 62.78 82.55 65.34Q88.04 67.41 89.14 69.24Q90.24 71.07 88.77 73.76Q88.41 74.61 88.04 75.83Q87.67 77.05 87.43 79.43Q87.19 81.81 86.94 85.84Q86.7 89.86 86.33 96.33ZM113.29 92.42Q111.22 94.86 108.9 97Q106.58 99.13 103.78 101.21Q99.14 104.62 98.23 103.95Q97.31 103.28 100.12 99.62Q104.27 94.25 107.99 87.67Q111.71 81.08 114.15 73.88Q115.12 70.95 115.31 69.12Q115.49 67.29 114.88 65.71Q113.17 61.44 115 60.4Q116.83 59.36 123.66 62.9Q128.06 65.22 128.67 67.05Q129.28 68.88 127.08 70.83Q125.74 71.93 124.58 73.64Q123.42 75.34 122.08 78.15Q120.74 80.96 119.39 83.34Q118.05 85.71 116.59 87.91Q119.27 87.54 122.32 86.93Q125.37 86.32 128.18 85.53Q130.98 84.74 133.36 83.82Q135.74 82.91 136.96 82.18Q138.18 81.44 139.16 81.02Q140.13 80.59 141.17 80.59Q142.21 80.59 143.43 81.08Q144.65 81.57 146.48 82.66Q149.16 84.25 150.63 85.41Q152.09 86.57 152.52 87.48Q152.94 88.4 152.64 89.25Q152.33 90.11 151.48 90.96Q150.14 92.3 149.16 95.35Q148.19 98.4 147.58 104.26Q146.84 111.33 146.05 115.97Q145.26 120.61 144.34 123.66Q143.43 126.71 142.33 128.48Q141.23 130.24 139.77 131.59Q136.6 134.76 134.52 134.7Q132.45 134.64 131.84 131.83Q131.11 127.93 127.2 123.29Q125.13 120.85 125.92 120Q126.71 119.14 130.62 120.48Q133.3 121.46 134.46 120.79Q135.62 120.12 136.23 116.7Q136.96 113.04 137.45 110.3Q137.94 107.55 138.3 104.99Q138.67 102.43 138.85 99.68Q139.04 96.94 139.16 93.28Q139.28 90.35 138.3 89.62Q137.33 88.89 134.77 89.5Q131.59 90.35 127.39 91.14Q123.18 91.94 120 92.42Q118.3 92.67 116.59 92.67Q114.88 92.67 113.29 92.42Z" fill="#8e2d21" />
</svg>
