<?xml version="1.0" encoding="UTF-8"?>
<svg xmlns="http://www.w3.org/2000/svg" shape-rendering="geometricPrecision" viewBox="-6 -6 232 232" role="img" aria-labelledby="title desc">
  <title id="title">红兵棋子</title>
  <desc id="desc">透明背景、紧贴圆形边界的红兵实体木质象棋棋子，字形已转路径并按真实包围盒居中。</desc>
  <defs>
    <radialGradient id="red-bing-body" cx="34%" cy="22%" r="80%">
      <stop offset="0" stop-color="#e08c67" />
      <stop offset="0.34" stop-color="#b45a43" />
      <stop offset="0.74" stop-color="#6b2c22" />
      <stop offset="1" stop-color="#2d100c" />
    </radialGradient>
    <radialGradient id="red-bing-face" cx="37%" cy="28%" r="76%">
      <stop offset="0" stop-color="#e08c67" stop-opacity="0.7" />
      <stop offset="0.36" stop-color="#9b3d30" />
      <stop offset="0.84" stop-color="#4a1b15" />
      <stop offset="1" stop-color="#050403" />
    </radialGradient>
    <linearGradient id="red-bing-glyph-floor" x1="0" y1="0" x2="0" y2="1">
      <stop offset="0" stop-color="#120302" />
      <stop offset="0.24" stop-color="#e2211c" />
      <stop offset="0.72" stop-color="#ff312a" />
      <stop offset="1" stop-color="#ff7a6e" />
    </linearGradient>
    <pattern id="red-bing-grain" width="118" height="34" patternUnits="userSpaceOnUse" patternTransform="rotate(-13)">
      <path d="M -28 16 C 10 4, 50 31, 91 13 C 113 4, 137 8, 156 21" fill="none" stroke="#ec8e6e" stroke-width="1.9" stroke-opacity="0.12" />
      <path d="M -14 29 C 28 15, 68 43, 124 24" fill="none" stroke="#030201" stroke-width="1.5" stroke-opacity="0.16" />
    </pattern>
  </defs>
  <circle cx="110" cy="110" r="106" fill="url(#red-bing-body)" />
  <circle cx="110" cy="110" r="103" fill="none" stroke="#e08c67" stroke-width="2.4" stroke-opacity="0.34" />
  <circle cx="110" cy="110" r="96" fill="none" stroke="#050302" stroke-width="4.4" stroke-opacity="0.58" />
  <circle cx="110" cy="110" r="89" fill="url(#red-bing-face)" />
  <circle cx="110" cy="110" r="89" fill="url(#red-bing-grain)" opacity="0.8" />
  <circle cx="110" cy="110" r="76" fill="none" stroke="#180706" stroke-width="6.2" stroke-opacity="0.95" />
  <circle cx="110" cy="110" r="64" fill="none" stroke="#180706" stroke-width="1.9" stroke-opacity="0.52" />
  <path d="M 42 106 C 46 67, 72 41, 111 36 C 80 49, 61 75, 59 106 C 57 130, 66 151, 84 164 C 56 152, 39 130, 42 106 Z" fill="#e08c67" opacity="0.16" />
  <path d="M 162 37 C 185 57, 199 88, 196 120 C 193 152, 171 181, 141 191 C 166 172, 180 147, 178 117 C 177 86, 171 59, 162 37 Z" fill="#030201" opacity="0.3" />
  <g fill="none" stroke="#5a150f" stroke-width="11" stroke-linejoin="round" stroke-linecap="round" opacity="0.96">
    <path d="M 607 -249 Q 761 -271 786 -276.5 Q 811 -282 842 -282 Q 873 -282 905.5 -259 Q 938 -236 938 -220.5 Q 938 -205 895 -205 Q 874 -205 833 -210.5 Q 792 -216 680 -216 Q 568 -216 438 -199 Q 308 -182 218 -154 Q 202 -148 177 -148 Q 152 -148 130 -161 Q 108 -174 108 -184.5 Q 108 -195 135.5 -195 Q 163 -195 370 -220 Q 367 -332 358.5 -418.5 Q 350 -505 329.5 -533.5 Q 309 -562 309 -572 Q 309 -582 327 -582 Q 345 -582 403 -561 Q 493 -594 548.5 -627.5 Q 604 -661 608 -679.5 Q 612 -698 624 -698 Q 639 -698 681 -677 Q 723 -656 723 -643 Q 723 -638 719.5 -636 Q 716 -634 671 -620 L 405 -535 Q 404 -525 404 -506 Q 404 -487 408 -418 Q 481 -421 662 -476 Q 685 -483 712.5 -483 Q 740 -483 758.5 -474.5 Q 777 -466 777 -456 Q 777 -446 747.5 -439 Q 718 -432 587 -410 Q 643 -391 643 -373 Q 643 -366 637 -357 Q 625 -336 607 -249 Z M 566 -244 Q 573 -319 573 -355 Q 573 -391 557 -405 Q 466 -391 443 -391 Q 420 -391 409 -393 L 417 -225 Z M 467 -86 Q 467 -77 460 -72 L 338 8 Q 294 37 247.5 55.5 Q 201 74 189 74 Q 177 74 177 68 Q 177 62 190 54 Q 261 8 323 -46.5 Q 385 -101 385 -120 Q 385 -148 399 -148 Q 413 -148 440 -123 Q 467 -98 467 -86 Z M 606 -146 Q 613 -146 666.5 -120 Q 720 -94 756 -68 Q 792 -42 808.5 -17 Q 825 8 825 42 Q 825 87 805 87 Q 785 87 753 47 Q 678 -47 609 -121 Q 599 -132 599 -139 Q 599 -146 606 -146 Z" transform="translate(48.70 144.20) scale(0.11900)" />
  </g>
  <g fill="none" stroke="#8f1f17" stroke-width="5.8" stroke-linejoin="round" stroke-linecap="round" opacity="0.98">
    <path d="M 607 -249 Q 761 -271 786 -276.5 Q 811 -282 842 -282 Q 873 -282 905.5 -259 Q 938 -236 938 -220.5 Q 938 -205 895 -205 Q 874 -205 833 -210.5 Q 792 -216 680 -216 Q 568 -216 438 -199 Q 308 -182 218 -154 Q 202 -148 177 -148 Q 152 -148 130 -161 Q 108 -174 108 -184.5 Q 108 -195 135.5 -195 Q 163 -195 370 -220 Q 367 -332 358.5 -418.5 Q 350 -505 329.5 -533.5 Q 309 -562 309 -572 Q 309 -582 327 -582 Q 345 -582 403 -561 Q 493 -594 548.5 -627.5 Q 604 -661 608 -679.5 Q 612 -698 624 -698 Q 639 -698 681 -677 Q 723 -656 723 -643 Q 723 -638 719.5 -636 Q 716 -634 671 -620 L 405 -535 Q 404 -525 404 -506 Q 404 -487 408 -418 Q 481 -421 662 -476 Q 685 -483 712.5 -483 Q 740 -483 758.5 -474.5 Q 777 -466 777 -456 Q 777 -446 747.5 -439 Q 718 -432 587 -410 Q 643 -391 643 -373 Q 643 -366 637 -357 Q 625 -336 607 -249 Z M 566 -244 Q 573 -319 573 -355 Q 573 -391 557 -405 Q 466 -391 443 -391 Q 420 -391 409 -393 L 417 -225 Z M 467 -86 Q 467 -77 460 -72 L 338 8 Q 294 37 247.5 55.5 Q 201 74 189 74 Q 177 74 177 68 Q 177 62 190 54 Q 261 8 323 -46.5 Q 385 -101 385 -120 Q 385 -148 399 -148 Q 413 -148 440 -123 Q 467 -98 467 -86 Z M 606 -146 Q 613 -146 666.5 -120 Q 720 -94 756 -68 Q 792 -42 808.5 -17 Q 825 8 825 42 Q 825 87 805 87 Q 785 87 753 47 Q 678 -47 609 -121 Q 599 -132 599 -139 Q 599 -146 606 -146 Z" transform="translate(48.70 144.20) scale(0.11900)" />
  </g>
  <g fill="url(#red-bing-glyph-floor)" opacity="0.98">
    <path d="M 607 -249 Q 761 -271 786 -276.5 Q 811 -282 842 -282 Q 873 -282 905.5 -259 Q 938 -236 938 -220.5 Q 938 -205 895 -205 Q 874 -205 833 -210.5 Q 792 -216 680 -216 Q 568 -216 438 -199 Q 308 -182 218 -154 Q 202 -148 177 -148 Q 152 -148 130 -161 Q 108 -174 108 -184.5 Q 108 -195 135.5 -195 Q 163 -195 370 -220 Q 367 -332 358.5 -418.5 Q 350 -505 329.5 -533.5 Q 309 -562 309 -572 Q 309 -582 327 -582 Q 345 -582 403 -561 Q 493 -594 548.5 -627.5 Q 604 -661 608 -679.5 Q 612 -698 624 -698 Q 639 -698 681 -677 Q 723 -656 723 -643 Q 723 -638 719.5 -636 Q 716 -634 671 -620 L 405 -535 Q 404 -525 404 -506 Q 404 -487 408 -418 Q 481 -421 662 -476 Q 685 -483 712.5 -483 Q 740 -483 758.5 -474.5 Q 777 -466 777 -456 Q 777 -446 747.5 -439 Q 718 -432 587 -410 Q 643 -391 643 -373 Q 643 -366 637 -357 Q 625 -336 607 -249 Z M 566 -244 Q 573 -319 573 -355 Q 573 -391 557 -405 Q 466 -391 443 -391 Q 420 -391 409 -393 L 417 -225 Z M 467 -86 Q 467 -77 460 -72 L 338 8 Q 294 37 247.5 55.5 Q 201 74 189 74 Q 177 74 177 68 Q 177 62 190 54 Q 261 8 323 -46.5 Q 385 -101 385 -120 Q 385 -148 399 -148 Q 413 -148 440 -123 Q 467 -98 467 -86 Z M 606 -146 Q 613 -146 666.5 -120 Q 720 -94 756 -68 Q 792 -42 808.5 -17 Q 825 8 825 42 Q 825 87 805 87 Q 785 87 753 47 Q 678 -47 609 -121 Q 599 -132 599 -139 Q 599 -146 606 -146 Z" transform="translate(48.70 144.20) scale(0.11900)" />
  </g>
  <circle cx="110" cy="110" r="106.8" fill="none" stroke="#f0d2a4" stroke-width="1.2" stroke-opacity="0.18" />
  <circle cx="110" cy="110" r="105.4" fill="none" stroke="#5f3b22" stroke-width="1.1" stroke-opacity="0.28" />
</svg>
