<svg width="430" height="932" viewBox="0 0 430 932" fill="none" xmlns="http://www.w3.org/2000/svg">
  <defs>
    <linearGradient id="bg" x1="215" y1="0" x2="215" y2="932" gradientUnits="userSpaceOnUse">
      <stop stop-color="#67D8E6"/>
      <stop offset=".28" stop-color="#FDE7A0"/>
      <stop offset="1" stop-color="#E2B650"/>
    </linearGradient>
    <linearGradient id="wood" x1="88" y1="194" x2="342" y2="694" gradientUnits="userSpaceOnUse">
      <stop stop-color="#E9D3AD"/>
      <stop offset=".48" stop-color="#F3E7CA"/>
      <stop offset="1" stop-color="#CDA777"/>
    </linearGradient>
    <linearGradient id="dark" x1="0" y1="0" x2="0" y2="1">
      <stop stop-color="#29372E"/>
      <stop offset="1" stop-color="#17231D"/>
    </linearGradient>
    <linearGradient id="redBtn" x1="0" y1="0" x2="0" y2="1">
      <stop stop-color="#C75531"/>
      <stop offset="1" stop-color="#8B2B1E"/>
    </linearGradient>
    <filter id="shadow" x="-20%" y="-20%" width="140%" height="140%">
      <feDropShadow dx="0" dy="6" stdDeviation="7" flood-color="#5B351B" flood-opacity=".25"/>
    </filter>
    <filter id="glow" x="-50%" y="-50%" width="200%" height="200%">
      <feGaussianBlur stdDeviation="5" result="b"/>
      <feMerge><feMergeNode in="b"/><feMergeNode in="SourceGraphic"/></feMerge>
    </filter>
    <style>
      .name{font-family:"PingFang SC","Microsoft YaHei",sans-serif;font-size:14px;font-weight:800;fill:#FFF0BE}
      .sub{font-family:"PingFang SC","Microsoft YaHei",sans-serif;font-size:10px;font-weight:600;fill:#C8B98C}
      .turn{font-family:"PingFang SC","Microsoft YaHei",sans-serif;font-size:11px;font-weight:800;fill:#2A332C}
      .btn{font-family:"PingFang SC","Microsoft YaHei",sans-serif;font-size:15px;font-weight:800;fill:#FFEAB0}
      .pieceRed{font-family:"STKaiti","KaiTi","PingFang SC",serif;font-size:18px;font-weight:900;fill:#A73428}
      .pieceBlack{font-family:"STKaiti","KaiTi","PingFang SC",serif;font-size:18px;font-weight:900;fill:#20251C}
      .river{font-family:"STKaiti","KaiTi","PingFang SC",serif;font-size:21px;font-weight:800;fill:#76583D;letter-spacing:12px}
    </style>
  </defs>

  <rect width="430" height="932" fill="#EAF0FA"/>
  <rect x="28" width="374" height="932" fill="url(#bg)"/>
  <path d="M28 0h374v91c-66-23-101 18-157 4-62-16-103-56-217-12V0Z" fill="#71B73C" opacity=".68"/>
  <path d="M28 82c48-45 93-42 142-18 67 33 111 24 232-18v104H28V82Z" fill="#4C9C75" opacity=".36"/>
  <path d="M28 697c72-19 119 10 166 37 61 36 110 10 208-14v212H28V697Z" fill="#8BA641" opacity=".55"/>
  <path d="M28 782c85 40 157 21 220-52 59-69 86-193 154-164v366H28V782Z" fill="#7B963F" opacity=".32"/>
  <path d="M63 107c26-93 80-105 137-47 65 67 121 35 202 3v89H28v-41c14-4 26-6 35-4Z" fill="#E0A24F" opacity=".55"/>
  <path d="M65 808c94-31 178-25 286 18" stroke="#FFE59D" stroke-width="13" stroke-linecap="round" opacity=".22"/>
  <path d="M319 803l49-28 43 31-53 27-39-30Z" fill="#FFF4BE" opacity=".72"/>
  <path d="M357 776l6 54M338 788l25 42M389 795l-28 35" stroke="#DEC981" stroke-width="3" opacity=".8"/>
  <path d="M348 642c21-14 47-13 65 11-21 6-45 4-65-11Z" fill="#FBF0B6" opacity=".72"/>
  <path d="M360 642c16-5 29-3 41 8" stroke="#C5C777" stroke-width="4" stroke-linecap="round"/>

  <!-- top buttons, removed old opponent-turn box -->
  <circle cx="63" cy="52" r="18" fill="#8B572D" filter="url(#shadow)"/>
  <path d="M70 52H56m0 0 7-7m-7 7 7 7" stroke="#B8DE72" stroke-width="3" stroke-linecap="round" stroke-linejoin="round"/>
  <rect x="354" y="34" width="36" height="36" rx="9" fill="url(#redBtn)" filter="url(#shadow)"/>
  <path d="M363 51h7l8-8v20l-8-8h-7v-4Z" stroke="#F9DE80" stroke-width="2.2" stroke-linejoin="round"/>
  <path d="M382 48l6 8m0-8-6 8" stroke="#F9DE80" stroke-width="2.2" stroke-linecap="round"/>

  <!-- opponent info on top -->
  <g filter="url(#shadow)">
    <rect x="118" y="34" width="194" height="54" rx="15" fill="url(#dark)" stroke="#D1A556" stroke-width="2"/>
    <circle cx="145" cy="61" r="18" fill="#F3E6C7" stroke="#D1A556" stroke-width="2"/>
    <circle cx="145" cy="56" r="6" fill="#8B572D"/>
    <path d="M133 72c5-13 19-13 24 0" fill="#8B572D"/>
    <text x="171" y="56" class="name">对方：测试a</text>
    <text x="171" y="75" class="sub">黑方 · ID 3</text>
    <rect x="252" y="55" width="44" height="20" rx="10" fill="#7D6842"/>
    <text x="274" y="70" text-anchor="middle" class="turn" fill="#F6D982">等待</text>
  </g>

  <!-- left / right side status -->
  <g filter="url(#shadow)">
    <rect x="46" y="318" width="40" height="118" rx="18" fill="#1E2C24" stroke="#856B39" stroke-width="2" opacity=".96"/>
    <circle cx="66" cy="343" r="14" fill="#F2D17B"/>
    <text x="66" y="349" text-anchor="middle" class="pieceBlack">黑</text>
    <text x="66" y="374" text-anchor="middle" class="sub">测试a</text>
    <text x="66" y="394" text-anchor="middle" class="sub">剩 5:00</text>
  </g>
  <g filter="url(#glow)">
    <rect x="344" y="318" width="40" height="118" rx="18" fill="#342B21" stroke="#F4D26F" stroke-width="2.5" opacity=".98"/>
    <circle cx="364" cy="343" r="14" fill="#F2D17B"/>
    <text x="364" y="349" text-anchor="middle" class="pieceRed">红</text>
    <text x="364" y="374" text-anchor="middle" class="sub">我方</text>
    <text x="364" y="394" text-anchor="middle" class="sub">走棋中</text>
  </g>

  <!-- board -->
  <g filter="url(#shadow)">
    <rect x="78" y="133" width="274" height="545" rx="12" fill="#9B7651"/>
    <rect x="85" y="126" width="260" height="544" rx="10" fill="url(#wood)" stroke="#D7B27C" stroke-width="2"/>
    <rect x="98" y="140" width="234" height="517" rx="3" fill="none" stroke="#B79263" stroke-width="1.2"/>
    <g stroke="#5D412F" stroke-width="1.7" opacity=".88">
      <path d="M115 171H315M115 211H315M115 251H315M115 291H315M115 331H315M115 371H315M115 411H315M115 451H315M115 491H315M115 531H315M115 571H315M115 611H315"/>
      <path d="M115 171V611M140 171V611M165 171V611M190 171V611M215 171V611M240 171V611M265 171V611M290 171V611M315 171V611"/>
      <path d="M190 171L240 251M240 171L190 251M190 531L240 611M240 531L190 611"/>
    </g>
    <rect x="115" y="334" width="200" height="74" fill="#EBD8B9" opacity=".75"/>
    <text x="169" y="380" text-anchor="middle" class="river">楚河</text>
    <text x="260" y="380" text-anchor="middle" class="river">汉界</text>
  </g>

  <!-- simplified pieces -->
  <g filter="url(#shadow)">
    <g>
      <circle cx="115" cy="171" r="17" fill="#B97831" stroke="#58F0A0" stroke-width="3"/><circle cx="115" cy="171" r="13" fill="#DDB469" stroke="#8B572D"/><text x="115" y="177" text-anchor="middle" class="pieceBlack">車</text>
      <circle cx="140" cy="171" r="17" fill="#B97831" stroke="#58F0A0" stroke-width="3"/><circle cx="140" cy="171" r="13" fill="#DDB469" stroke="#8B572D"/><text x="140" y="177" text-anchor="middle" class="pieceBlack">馬</text>
      <circle cx="165" cy="171" r="17" fill="#B97831" stroke="#58F0A0" stroke-width="3"/><circle cx="165" cy="171" r="13" fill="#DDB469" stroke="#8B572D"/><text x="165" y="177" text-anchor="middle" class="pieceBlack">象</text>
      <circle cx="190" cy="171" r="17" fill="#B97831" stroke="#58F0A0" stroke-width="3"/><circle cx="190" cy="171" r="13" fill="#DDB469" stroke="#8B572D"/><text x="190" y="177" text-anchor="middle" class="pieceBlack">士</text>
      <circle cx="215" cy="171" r="18" fill="#B97831" stroke="#58F0A0" stroke-width="3"/><circle cx="215" cy="171" r="13" fill="#DDB469" stroke="#8B572D"/><text x="215" y="177" text-anchor="middle" class="pieceBlack">将</text>
      <circle cx="240" cy="171" r="17" fill="#B97831" stroke="#58F0A0" stroke-width="3"/><circle cx="240" cy="171" r="13" fill="#DDB469" stroke="#8B572D"/><text x="240" y="177" text-anchor="middle" class="pieceBlack">士</text>
      <circle cx="265" cy="171" r="17" fill="#B97831" stroke="#58F0A0" stroke-width="3"/><circle cx="265" cy="171" r="13" fill="#DDB469" stroke="#8B572D"/><text x="265" y="177" text-anchor="middle" class="pieceBlack">象</text>
      <circle cx="290" cy="171" r="17" fill="#B97831" stroke="#58F0A0" stroke-width="3"/><circle cx="290" cy="171" r="13" fill="#DDB469" stroke="#8B572D"/><text x="290" y="177" text-anchor="middle" class="pieceBlack">馬</text>
      <circle cx="315" cy="171" r="17" fill="#B97831" stroke="#58F0A0" stroke-width="3"/><circle cx="315" cy="171" r="13" fill="#DDB469" stroke="#8B572D"/><text x="315" y="177" text-anchor="middle" class="pieceBlack">車</text>
      <circle cx="140" cy="251" r="17" fill="#B97831" stroke="#58F0A0" stroke-width="3"/><circle cx="140" cy="251" r="13" fill="#DDB469" stroke="#8B572D"/><text x="140" y="257" text-anchor="middle" class="pieceBlack">炮</text>
      <circle cx="290" cy="251" r="17" fill="#B97831" stroke="#58F0A0" stroke-width="3"/><circle cx="290" cy="251" r="13" fill="#DDB469" stroke="#8B572D"/><text x="290" y="257" text-anchor="middle" class="pieceBlack">炮</text>
      <circle cx="115" cy="291" r="17" fill="#B97831" stroke="#58F0A0" stroke-width="3"/><circle cx="115" cy="291" r="13" fill="#DDB469" stroke="#8B572D"/><text x="115" y="297" text-anchor="middle" class="pieceBlack">卒</text>
      <circle cx="165" cy="291" r="17" fill="#B97831" stroke="#58F0A0" stroke-width="3"/><circle cx="165" cy="291" r="13" fill="#DDB469" stroke="#8B572D"/><text x="165" y="297" text-anchor="middle" class="pieceBlack">卒</text>
      <circle cx="215" cy="291" r="17" fill="#B97831" stroke="#58F0A0" stroke-width="3"/><circle cx="215" cy="291" r="13" fill="#DDB469" stroke="#8B572D"/><text x="215" y="297" text-anchor="middle" class="pieceBlack">卒</text>
      <circle cx="265" cy="291" r="17" fill="#B97831" stroke="#58F0A0" stroke-width="3"/><circle cx="265" cy="291" r="13" fill="#DDB469" stroke="#8B572D"/><text x="265" y="297" text-anchor="middle" class="pieceBlack">卒</text>
      <circle cx="315" cy="291" r="17" fill="#B97831" stroke="#58F0A0" stroke-width="3"/><circle cx="315" cy="291" r="13" fill="#DDB469" stroke="#8B572D"/><text x="315" y="297" text-anchor="middle" class="pieceBlack">卒</text>
    </g>
    <g>
      <circle cx="115" cy="611" r="15" fill="#D6A15B" stroke="#8B572D"/><circle cx="115" cy="611" r="12" fill="#EDC57A" stroke="#A06B33"/><text x="115" y="617" text-anchor="middle" class="pieceRed">車</text>
      <circle cx="140" cy="611" r="15" fill="#D6A15B" stroke="#8B572D"/><circle cx="140" cy="611" r="12" fill="#EDC57A" stroke="#A06B33"/><text x="140" y="617" text-anchor="middle" class="pieceRed">馬</text>
      <circle cx="165" cy="611" r="15" fill="#D6A15B" stroke="#8B572D"/><circle cx="165" cy="611" r="12" fill="#EDC57A" stroke="#A06B33"/><text x="165" y="617" text-anchor="middle" class="pieceRed">相</text>
      <circle cx="190" cy="611" r="15" fill="#D6A15B" stroke="#8B572D"/><circle cx="190" cy="611" r="12" fill="#EDC57A" stroke="#A06B33"/><text x="190" y="617" text-anchor="middle" class="pieceRed">仕</text>
      <circle cx="215" cy="611" r="16" fill="#D6A15B" stroke="#F5D473" stroke-width="2"/><circle cx="215" cy="611" r="12" fill="#EDC57A" stroke="#A06B33"/><text x="215" y="617" text-anchor="middle" class="pieceRed">帅</text>
      <circle cx="240" cy="611" r="15" fill="#D6A15B" stroke="#8B572D"/><circle cx="240" cy="611" r="12" fill="#EDC57A" stroke="#A06B33"/><text x="240" y="617" text-anchor="middle" class="pieceRed">仕</text>
      <circle cx="265" cy="611" r="15" fill="#D6A15B" stroke="#8B572D"/><circle cx="265" cy="611" r="12" fill="#EDC57A" stroke="#A06B33"/><text x="265" y="617" text-anchor="middle" class="pieceRed">相</text>
      <circle cx="290" cy="611" r="15" fill="#D6A15B" stroke="#8B572D"/><circle cx="290" cy="611" r="12" fill="#EDC57A" stroke="#A06B33"/><text x="290" y="617" text-anchor="middle" class="pieceRed">馬</text>
      <circle cx="315" cy="611" r="15" fill="#D6A15B" stroke="#8B572D"/><circle cx="315" cy="611" r="12" fill="#EDC57A" stroke="#A06B33"/><text x="315" y="617" text-anchor="middle" class="pieceRed">車</text>
      <circle cx="115" cy="491" r="15" fill="#D6A15B" stroke="#8B572D"/><circle cx="115" cy="491" r="12" fill="#EDC57A" stroke="#A06B33"/><text x="115" y="497" text-anchor="middle" class="pieceRed">兵</text>
      <circle cx="165" cy="491" r="15" fill="#D6A15B" stroke="#8B572D"/><circle cx="165" cy="491" r="12" fill="#EDC57A" stroke="#A06B33"/><text x="165" y="497" text-anchor="middle" class="pieceRed">兵</text>
      <circle cx="215" cy="491" r="15" fill="#D6A15B" stroke="#8B572D"/><circle cx="215" cy="491" r="12" fill="#EDC57A" stroke="#A06B33"/><text x="215" y="497" text-anchor="middle" class="pieceRed">兵</text>
      <circle cx="265" cy="491" r="15" fill="#D6A15B" stroke="#8B572D"/><circle cx="265" cy="491" r="12" fill="#EDC57A" stroke="#A06B33"/><text x="265" y="497" text-anchor="middle" class="pieceRed">兵</text>
      <circle cx="315" cy="491" r="15" fill="#D6A15B" stroke="#8B572D"/><circle cx="315" cy="491" r="12" fill="#EDC57A" stroke="#A06B33"/><text x="315" y="497" text-anchor="middle" class="pieceRed">兵</text>
      <circle cx="140" cy="531" r="15" fill="#D6A15B" stroke="#8B572D"/><circle cx="140" cy="531" r="12" fill="#EDC57A" stroke="#A06B33"/><text x="140" y="537" text-anchor="middle" class="pieceRed">炮</text>
      <circle cx="290" cy="531" r="15" fill="#D6A15B" stroke="#8B572D"/><circle cx="290" cy="531" r="12" fill="#EDC57A" stroke="#A06B33"/><text x="290" y="537" text-anchor="middle" class="pieceRed">炮</text>
    </g>
  </g>

  <!-- bottom self info -->
  <g filter="url(#shadow)">
    <rect x="72" y="700" width="286" height="62" rx="17" fill="url(#dark)" stroke="#F4D26F" stroke-width="3"/>
    <circle cx="105" cy="731" r="20" fill="#F3E6C7" stroke="#F4D26F" stroke-width="2.5"/>
    <circle cx="105" cy="725" r="7" fill="#8B572D"/>
    <path d="M91 745c6-15 22-15 28 0" fill="#8B572D"/>
    <text x="136" y="726" class="name">我方：测试姓名</text>
    <text x="136" y="747" class="sub">红方 · ID 4</text>
    <rect x="278" y="719" width="57" height="24" rx="12" fill="#F4D26F"/>
    <text x="306" y="736" text-anchor="middle" class="turn">轮到你</text>
  </g>

  <!-- request buttons -->
  <g filter="url(#shadow)">
    <rect x="74" y="788" width="122" height="45" rx="13" fill="#7F4A2E" stroke="#E2B85F" stroke-width="2"/>
    <text x="135" y="817" text-anchor="middle" class="btn">请求悔棋</text>
    <rect x="234" y="788" width="122" height="45" rx="13" fill="#7F4A2E" stroke="#E2B85F" stroke-width="2"/>
    <text x="295" y="817" text-anchor="middle" class="btn">请求和棋</text>
  </g>
</svg>
