<svg xmlns="http://www.w3.org/2000/svg" width="1024" height="1536" viewBox="0 0 1024 1536">
  <defs>
    <linearGradient id="bg" x1="0" y1="0" x2="0" y2="1">
      <stop offset="0" stop-color="#172129"/>
      <stop offset="0.44" stop-color="#26313b"/>
      <stop offset="1" stop-color="#11191f"/>
    </linearGradient>
    <linearGradient id="panel" x1="0" y1="0" x2="0" y2="1">
      <stop offset="0" stop-color="#fff4d8"/>
      <stop offset="1" stop-color="#e4c581"/>
    </linearGradient>
    <linearGradient id="wood" x1="0" y1="0" x2="1" y2="1">
      <stop offset="0" stop-color="#cf8c42"/>
      <stop offset="0.46" stop-color="#f2c46f"/>
      <stop offset="1" stop-color="#9b5b2b"/>
    </linearGradient>
    <filter id="shadow" x="-25%" y="-25%" width="150%" height="150%">
      <feDropShadow dx="0" dy="18" stdDeviation="22" flood-color="#000" flood-opacity="0.38"/>
    </filter>
    <filter id="soft" x="-20%" y="-20%" width="140%" height="140%">
      <feDropShadow dx="0" dy="8" stdDeviation="10" flood-color="#000" flood-opacity="0.22"/>
    </filter>
    <pattern id="grain" width="80" height="80" patternUnits="userSpaceOnUse">
      <path d="M-10 32 C24 16,56 54,92 28" fill="none" stroke="#8a542c" stroke-width="2" opacity="0.16"/>
      <path d="M-8 62 C26 42,52 88,88 56" fill="none" stroke="#fff1b8" stroke-width="2" opacity="0.13"/>
    </pattern>
    <style>
      .cn{font-family: 'Kaiti SC','STKaiti','KaiTi','PingFang SC','Microsoft YaHei',serif;}
      .ui{font-family: 'PingFang SC','Microsoft YaHei',sans-serif;}
      .small{font-size:26px;fill:#f8eac5;opacity:.82}
      .pieceText{font-family:'STKaiti','KaiTi','Kaiti SC',serif;font-size:35px;font-weight:700;text-anchor:middle;dominant-baseline:central}
    </style>
  </defs>

  <rect width="1024" height="1536" fill="url(#bg)"/>
  <circle cx="158" cy="278" r="210" fill="#5b1f18" opacity=".22"/>
  <circle cx="890" cy="1220" r="260" fill="#c99b4a" opacity=".12"/>

  <g transform="translate(56 58)">
    <circle cx="38" cy="40" r="30" fill="#2c3943" stroke="#f1d28a" stroke-width="2"/>
    <path d="M47 23 L30 40 L47 57" fill="none" stroke="#f8eac5" stroke-width="6" stroke-linecap="round" stroke-linejoin="round"/>
    <text x="456" y="52" class="cn" text-anchor="middle" font-size="46" fill="#f8eac5" font-weight="700">对局复盘</text>
    <circle cx="876" cy="40" r="5" fill="#f8eac5"/><circle cx="898" cy="40" r="5" fill="#f8eac5"/><circle cx="920" cy="40" r="5" fill="#f8eac5"/>
  </g>

  <g transform="translate(56 148)" filter="url(#soft)">
    <rect width="912" height="146" rx="28" fill="#23313a" stroke="#b99555" stroke-width="2"/>
    <circle cx="74" cy="73" r="45" fill="#8e231f" stroke="#f1d28a" stroke-width="4"/>
    <text x="74" y="84" class="cn" text-anchor="middle" font-size="40" fill="#ffe8b3">帅</text>
    <text x="142" y="59" class="ui" font-size="30" fill="#fff4d8" font-weight="700">楚河棋手</text>
    <text x="142" y="98" class="ui small">红方 · 先手</text>
    <rect x="392" y="42" width="128" height="62" rx="31" fill="#9e2c23" stroke="#ffd990" stroke-width="2"/>
    <text x="456" y="83" class="ui" text-anchor="middle" font-size="30" fill="#fff5d8" font-weight="700">红方胜</text>
    <circle cx="836" cy="73" r="45" fill="#1e252b" stroke="#d8b36a" stroke-width="4"/>
    <text x="836" y="84" class="cn" text-anchor="middle" font-size="40" fill="#e6d2aa">将</text>
    <text x="770" y="59" class="ui" font-size="30" fill="#fff4d8" font-weight="700" text-anchor="end">边塞来客</text>
    <text x="770" y="98" class="ui small" text-anchor="end">黑方 · 后手</text>
  </g>

  <g transform="translate(70 348)" filter="url(#shadow)">
    <rect width="884" height="884" rx="34" fill="url(#wood)"/>
    <rect width="884" height="884" rx="34" fill="url(#grain)"/>
    <rect x="46" y="46" width="792" height="792" rx="12" fill="#f3cf7b" stroke="#67391c" stroke-width="7"/>
    <g stroke="#67391c" stroke-width="4">
      <path d="M112 112 H772 M112 200 H772 M112 288 H772 M112 376 H772 M112 464 H772 M112 552 H772 M112 640 H772 M112 728 H772"/>
      <path d="M112 112 V728 M200 112 V376 M200 464 V728 M288 112 V376 M288 464 V728 M376 112 V376 M376 464 V728 M464 112 V376 M464 464 V728 M552 112 V376 M552 464 V728 M640 112 V376 M640 464 V728 M728 112 V728"/>
      <path d="M376 112 L552 288 M552 112 L376 288 M376 552 L552 728 M552 552 L376 728"/>
    </g>
    <text x="276" y="433" class="cn" font-size="44" fill="#7e451d" opacity=".5">楚河</text>
    <text x="520" y="433" class="cn" font-size="44" fill="#7e451d" opacity=".5">汉界</text>

    <g>
      <circle cx="112" cy="112" r="36" fill="#f9e8b6" stroke="#8f1f1a" stroke-width="5"/><text x="112" y="112" class="pieceText" fill="#9e231d">车</text>
      <circle cx="200" cy="112" r="36" fill="#f9e8b6" stroke="#8f1f1a" stroke-width="5"/><text x="200" y="112" class="pieceText" fill="#9e231d">马</text>
      <circle cx="288" cy="112" r="36" fill="#f9e8b6" stroke="#8f1f1a" stroke-width="5"/><text x="288" y="112" class="pieceText" fill="#9e231d">相</text>
      <circle cx="376" cy="112" r="36" fill="#f9e8b6" stroke="#8f1f1a" stroke-width="5"/><text x="376" y="112" class="pieceText" fill="#9e231d">仕</text>
      <circle cx="464" cy="112" r="36" fill="#f9e8b6" stroke="#8f1f1a" stroke-width="5"/><text x="464" y="112" class="pieceText" fill="#9e231d">帅</text>
      <circle cx="552" cy="112" r="36" fill="#f9e8b6" stroke="#8f1f1a" stroke-width="5"/><text x="552" y="112" class="pieceText" fill="#9e231d">仕</text>
      <circle cx="640" cy="112" r="36" fill="#f9e8b6" stroke="#8f1f1a" stroke-width="5"/><text x="640" y="112" class="pieceText" fill="#9e231d">相</text>
      <circle cx="728" cy="112" r="36" fill="#f9e8b6" stroke="#8f1f1a" stroke-width="5"/><text x="728" y="112" class="pieceText" fill="#9e231d">车</text>
      <circle cx="200" cy="288" r="36" fill="#f9e8b6" stroke="#8f1f1a" stroke-width="5"/><text x="200" y="288" class="pieceText" fill="#9e231d">炮</text>
      <circle cx="640" cy="288" r="36" fill="#f9e8b6" stroke="#8f1f1a" stroke-width="5"/><text x="640" y="288" class="pieceText" fill="#9e231d">炮</text>
      <circle cx="112" cy="376" r="36" fill="#f9e8b6" stroke="#8f1f1a" stroke-width="5"/><text x="112" y="376" class="pieceText" fill="#9e231d">兵</text>
      <circle cx="288" cy="376" r="36" fill="#f9e8b6" stroke="#8f1f1a" stroke-width="5"/><text x="288" y="376" class="pieceText" fill="#9e231d">兵</text>
      <circle cx="464" cy="376" r="36" fill="#f9e8b6" stroke="#8f1f1a" stroke-width="5"/><text x="464" y="376" class="pieceText" fill="#9e231d">兵</text>
      <circle cx="640" cy="376" r="36" fill="#f9e8b6" stroke="#8f1f1a" stroke-width="5"/><text x="640" y="376" class="pieceText" fill="#9e231d">兵</text>
      <circle cx="728" cy="376" r="36" fill="#f9e8b6" stroke="#8f1f1a" stroke-width="5"/><text x="728" y="376" class="pieceText" fill="#9e231d">兵</text>

      <circle cx="112" cy="728" r="36" fill="#f6dfaa" stroke="#182028" stroke-width="5"/><text x="112" y="728" class="pieceText" fill="#1a2229">車</text>
      <circle cx="200" cy="728" r="36" fill="#f6dfaa" stroke="#182028" stroke-width="5"/><text x="200" y="728" class="pieceText" fill="#1a2229">馬</text>
      <circle cx="288" cy="728" r="36" fill="#f6dfaa" stroke="#182028" stroke-width="5"/><text x="288" y="728" class="pieceText" fill="#1a2229">象</text>
      <circle cx="376" cy="728" r="36" fill="#f6dfaa" stroke="#182028" stroke-width="5"/><text x="376" y="728" class="pieceText" fill="#1a2229">士</text>
      <circle cx="464" cy="728" r="36" fill="#f6dfaa" stroke="#182028" stroke-width="5"/><text x="464" y="728" class="pieceText" fill="#1a2229">将</text>
      <circle cx="552" cy="728" r="36" fill="#f6dfaa" stroke="#182028" stroke-width="5"/><text x="552" y="728" class="pieceText" fill="#1a2229">士</text>
      <circle cx="640" cy="728" r="36" fill="#f6dfaa" stroke="#182028" stroke-width="5"/><text x="640" y="728" class="pieceText" fill="#1a2229">象</text>
      <circle cx="728" cy="728" r="36" fill="#f6dfaa" stroke="#182028" stroke-width="5"/><text x="728" y="728" class="pieceText" fill="#1a2229">車</text>
      <circle cx="200" cy="552" r="36" fill="#f6dfaa" stroke="#182028" stroke-width="5"/><text x="200" y="552" class="pieceText" fill="#1a2229">炮</text>
      <circle cx="640" cy="552" r="36" fill="#f6dfaa" stroke="#182028" stroke-width="5"/><text x="640" y="552" class="pieceText" fill="#1a2229">炮</text>
      <circle cx="112" cy="464" r="36" fill="#f6dfaa" stroke="#182028" stroke-width="5"/><text x="112" y="464" class="pieceText" fill="#1a2229">卒</text>
      <circle cx="288" cy="464" r="36" fill="#f6dfaa" stroke="#182028" stroke-width="5"/><text x="288" y="464" class="pieceText" fill="#1a2229">卒</text>
      <circle cx="464" cy="464" r="36" fill="#f6dfaa" stroke="#182028" stroke-width="5"/><text x="464" y="464" class="pieceText" fill="#1a2229">卒</text>
      <circle cx="640" cy="464" r="36" fill="#f6dfaa" stroke="#182028" stroke-width="5"/><text x="640" y="464" class="pieceText" fill="#1a2229">卒</text>
      <circle cx="728" cy="464" r="36" fill="#f6dfaa" stroke="#182028" stroke-width="5"/><text x="728" y="464" class="pieceText" fill="#1a2229">卒</text>
    </g>
  </g>

  <g transform="translate(56 1262)">
    <text x="0" y="0" class="ui" font-size="28" fill="#f8eac5" opacity=".8">当前着法</text>
    <text x="0" y="54" class="cn" font-size="46" fill="#fff4d8" font-weight="700">炮二平五</text>
    <text x="912" y="54" class="ui" font-size="30" fill="#f8eac5" opacity=".86" text-anchor="end">第 18 / 42 步</text>
    <rect x="0" y="92" width="912" height="12" rx="6" fill="#43505a"/>
    <rect x="0" y="92" width="392" height="12" rx="6" fill="#d83b2e"/>
    <circle cx="392" cy="98" r="18" fill="#ffe2a1" stroke="#d83b2e" stroke-width="5"/>
  </g>

  <g transform="translate(126 1400)" filter="url(#soft)">
    <circle cx="96" cy="44" r="44" fill="#263540" stroke="#c6a35c" stroke-width="2"/>
    <path d="M112 20 L82 44 L112 68" fill="none" stroke="#fff0c9" stroke-width="8" stroke-linecap="round" stroke-linejoin="round"/>
    <circle cx="386" cy="44" r="58" fill="#9e2c23" stroke="#ffd990" stroke-width="4"/>
    <path d="M371 16 L371 72 L418 44 Z" fill="#fff0c9"/>
    <circle cx="676" cy="44" r="44" fill="#263540" stroke="#c6a35c" stroke-width="2"/>
    <path d="M660 20 L690 44 L660 68" fill="none" stroke="#fff0c9" stroke-width="8" stroke-linecap="round" stroke-linejoin="round"/>
  </g>

  <g transform="translate(420 1502)">
    <rect width="184" height="8" rx="4" fill="#f8eac5" opacity=".26"/>
  </g>
</svg>
