<svg width="430" height="932" viewBox="0 0 430 932" fill="none" xmlns="http://www.w3.org/2000/svg">
  <defs>
    <linearGradient id="bg" x1="36" y1="0" x2="410" y2="932" gradientUnits="userSpaceOnUse">
      <stop stop-color="#BDEBDD"/>
      <stop offset=".34" stop-color="#F9E8B1"/>
      <stop offset="1" stop-color="#EAC66D"/>
    </linearGradient>
    <pattern id="grid" width="64" height="64" patternUnits="userSpaceOnUse">
      <path d="M0 0H64M0 0V64" stroke="#7EA586" stroke-opacity=".1"/>
    </pattern>
  </defs>
  <rect width="430" height="932" fill="url(#bg)"/>
  <rect width="430" height="932" fill="url(#grid)"/>
  <circle cx="58" cy="32" r="132" fill="#8CAE4E" opacity=".36"/>
  <circle cx="390" cy="172" r="126" fill="#7EA586" opacity=".27"/>
  <circle cx="208" cy="330" r="178" fill="#FFEFC0" opacity=".26"/>
  <path d="M-30 652C42 600 112 642 170 684C230 728 298 708 354 650C304 770 186 840 82 796C8 765 -45 714 -30 652Z" fill="#8CAE4E" opacity=".34"/>
  <path d="M-24 770C36 734 88 760 140 780C200 804 276 780 326 724C294 842 178 922 72 904C-10 890 -62 820 -24 770Z" fill="#91AB55" opacity=".22"/>
  <path d="M278 860L354 822L414 858L338 895L278 860Z" fill="#FFF2C1" opacity=".7"/>
  <path d="M116 882L166 852L212 884L160 913L116 882Z" fill="#FFF2C1" opacity=".7"/>
  <path d="M300 780C326 762 365 760 392 782C370 800 326 802 300 780Z" fill="#FFF2C1" opacity=".62"/>
  <path d="M314 778C336 768 365 770 384 786" stroke="#C9C071" stroke-width="5" stroke-linecap="round" opacity=".45"/>
</svg>
