<svg width="430" height="932" viewBox="0 0 430 932" fill="none" xmlns="http://www.w3.org/2000/svg">
  <defs>
    <linearGradient id="sky" x1="42" y1="0" x2="416" y2="932" gradientUnits="userSpaceOnUse">
      <stop stop-color="#BEE9DD"/>
      <stop offset=".42" stop-color="#F9E39D"/>
      <stop offset="1" stop-color="#EBCB73"/>
    </linearGradient>
    <linearGradient id="card" x1="60" y1="156" x2="368" y2="332" gradientUnits="userSpaceOnUse">
      <stop stop-color="#303B31"/>
      <stop offset="1" stop-color="#1D281F"/>
    </linearGradient>
    <linearGradient id="gold" x1="0" y1="0" x2="120" y2="80" gradientUnits="userSpaceOnUse">
      <stop stop-color="#FFE7A6"/>
      <stop offset="1" stop-color="#C08A34"/>
    </linearGradient>
    <filter id="soft" x="-20%" y="-20%" width="140%" height="140%">
      <feDropShadow dx="0" dy="8" stdDeviation="9" flood-color="#684018" flood-opacity=".23"/>
    </filter>
    <pattern id="grid" width="64" height="64" patternUnits="userSpaceOnUse">
      <path d="M0 0H64V64H0Z" fill="transparent"/>
      <path d="M0 0H64M0 0V64" stroke="#7EA586" stroke-opacity=".12"/>
    </pattern>
  </defs>

  <rect width="430" height="932" fill="url(#sky)"/>
  <rect width="430" height="932" fill="url(#grid)"/>
  <circle cx="72" cy="56" r="118" fill="#8CAE4E" opacity=".38"/>
  <circle cx="388" cy="154" r="118" fill="#7EA586" opacity=".28"/>
  <path d="M-22 640C50 592 106 638 164 680C222 722 286 704 342 650C290 764 186 824 92 796C22 775 -38 723 -22 640Z" fill="#8CAE4E" opacity=".36"/>
  <path d="M280 860L356 822L414 858L338 895L280 860Z" fill="#FFF2C1" opacity=".72"/>
  <path d="M116 882L166 852L212 884L160 913L116 882Z" fill="#FFF2C1" opacity=".72"/>

  <g transform="translate(26 28)">
    <rect x="0" y="0" width="42" height="42" rx="21" fill="#8D3A22"/>
    <path d="M25 12L16 21L25 30" stroke="#F8D494" stroke-width="3" stroke-linecap="round" stroke-linejoin="round"/>
    <text x="189" y="31" text-anchor="middle" font-family="KaiTi, STKaiti, serif" font-size="30" font-weight="700" fill="#7C3A24">排行榜</text>
    <rect x="336" y="0" width="42" height="42" rx="11" fill="#B33B22"/>
    <path d="M348 15H356L365 9V33L356 27H348V15Z" stroke="#FFE6A8" stroke-width="2.2" stroke-linejoin="round"/>
    <path d="M370 16L363 30M363 16L370 30" stroke="#FFE6A8" stroke-width="2" stroke-linecap="round"/>
  </g>

  <g filter="url(#soft)" transform="translate(24 92)">
    <rect width="382" height="86" rx="10" fill="#FFF1BD" fill-opacity=".48" stroke="#E1C47C" stroke-width="2"/>
    <text x="24" y="32" font-family="PingFang SC, Microsoft YaHei, Arial" font-size="15" font-weight="700" fill="#8B593A">我的排名</text>
    <text x="24" y="64" font-family="PingFang SC, Microsoft YaHei, Arial" font-size="24" font-weight="800" fill="#A6422D">第 12 名</text>
    <text x="196" y="34" font-family="PingFang SC, Microsoft YaHei, Arial" font-size="13" fill="#8B7358">积分</text>
    <text x="196" y="64" font-family="DIN Alternate, Arial" font-size="30" font-weight="800" fill="#2B352D">1280</text>
    <text x="316" y="34" font-family="PingFang SC, Microsoft YaHei, Arial" font-size="13" fill="#8B7358">胜率</text>
    <text x="316" y="64" font-family="DIN Alternate, Arial" font-size="30" font-weight="800" fill="#C7953B">68%</text>
  </g>

  <g transform="translate(24 202)">
    <text x="0" y="0" font-family="PingFang SC, Microsoft YaHei, Arial" font-size="16" font-weight="800" fill="#8F2D21">本周巅峰榜</text>
    <text x="382" y="0" text-anchor="end" font-family="PingFang SC, Microsoft YaHei, Arial" font-size="13" fill="#8B7358">每日 00:00 更新</text>
  </g>

  <g filter="url(#soft)" transform="translate(24 226)">
    <rect x="0" y="44" width="382" height="174" rx="12" fill="url(#card)" stroke="#D9B866" stroke-width="3"/>
    <g transform="translate(135 0)">
      <rect x="0" y="24" width="112" height="164" rx="12" fill="#334035"/>
      <circle cx="56" cy="34" r="34" fill="url(#gold)" stroke="#FFF0BC" stroke-width="3"/>
      <text x="56" y="46" text-anchor="middle" font-family="KaiTi, STKaiti, serif" font-size="34" font-weight="800" fill="#8F2D21">帅</text>
      <text x="56" y="86" text-anchor="middle" font-family="PingFang SC, Microsoft YaHei, Arial" font-size="14" font-weight="800" fill="#FFF1BD">棋圣_长风</text>
      <text x="56" y="112" text-anchor="middle" font-family="DIN Alternate, Arial" font-size="30" font-weight="800" fill="#FFD36F">1560</text>
      <text x="56" y="138" text-anchor="middle" font-family="PingFang SC, Microsoft YaHei, Arial" font-size="12" fill="#BDB39A">32胜 · 82%</text>
      <text x="56" y="170" text-anchor="middle" font-family="DIN Alternate, Arial" font-size="38" font-weight="900" fill="#FFE6A8">1</text>
    </g>
    <g transform="translate(24 38)">
      <rect x="0" y="48" width="102" height="132" rx="12" fill="#29352D"/>
      <circle cx="51" cy="38" r="28" fill="#E8DED0" stroke="#D5C09A" stroke-width="3"/>
      <text x="51" y="49" text-anchor="middle" font-family="KaiTi, STKaiti, serif" font-size="28" font-weight="800" fill="#4D4A43">将</text>
      <text x="51" y="90" text-anchor="middle" font-family="PingFang SC, Microsoft YaHei, Arial" font-size="13" font-weight="800" fill="#FFF1BD">归云</text>
      <text x="51" y="116" text-anchor="middle" font-family="DIN Alternate, Arial" font-size="26" font-weight="800" fill="#F4CD73">1492</text>
      <text x="51" y="142" text-anchor="middle" font-family="PingFang SC, Microsoft YaHei, Arial" font-size="12" fill="#BDB39A">28胜</text>
      <text x="51" y="170" text-anchor="middle" font-family="DIN Alternate, Arial" font-size="32" font-weight="900" fill="#D7D1C0">2</text>
    </g>
    <g transform="translate(256 52)">
      <rect x="0" y="48" width="102" height="118" rx="12" fill="#29352D"/>
      <circle cx="51" cy="38" r="28" fill="#C79244" stroke="#F5D390" stroke-width="3"/>
      <text x="51" y="49" text-anchor="middle" font-family="KaiTi, STKaiti, serif" font-size="28" font-weight="800" fill="#FFF0C8">车</text>
      <text x="51" y="90" text-anchor="middle" font-family="PingFang SC, Microsoft YaHei, Arial" font-size="13" font-weight="800" fill="#FFF1BD">青松</text>
      <text x="51" y="116" text-anchor="middle" font-family="DIN Alternate, Arial" font-size="26" font-weight="800" fill="#F4CD73">1436</text>
      <text x="51" y="142" text-anchor="middle" font-family="PingFang SC, Microsoft YaHei, Arial" font-size="12" fill="#BDB39A">24胜</text>
    </g>
  </g>

  <g transform="translate(24 474)">
    <rect width="382" height="44" rx="8" fill="#F9E9B8" fill-opacity=".72"/>
    <text x="28" y="28" font-family="PingFang SC, Microsoft YaHei, Arial" font-size="15" font-weight="800" fill="#A6422D">全部</text>
    <text x="126" y="28" font-family="PingFang SC, Microsoft YaHei, Arial" font-size="15" font-weight="800" fill="#816247">好友</text>
    <text x="224" y="28" font-family="PingFang SC, Microsoft YaHei, Arial" font-size="15" font-weight="800" fill="#816247">本周</text>
    <text x="322" y="28" font-family="PingFang SC, Microsoft YaHei, Arial" font-size="15" font-weight="800" fill="#816247">总榜</text>
    <rect x="23" y="40" width="34" height="3" rx="1.5" fill="#A6422D"/>
  </g>

  <g transform="translate(24 536)" font-family="PingFang SC, Microsoft YaHei, Arial">
    <g>
      <rect width="382" height="74" fill="#FBEFC8" stroke="#E3CC97" stroke-width="3"/>
      <text x="22" y="45" font-size="22" font-weight="900" fill="#A6422D">4</text>
      <circle cx="68" cy="37" r="21" fill="#A26A34" stroke="#E8C679" stroke-width="3"/>
      <text x="68" y="46" text-anchor="middle" font-family="KaiTi, STKaiti, serif" font-size="23" font-weight="800" fill="#FFF2C6">马</text>
      <text x="104" y="32" font-size="18" font-weight="800" fill="#1E2520">测试a</text>
      <text x="104" y="56" font-size="13" fill="#9C8268">21胜 · 胜率 72%</text>
      <text x="314" y="45" text-anchor="middle" font-family="DIN Alternate, Arial" font-size="26" font-weight="800" fill="#A6422D">1368</text>
    </g>
    <g transform="translate(0 74)">
      <rect width="382" height="74" fill="#FBEFC8" stroke="#E3CC97" stroke-width="3" stroke-top-width="0"/>
      <text x="22" y="45" font-size="22" font-weight="900" fill="#8B7358">5</text>
      <circle cx="68" cy="37" r="21" fill="#EFE4C9" stroke="#BDB39A" stroke-width="3"/>
      <text x="68" y="46" text-anchor="middle" font-family="KaiTi, STKaiti, serif" font-size="23" font-weight="800" fill="#303730">炮</text>
      <text x="104" y="32" font-size="18" font-weight="800" fill="#1E2520">北辰</text>
      <text x="104" y="56" font-size="13" fill="#9C8268">19胜 · 胜率 69%</text>
      <text x="314" y="45" text-anchor="middle" font-family="DIN Alternate, Arial" font-size="26" font-weight="800" fill="#8B7358">1320</text>
    </g>
    <g transform="translate(0 148)">
      <rect width="382" height="74" fill="#FBEFC8" stroke="#E3CC97" stroke-width="3"/>
      <text x="22" y="45" font-size="22" font-weight="900" fill="#8B7358">6</text>
      <circle cx="68" cy="37" r="21" fill="#A26A34" stroke="#E8C679" stroke-width="3"/>
      <text x="68" y="46" text-anchor="middle" font-family="KaiTi, STKaiti, serif" font-size="23" font-weight="800" fill="#FFF2C6">象</text>
      <text x="104" y="32" font-size="18" font-weight="800" fill="#1E2520">明月</text>
      <text x="104" y="56" font-size="13" fill="#9C8268">18胜 · 胜率 66%</text>
      <text x="314" y="45" text-anchor="middle" font-family="DIN Alternate, Arial" font-size="26" font-weight="800" fill="#8B7358">1296</text>
    </g>
    <g transform="translate(0 222)">
      <rect width="382" height="74" fill="#FBEFC8" stroke="#E3CC97" stroke-width="3"/>
      <text x="22" y="45" font-size="22" font-weight="900" fill="#8B7358">7</text>
      <circle cx="68" cy="37" r="21" fill="#EFE4C9" stroke="#BDB39A" stroke-width="3"/>
      <text x="68" y="46" text-anchor="middle" font-family="KaiTi, STKaiti, serif" font-size="23" font-weight="800" fill="#303730">士</text>
      <text x="104" y="32" font-size="18" font-weight="800" fill="#1E2520">长河</text>
      <text x="104" y="56" font-size="13" fill="#9C8268">16胜 · 胜率 61%</text>
      <text x="314" y="45" text-anchor="middle" font-family="DIN Alternate, Arial" font-size="26" font-weight="800" fill="#8B7358">1240</text>
    </g>
  </g>

  <rect x="150" y="902" width="130" height="5" rx="2.5" fill="#8B7358" opacity=".36"/>
</svg>
